<svg xmlns="http://www.w3.org/2000/svg" width="96" height="96" viewBox="-101 53 96 96" enable-background="new -101 53 96 96"><path d="M-53 85c-8.8 0-16 7.2-16 16s7.2 16 16 16 16-7.2 16-16-7.2-16-16-16zm0 24c-4.4 0-8-3.6-8-8s3.6-8 8-8 8 3.6 8 8-3.6 8-8 8zM-53 85c-8.8 0-16 7.2-16 16s7.2 16 16 16 16-7.2 16-16-7.2-16-16-16zm0 24c-4.4 0-8-3.6-8-8s3.6-8 8-8 8 3.6 8 8-3.6 8-8 8zM-53 65c-32 0-48 36.2-48 36.2S-85 137-53 137s48-36 48-36-16-36-48-36zm0 64c-21.1 0-34.5-19.9-39-27.9 4.5-8 17.9-28.1 39-28.1 21.2 0 34.5 20 39 28-4.5 8-17.9 28-39 28zM-53 65c-32 0-48 36.2-48 36.2S-85 137-53 137s48-36 48-36-16-36-48-36zm0 64c-21.1 0-34.5-19.9-39-27.9 4.5-8 17.9-28.1 39-28.1 21.2 0 34.5 20 39 28-4.5 8-17.9 28-39 28z"/></svg>