<?xml version="1.0" encoding="utf-8"?>
<!-- Generator: Adobe Illustrator 18.1.0, SVG Export Plug-In . SVG Version: 6.00 Build 0)  -->
<!DOCTYPE svg PUBLIC "-//W3C//DTD SVG 1.1//EN" "http://www.w3.org/Graphics/SVG/1.1/DTD/svg11.dtd">
<svg version="1.1" id="Layer_1" xmlns="http://www.w3.org/2000/svg" xmlns:xlink="http://www.w3.org/1999/xlink" x="0px" y="0px"
	 width="96px" height="96px" viewBox="-101 53 96 96" enable-background="new -101 53 96 96" xml:space="preserve">
<g>
	<g>
		<path d="M-53,85c-8.8,0-16,7.2-16,16s7.2,16,16,16s16-7.2,16-16S-44.2,85-53,85z M-53,109c-4.4,0-8-3.6-8-8s3.6-8,8-8s8,3.6,8,8
			S-48.6,109-53,109z"/>
		<path d="M-53,85c-8.8,0-16,7.2-16,16s7.2,16,16,16s16-7.2,16-16S-44.2,85-53,85z M-53,109c-4.4,0-8-3.6-8-8s3.6-8,8-8s8,3.6,8,8
			S-48.6,109-53,109z"/>
	</g>
	<g>
		<path d="M-53,65c-32,0-48,36.2-48,36.2S-85,137-53,137s48-36,48-36S-21,65-53,65z M-53,129c-21.1,0-34.5-19.9-39-27.9
			c4.5-8,17.9-28.1,39-28.1c21.2,0,34.5,20,39,28C-18.5,109-31.9,129-53,129z"/>
		<path d="M-53,65c-32,0-48,36.2-48,36.2S-85,137-53,137s48-36,48-36S-21,65-53,65z M-53,129c-21.1,0-34.5-19.9-39-27.9
			c4.5-8,17.9-28.1,39-28.1c21.2,0,34.5,20,39,28C-18.5,109-31.9,129-53,129z"/>
	</g>
</g>
</svg>
