<?xml version="1.0" encoding="utf-8"?>
<!-- Generator: Adobe Illustrator 18.1.0, SVG Export Plug-In . SVG Version: 6.00 Build 0)  -->
<!DOCTYPE svg PUBLIC "-//W3C//DTD SVG 1.1//EN" "http://www.w3.org/Graphics/SVG/1.1/DTD/svg11.dtd">
<svg version="1.1" id="Ebene_1" xmlns="http://www.w3.org/2000/svg" xmlns:xlink="http://www.w3.org/1999/xlink" x="0px" y="0px"
	 width="96px" height="96px" viewBox="0 0 96 96" enable-background="new 0 0 96 96" xml:space="preserve">
<path d="M44.9,63.7c11.2,2.2,21-7.6,18.8-18.8c-1.2-6.3-6.3-11.3-12.6-12.6c-11.2-2.2-21,7.6-18.8,18.8
	C33.5,57.4,38.6,62.5,44.9,63.7z"/>
<path d="M48,12C16,12,0,48,0,48s16,36,48,36s48-36.2,48-36.2S80,12,48,12z M48,76C26.8,76,13.5,56,9,48c4.5-8,17.9-28,39-28
	s34.5,19.9,39,27.9C82.5,55.9,69.1,76,48,76z"/>
</svg>
