<?xml version="1.0" encoding="utf-8"?>
<!-- Generator: Adobe Illustrator 18.1.0, SVG Export Plug-In . SVG Version: 6.00 Build 0)  -->
<!DOCTYPE svg PUBLIC "-//W3C//DTD SVG 1.1//EN" "http://www.w3.org/Graphics/SVG/1.1/DTD/svg11.dtd">
<svg version="1.1" id="Layer_1" xmlns="http://www.w3.org/2000/svg" xmlns:xlink="http://www.w3.org/1999/xlink" x="0px" y="0px"
	 viewBox="14.5 0 71 100" enable-background="new 14.5 0 71 100" xml:space="preserve">
<path fill="#D15357" d="M49.9,0C30.3,0,14.5,15.8,14.5,35.2c0,19.1,32.4,62.2,33.8,64c0.4,0.5,1,0.8,1.7,0.8s1.2-0.3,1.7-0.8
	c1.4-1.8,33.8-44.7,33.8-64C85.3,15.8,69.5,0,49.9,0z M49.9,91.6c-6.7-9.2-29.3-41.1-29.3-56.5C20.6,18,32.8,5.9,49.9,5.9
	s29.3,12.2,29.3,29.3C79.2,50.7,56.6,82.5,49.9,91.6z"/>
<path fill="#D15357" d="M50,14.8c-11.7,0-21.2,9.5-21.2,21.2S38.3,57.2,50,57.2S71.2,47.7,71.2,36S61.7,14.8,50,14.8z M50,50.7
	c-8.1,0-14.7-6.6-14.7-14.7S41.9,21.3,50,21.3S64.7,27.9,64.7,36S58.1,50.7,50,50.7z"/>
</svg>
