<?xml version="1.0" encoding="UTF-8" standalone="no"?>
<!-- Generator: Adobe Illustrator 16.0.0, SVG Export Plug-In . SVG Version: 6.00 Build 0)  -->

<svg
   xmlns:dc="http://purl.org/dc/elements/1.1/"
   xmlns:cc="http://creativecommons.org/ns#"
   xmlns:rdf="http://www.w3.org/1999/02/22-rdf-syntax-ns#"
   xmlns:svg="http://www.w3.org/2000/svg"
   xmlns="http://www.w3.org/2000/svg"
   xmlns:xlink="http://www.w3.org/1999/xlink"
   version="1.1"
   id="level-1"
   x="0px"
   y="0px"
   width="795px"
   height="1245px"
   viewBox="0 0 795 1245"
   xml:space="preserve">

<style type="text/css">
   .svg-stairway-horz {fill:url(#pattern-stairway-horz-8); stroke:#414042; stroke-width:0.2; }
   .svg-stairway-vert {fill:url(#pattern-stairway-vert-8); stroke:#414042; stroke-width:0.2; }
</style>


<pattern id="pattern-stairway-vert-8" x="1" y="1" width="3" height="3" patternUnits="userSpaceOnUse">
     <rect x="0" y="0" width="3" height="1.5" class="svg-stairway-dark"/>
     <rect x="0" y="1.5" width="3" height="1.5" class="svg-stairway-bright"/>
 </pattern>

 <pattern id="pattern-stairway-horz-8" x="1" y="1" width="3" height="3" patternUnits="userSpaceOnUse">
     <rect x="0" y="0" width="1.5" height="3" class="svg-stairway-dark"/>
     <rect x="1.5" y="0" width="1.5" height="3" class="svg-stairway-bright"/>
 </pattern>

<g
   id="BACKGROUND">
	<polyline
   class="svg-background"
   points="184.225,901.333 84.333,902.465 84.333,774.425 84.333,42.994 154.32,43.896 154.799,37.206    155.987,36.482 225.433,36.482 549.014,34.83 548.125,47.195 613.333,47.195 646.08,46.5 682.667,47 682.667,55.862 682.5,773.646    682.667,773.646 682.667,975.333 680.454,975.654 680.367,1149 314.853,1149 314.82,1172 184.56,1172 184.14,900.545    141.24,900.545  "
   id="polyline57001" />
</g>
<g
   id="PLANTS">
   <polyline
   class="svg-plant-bg"
   points="419.19,238.832 416.46,161.732 594.06,161.732 592.38,827.672 201.36,833 196.56,191.552    386.82,242.492 352.38,242.492 352.38,45.392 383.46,142.832 386.82,153.212  "
   id="polyline57004" />
   <pattern
   id="SVGID_1_"
   xlink:href="#New_Pattern_Swatch_3"
   patternTransform="matrix(0.43 0 0 0.43 -4358.4775 -3419.3752)">
   </pattern>
   <path
   class="svg-plant"
   d="M368.04,722.012l-11.73,23.46c0,0-3.93,15.6-3.93,19.5s5.22,31.261,5.22,31.261s0,23.399,5.22,23.399   s13.02-11.76,15.6-11.76s15.6-23.4,15.6-23.4s2.64-15.601,2.64-19.5s-5.22-15.6-5.22-15.6l-15.6-23.46L368.04,722.012z"
   id="path57007" />
   <pattern
   id="SVGID_2_"
   xlink:href="#New_Pattern_Swatch_3"
   patternTransform="matrix(0.43 0 0 0.43 -4358.4775 -3419.3752)">
   </pattern>
   <path
   class="svg-plant"
   d="M420.96,722.972l-6.18,10.74l0,19.56c0,0-2.58,13.139-2.58,15.601s-2.64,23.4-2.64,23.4l-7.92,13.08   l8.58,12.18l12.36,2.1c0,0,5.22-14.022,5.22-15.66s-0.72-29.099-1.26-31.739s1.86-23.88,1.56-25.32s-3.78-18.84-3.78-18.84   L420.96,722.972z"
   id="path57010" />
   <pattern
   id="SVGID_3_"
   xlink:href="#New_Pattern_Swatch_3"
   patternTransform="matrix(0.43 0 0 0.43 -4358.4775 -3419.3752)">
   </pattern>
   <path
   class="svg-plant"
   d="M387.72,706.322l16.891-11.67l11.129-13.38c0,0,3.84-19.501,3.24-25.351s-0.6-17.55-0.6-17.55h-18.24h-21.48   l-9.78,7.8c0,0-7.92,4.44-6.54,6.12S375,675.333,375,675.333l3,19L387.72,706.322z"
   id="path57013" />
   <pattern
   id="SVGID_4_"
   xlink:href="#New_Pattern_Swatch_3"
   patternTransform="matrix(0.43 0 0 0.43 -4358.4775 -3419.3752)">
   </pattern>
   <path
   class="svg-plant"
   d="M339.36,708.271c2.64,0,18.24-7.8,18.24-7.8s5.16-6.128,2.58-7.8s-12.96-3.899-12.96-3.899l-13.02,3.899   l-6.51,10.021l6.51,5.579H339.36z"
   id="path57016" />
   <pattern
   id="SVGID_5_"
   xlink:href="#New_Pattern_Swatch_3"
   patternTransform="matrix(0.43 0 0 0.43 -4358.4775 -3419.3752)">
   </pattern>
   <path
   class="svg-plant"
   d="M316.68,690.812c0,0,10.44-0.061,10.44-3.96s5.16-7.8,5.16-7.8l7.86,0.06c0,0,5.22-3.959,5.22-7.859   s-2.22-12.6-3.72-14.1s-6.72-17.101-6.72-17.101l-7.23-12.899l-13.59-6.601l-11.73,2.641l-8.55,14.159l-10.92,20.041   c0,0-4.08,17.399-2.04,19.56s18.48-3,18.48-3l8.82,9.06L316.68,690.812z"
   id="path57019" />
   <pattern
   id="SVGID_6_"
   xlink:href="#New_Pattern_Swatch_3"
   patternTransform="matrix(0.43 0 0 0.43 -4358.4775 -3419.3752)">
   </pattern>
   <path
   class="svg-plant"
   d="M235.86,708.272l49.44-0.001l-5.16-7.8c0,0-15.66-3.9-18.24-7.8s-9.72-22.979-9.72-22.979l-8.52-8.221   l-10.38,11.7c0,0-7.56,17.879-8.22,19.14s-2.22,10.099-2.22,12.061s13.02,4.62,13.02,4.62V708.272z"
   id="path57022" />
   <pattern
   id="SVGID_7_"
   xlink:href="#New_Pattern_Swatch_3"
   patternTransform="matrix(0.43 0 0 0.43 -4358.4775 -3419.3752)">
   </pattern>
   <path
   class="svg-plant"
   d="M263.88,624.452l-5.22,11.7c0,0-19.141,13.486-21.3,13.5s-17.76-6.441-19.05-7.38s-5.217-11.236-3.93-13.921   s11.58-22.979,11.58-22.979s6.187,5.798,6.78,7.38s10.954,6.219,11.94,6.9s16.56,0.899,16.56,0.899L263.88,624.452z"
   id="path57025" />
   <pattern
   id="SVGID_8_"
   xlink:href="#New_Pattern_Swatch_3"
   patternTransform="matrix(0.43 0 0 0.43 -4358.4775 -3419.3752)">
   </pattern>
   <path
   class="svg-plant"
   d="M205.8,611.792c0,0,9.311-6.058,10.38-7.8s5.22-6.857,5.22-7.8s1.681-19.339,0.84-20.641   s-3.42-23.16-3.42-23.16l-0.96-38.82l0.96-28.32l3.42-28.5c0,0-7.565-7.277-8.103-7.14s-9.657,3.66-9.657,3.66l-1.32,68.76   L205.8,611.792z"
   id="path57028" />
   <pattern
   id="SVGID_9_"
   xlink:href="#New_Pattern_Swatch_3"
   patternTransform="matrix(0.43 0 0 0.43 -4358.4775 -3419.3752)">
   </pattern>
   <path
   class="svg-plant"
   d="M253.17,448.142c-0.17-1.642,1.63-15.888,2.73-16.89s7.67-7.708,10.26-6.48s38.779,18.021,39.06,18.75   s8.92,11.37,5.85,12.03s-34.259,0.66-35.79,0.66s-17.33,2.422-18.18,1.98S253.17,448.142,253.17,448.142z"
   id="path57031" />
   <pattern
   id="SVGID_10_"
   xlink:href="#New_Pattern_Swatch_3"
   patternTransform="matrix(0.43 0 0 0.43 -4358.4775 -3419.3752)">
   </pattern>
   <path
   class="svg-plant"
   d="M301.32,427.952c0.93,1.298,24.09,11.37,24.09,11.37l15.6,9.09c0,0,3.93-17.168,3.93-18.54   s-1.439-43.429-0.72-44.4s-0.6-15.18-0.6-15.18s-6.65,3-7.26,3.96s-21.56,26.672-22.71,27.96s-11.67,11.28-12.33,13.62   S301.32,427.952,301.32,427.952z"
   id="path57034" />
   <pattern
   id="SVGID_11_"
   xlink:href="#New_Pattern_Swatch_3"
   patternTransform="matrix(0.43 0 0 0.43 -4358.4775 -3419.3752)">
   </pattern>
   <path
   class="svg-plant"
   d="M285.03,402.002c0,0,7.621-10.048,7.17-11.4s-0.66-19.828,3.24-16.59s13.68,15.54,13.68,15.54l15-18.54   c0,0-3.96-10.68-11.76-10.68s-29.54-0.06-31.2-0.06s-20.82,0.06-20.82,7.86S281.56,402.254,285.03,402.002z"
   id="path57037" />
   <pattern
   id="SVGID_12_"
   xlink:href="#New_Pattern_Swatch_3"
   patternTransform="matrix(0.43 0 0 0.43 -4358.4775 -3419.3752)">
   </pattern>
   <path
   class="svg-plant"
   d="M348.84,363.512c2.58-0.012,22.6-0.208,23.88-1.86s6.189-17.878,3.36-19.14s-23.04-4.05-23.04-4.05   l-6.51,13.02L348.84,363.512z"
   id="path57040" />
   <pattern
   id="SVGID_13_"
   xlink:href="#New_Pattern_Swatch_3"
   patternTransform="matrix(0.43 0 0 0.43 -4358.4775 -3419.3752)">
   </pattern>
   <path
   class="svg-plant"
   d="M389.76,356.792l9.36,7.8c0,0,25.979,1.092,25.979,0s-9.51-20.479-10.68-22.41s-14.92-17.308-16.92-17.37   s-29.537,2.889-13.32,21.9C388.833,352.167,389.76,356.792,389.76,356.792z"
   id="path57043" />
   <pattern
   id="SVGID_14_"
   xlink:href="#New_Pattern_Swatch_3"
   patternTransform="matrix(0.43 0 0 0.43 -4358.4775 -3419.3752)">
   </pattern>
   <path
   class="svg-plant"
   d="M416.46,334.052c0.79,0.948,7.229,6.36,8.76,6.36s6.53-16.678,6.53-19.17s-1-45.238-1-46.74   s-5.53-10.649-5.53-9.45s-9.54,20.94-9.54,20.94l-9.9,23.189L416.46,334.052z"
   id="path57046" />
   <pattern
   id="SVGID_15_"
   xlink:href="#New_Pattern_Swatch_3"
   patternTransform="matrix(0.43 0 0 0.43 -4358.4775 -3419.3752)">
   </pattern>
   <polygon
   class="svg-plant"
   points="346.74,326.672 366.48,306.632 358.5,292.472 347.52,278.282 341.76,288.512 341.25,321.242  "
   id="polygon57049" />
   <pattern
   id="SVGID_16_"
   xlink:href="#New_Pattern_Swatch_3"
   patternTransform="matrix(0.43 0 0 0.43 -4358.4775 -3419.3752)">
   </pattern>
   <polygon
   class="svg-plant"
   points="333.51,248.192 400.89,249.422 392.1,270.932 392.79,285.242 380.88,285.512 351.96,267.032  "
   id="polygon57052" />
   <pattern
   id="SVGID_17_"
   xlink:href="#New_Pattern_Swatch_3"
   patternTransform="matrix(0.43 0 0 0.43 -4358.4775 -3419.3752)">
   </pattern>
   <polygon
   class="svg-plant"
   points="228.93,288.512 222.48,310.712 219.18,355 232.62,350.552 232.68,316.832  "
   id="polygon57055" />
   <pattern
   id="SVGID_18_"
   xlink:href="#New_Pattern_Swatch_3"
   patternTransform="matrix(0.43 0 0 0.43 -4358.4775 -3419.3752)">
   </pattern>
   <path
   class="svg-plant"
   d="M211.02,295.712l12.06-9.69c0,0-6.47-8.348-6.9-9.81s-10.89-25.35-10.89-25.35s0.51,17.55,0.51,21.45   s2.58,23.4,2.58,23.4H211.02z"
   id="path57058" />
   <pattern
   id="SVGID_19_"
   xlink:href="#New_Pattern_Swatch_3"
   patternTransform="matrix(0.43 0 0 0.43 -4358.4775 -3419.3752)">
   </pattern>
   <path
   class="svg-plant"
   d="M223.53,373.982l-8.25,12.029c0,0,0,32.078,0,32.221s-6.785,7.401-5.22,8.459s17.04,8.623,18.24,9.84   s13.02,4.08,13.02,4.08l0.96-37.259v-26.19l-7.5-2.67L223.53,373.982z"
   id="path57061" />
   <pattern
   id="SVGID_20_"
   xlink:href="#New_Pattern_Swatch_3"
   patternTransform="matrix(0.43 0 0 0.43 -4358.4775 -3419.3752)">
   </pattern>
   <path
   class="svg-plant"
   d="M541.86,177.872l-6.42,26.58l9.06,39.78l25.98-19.5c0,0-5.16-17.888-5.16-19.56s-10.44-19.5-10.44-19.5   l-8.34-6.18L541.86,177.872z"
   id="path57064" />
   <pattern
   id="SVGID_21_"
   xlink:href="#New_Pattern_Swatch_3"
   patternTransform="matrix(0.43 0 0 0.43 -4358.4775 -3419.3752)">
   </pattern>
   <path
   class="svg-plant"
   d="M571.021,181.532l13.979-4.74l6.061,0.36l0.959,47.52c0,0-8.1-2.688-8.31-3.18s-5.81-16.274-6.51-17.55   s-8.25-13.351-8.25-13.351L571.021,181.532z"
   id="path57067" />
   <pattern
   id="SVGID_22_"
   xlink:href="#New_Pattern_Swatch_3"
   patternTransform="matrix(0.43 0 0 0.43 -4358.4775 -3419.3752)">
   </pattern>
   <path
   class="svg-plant"
   d="M572.04,231.152l-0.191,0.153l-21.229,16.887c0,0-2.794,8.378-2.04,10.26s15,27.87,15,27.87   s11.1-8.539,11.76-9.181s9.66-20.64,9.66-20.64l-3.87-18.87L572.04,231.152z"
   id="path57070" />
   <pattern
   id="SVGID_23_"
   xlink:href="#New_Pattern_Swatch_3"
   patternTransform="matrix(0.43 0 0 0.43 -4358.4775 -3419.3752)">
   </pattern>
   <path
   class="svg-plant"
   d="M539.28,281.522l-1.78,47.91l4.36,9.81l2.25,21.12c0,0,18.99,4.169,20.55,4.29s19.74-0.667,19.74-1.41   s-3.84-10.572-3.87-11.49s-13.92-8.04-13.92-8.04l-7.591-9.21c0,0,10.02-7.985,10.74-8.91s3.119-11.219,1.92-13.02   s-9-15.508-10.29-17.04s-14.85-13.38-14.85-13.38L539.28,281.522z"
   id="path57073" />
   <pattern
   id="SVGID_24_"
   xlink:href="#New_Pattern_Swatch_3"
   patternTransform="matrix(0.43 0 0 0.43 -4358.4775 -3419.3752)">
   </pattern>
   <path
   class="svg-plant"
   d="M569.88,655.652v154.229l-2.58,6.45l-26.04-0.6l1.23,8.25l14.37,2.13l23.159-4.445   c0,0,9.841-22.009,8.971-23.004s-1.856-26.518-1.59-28.59s-6.45-28.561-6.45-28.561s4.77-16.74,4.649-18.12   s-8.91-22.379-8.91-22.379l4.921-18.541l-3.931-19.02L569.88,655.652z"
   id="path57076" />
   <pattern
   id="SVGID_25_"
   xlink:href="#New_Pattern_Swatch_3"
   patternTransform="matrix(0.43 0 0 0.43 -4358.4775 -3419.3752)">
   </pattern>
   <path
   class="svg-plant"
   d="M238.32,815.732c0,0,51.6-1.74,52.26-0.87s39.84,2.82,39.84,2.82s-7.811,7.532-9.24,7.8s-39.8,0.232-40.74,0   s-38.7-2.49-38.7-2.49L238.32,815.732z"
   id="path57079" />
   <pattern
   id="SVGID_26_"
   xlink:href="#New_Pattern_Swatch_3"
   patternTransform="matrix(0.43 0 0 0.43 -4358.4775 -3419.3752)">
   </pattern>
   <polyline
   class="svg-plant"
   points="207.24,803.972 212.46,815.731 221.52,800.072 221.52,776.672 212.46,784.472 208.98,794    205.8,803.972  "
   id="polyline57082" />
</g>
<g
   id="PATHS">
	<polyline
   class="svg-floor"
   points="502.38,87.332 502.38,78.092 507.84,78.092 507.84,50.612 544.62,50.612 544.62,78.092    550.08,78.092 550.08,87.332 544.62,87.332  "
   id="polyline57085" />
	<polyline
   class="svg-floor"
   points="592.8,367.052 636.66,367.052 636.72,376.292 613.62,376.292 613.62,410.372 597.36,410.372    597.36,376.292 592.8,376.292  "
   id="polyline57087" />
	<polyline
   class="svg-floor"
   points="395.64,234.872 395.64,177.452 389.76,177.452 389.76,161.732 395.82,164.432 414.48,172.712    414.48,234.872  "
   id="polyline57089" />
	<polyline
   class="svg-floor"
   points="613.62,701.552 613.62,737.912 597.36,737.912 597.36,701.552 592.86,701.552 592.86,692.492    636.66,692.313 636.66,701.672  "
   id="polyline57091" />
	<polyline
   class="svg-floor"
   points="158.16,60.032 185.64,60.032 185.64,59.792 194.94,59.792 194.94,84.752 194.88,86.372    196.56,86.372 196.5,91.892 200.4,91.892 200.34,101.072 196.56,101.072 196.56,106.532 183.78,106.532 183.78,84.752    152.34,84.752 152.34,75.512 158.16,75.512  "
   id="polyline57093" />
	<rect
   x="173.28"
   y="46.712"
   class="svg-floor"
   width="11.1"
   height="11.7"
   id="rect57095" />
	<polyline
   class="svg-floor"
   points="152.76,237.932 152.7,228.752 180.6,228.812 180.6,195.812 196.86,195.812 196.86,228.812    201.54,228.872 201.24,232.412 201.42,232.472 201.48,237.992  "
   id="polyline57097" />
	<polyline
   class="svg-floor"
   points="152.7,400.592 152.7,391.412 201.24,391.412 201.24,400.652 196.86,400.652 196.86,429.332    180.72,429.332 180.72,400.712  "
   id="polyline57099" />
	<rect
   x="166.14"
   y="509.912"
   class="svg-floor"
   width="21.36"
   height="16.26"
   id="rect57101" />
	<polyline
   class="svg-floor"
   points="180.6,691.712 180.6,660.872 152.76,660.872 152.76,651.692 201.36,651.692 201.36,660.872    196.86,660.872 196.86,691.712  "
   id="polyline57103" />
	<polyline
   class="svg-floor"
   points="192.36,915.092 192.36,895.172 231.72,895.172 231.72,904.292 230.28,904.292 230.28,915.092  "
   id="polyline57105" />
	<polyline
   class="svg-floor"
   points="232.26,912.632 232.26,891.212 234.36,891.212 234.36,888.332 245.34,888.332 245.34,912.632  "
   id="polyline57107" />
	<polyline
   class="svg-floor"
   points="217.8,1156.352 217.74,1167.992 249.24,1167.992 249.24,1144.292 289.98,1144.292 289.98,1135.712    257.4,1135.712 257.4,1010.672 268.44,1010.672 268.44,1001.492 257.4,1001.792 257.4,960.752 268.44,960.752 268.44,946.652    257.46,946.772 257.4,890.792 246.18,891.032 246.18,933.092 225.18,932.972 225.18,942.752 246.18,942.752 246.18,962.972    225.18,962.852 225.18,981.332 246.18,981.332 246.18,1012.532 225.18,1012.532 225.3,1030.832 246.24,1030.772 246.18,1061.372    225.18,1061.372 225.18,1081.712 246.18,1081.532 246.18,1096.292 225.18,1096.292 225.18,1106.072 246.18,1106.072    246.18,1134.572 225.18,1134.332 225.18,1156.352  "
   id="polyline57109" />
	<rect
   x="259.02"
   y="1130.972"
   class="svg-floor"
   width="10.5"
   height="3.12"
   id="rect57111" />
	<polyline
   class="svg-floor"
   points="257.76,1087.772 257.76,1077.392 313.14,1077.392 313.2,1087.772  "
   id="polyline57113" />
	<rect
   x="280.8"
   y="1043.552"
   class="svg-floor"
   width="17.22"
   height="11.04"
   id="rect57115" />
	<polyline
   class="svg-floor"
   points="271.68,1074.092 271.68,1057.832 300.84,1057.832 300.84,1055.132 310.08,1055.132 310.08,1076.852    300.84,1076.852 300.84,1074.092  "
   id="polyline57117" />
	<rect
   x="281.46"
   y="1029.212"
   class="svg-floor"
   width="16.56"
   height="11.1"
   id="rect57119" />
	<rect
   x="281.46"
   y="1016.852"
   class="svg-floor"
   width="16.56"
   height="11.101"
   id="rect57121" />
	<polyline
   class="svg-floor"
   points="300.84,1012.292 300.84,1011.212 310.08,1011.212 310.08,1012.292 315.3,1012.292 315.3,1054.592    299.64,1054.592 299.64,1012.292  "
   id="polyline57123" />
	<rect
   x="271.68"
   y="966.632"
   class="svg-floor"
   width="10.74"
   height="11.7"
   id="rect57125" />
	<rect
   x="283.74"
   y="966.632"
   class="svg-floor"
   width="10.74"
   height="11.7"
   id="rect57127" />
	<rect
   x="295.74"
   y="966.632"
   class="svg-floor"
   width="10.74"
   height="11.7"
   id="rect57129" />
	<polyline
   class="svg-floor"
   points="268.98,946.832 271.68,946.832 271.68,944.852 315.3,944.852 315.3,946.832 318.36,946.832    318.36,960.752 315.3,960.752 315.3,965.012 271.68,965.012 271.68,960.752 268.98,960.752  "
   id="polyline57131" />
	<polyline
   class="svg-floor"
   points="271.68,944.372 271.68,931.712 302.46,931.712 302.46,907.652 284.52,907.652 284.52,931.712    271.68,931.712 271.68,895.052 315.3,895.052 315.3,944.372  "
   id="polyline57133" />
	<polyline
   class="svg-floor"
   points="318.84,980.912 319.2,980.912 319.2,979.052 349.74,979.052 349.74,980.912 349.8,980.912    349.8,1015.052 451.38,1015.112 451.26,979.712 478.92,979.532 478.92,1015.052 500.58,1015.052 500.52,1026.212 318.84,1026.212     "
   id="polyline57135" />
	<polyline
   class="svg-floor"
   points="501.12,1026.212 501.12,1015.052 643.02,1015.052 643.02,980.912 646.14,980.852 646.14,974.432    655.32,974.432 655.56,1015.052 655.56,1026.212  "
   id="polyline57137" />
	<polyline
   class="svg-floor"
   points="656.04,1014.152 656.04,1006.952 657.18,1006.892 657.18,998.372 666.42,998.372 666.42,1014.152     "
   id="polyline57139" />
	<rect
   x="657.18"
   y="958.952"
   class="svg-floor"
   width="16.261"
   height="38.04"
   id="rect57141" />
	<polyline
   class="svg-floor"
   points="656.04,957.692 656.04,950.372 657.18,950.372 657.18,941.012 664.32,941.012 664.32,941.792    666.42,941.792 666.42,957.692  "
   id="polyline57143" />
	<rect
   x="657.18"
   y="894.392"
   class="svg-floor"
   width="16.261"
   height="46.021"
   id="rect57145" />
	<polyline
   class="svg-floor"
   points="580.74,898.952 580.74,893.072 577.439,893.072 577.5,889.832 614.04,889.772 614.04,945.152    601.86,945.152 601.86,929.492 577.439,929.492 577.439,898.952  "
   id="polyline57147" />
	<polyline
   class="svg-floor"
   points="646.08,960.752 646.08,973.892 655.56,973.892 655.56,889.832 646.08,889.832 646.08,950.672    614.64,950.612 614.64,960.752  "
   id="polyline57149" />
	<polyline
   class="svg-floor"
   points="424.38,960.752 424.38,942.692 479.1,942.692 479.16,979.112 451.2,979.112 451.26,960.752    424.2,960.752  "
   id="polyline57151" />
	<polyline
   class="svg-floor"
   points="355.98,941.912 355.98,899.612 355.92,899.612 355.92,895.232 382.32,895.232 382.32,896.972    382.14,896.972 382.14,941.912  "
   id="polyline57153" />
	<polyline
   class="svg-floor"
   points="152.16,589.352 201.9,589.352 201.9,646.952 152.16,646.772  "
   id="polyline57155" />
	<polyline
   class="svg-floor"
   points="480,960.752 480,950.792 481.5,950.792 481.44,950.552 508.08,950.612 537.12,950.552    537.12,945.152 601.92,945.152 613.86,945.272 613.86,951.212 613.74,960.752 620.46,960.752  "
   id="polyline57157" />
	<polyline
   class="svg-floor"
   points="183.24,124.412 183.24,108.152 184.74,108.152 184.74,107.072 192,107.012 192.06,108.152    196.56,108.152 196.56,124.412  "
   id="polyline57159" />
	<polyline
   class="svg-floor"
   points="152.7,526.172 152.7,509.912 166.14,509.912 166.14,523.412 165.18,523.412 165.18,526.172  "
   id="polyline57161" />
	<polyline
   class="svg-floor"
   points="319.2,978.272 318.84,942.692 423.84,942.692 423.84,960.752 349.74,960.752 349.74,978.452  "
   id="polyline57163" />
	<polyline
   class="svg-floor"
   points="268.98,1010.672 268.98,1001.492 318.36,1001.432 318.36,1010.612  "
   id="polyline57165" />
	<polyline
   class="svg-floor"
   points="537.12,945.152 537.12,889.712 577.5,889.832 577.439,929.492 547.14,929.492 547.14,945.152  "
   id="polyline57167" />
	<rect
   x="152.16"
   y="434.012"
   class="svg-floor"
   width="49.74"
   height="17.76"
   id="rect57169" />
	<polyline class="svg-floor"
   points="152.16,354.212 152.16,307.772 201.78,307.772 201.9,354.212  " class="svg-floor"
   id="polyline57171" />
	<polyline
   class="svg-floor"
   points="185.64,59.792 185.64,32.072 194.94,32.072 194.94,35.072 200.4,35.072 200.4,44.312 194.94,44.312    194.94,59.792  "
   id="polyline57173" />
	<polyline
   points="316.56,1143.692 316.56,1080.392 680.4,1080.452 680.34,1143.692  " class="svg-background"
   id="polyline57175" />
	<polyline
   points="592.32,630.692 592.32,551.672 637.2,551.792 637.2,630.692  " class="svg-floor"
   id="polyline57177" />
	<rect
   x="592.38"
   y="436.772"
   class="svg-floor"
   width="44.64"
   height="80.04"
   id="rect57179" />
	<rect
   x="592.38"
   y="226.472"
   class="svg-floor"
   width="44.7"
   height="95.16"
   id="rect57181" />
</g>
<g id="ROOMS">
   <polyline points="515.16,48.932 515.16,50.072 507.84,50.072 507.84,32.072 544.62,32.072
      544.62,48.932  " class="svg-room" id="08.C18.1"/>
   <polyline points="502.56,144.452 502.56,98.132 532.38,98.132 532.439,88.832 546.24,88.652
      546.24,98.132 549.9,98.132 549.9,144.452  " class="svg-room" id="08.C17.1"/>
   <rect height="33.66" width="42.06" class="svg-room" y="192.212" x="594.24" id="08.A16.1"/>
   <polyline points="594.24,365.432 594.24,322.352 636.479,322.352 636.479,365.912 615.06,365.912
      615.06,365.432    " class="svg-room" id="08.A14.1"/>
   <polyline points="615.24,436.172 594.06,436.172 594.06,411.932 615.24,411.992 615.24,378.572
      623.82,378.452 623.88,377.072 636.479,377.132 636.479,436.172  " class="svg-room" id="08.A13.2"/>
   <rect height="33.6" width="41.34" class="svg-room" y="517.532" x="595.5" id="08.A11.1"/>
   <polyline points="616.08,690.152 616.08,690.692 594.06,690.692 594.06,631.412 636.479,631.412
      636.479,690.152   " class="svg-room" id="08.A08.1"/>
   <polyline points="594.06,746.252 594.06,739.532 615.24,739.532 615.24,702.392 635.521,702.392
      636.479,702.332 636.479,746.252  " class="svg-room" id="polyline58715"/>
   <polyline points="480.42,632.852 480.42,542.252 476.52,542.252 476.52,473.312 503.28,473.312
      503.28,632.852    " class="svg-room" id="08.C10.2"/>
   <polyline points="504.6,632.852 504.6,587.672 549.18,587.672 549.18,534.692 577.62,534.692
      577.62,632.852    " class="svg-room" id="08.C10.1"/>
   <rect height="61.198" width="28.44" class="svg-room" y="472.772" x="549.18" id="08.B11.2"/>
   <rect height="101.938" width="38.94" class="svg-room" y="370.652" x="350.4" id="08.E13.1"/>
   <polyline points="350.4,632.852 350.4,540.692 374.82,540.692 374.94,632.852   " class="svg-room" id="08.D10.1"/>
   <rect height="38.1" width="25.98" class="svg-room" y="86.192" x="156.54" id="08.H18.2"/>
   <rect height="26.04" width="46.92" class="svg-room" y="144.932" x="153.12" id="08.H17.1"/>
   <polyline points="156.54,141.032 156.54,126.032 184.14,126.032 184.14,124.952 191.16,124.952
      191.16,126.032 196.44,126.032 196.44,141.032    " class="svg-room" id="08.H18.1"/>
   <rect height="35.7" width="26.1" class="svg-room" y="192.272" x="152.88" id="08.H16.2"/>
   <polyline points="152.88,238.832 178.98,238.832 178.98,239.672 200.22,239.672 200.22,281.612
      152.88,281.792    " class="svg-room" id="08.H15.1"/>
   <polyline points="152.88,390.632 152.88,355.412 200.22,355.412 200.22,389.792 178.98,389.792
      178.98,390.632    " class="svg-room" id="08.H13.1"/>
   <polyline points="152.88,432.632 152.88,401.492 170.34,401.492 170.34,402.872 178.98,402.872
      178.98,432.632    " class="svg-room" id="08.H13.2"/>
   <rect height="36.898" width="47.34" class="svg-room" y="452.492" x="152.88" id="08.H12.1"/>
   <polyline points="158.82,588.632 158.82,585.692 156.54,585.692 156.54,571.532 196.56,571.532
      196.56,588.632    " class="svg-room" id="08.H10.1"/>
   <rect height="16.14" width="40.02" class="svg-room" y="492.032" x="156.54" id="08.H11.1"/>
   <polyline points="196.56,527.792 196.56,568.892 156.54,568.892 156.54,527.792 188.76,527.792
      188.76,508.292 196.56,508.172    " class="svg-room" id="08.H11.2"/>
   <polyline points="178.98,663.092 178.98,693.392 200.22,693.392 200.22,762.512 152.88,762.512
      152.88,661.712 170.34,661.712 170.4,663.092  " class="svg-room" id="08.H08.1"/>
   <polyline points="185.76,942.392 185.82,917.192 231.12,917.192 231.12,931.832 224.04,931.832
      224.04,942.392    " class="svg-room" id="09.G05.3"/>
   <rect height="18.603" width="13.08" class="svg-room" y="913.472" x="232.26" id="09.G05.7"/>
   <polyline points="185.82,970.712 185.76,943.532 224.04,943.532 224.04,970.772    " class="svg-room" id="09.G05.2"/>
   <polyline points="185.82,999.932 224.34,999.752 224.34,1022.313 185.76,1022.313  " class="svg-room" id="polyline58757"/>
   <polyline points="185.76,1096.472 224.04,1096.472 224.04,1119.752 185.82,1119.752   " class="svg-room" id="polyline58759"/>
   <polyline points="185.82,1167.932 185.76,1145.192 224.04,1145.192 224.04,1155.212
      216.66,1155.212 216.66,1167.992  " class="svg-room" id="polyline58761"/>
   <polyline points="249.96,1167.992 250.08,1145.132 281.88,1145.132 281.7,1167.932    " class="svg-room" id="polyline58763"/>
   <rect height="19.021" width="43.62" class="svg-room" y="981.632" x="271.68" id="09.F04.4"/>
   <polyline points="318.84,1077.812 318.84,1049.612 342.96,1049.552 342.96,1040.132
      353.16,1040.132 353.16,1049.552 349.44,1049.552 349.44,1064.552 353.22,1064.552 353.22,1077.812    " class="svg-room" id="polyline58767"/>
   <polyline points="354,1077.812 354,1027.052 381.3,1027.052 381.42,1077.872    " class="svg-room" id="polyline58769"/>
   <polyline points="382.02,1077.812 382.02,1064.552 385.86,1064.552 385.86,1049.552
      382.02,1049.552 382.14,1027.052 416.46,1027.052 416.46,1049.552 414.48,1049.552 414.48,1064.552 416.34,1064.552
      416.34,1077.812   " class="svg-room" id="polyline58771"/>
   <polyline points="452.52,1077.812 452.52,1044.272 466.38,1044.272 466.38,1027.052
      479.58,1027.052 479.58,1077.812  " class="svg-room" id="polyline58773"/>
   <rect height="16.44" width="34.2" class="svg-room" y="1026.932" x="431.88" id="rect58775"/>
   <polyline points="480.54,1077.812 480.54,1064.552 483.12,1064.552 483.12,1049.552
      480.54,1049.552 480.54,1027.052 500.22,1027.052 500.22,1044.212 515.04,1044.212 514.979,1049.552 512.4,1049.552
      512.4,1064.552 514.979,1064.552 514.979,1077.812   " class="svg-room" id="polyline58777"/>
   <polyline points="480,1013.972 480.06,980.912 483.12,980.912 483.12,963.992 512.4,963.992
      512.4,980.912 513.479,980.912 513.479,1013.972  " class="svg-room" id="polyline58779"/>
   <polyline points="515.82,1077.812 515.82,1044.212 527.88,1044.212 527.88,1027.052
      543.36,1027.052 543.36,1077.812  " class="svg-room" id="polyline58781"/>
   <rect height="50.76" width="34.32" class="svg-room" y="1027.052" x="607.56" id="rect58783"/>
   <polyline points="642.96,1077.812 642.96,1064.552 646.14,1064.552 646.14,1049.492
      642.66,1049.552 642.66,1027.052 655.56,1027.052 655.56,1032.212 673.44,1032.212 673.44,1064.552 681.06,1064.552
      681.06,1077.812   " class="svg-room" id="polyline58785"/>
   <polyline points="571.021,1014.272 571.62,1014.272 571.62,978.512 577.44,978.512 577.44,980.912
      580.74,980.912 580.74,978.512 610.021,978.512 610.021,980.912 609.84,980.912 609.84,1014.272    " class="svg-room" id="09.B04.3"/>
   <polyline points="610.8,1014.272 610.8,980.912 613.26,980.912 613.26,977.972 642.18,977.972
      642.18,1005.992 640.86,1005.992 640.86,1014.272    " class="svg-room" id="09.A04.2"/>
   <rect height="11.7" width="28.92" class="svg-room" y="961.592" x="613.26" id="rect58791"/>
   <rect height="13.5" width="29.277" class="svg-room" y="964.172" x="580.74" id="09.B05.6"/>
   <polyline points="656.34,1017.992 673.44,1017.992 673.38,1031.432 665.76,1031.372
      665.76,1030.412 656.34,1030.412  " class="svg-room" id="polyline58795"/>
   <rect height="13.683" width="39.3" class="svg-room" y="930.512" x="561.78" id="09.B06.4"/>
   <rect height="24.78" width="30.3" class="svg-room" y="924.992" x="615" id="Gang"/>
   <polyline points="614.88,890.313 642.18,890.313 642.18,898.952 645.24,898.952 645.24,924.032
      614.94,924.032    " class="svg-room" id="09.A05.4"/>
   <rect height="37.44" width="27.063" class="svg-room" y="889.712" x="509.22" id="09.C05.2"/>
   <polyline points="424.44,890.372 480.24,890.252 480.18,893.072 479.46,893.132 479.46,895.292
      476.22,895.292 476.22,899.612 480.18,899.612 480.18,928.472 476.28,928.472 476.28,941.792 424.38,941.912    " class="svg-room" id="09.D05.2"/>
   <rect height="51.48" width="40.86" class="svg-room" y="890.252" x="382.8" id="09.E05.2"/>
   <rect height="23.221" width="12.96" class="svg-room" y="1088.552" x="277.02" id="rect58809"/>
   <polyline points="258.24,1108.232 258,1088.372 274.8,1088.552 274.86,1108.232    " class="svg-room" id="polyline58811"/>
   <polyline points="258.18,1130.312 258.12,1111.532 276.18,1111.353 276.24,1123.232
      268.92,1123.232 268.92,1125.512 270.42,1125.512 270.42,1130.312   " class="svg-room" id="polyline58813"/>
   <rect height="18.54" width="20.16" class="svg-room" y="943.532" x="225.18" id="rect58815"/>
   <rect height="12.897" width="20.16" class="svg-room" y="1082.492" x="225.18" id="rect58817"/>
   <polyline points="225.24,1106.972 245.16,1106.972 245.22,1119.932 225.24,1119.932   " class="svg-room" id="polyline58819"/>
   <polyline points="350.88,1014.272 350.88,980.912 355.92,980.912 355.92,977.972 382.32,977.972
      382.32,980.912 385.62,980.972 385.56,977.972 393.12,977.972 393.12,1014.272   " class="svg-room" id="09.E04.2"/>
   <polyline points="393.9,1014.272 393.78,978.212 411.66,978.212 411.66,1014.272   " class="svg-room" id="09.E04.3"/>
   <polyline points="414.96,1014.272 414.96,980.912 418.08,980.912 418.08,978.272 446.22,978.272
      446.22,999.152 436.26,998.972 436.2,999.932 437.88,999.932 437.82,1014.212    " class="svg-room" id="09.D04.4"/>
   <rect height="13.2" width="10.74" class="svg-room" y="1001.072" x="438.96" id="rect58827"/>
   <polyline points="558.42,1043.372 558.42,1027.172 592.56,1027.112 592.56,1043.492   " class="svg-room" id="polyline58829"/>
   <polyline points="523.2,935.972 523.021,936.032 523.021,928.052 536.521,927.992 536.521,949.772
      523.14,949.772    " class="svg-room" id="09.C05.3"/>
   <rect height="11.643" width="10.683" class="svg-room" y="938.132" x="509.1" id="rect58833"/>
   <polyline points="547.979,944.192 547.979,930.272 561.06,930.272 561,944.192  " class="svg-room" id="polyline58835"/>
   <polyline points="481.44,950.552 481.44,942.392 481.38,942.272 481.38,899.492 483.48,899.612
      483.48,893.072 480.78,893.072 480.78,890.372 494.4,890.372 494.4,889.892 508.32,889.892 508.26,950.612   " class="svg-room" id="09.C05.1"/>
   <polyline points="158.16,58.412 158.16,32.072 184.38,32.072 184.38,45.392 171.96,45.392
      171.96,58.412  " class="svg-room" id="08.C4"/>
   <polyline points="417.42,1077.932 417.42,1064.552 418.38,1064.552 418.38,1049.552
      417.18,1049.552 417.3,1027.052 431.1,1027.112 431.1,1044.212 451.74,1044.212 451.56,1077.812    " class="svg-room" id="polyline58841"/>
   <polyline points="544.14,1077.812 544.14,1064.552 548.82,1064.552 548.82,1049.552
      544.14,1049.552 544.14,1027.052 557.58,1027.052 557.58,1044.212 578.58,1044.212 578.58,1049.552 576.84,1049.552
      576.84,1064.552 578.58,1064.552 578.58,1077.812    " class="svg-room" id="polyline58843"/>
   <polyline points="579.42,1077.812 579.42,1064.552 581.4,1064.552 581.4,1049.552 579.42,1049.552
      579.42,1044.212 593.34,1044.212 593.34,1027.052 606.78,1027.052 606.78,1077.812  " class="svg-room" id="polyline58845"/>
   <rect height="23.397" width="38.28" class="svg-room" y="1023.152" x="185.76" id="rect58847"/>
   <rect height="23.22" width="38.28" class="svg-room" y="1072.112" x="185.76" id="rect58849"/>
   <polyline points="152.88,307.052 152.88,282.692 176.16,282.572 176.16,307.052    " class="svg-room" id="08.L4"/>
   <polyline points="185.76,1144.112 185.76,1120.892 224.04,1120.772 224.04,1144.112   " class="svg-room" id="polyline58853"/>
   <rect height="23.277" width="38.28" class="svg-room" y="1047.692" x="185.76" id="rect58855"/>
   <rect height="13.021" width="20.16" class="svg-room" y="1047.512" x="225.18" id="rect58857"/>
   <rect height="14.939" width="20.16" class="svg-room" y="1031.792" x="225.18" id="rect58859"/>
   <polyline points="185.76,998.792 185.76,971.732 224.34,971.612 224.34,999.032    " class="svg-room" id="09.G04.5"/>
   <polyline points="225.18,1011.752 225.3,982.772 225.18,982.172 245.34,982.172 245.34,1011.752
      " class="svg-room" id="09.G04.6"/>
   <polyline points="282.84,1167.992 282.66,1145.132 290.82,1145.132 290.82,1135.712
      313.2,1135.712 313.2,1167.992    " class="svg-room" id="polyline58865"/>
   <polyline points="278.64,1134.872 278.7,1123.232 277.02,1123.232 277.02,1112.612
      313.62,1112.492 313.2,1134.872   " class="svg-room" id="polyline58867"/>
   <polyline points="290.58,1111.772 290.52,1088.552 312.66,1088.552 313.62,1111.772   " class="svg-room" id="polyline58869"/>
   <polyline points="258.18,945.992 258.18,930.932 268.44,930.932 268.44,945.872    " class="svg-room" id="FM Lager"/>
   <polyline points="258.12,961.472 268.44,961.472 268.44,986.792 258.18,986.912    " class="svg-room" id="polyline58873"/>
   <polyline points="232.08,1133.732 231.96,1122.152 245.34,1122.152 245.34,1133.732   " class="svg-room" id="polyline58875"/>
   <rect height="13.021" width="10.26" class="svg-room" y="987.632" x="258.18" id="rect58877"/>
   <polyline points="318.84,1048.772 318.84,1027.112 353.16,1027.052 353.16,1039.353
      342.12,1039.353 342.12,1048.772  " class="svg-room" id="polyline58879"/>
   <polyline points="501,1043.372 501,1027.052 527.22,1027.052 527.04,1043.372   " class="svg-room" id="polyline58881"/>
   <rect height="7.857" width="10.74" class="svg-room" y="927.992" x="509.1" id="09.C05.5"/>
   <polygon points="478.47,632.791 376.5,632.852 377.16,538.125 359.28,538.003 359.04,475.168
      475.68,473.916 475.11,544.167 479.34,544.167    " class="svg-room" id="polygon58885"/>
   <rect height="195.24" width="128.52" class="svg-room" y="47.252" x="221.46" id="rect58887"/>
</g>
<g
   id="AIR">
	<rect
      class="svg-air"
   x="438.06"
   y="195.932"
   width="90.96"
   height="154.14"
   id="rect57373" />
	<rect
      class="svg-air"
   x="242.88"
   y="263.132"
   width="86.88"
   height="86.94"
   id="rect57375" />
	<rect
      class="svg-air"
   x="242.88"
   y="466.412"
   width="86.88"
   height="143.88"
   id="rect57377" />
	<rect
      class="svg-air"
   x="390.42"
   y="374.672"
   width="181.86"
   height="94.828"
   id="rect57379" />
	<rect
      class="svg-air"
   x="438.06"
   y="653.492"
   width="128.101"
   height="151.979"
   id="rect57381" />
	<rect
      class="svg-air"
   x="225.96"
   y="718.532"
   width="120.12"
   height="87.54"
   id="rect57383" />
	<rect
      class="st69 svg-air"
   x="318.6"
   y="895.353"
   width="36.72"
   height="45.899"
   id="rect57385" />
	<rect
      class="st69 svg-air"
   x="284.73"
   y="908.102"
   width="17.55"
   height="23.61"
   id="rect57387" />
	<rect
      class="st69 svg-air"
   x="515.28"
   y="978.512"
   width="55.62"
   height="35.221"
   id="rect57389" />
</g>
<g
   id="OUTSIDE">
	<polyline class="svg-outside"
   points="91.14,887.552 91.14,809.313 87.78,42.992 152.16,42.992 152.16,763.232 152.16,172.832    200.88,172.832 200.88,30.332 501.84,30.332 501.96,146.312 550.62,146.132 550.62,42.992 680.34,42.992 680.34,746.852    637.02,746.912 637.02,630.932 637.14,630.452 637.32,551.672 637.08,551.672 637.02,517.052 637.02,436.892 637.2,420.752    636.96,420.752 637.08,321.872 592.26,321.872 637.08,321.752 636.96,226.292 637.02,191.552 592.38,191.732 592.32,171.632    537.54,172.052 525.48,172.052 438.78,171.272 417.42,171.272 389.34,158.492 353.34,44.492 219.78,44.852 219.78,191.432    201.66,191.552 152.16,191.552 152.16,763.232 201.78,762.813 201.78,827.252 352.92,827.852 478.8,827.852 479.22,889.292    261.9,887.672  "
   id="polyline57392" />
	<polyline class="svg-outside"
   points="479.22,889.352 478.86,827.672 592.38,827.672 592.38,747.272 637.14,746.912 680.16,746.852    680.34,631.892 679.92,887.852  "
   id="polyline57394" />
</g>
<g id="STAIRWAYS_HORZ">
   <rect x="278.67" y="1066.532" class="svg-stairway-horz" width="20.88" height="7.199"/>
   <rect x="279.03" y="1058.372" class="svg-stairway-horz" width="20.58" height="7.381"/>
   <rect x="590.01" y="978.781" class="svg-stairway-horz" width="14.16" height="5.011"/>
   <rect x="564.42" y="978.781" class="svg-stairway-horz" width="6.84" height="5.011"/>
   <rect x="514.29" y="59.222" class="svg-stairway-horz" width="20.88" height="7.2"/>
   <rect x="514.65" y="51.062" class="svg-stairway-horz" width="20.58" height="7.38"/>
   <rect x="164.49" y="68.852" class="svg-stairway-horz" width="20.88" height="7.2"/>
   <rect x="164.85" y="60.692" class="svg-stairway-horz" width="20.58" height="7.38"/>
</g>
<g id="STAIRWAYS_VERT">
   <rect x="657.63" y="900.955" class="svg-stairway-vert" width="7.68" height="21.54"/>
   <rect x="665.97" y="900.955" class="svg-stairway-vert" width="7.68" height="21.54"/>
   <rect x="370.8" y="905.975" class="svg-stairway-vert" width="11.055" height="26.153"/>
   <rect x="356.033" y="905.975" class="svg-stairway-vert" width="11.055" height="26.153"/>
   <rect x="657.63" y="965.288" class="svg-stairway-vert" width="7.68" height="21.541"/>
   <rect x="571.62" y="984.602" class="svg-stairway-vert" width="5.64" height="22.471"/>
   <rect x="604.38" y="984.602" class="svg-stairway-vert" width="5.64" height="22.471"/>
   <rect x="665.97" y="965.288" class="svg-stairway-vert" width="7.68" height="21.541"/>
   <rect x="272.058" y="908.087" class="svg-stairway-vert" width="12.209" height="22.11"/>
   <rect x="302.853" y="907.907" class="svg-stairway-vert" width="12.07" height="22.17"/>
   <rect x="180.57" y="403.502" class="svg-stairway-vert" width="7.68" height="21.54"/>
   <rect x="188.91" y="403.502" class="svg-stairway-vert" width="7.68" height="21.54"/>
   <rect x="180.72" y="205.292" class="svg-stairway-vert" width="7.68" height="21.54"/>
   <rect x="189.06" y="205.292" class="svg-stairway-vert" width="7.68" height="21.54"/>
   <rect x="395.76" y="177.602" class="svg-stairway-vert" width="12.9" height="41.79"/>
   <rect x="180.81" y="664.352" class="svg-stairway-vert" width="7.68" height="21.54"/>
   <rect x="189.15" y="664.352" class="svg-stairway-vert" width="7.68" height="21.54"/>
   <rect x="597.391" y="381.482" class="svg-stairway-vert" width="7.68" height="21.54"/>
   <rect x="605.73" y="381.482" class="svg-stairway-vert" width="7.68" height="21.54"/>
   <rect x="595.351" y="711.182" class="svg-stairway-vert" width="7.68" height="21.54"/>
   <rect x="603.69" y="711.182" class="svg-stairway-vert" width="7.68" height="21.54"/>
</g>
<g
   id="LABELS">
	<g
   id="LABELS_GANGS">
		<g
   id="g57482">
			<path
   class="svg-label"
   d="M329.056,996.907h10.564v3.024h-3.394v8.5h-3.777v-8.5h-3.394V996.907z"
   id="path57484" />
		</g>
		<g
   id="g57486">
			<path
   class="svg-label"
   d="M584.66,105.098V93.574h5.059c3.713,0,6.018,1.729,6.018,5.522c0,4.338-2.417,6.002-6.114,6.002H584.66z      M588.438,102.409h0.801c1.76,0,2.721-0.929,2.721-3.105c0-2.401-0.784-3.041-2.801-3.041h-0.721V102.409z"
   id="path57488" />
			<path
   class="svg-label"
   d="M602.774,105.098l-0.159-0.896c-0.945,0.88-1.905,1.137-3.154,1.137c-1.584,0-2.992-0.785-2.992-2.529     c0-3.81,5.97-2.081,5.97-3.649c0-0.608-0.736-0.688-1.089-0.688c-0.464,0-1.088,0.096-1.168,0.816h-3.201     c0-1.776,1.264-2.817,4.578-2.817c3.969,0,4.209,1.473,4.209,3.473v3.922c0,0.48,0.016,0.72,0.448,1.072v0.16H602.774z      M602.438,101.385c-1.089,0.528-2.528,0.272-2.528,1.36c0,0.416,0.399,0.705,1.056,0.705     C602.135,103.45,602.519,102.537,602.438,101.385z"
   id="path57490" />
			<path
   class="svg-label"
   d="M613.254,99.912c-0.016-0.368-0.144-0.656-0.352-0.864c-0.208-0.224-0.496-0.336-0.864-0.336     c-1.249,0-1.456,1.297-1.456,2.289c0,1.265,0.479,2.097,1.456,2.097c0.864,0,1.2-0.592,1.296-1.249h3.361     c-0.144,1.265-0.72,2.145-1.568,2.705c-0.832,0.544-1.92,0.785-3.089,0.785c-2.705,0-4.786-1.521-4.786-4.354     c0-2.865,2.017-4.514,4.786-4.514c2.241,0,4.354,0.96,4.594,3.441H613.254z"
   id="path57492" />
			<path
   class="svg-label"
   d="M618.18,93.574h3.33v4.193c0.672-0.848,1.424-1.296,2.545-1.296c2.209,0,3.249,1.296,3.249,3.602v5.026     h-3.329v-4.434c0-0.833-0.225-1.569-1.169-1.569c-1.024,0-1.296,0.656-1.296,1.729v4.274h-3.33V93.574z"
   id="path57494" />
			<path
   class="svg-label"
   d="M628.596,102.457v-2.913h4.289v2.913H628.596z"
   id="path57496" />
			<path
   class="svg-label"
   d="M589.926,124.298c-4.369,0.24-4.897-0.064-4.897-2.961v-3.505h-1.185v-1.92h1.232v-2.609h3.281v2.609h1.601     v1.92h-1.601v3.042c0,0.768,0.112,1.041,1.041,1.041h0.527V124.298z"
   id="path57498" />
			<path
   class="svg-label"
   d="M594.549,120.857c0,0.992,0.768,1.648,1.648,1.648c0.528,0,1.008-0.24,1.248-0.736h3.186     c-0.576,2.081-2.689,2.769-4.642,2.769c-2.688,0-4.771-1.537-4.771-4.354c0-2.753,2.065-4.514,4.754-4.514     c3.105,0,4.979,2.145,4.931,5.186H594.549z M597.574,119.16c0-0.768-0.688-1.457-1.473-1.457c-0.992,0-1.553,0.56-1.553,1.457     H597.574z"
   id="path57500" />
			<path
   class="svg-label"
   d="M602.228,115.911h3.024v1.696h0.033c0.463-1.313,1.279-1.937,2.576-1.937c0.145,0,0.289,0.032,0.433,0.048     v3.33c-0.224-0.032-0.464-0.096-0.688-0.096c-1.36,0-2.049,0.64-2.049,2.449v2.897h-3.329V115.911z"
   id="path57502" />
			<path
   class="svg-label"
   d="M609.331,115.911h3.024v1.696h0.033c0.463-1.313,1.279-1.937,2.576-1.937c0.145,0,0.289,0.032,0.433,0.048     v3.33c-0.224-0.032-0.464-0.096-0.688-0.096c-1.36,0-2.049,0.64-2.049,2.449v2.897h-3.329V115.911z"
   id="path57504" />
			<path
   class="svg-label"
   d="M622.309,124.298l-0.16-0.896c-0.944,0.88-1.904,1.137-3.152,1.137c-1.586,0-2.994-0.785-2.994-2.529     c0-3.81,5.971-2.081,5.971-3.649c0-0.608-0.736-0.688-1.088-0.688c-0.465,0-1.089,0.096-1.169,0.816h-3.201     c0-1.776,1.265-2.817,4.577-2.817c3.971,0,4.21,1.473,4.21,3.473v3.922c0,0.48,0.017,0.72,0.448,1.072v0.16H622.309z      M621.973,120.585c-1.088,0.528-2.529,0.272-2.529,1.36c0,0.416,0.4,0.705,1.057,0.705     C621.668,122.65,622.053,121.737,621.973,120.585z"
   id="path57506" />
			<path
   class="svg-label"
   d="M629.971,121.689c0,0.336,0.129,0.592,0.354,0.768c0.207,0.16,0.496,0.256,0.816,0.256     c0.512,0,1.056-0.16,1.056-0.752c0-1.345-5.138-0.272-5.138-3.521c0-2.145,2.225-2.769,3.969-2.769     c1.825,0,3.971,0.416,4.162,2.641h-3.025c-0.031-0.272-0.145-0.464-0.32-0.608s-0.416-0.208-0.672-0.208     c-0.576,0-0.944,0.176-0.944,0.592c0,1.168,5.298,0.384,5.298,3.521c0,1.745-1.44,2.929-4.514,2.929     c-1.92,0-4.033-0.592-4.209-2.849H629.971z"
   id="path57508" />
			<path
   class="svg-label"
   d="M639.747,121.689c0,0.336,0.128,0.592,0.353,0.768c0.208,0.16,0.496,0.256,0.816,0.256     c0.512,0,1.057-0.16,1.057-0.752c0-1.345-5.139-0.272-5.139-3.521c0-2.145,2.225-2.769,3.97-2.769     c1.825,0,3.97,0.416,4.161,2.641h-3.025c-0.031-0.272-0.144-0.464-0.319-0.608c-0.177-0.144-0.416-0.208-0.673-0.208     c-0.576,0-0.943,0.176-0.943,0.592c0,1.168,5.298,0.384,5.298,3.521c0,1.745-1.44,2.929-4.515,2.929     c-1.92,0-4.033-0.592-4.209-2.849H639.747z"
   id="path57510" />
			<path
   class="svg-label"
   d="M649.651,120.857c0,0.992,0.769,1.648,1.648,1.648c0.528,0,1.009-0.24,1.249-0.736h3.186     c-0.577,2.081-2.689,2.769-4.643,2.769c-2.689,0-4.77-1.537-4.77-4.354c0-2.753,2.064-4.514,4.754-4.514     c3.105,0,4.978,2.145,4.93,5.186H649.651z M652.676,119.16c0-0.768-0.688-1.457-1.473-1.457c-0.992,0-1.552,0.56-1.552,1.457     H652.676z"
   id="path57512" />
		</g>
	</g>
	<g
   id="LABELS_ROOMS">
		<g
   id="g57515">
			<path
   class="svg-label"
   d="M602.287,484.599h-1.199v-5.741h2.623c1.111,0,1.782,0.711,1.782,1.839c0,0.52-0.288,1.831-1.831,1.831     h-1.375V484.599z M603.398,481.536c0.896,0,0.896-0.64,0.896-0.896c0-0.56-0.312-0.792-1.056-0.792h-0.951v1.687H603.398z"
   id="path57517" />
			<path
   class="svg-label"
   d="M609.75,483.352c-0.297,1.023-1.145,1.359-1.871,1.359c-1.199,0-2.119-0.576-2.119-2.327     c0-0.512,0.176-2.151,2.039-2.151c0.84,0,1.998,0.4,1.998,2.343v0.2h-2.918c0.032,0.32,0.096,1.04,1,1.04     c0.312,0,0.631-0.16,0.719-0.463H609.75z M608.646,482.048c-0.064-0.688-0.504-0.896-0.863-0.896     c-0.528,0-0.809,0.336-0.872,0.896H608.646z"
   id="path57519" />
			<path
   class="svg-label"
   d="M610.535,480.345h1.072v0.736h0.016c0.232-0.432,0.488-0.848,1.168-0.848c0.071,0,0.143,0.008,0.215,0.016     v1.135c-0.096-0.016-0.215-0.016-0.319-0.016c-0.872,0-1.032,0.544-1.032,1.016v2.215h-1.119V480.345z"
   id="path57521" />
			<path
   class="svg-label"
   d="M617.438,480.345v4.03c0,0.735-0.056,1.958-2.15,1.958c-0.88,0-1.807-0.375-1.855-1.279h1.215     c0.049,0.216,0.137,0.432,0.784,0.432c0.6,0,0.888-0.288,0.888-0.976v-0.512l-0.016-0.016c-0.184,0.328-0.465,0.64-1.136,0.64     c-1.023,0-1.831-0.711-1.831-2.199c0-1.471,0.832-2.191,1.768-2.191c0.791,0,1.111,0.464,1.246,0.744h0.017v-0.632H617.438z      M615.375,483.679c0.76,0,0.951-0.648,0.951-1.231c0-0.688-0.336-1.247-0.959-1.247c-0.416,0-0.88,0.304-0.88,1.295     C614.487,483.04,614.711,483.679,615.375,483.679z"
   id="path57523" />
			<path
   class="svg-label"
   d="M620.352,484.71c-1.145,0-2.176-0.704-2.176-2.239s1.031-2.239,2.176-2.239     c1.143,0,2.174,0.704,2.174,2.239S621.494,484.71,620.352,484.71z M620.352,481.177c-0.864,0-1.023,0.751-1.023,1.295     c0,0.544,0.159,1.295,1.023,1.295c0.863,0,1.023-0.751,1.023-1.295C621.375,481.928,621.215,481.177,620.352,481.177z"
   id="path57525" />
			<path
   class="svg-label"
   d="M624.463,484.599h-1.119v-5.741h1.119V484.599z"
   id="path57527" />
			<path
   class="svg-label"
   d="M628.982,483.767c0,0.504,0.111,0.616,0.248,0.664v0.168h-1.208c-0.063-0.2-0.08-0.264-0.104-0.504     c-0.256,0.264-0.615,0.616-1.375,0.616c-0.639,0-1.295-0.36-1.295-1.239c0-0.832,0.527-1.255,1.239-1.359l1.007-0.152     c0.176-0.024,0.393-0.096,0.393-0.336c0-0.472-0.447-0.496-0.736-0.496c-0.559,0-0.655,0.344-0.688,0.592h-1.079     c0.128-1.303,1.032-1.487,1.903-1.487c0.6,0,1.695,0.184,1.695,1.231V483.767z M627.887,482.528     c-0.112,0.088-0.296,0.16-0.76,0.232c-0.416,0.072-0.76,0.176-0.76,0.64c0,0.392,0.305,0.512,0.52,0.512c0.496,0,1-0.32,1-0.84     V482.528z"
   id="path57529" />
		</g>
		<g
   id="g57531">
			<path
   class="svg-label"
   d="M306.287,664.932h-1.2v-5.741h2.623c1.111,0,1.783,0.711,1.783,1.839c0,0.52-0.288,1.831-1.831,1.831     h-1.375V664.932z M307.398,661.87c0.896,0,0.896-0.64,0.896-0.896c0-0.56-0.312-0.792-1.056-0.792h-0.951v1.687H307.398z"
   id="path57533" />
			<path
   class="svg-label"
   d="M313.541,664.101c0,0.504,0.112,0.616,0.248,0.664v0.168h-1.208c-0.064-0.2-0.08-0.264-0.104-0.504     c-0.256,0.264-0.616,0.616-1.375,0.616c-0.64,0-1.295-0.36-1.295-1.239c0-0.832,0.528-1.255,1.239-1.359l1.007-0.152     c0.176-0.024,0.392-0.096,0.392-0.336c0-0.472-0.448-0.496-0.736-0.496c-0.56,0-0.656,0.344-0.688,0.592h-1.08     c0.128-1.303,1.032-1.487,1.903-1.487c0.6,0,1.695,0.184,1.695,1.231V664.101z M312.446,662.861     c-0.112,0.088-0.296,0.16-0.76,0.232c-0.416,0.072-0.76,0.176-0.76,0.64c0,0.392,0.304,0.512,0.52,0.512c0.496,0,1-0.32,1-0.84     V662.861z"
   id="path57535" />
			<path
   class="svg-label"
   d="M314.535,660.678h1.071v0.736h0.016c0.232-0.432,0.488-0.848,1.167-0.848c0.072,0,0.144,0.008,0.216,0.016     v1.135c-0.096-0.016-0.216-0.016-0.32-0.016c-0.872,0-1.032,0.544-1.032,1.016v2.215h-1.119V660.678z"
   id="path57537" />
			<path
   class="svg-label"
   d="M318.687,664.932h-1.119v-5.741h1.119v3.102l1.407-1.615h1.375l-1.503,1.647l1.543,2.606h-1.343     l-1.016-1.823l-0.464,0.48V664.932z"
   id="path57539" />
		</g>
		<g
   id="g57541">
			<path
   class="svg-label"
   d="M150.662,326.878h2.398v3.094h-0.799l-0.12-0.72c-0.304,0.352-0.744,0.872-1.791,0.872     c-1.383,0-2.639-0.991-2.639-3.006c0-1.559,0.864-3.038,2.791-3.038h0.016c1.759,0,2.455,1.143,2.519,1.935h-1.199     c0-0.224-0.408-0.943-1.255-0.943c-0.855,0-1.647,0.592-1.647,2.063c0,1.567,0.855,1.975,1.671,1.975     c0.264,0,1.144-0.104,1.392-1.264h-1.335V326.878z"
   id="path57543" />
			<path
   class="svg-label"
   d="M157.758,328.725c-0.296,1.023-1.144,1.359-1.871,1.359c-1.199,0-2.119-0.576-2.119-2.327     c0-0.512,0.176-2.151,2.039-2.151c0.84,0,1.999,0.4,1.999,2.343v0.2h-2.918c0.032,0.32,0.096,1.04,1,1.04     c0.312,0,0.632-0.16,0.72-0.463H157.758z M156.654,327.421c-0.064-0.688-0.504-0.896-0.864-0.896     c-0.527,0-0.807,0.336-0.871,0.896H156.654z"
   id="path57545" />
			<path
   class="svg-label"
   d="M162.438,329.972h-1.096v-0.536h-0.016c-0.271,0.479-0.768,0.647-1.231,0.647     c-1.263,0-1.791-1.119-1.791-2.287c0-1.471,0.832-2.191,1.767-2.191c0.719,0,1.055,0.392,1.231,0.664h0.016v-2.039h1.12V329.972z      M160.375,329.165c0.711,0,0.991-0.592,0.991-1.223c0-0.68-0.192-1.367-0.959-1.367c-0.711,0-0.951,0.631-0.951,1.303     C159.455,328.381,159.655,329.165,160.375,329.165z"
   id="path57547" />
			<path
   class="svg-label"
   d="M167.093,328.725c-0.296,1.023-1.144,1.359-1.871,1.359c-1.199,0-2.119-0.576-2.119-2.327     c0-0.512,0.176-2.151,2.039-2.151c0.84,0,1.999,0.4,1.999,2.343v0.2h-2.918c0.032,0.32,0.096,1.04,1,1.04     c0.312,0,0.632-0.16,0.72-0.463H167.093z M165.99,327.421c-0.064-0.688-0.504-0.896-0.863-0.896     c-0.528,0-0.808,0.336-0.872,0.896H165.99z"
   id="path57549" />
			<path
   class="svg-label"
   d="M171.549,328.421c-0.04,0.44-0.384,1.663-1.943,1.663c-1.599,0-1.967-1.223-1.967-2.119     c0-1.375,0.6-2.359,2.039-2.359c0.672,0,1.775,0.304,1.879,1.631h-1.135c-0.048-0.272-0.208-0.688-0.688-0.688h-0.056     c-0.704,0-0.887,0.703-0.887,1.231c0,0.464,0.016,1.383,0.863,1.383c0.568,0,0.76-0.543,0.76-0.744H171.549z"
   id="path57551" />
			<path
   class="svg-label"
   d="M173.327,329.972h-1.119v-5.741h1.119v3.102l1.407-1.615h1.375l-1.503,1.647l1.543,2.606h-1.343     l-1.016-1.823l-0.464,0.48V329.972z"
   id="path57553" />
			<path
   class="svg-label"
   d="M177.879,325.718h0.696v0.8h-0.696v2.311c0,0.248,0.008,0.344,0.464,0.344c0.072,0,0.152-0.008,0.232-0.016     v0.848c-0.176,0.008-0.352,0.016-0.528,0.016h-0.144c-0.967,0-1.143-0.368-1.143-0.919v-2.583h-0.576v-0.8h0.576v-1.151h1.119     V325.718z"
   id="path57555" />
			<path
   class="svg-label"
   d="M182.822,328.725c-0.296,1.023-1.144,1.359-1.871,1.359c-1.199,0-2.119-0.576-2.119-2.327     c0-0.512,0.176-2.151,2.039-2.151c0.84,0,1.999,0.4,1.999,2.343v0.2h-2.918c0.032,0.32,0.096,1.04,1,1.04     c0.312,0,0.632-0.16,0.72-0.463H182.822z M181.719,327.421c-0.064-0.688-0.504-0.896-0.864-0.896     c-0.527,0-0.807,0.336-0.871,0.896H181.719z"
   id="path57557" />
			<path
   class="svg-label"
   d="M183.608,325.718h1.071v0.736h0.016c0.232-0.432,0.488-0.848,1.167-0.848c0.072,0,0.144,0.008,0.216,0.016     v1.135c-0.096-0.016-0.216-0.016-0.32-0.016c-0.872,0-1.031,0.544-1.031,1.016v2.215h-1.12V325.718z"
   id="path57559" />
			<path
   class="svg-label"
   d="M148.783,339.572h-1.263l2.047-5.741h1.383l2.023,5.741h-1.303l-0.368-1.183h-2.119L148.783,339.572z      M149.502,337.397h1.463l-0.711-2.271h-0.016L149.502,337.397z"
   id="path57561" />
			<path
   class="svg-label"
   d="M153.647,335.319h1.071v0.735h0.016c0.232-0.432,0.488-0.848,1.167-0.848c0.072,0,0.144,0.008,0.216,0.016     v1.135c-0.096-0.016-0.216-0.016-0.32-0.016c-0.872,0-1.031,0.543-1.031,1.015v2.215h-1.12V335.319z"
   id="path57563" />
			<path
   class="svg-label"
   d="M157.854,335.87h0.016c0.176-0.271,0.512-0.664,1.231-0.664c0.936,0,1.767,0.72,1.767,2.191     c0,1.167-0.528,2.287-1.791,2.287c-0.464,0-0.959-0.168-1.231-0.647h-0.016v0.536h-1.095v-5.741h1.119V335.87z M158.766,336.174     c-0.768,0-0.959,0.688-0.959,1.367c0,0.631,0.28,1.223,0.992,1.223c0.719,0,0.919-0.784,0.919-1.287     C159.718,336.806,159.478,336.174,158.766,336.174z"
   id="path57565" />
			<path
   class="svg-label"
   d="M165.309,338.325c-0.296,1.023-1.144,1.359-1.871,1.359c-1.199,0-2.119-0.576-2.119-2.327     c0-0.512,0.176-2.151,2.039-2.151c0.84,0,1.999,0.4,1.999,2.343v0.2h-2.918c0.032,0.319,0.096,1.039,1,1.039     c0.312,0,0.632-0.16,0.72-0.464H165.309z M164.206,337.021c-0.064-0.688-0.504-0.896-0.863-0.896     c-0.528,0-0.808,0.336-0.872,0.896H164.206z"
   id="path57567" />
			<path
   class="svg-label"
   d="M167.254,334.815h-1.119v-1.04h1.119V334.815z M167.254,335.319v4.253h-1.119v-4.253H167.254z"
   id="path57569" />
			<path
   class="svg-label"
   d="M169.583,335.319h0.696v0.799h-0.696v2.311c0,0.248,0.008,0.344,0.464,0.344     c0.072,0,0.152-0.008,0.232-0.016v0.847c-0.176,0.008-0.352,0.016-0.528,0.016h-0.144c-0.967,0-1.143-0.368-1.143-0.919v-2.583     h-0.576v-0.799h0.576v-1.151h1.119V335.319z"
   id="path57571" />
			<path
   class="svg-label"
   d="M173.398,336.614c-0.048-0.271-0.144-0.56-0.751-0.56s-0.688,0.232-0.688,0.416     c0,0.671,2.663,0.184,2.663,1.751c0,1.239-1.2,1.463-1.863,1.463c-0.967,0-2.015-0.336-2.047-1.471h1.151     c0,0.36,0.224,0.624,0.928,0.624c0.576,0,0.711-0.28,0.711-0.439c0-0.712-2.639-0.176-2.639-1.767     c0-0.624,0.392-1.423,1.719-1.423c0.832,0,1.823,0.208,1.911,1.407H173.398z"
   id="path57573" />
			<path
   class="svg-label"
   d="M176.487,335.934h0.016c0.208-0.335,0.52-0.728,1.271-0.728c0.936,0,1.767,0.72,1.767,2.191     c0,1.167-0.528,2.287-1.791,2.287c-0.784,0-1.063-0.424-1.2-0.655h-0.016v2.199h-1.12v-5.909h1.072V335.934z M177.47,338.765     c0.719,0,0.919-0.784,0.919-1.287c0-0.672-0.24-1.303-0.952-1.303c-0.768,0-0.951,0.688-0.951,1.367     C176.487,338.173,176.758,338.765,177.47,338.765z"
   id="path57575" />
			<path
   class="svg-label"
   d="M181.478,339.572h-1.119v-5.741h1.119V339.572z"
   id="path57577" />
			<path
   class="svg-label"
   d="M185.997,338.741c0,0.504,0.112,0.616,0.248,0.664v0.168h-1.208c-0.064-0.2-0.08-0.264-0.104-0.504     c-0.256,0.264-0.616,0.616-1.375,0.616c-0.64,0-1.295-0.36-1.295-1.239c0-0.832,0.528-1.255,1.239-1.359l1.007-0.152     c0.176-0.024,0.392-0.096,0.392-0.335c0-0.472-0.448-0.496-0.736-0.496c-0.56,0-0.656,0.344-0.688,0.592h-1.08     c0.128-1.303,1.032-1.487,1.903-1.487c0.6,0,1.695,0.184,1.695,1.231V338.741z M184.902,337.501     c-0.112,0.088-0.296,0.16-0.76,0.232c-0.416,0.072-0.76,0.176-0.76,0.64c0,0.392,0.304,0.512,0.52,0.512c0.496,0,1-0.32,1-0.84     V337.501z"
   id="path57579" />
			<path
   class="svg-label"
   d="M188.254,335.319h0.696v0.799h-0.696v2.311c0,0.248,0.008,0.344,0.464,0.344     c0.072,0,0.152-0.008,0.232-0.016v0.847c-0.176,0.008-0.352,0.016-0.528,0.016h-0.144c-0.967,0-1.143-0.368-1.143-0.919v-2.583     h-0.576v-0.799h0.576v-1.151h1.119V335.319z"
   id="path57581" />
			<path
   class="svg-label"
   d="M190.75,338.653h2.231v0.919h-3.678v-0.872l2.183-2.486h-2.031v-0.896h3.446v0.919L190.75,338.653z"
   id="path57583" />
		</g>
		<g
   id="g57585">
			<path
   class="svg-label"
   d="M602.074,783.139h-1.199v-5.741h1.199v2.334l2.191-2.334h1.551l-2.343,2.351l2.479,3.39h-1.544     l-1.774-2.519l-0.561,0.576V783.139z"
   id="path57587" />
			<path
   class="svg-label"
   d="M607.627,778.382h-1.119v-1.04h1.119V778.382z M607.627,778.885v4.254h-1.119v-4.254H607.627z"
   id="path57589" />
			<path
   class="svg-label"
   d="M609.955,778.885h0.695v0.8h-0.695v2.311c0,0.248,0.008,0.344,0.463,0.344c0.072,0,0.152-0.008,0.232-0.016     v0.848c-0.176,0.008-0.352,0.016-0.527,0.016h-0.145c-0.967,0-1.143-0.368-1.143-0.919v-2.583h-0.576v-0.8h0.576v-1.151h1.119     V778.885z"
   id="path57591" />
			<path
   class="svg-label"
   d="M614.81,782.308c0,0.504,0.112,0.616,0.248,0.664v0.168h-1.208c-0.063-0.2-0.08-0.264-0.104-0.504     c-0.256,0.264-0.615,0.616-1.375,0.616c-0.64,0-1.295-0.36-1.295-1.239c0-0.832,0.527-1.255,1.238-1.359l1.008-0.152     c0.176-0.024,0.393-0.096,0.393-0.336c0-0.472-0.448-0.496-0.736-0.496c-0.56,0-0.656,0.344-0.688,0.592h-1.08     c0.129-1.303,1.032-1.487,1.903-1.487c0.601,0,1.695,0.184,1.695,1.231V782.308z M613.715,781.068     c-0.113,0.088-0.297,0.16-0.76,0.232c-0.416,0.072-0.76,0.176-0.76,0.64c0,0.392,0.304,0.512,0.52,0.512c0.496,0,1-0.32,1-0.84     V781.068z"
   id="path57593" />
			<path
   class="svg-label"
   d="M603.867,790.972c0.008,0.32,0.168,0.928,1.215,0.928c0.568,0,1.199-0.136,1.199-0.744     c0-0.448-0.432-0.568-1.039-0.712l-0.615-0.144c-0.928-0.216-1.823-0.424-1.823-1.687c0-0.64,0.344-1.767,2.206-1.767     c1.76,0,2.231,1.151,2.239,1.855h-1.151c-0.031-0.256-0.128-0.864-1.176-0.864c-0.455,0-0.999,0.168-0.999,0.688     c0,0.448,0.368,0.544,0.608,0.6l1.398,0.344c0.783,0.192,1.504,0.512,1.504,1.543c0,1.727-1.76,1.879-2.264,1.879     c-2.095,0-2.454-1.207-2.454-1.919H603.867z"
   id="path57595" />
			<path
   class="svg-label"
   d="M609.307,789.101h0.016c0.209-0.335,0.521-0.728,1.271-0.728c0.936,0,1.768,0.72,1.768,2.191     c0,1.167-0.527,2.287-1.791,2.287c-0.783,0-1.063-0.424-1.199-0.655h-0.016v2.199h-1.12v-5.909h1.071V789.101z M610.291,791.932     c0.719,0,0.919-0.784,0.919-1.287c0-0.672-0.24-1.303-0.952-1.303c-0.768,0-0.951,0.688-0.951,1.367     C609.307,791.34,609.578,791.932,610.291,791.932z"
   id="path57597" />
			<path
   class="svg-label"
   d="M614.299,787.982h-1.119v-1.04h1.119V787.982z M614.299,788.486v4.253h-1.119v-4.253H614.299z"
   id="path57599" />
			<path
   class="svg-label"
   d="M619.025,791.492c-0.295,1.023-1.143,1.359-1.871,1.359c-1.199,0-2.118-0.576-2.118-2.327     c0-0.512,0.176-2.151,2.038-2.151c0.84,0,2,0.4,2,2.343v0.2h-2.919c0.032,0.319,0.097,1.039,0.999,1.039     c0.313,0,0.633-0.16,0.721-0.464H619.025z M617.922,790.188c-0.063-0.688-0.504-0.896-0.863-0.896     c-0.527,0-0.807,0.336-0.871,0.896H617.922z"
   id="path57601" />
			<path
   class="svg-label"
   d="M620.971,792.739h-1.119v-5.741h1.119V792.739z"
   id="path57603" />
			<path
   class="svg-label"
   d="M623.091,789.101h0.017c0.207-0.335,0.52-0.728,1.271-0.728c0.936,0,1.767,0.72,1.767,2.191     c0,1.167-0.528,2.287-1.791,2.287c-0.784,0-1.063-0.424-1.199-0.655h-0.017v2.199h-1.119v-5.909h1.071V789.101z M624.074,791.932     c0.72,0,0.92-0.784,0.92-1.287c0-0.672-0.24-1.303-0.951-1.303c-0.768,0-0.952,0.688-0.952,1.367     C623.091,791.34,623.363,791.932,624.074,791.932z"
   id="path57605" />
			<path
   class="svg-label"
   d="M628.083,792.739h-1.119v-5.741h1.119V792.739z"
   id="path57607" />
			<path
   class="svg-label"
   d="M632.602,791.908c0,0.504,0.112,0.616,0.248,0.664v0.168h-1.207c-0.064-0.2-0.08-0.264-0.104-0.504     c-0.256,0.264-0.616,0.616-1.375,0.616c-0.641,0-1.296-0.36-1.296-1.239c0-0.832,0.528-1.255,1.239-1.359l1.008-0.152     c0.176-0.024,0.392-0.096,0.392-0.335c0-0.472-0.448-0.496-0.735-0.496c-0.561,0-0.656,0.344-0.688,0.592h-1.08     c0.128-1.303,1.031-1.487,1.903-1.487c0.6,0,1.694,0.184,1.694,1.231V791.908z M631.507,790.668     c-0.112,0.088-0.296,0.16-0.76,0.232c-0.416,0.072-0.76,0.176-0.76,0.64c0,0.392,0.304,0.512,0.521,0.512     c0.495,0,0.999-0.32,0.999-0.84V790.668z"
   id="path57609" />
			<path
   class="svg-label"
   d="M634.859,788.486h0.695v0.799h-0.695v2.311c0,0.248,0.008,0.344,0.463,0.344     c0.072,0,0.152-0.008,0.232-0.016v0.847c-0.176,0.008-0.352,0.016-0.527,0.016h-0.145c-0.967,0-1.143-0.368-1.143-0.919v-2.583     h-0.576v-0.799h0.576v-1.151h1.119V788.486z"
   id="path57611" />
			<path
   class="svg-label"
   d="M637.355,791.82h2.23v0.919h-3.678v-0.872l2.183-2.486h-2.03v-0.896h3.445v0.919L637.355,791.82z"
   id="path57613" />
		</g>
		<g
   id="g57615">
			<path
   class="svg-label"
   d="M556.266,907.639h-1.199v-5.741h1.199v2.334l2.19-2.334h1.551l-2.343,2.351l2.479,3.39H558.6l-1.775-2.519     l-0.559,0.576V907.639z"
   id="path57617" />
			<path
   class="svg-label"
   d="M561.816,902.882h-1.119v-1.04h1.119V902.882z M561.816,903.385v4.254h-1.119v-4.254H561.816z"
   id="path57619" />
			<path
   class="svg-label"
   d="M566.736,907.639h-1.12v-2.583c0-0.312-0.016-0.839-0.728-0.839c-0.496,0-0.879,0.335-0.879,0.983v2.438     h-1.12v-4.254h1.071v0.624h0.016c0.152-0.256,0.473-0.736,1.279-0.736c0.832,0,1.48,0.488,1.48,1.423V907.639z"
   id="path57621" />
			<path
   class="svg-label"
   d="M571.664,907.639h-1.096v-0.536h-0.017c-0.271,0.479-0.768,0.647-1.231,0.647     c-1.263,0-1.791-1.119-1.791-2.287c0-1.471,0.832-2.191,1.768-2.191c0.719,0,1.055,0.392,1.23,0.664h0.017v-2.039h1.12V907.639z      M569.601,906.832c0.712,0,0.991-0.592,0.991-1.223c0-0.68-0.191-1.367-0.959-1.367c-0.712,0-0.951,0.631-0.951,1.303     C568.682,906.048,568.881,906.832,569.601,906.832z"
   id="path57623" />
			<path
   class="svg-label"
   d="M576.319,906.392c-0.296,1.023-1.144,1.359-1.871,1.359c-1.199,0-2.118-0.576-2.118-2.327     c0-0.512,0.176-2.151,2.038-2.151c0.84,0,1.999,0.4,1.999,2.343v0.2h-2.918c0.031,0.32,0.096,1.04,0.999,1.04     c0.312,0,0.632-0.16,0.72-0.463H576.319z M575.216,905.088c-0.063-0.688-0.504-0.896-0.863-0.896     c-0.528,0-0.808,0.336-0.872,0.896H575.216z"
   id="path57625" />
			<path
   class="svg-label"
   d="M577.105,903.385h1.071v0.736h0.017c0.231-0.432,0.487-0.848,1.167-0.848c0.071,0,0.144,0.008,0.216,0.016     v1.135c-0.096-0.016-0.216-0.016-0.32-0.016c-0.871,0-1.031,0.544-1.031,1.016v2.215h-1.119V903.385z"
   id="path57627" />
			<path
   class="svg-label"
   d="M581.641,903.385h0.695v0.8h-0.695v2.311c0,0.248,0.008,0.344,0.463,0.344c0.072,0,0.152-0.008,0.232-0.016     v0.848c-0.176,0.008-0.352,0.016-0.527,0.016h-0.145c-0.967,0-1.143-0.368-1.143-0.919v-2.583h-0.576v-0.8h0.576v-1.151h1.119     V903.385z"
   id="path57629" />
			<path
   class="svg-label"
   d="M586.495,906.808c0,0.504,0.112,0.616,0.248,0.664v0.168h-1.208c-0.063-0.2-0.08-0.264-0.104-0.504     c-0.256,0.264-0.615,0.616-1.375,0.616c-0.64,0-1.295-0.36-1.295-1.239c0-0.832,0.527-1.255,1.238-1.359l1.008-0.152     c0.176-0.024,0.393-0.096,0.393-0.336c0-0.472-0.448-0.496-0.736-0.496c-0.56,0-0.656,0.344-0.688,0.592h-1.08     c0.129-1.303,1.032-1.487,1.903-1.487c0.601,0,1.695,0.184,1.695,1.231V906.808z M585.4,905.568     c-0.113,0.088-0.297,0.16-0.76,0.232c-0.416,0.072-0.76,0.176-0.76,0.64c0,0.392,0.304,0.512,0.52,0.512c0.496,0,1-0.32,1-0.84     V905.568z"
   id="path57631" />
			<path
   class="svg-label"
   d="M591.318,903.385v4.03c0,0.735-0.055,1.958-2.15,1.958c-0.879,0-1.807-0.375-1.854-1.279h1.215     c0.048,0.216,0.136,0.432,0.784,0.432c0.6,0,0.887-0.288,0.887-0.976v-0.512l-0.016-0.016c-0.184,0.328-0.464,0.64-1.135,0.64     c-1.023,0-1.832-0.711-1.832-2.199c0-1.471,0.832-2.191,1.768-2.191c0.791,0,1.111,0.464,1.247,0.744h0.017v-0.632H591.318z      M589.256,906.72c0.76,0,0.951-0.648,0.951-1.231c0-0.688-0.335-1.247-0.959-1.247c-0.416,0-0.879,0.304-0.879,1.295     C588.369,906.08,588.593,906.72,589.256,906.72z"
   id="path57633" />
			<path
   class="svg-label"
   d="M596.039,906.392c-0.296,1.023-1.144,1.359-1.871,1.359c-1.199,0-2.119-0.576-2.119-2.327     c0-0.512,0.176-2.151,2.039-2.151c0.84,0,1.999,0.4,1.999,2.343v0.2h-2.919c0.033,0.32,0.097,1.04,1,1.04     c0.313,0,0.632-0.16,0.72-0.463H596.039z M594.936,905.088c-0.064-0.688-0.504-0.896-0.863-0.896     c-0.527,0-0.808,0.336-0.871,0.896H594.936z"
   id="path57635" />
			<path
   class="svg-label"
   d="M599.24,904.681c-0.049-0.272-0.145-0.56-0.752-0.56s-0.688,0.232-0.688,0.416     c0,0.672,2.662,0.184,2.662,1.751c0,1.239-1.199,1.463-1.863,1.463c-0.967,0-2.014-0.335-2.047-1.471h1.152     c0,0.36,0.224,0.624,0.928,0.624c0.575,0,0.711-0.28,0.711-0.44c0-0.711-2.639-0.176-2.639-1.767     c0-0.624,0.393-1.423,1.719-1.423c0.832,0,1.823,0.208,1.912,1.407H599.24z"
   id="path57637" />
			<path
   class="svg-label"
   d="M603.209,905.92h-2.231v-1.039h2.231V905.92z"
   id="path57639" />
			<path
   class="svg-label"
   d="M557.297,914.281c-0.049-0.271-0.145-0.56-0.752-0.56s-0.688,0.232-0.688,0.416     c0,0.671,2.662,0.184,2.662,1.751c0,1.239-1.199,1.463-1.863,1.463c-0.967,0-2.014-0.336-2.047-1.471h1.152     c0,0.36,0.224,0.624,0.928,0.624c0.575,0,0.711-0.28,0.711-0.439c0-0.712-2.639-0.176-2.639-1.767     c0-0.624,0.393-1.423,1.719-1.423c0.832,0,1.823,0.208,1.912,1.407H557.297z"
   id="path57641" />
			<path
   class="svg-label"
   d="M560.594,912.986h0.695v0.799h-0.695v2.311c0,0.248,0.008,0.344,0.463,0.344     c0.072,0,0.152-0.008,0.232-0.016v0.847c-0.176,0.008-0.352,0.016-0.527,0.016h-0.145c-0.967,0-1.143-0.368-1.143-0.919v-2.583     h-0.576v-0.799h0.576v-1.151h1.119V912.986z"
   id="path57643" />
			<path
   class="svg-label"
   d="M565.448,916.408c0,0.504,0.112,0.616,0.248,0.664v0.168h-1.208c-0.063-0.2-0.08-0.264-0.104-0.504     c-0.256,0.264-0.615,0.616-1.375,0.616c-0.64,0-1.295-0.36-1.295-1.239c0-0.832,0.527-1.255,1.238-1.359l1.008-0.152     c0.176-0.024,0.393-0.096,0.393-0.335c0-0.472-0.448-0.496-0.736-0.496c-0.56,0-0.656,0.344-0.688,0.592h-1.08     c0.129-1.303,1.032-1.487,1.903-1.487c0.601,0,1.695,0.184,1.695,1.231V916.408z M563.434,912.33h-1.008v-0.919h1.008V912.33z      M564.354,915.168c-0.113,0.088-0.297,0.16-0.76,0.232c-0.416,0.072-0.76,0.176-0.76,0.64c0,0.392,0.304,0.512,0.52,0.512     c0.496,0,1-0.32,1-0.84V915.168z M564.992,912.33h-1.008v-0.919h1.008V912.33z"
   id="path57645" />
			<path
   class="svg-label"
   d="M567.705,912.986h0.696v0.799h-0.696v2.311c0,0.248,0.009,0.344,0.465,0.344     c0.071,0,0.151-0.008,0.231-0.016v0.847c-0.176,0.008-0.353,0.016-0.528,0.016h-0.144c-0.968,0-1.144-0.368-1.144-0.919v-2.583     h-0.575v-0.799h0.575v-1.151h1.119V912.986z"
   id="path57647" />
			<path
   class="svg-label"
   d="M570.129,912.986h0.696v0.799h-0.696v2.311c0,0.248,0.009,0.344,0.465,0.344     c0.071,0,0.151-0.008,0.231-0.016v0.847c-0.176,0.008-0.353,0.016-0.528,0.016h-0.144c-0.968,0-1.144-0.368-1.144-0.919v-2.583     h-0.575v-0.799h0.575v-1.151h1.119V912.986z"
   id="path57649" />
			<path
   class="svg-label"
   d="M575.072,915.992c-0.295,1.023-1.143,1.359-1.871,1.359c-1.199,0-2.118-0.576-2.118-2.327     c0-0.512,0.176-2.151,2.038-2.151c0.84,0,2,0.4,2,2.343v0.2h-2.919c0.032,0.319,0.097,1.039,0.999,1.039     c0.313,0,0.633-0.16,0.721-0.464H575.072z M573.969,914.688c-0.063-0.688-0.504-0.896-0.863-0.896     c-0.527,0-0.807,0.336-0.871,0.896H573.969z"
   id="path57651" />
		</g>
		<g
   id="g57653">
			<path
   class="svg-label"
   d="M565.806,1061.043h-4.485v-1.016l2.966-3.711H561.4v-1.015h4.389v0.943l-3.006,3.782h3.022V1061.043z"
   id="path57655" />
			<path
   class="svg-label"
   d="M567.775,1058.468v2.575h-1.199v-5.741h1.199v2.175h2.238v-2.175h1.199v5.741h-1.199v-2.575H567.775z"
   id="path57657" />
			<path
   class="svg-label"
   d="M573.207,1061.043h-1.264l2.047-5.741h1.383l2.023,5.741h-1.303l-0.368-1.184h-2.119L573.207,1061.043z      M573.927,1058.867h1.463l-0.712-2.27h-0.016L573.927,1058.867z"
   id="path57659" />
			<path
   class="svg-label"
   d="M577.207,1055.302h1.279c0.736,3.142,0.809,3.542,0.912,4.198h0.016c0.104-0.6,0.192-1.184,0.8-4.198h1.271     c0.671,3.149,0.728,3.454,0.855,4.198h0.016c0.097-0.545,0.192-1.04,0.936-4.198h1.216l-1.615,5.741h-1.151     c-0.592-2.814-0.696-3.375-0.888-4.479h-0.016c-0.176,1.104-0.272,1.52-0.888,4.479h-1.12L577.207,1055.302z"
   id="path57661" />
			<path
   class="svg-label"
   d="M562.928,1070.643h-1.2v-5.74h4.086v1.015h-2.886v1.296h2.525v1.016h-2.525V1070.643z"
   id="path57663" />
			<path
   class="svg-label"
   d="M568.215,1070.754c-1.145,0-2.176-0.703-2.176-2.238s1.031-2.238,2.176-2.238     c1.143,0,2.174,0.703,2.174,2.238S569.357,1070.754,568.215,1070.754z M568.215,1067.221c-0.864,0-1.023,0.752-1.023,1.295     c0,0.544,0.159,1.295,1.023,1.295c0.863,0,1.023-0.751,1.023-1.295C569.238,1067.973,569.078,1067.221,568.215,1067.221z"
   id="path57665" />
			<path
   class="svg-label"
   d="M571.167,1066.389h1.071v0.736h0.016c0.232-0.432,0.488-0.848,1.168-0.848c0.072,0,0.144,0.008,0.216,0.016     v1.135c-0.097-0.016-0.216-0.016-0.319-0.016c-0.872,0-1.032,0.544-1.032,1.016v2.215h-1.119V1066.389z"
   id="path57667" />
			<path
   class="svg-label"
   d="M576.574,1067.684c-0.049-0.271-0.145-0.559-0.752-0.559s-0.688,0.231-0.688,0.416     c0,0.671,2.662,0.184,2.662,1.75c0,1.24-1.199,1.463-1.863,1.463c-0.967,0-2.014-0.336-2.047-1.471h1.152     c0,0.359,0.224,0.623,0.928,0.623c0.575,0,0.711-0.279,0.711-0.439c0-0.711-2.639-0.176-2.639-1.767     c0-0.624,0.393-1.423,1.719-1.423c0.832,0,1.823,0.207,1.912,1.406H576.574z"
   id="path57669" />
			<path
   class="svg-label"
   d="M582.277,1069.092c-0.041,0.439-0.385,1.662-1.943,1.662c-1.6,0-1.967-1.223-1.967-2.118     c0-1.376,0.6-2.358,2.039-2.358c0.672,0,1.775,0.303,1.879,1.631h-1.136c-0.048-0.271-0.208-0.688-0.688-0.688h-0.056     c-0.704,0-0.888,0.703-0.888,1.23c0,0.465,0.016,1.384,0.863,1.384c0.567,0,0.76-0.544,0.76-0.743H582.277z"
   id="path57671" />
			<path
   class="svg-label"
   d="M586.829,1070.643h-1.12v-2.582c0-0.313-0.016-0.84-0.727-0.84c-0.496,0-0.88,0.336-0.88,0.983v2.438h-1.12     v-5.74h1.12v2.038h0.017c0.143-0.352,0.623-0.663,1.23-0.663c0.832,0,1.479,0.487,1.479,1.423V1070.643z"
   id="path57673" />
			<path
   class="svg-label"
   d="M591.709,1070.643h-1.072v-0.6h-0.016c-0.256,0.455-0.703,0.711-1.295,0.711     c-0.84,0-1.447-0.479-1.447-1.566v-2.799h1.119v2.639c0,0.656,0.384,0.783,0.728,0.783c0.368,0,0.864-0.207,0.864-0.967v-2.455     h1.119V1070.643z"
   id="path57675" />
			<path
   class="svg-label"
   d="M596.604,1070.643h-1.12v-2.582c0-0.313-0.016-0.84-0.727-0.84c-0.496,0-0.88,0.336-0.88,0.983v2.438h-1.12     v-4.254h1.072v0.624h0.016c0.152-0.256,0.472-0.735,1.279-0.735c0.832,0,1.479,0.487,1.479,1.423V1070.643z"
   id="path57677" />
			<path
   class="svg-label"
   d="M601.548,1066.389v4.029c0,0.736-0.056,1.959-2.15,1.959c-0.88,0-1.808-0.375-1.855-1.279h1.216     c0.048,0.217,0.136,0.433,0.783,0.433c0.6,0,0.888-0.288,0.888-0.976v-0.512l-0.017-0.016c-0.184,0.328-0.463,0.639-1.135,0.639     c-1.023,0-1.831-0.711-1.831-2.198c0-1.472,0.831-2.19,1.767-2.19c0.792,0,1.111,0.463,1.248,0.743h0.016v-0.632H601.548z      M599.485,1069.723c0.759,0,0.951-0.646,0.951-1.23c0-0.688-0.336-1.248-0.96-1.248c-0.415,0-0.879,0.305-0.879,1.295     C598.598,1069.084,598.821,1069.723,599.485,1069.723z"
   id="path57679" />
			<path
   class="svg-label"
   d="M609.844,1070.643h-1.352l-0.393-0.488c-0.336,0.336-0.775,0.641-1.639,0.641     c-1.096,0-1.791-0.775-1.791-1.631c0-0.553,0.152-1.096,1.104-1.672l0.12-0.072c-0.24-0.271-0.521-0.703-0.521-1.199     c0-0.783,0.633-1.318,1.527-1.318c0.632,0,1.408,0.407,1.408,1.326c0,0.809-0.721,1.232-0.952,1.367l0.815,1.008     c0.145-0.224,0.256-0.504,0.296-0.943h0.991c-0.071,0.775-0.271,1.223-0.655,1.727L609.844,1070.643z M606.469,1068.132     c-0.472,0.344-0.68,0.504-0.68,0.96c0,0.224,0.176,0.76,0.848,0.76c0.368,0,0.695-0.225,0.888-0.4L606.469,1068.132z      M606.861,1065.75c-0.248,0-0.465,0.159-0.465,0.463c0,0.191,0.145,0.424,0.416,0.72c0.305-0.192,0.528-0.415,0.528-0.712     C607.341,1065.901,607.133,1065.75,606.861,1065.75z"
   id="path57681" />
			<path
   class="svg-label"
   d="M617.067,1065.917h-3.046v1.208h2.799v1.016h-2.799v1.486h3.182v1.016h-4.357v-5.74h4.222V1065.917z"
   id="path57683" />
			<path
   class="svg-label"
   d="M621.939,1070.643h-1.119v-2.582c0-0.313-0.016-0.84-0.728-0.84c-0.495,0-0.88,0.336-0.88,0.983v2.438     h-1.119v-4.254h1.072v0.624h0.016c0.151-0.256,0.472-0.735,1.279-0.735c0.831,0,1.479,0.487,1.479,1.423V1070.643z"
   id="path57685" />
			<path
   class="svg-label"
   d="M624.237,1066.389h0.696v0.8h-0.696v2.311c0,0.248,0.009,0.345,0.464,0.345     c0.072,0,0.152-0.009,0.232-0.017v0.847c-0.176,0.009-0.353,0.017-0.528,0.017h-0.144c-0.968,0-1.144-0.368-1.144-0.919v-2.583     h-0.575v-0.8h0.575v-1.15h1.119V1066.389z"
   id="path57687" />
			<path
   class="svg-label"
   d="M630.052,1070.643H628.9l-0.664-3.102h-0.016l-0.664,3.102h-1.15l-1.199-4.254h1.191l0.663,3.055h0.016     l0.601-3.055h1.127l0.64,3.055h0.016l0.663-3.055h1.152L630.052,1070.643z"
   id="path57689" />
			<path
   class="svg-label"
   d="M633.021,1065.885h-1.119v-1.039h1.119V1065.885z M633.021,1066.389v4.254h-1.119v-4.254H633.021z"
   id="path57691" />
			<path
   class="svg-label"
   d="M637.756,1069.092c-0.039,0.439-0.383,1.662-1.942,1.662c-1.599,0-1.967-1.223-1.967-2.118     c0-1.376,0.6-2.358,2.038-2.358c0.672,0,1.775,0.303,1.88,1.631h-1.136c-0.048-0.271-0.208-0.688-0.688-0.688h-0.057     c-0.703,0-0.887,0.703-0.887,1.23c0,0.465,0.016,1.384,0.863,1.384c0.568,0,0.76-0.544,0.76-0.743H637.756z"
   id="path57693" />
			<path
   class="svg-label"
   d="M639.534,1070.643h-1.119v-5.74h1.119v3.102l1.407-1.615h1.375l-1.503,1.647l1.544,2.606h-1.344     l-1.016-1.822l-0.464,0.479V1070.643z"
   id="path57695" />
			<path
   class="svg-label"
   d="M643.982,1070.643h-1.119v-5.74h1.119V1070.643z"
   id="path57697" />
			<path
   class="svg-label"
   d="M648.893,1070.643h-1.071v-0.6h-0.017c-0.256,0.455-0.703,0.711-1.295,0.711     c-0.84,0-1.447-0.479-1.447-1.566v-2.799h1.119v2.639c0,0.656,0.385,0.783,0.729,0.783c0.367,0,0.863-0.207,0.863-0.967v-2.455     h1.119V1070.643z"
   id="path57699" />
			<path
   class="svg-label"
   d="M653.789,1070.643h-1.119v-2.582c0-0.313-0.016-0.84-0.728-0.84c-0.495,0-0.88,0.336-0.88,0.983v2.438     h-1.119v-4.254h1.072v0.624h0.016c0.151-0.256,0.472-0.735,1.279-0.735c0.831,0,1.479,0.487,1.479,1.423V1070.643z"
   id="path57701" />
			<path
   class="svg-label"
   d="M658.732,1066.389v4.029c0,0.736-0.055,1.959-2.15,1.959c-0.879,0-1.807-0.375-1.854-1.279h1.215     c0.048,0.217,0.136,0.433,0.784,0.433c0.6,0,0.887-0.288,0.887-0.976v-0.512l-0.016-0.016c-0.184,0.328-0.464,0.639-1.135,0.639     c-1.023,0-1.832-0.711-1.832-2.198c0-1.472,0.832-2.19,1.768-2.19c0.791,0,1.111,0.463,1.247,0.743h0.017v-0.632H658.732z      M656.67,1069.723c0.76,0,0.951-0.646,0.951-1.23c0-0.688-0.335-1.248-0.959-1.248c-0.416,0-0.879,0.305-0.879,1.295     C655.783,1069.084,656.007,1069.723,656.67,1069.723z"
   id="path57703" />
		</g>
		<g
   id="g57705">
			<path
   class="svg-label"
   d="M375.666,1058.139h-4.486v-1.016l2.966-3.709h-2.886v-1.016h4.39v0.943l-3.006,3.781h3.022V1058.139z"
   id="path57707" />
			<path
   class="svg-label"
   d="M377.635,1055.564v2.574h-1.199v-5.74h1.199v2.175h2.239v-2.175h1.199v5.74h-1.199v-2.574H377.635z"
   id="path57709" />
			<path
   class="svg-label"
   d="M383.067,1058.139h-1.264l2.047-5.74h1.383l2.023,5.74h-1.303l-0.368-1.184h-2.119L383.067,1058.139z      M383.787,1055.965h1.463l-0.711-2.271h-0.016L383.787,1055.965z"
   id="path57711" />
			<path
   class="svg-label"
   d="M387.067,1052.398h1.279c0.736,3.143,0.808,3.542,0.912,4.197h0.016c0.104-0.6,0.192-1.184,0.8-4.197h1.271     c0.671,3.15,0.728,3.454,0.855,4.197h0.016c0.096-0.543,0.192-1.039,0.936-4.197h1.215l-1.615,5.74h-1.151     c-0.592-2.814-0.696-3.373-0.888-4.477h-0.016c-0.176,1.104-0.272,1.519-0.887,4.477h-1.12L387.067,1052.398z"
   id="path57713" />
			<path
   class="svg-label"
   d="M372.443,1065.973c0.008,0.319,0.167,0.928,1.215,0.928c0.567,0,1.199-0.137,1.199-0.744     c0-0.447-0.432-0.568-1.04-0.712l-0.616-0.144c-0.927-0.217-1.823-0.424-1.823-1.688c0-0.639,0.344-1.767,2.207-1.767     c1.759,0,2.231,1.151,2.239,1.854h-1.151c-0.032-0.256-0.128-0.863-1.175-0.863c-0.456,0-1,0.168-1,0.688     c0,0.447,0.368,0.544,0.608,0.6l1.399,0.344c0.784,0.192,1.503,0.512,1.503,1.543c0,1.728-1.759,1.879-2.263,1.879     c-2.095,0-2.455-1.207-2.455-1.918H372.443z"
   id="path57715" />
			<path
   class="svg-label"
   d="M380.49,1066.492c-0.296,1.023-1.144,1.359-1.871,1.359c-1.199,0-2.119-0.576-2.119-2.327     c0-0.512,0.176-2.151,2.039-2.151c0.84,0,1.999,0.4,1.999,2.344v0.199h-2.918c0.032,0.32,0.096,1.039,1,1.039     c0.312,0,0.632-0.159,0.72-0.463H380.49z M379.386,1065.188c-0.064-0.688-0.504-0.896-0.863-0.896     c-0.528,0-0.808,0.336-0.872,0.896H379.386z"
   id="path57717" />
			<path
   class="svg-label"
   d="M382.435,1067.739h-1.119v-5.741h1.119v3.103l1.407-1.614h1.375l-1.503,1.646l1.543,2.606h-1.343     l-1.016-1.823l-0.464,0.48V1067.739z"
   id="path57719" />
			<path
   class="svg-label"
   d="M385.724,1063.486h1.071v0.734h0.016c0.232-0.432,0.488-0.848,1.167-0.848c0.072,0,0.144,0.009,0.216,0.017     v1.136c-0.096-0.016-0.216-0.016-0.32-0.016c-0.872,0-1.032,0.543-1.032,1.015v2.215h-1.119V1063.486z"
   id="path57721" />
			<path
   class="svg-label"
   d="M392.338,1066.492c-0.296,1.023-1.144,1.359-1.871,1.359c-1.199,0-2.119-0.576-2.119-2.327     c0-0.512,0.176-2.151,2.039-2.151c0.84,0,1.999,0.4,1.999,2.344v0.199h-2.918c0.032,0.32,0.096,1.039,1,1.039     c0.312,0,0.632-0.159,0.72-0.463H392.338z M391.235,1065.188c-0.064-0.688-0.504-0.896-0.863-0.896     c-0.528,0-0.808,0.336-0.872,0.896H391.235z"
   id="path57723" />
			<path
   class="svg-label"
   d="M394.387,1063.486h0.696v0.799h-0.696v2.311c0,0.248,0.008,0.344,0.464,0.344     c0.072,0,0.152-0.008,0.232-0.016v0.848c-0.176,0.008-0.352,0.016-0.528,0.016h-0.144c-0.967,0-1.143-0.367-1.143-0.92v-2.582     h-0.576v-0.799h0.576v-1.152h1.119V1063.486z"
   id="path57725" />
			<path
   class="svg-label"
   d="M399.242,1066.908c0,0.504,0.112,0.615,0.248,0.663v0.168h-1.208c-0.064-0.2-0.08-0.264-0.104-0.504     c-0.256,0.265-0.616,0.616-1.375,0.616c-0.64,0-1.295-0.36-1.295-1.24c0-0.831,0.528-1.255,1.239-1.359l1.007-0.151     c0.176-0.024,0.392-0.096,0.392-0.335c0-0.473-0.448-0.496-0.736-0.496c-0.56,0-0.656,0.344-0.688,0.592h-1.08     c0.128-1.304,1.032-1.488,1.903-1.488c0.6,0,1.695,0.185,1.695,1.232V1066.908z M398.146,1065.668     c-0.112,0.088-0.296,0.16-0.76,0.232c-0.416,0.072-0.76,0.176-0.76,0.64c0,0.392,0.304,0.512,0.52,0.512c0.496,0,1-0.319,1-0.84     V1065.668z"
   id="path57727" />
			<path
   class="svg-label"
   d="M400.236,1063.486h1.071v0.734h0.016c0.232-0.432,0.488-0.848,1.167-0.848c0.072,0,0.144,0.009,0.216,0.017     v1.136c-0.096-0.016-0.216-0.016-0.32-0.016c-0.872,0-1.032,0.543-1.032,1.015v2.215h-1.119V1063.486z"
   id="path57729" />
			<path
   class="svg-label"
   d="M404.387,1062.982h-1.119v-1.04h1.119V1062.982z M404.387,1063.486v4.253h-1.119v-4.253H404.387z"
   id="path57731" />
			<path
   class="svg-label"
   d="M408.906,1066.908c0,0.504,0.112,0.615,0.248,0.663v0.168h-1.208c-0.064-0.2-0.08-0.264-0.104-0.504     c-0.256,0.265-0.616,0.616-1.375,0.616c-0.64,0-1.295-0.36-1.295-1.24c0-0.831,0.528-1.255,1.239-1.359l1.007-0.151     c0.176-0.024,0.392-0.096,0.392-0.335c0-0.473-0.448-0.496-0.736-0.496c-0.56,0-0.656,0.344-0.688,0.592h-1.08     c0.128-1.304,1.032-1.488,1.903-1.488c0.6,0,1.695,0.185,1.695,1.232V1066.908z M407.811,1065.668     c-0.112,0.088-0.296,0.16-0.76,0.232c-0.416,0.072-0.76,0.176-0.76,0.64c0,0.392,0.304,0.512,0.52,0.512c0.496,0,1-0.319,1-0.84     V1065.668z"
   id="path57733" />
			<path
   class="svg-label"
   d="M411.164,1063.486h0.696v0.799h-0.696v2.311c0,0.248,0.008,0.344,0.464,0.344     c0.072,0,0.152-0.008,0.232-0.016v0.848c-0.176,0.008-0.352,0.016-0.528,0.016h-0.144c-0.967,0-1.143-0.367-1.143-0.92v-2.582     h-0.576v-0.799h0.576v-1.152h1.119V1063.486z"
   id="path57735" />
		</g>
		<g
   id="g57737">
			<path
   class="svg-label"
   d="M531.545,994.34h-1.199v-5.741h1.199v2.335l2.191-2.335h1.551l-2.343,2.351l2.479,3.391h-1.543l-1.775-2.52     l-0.56,0.576V994.34z"
   id="path57739" />
			<path
   class="svg-label"
   d="M537.097,994.34h-1.119v-5.741h1.119V994.34z"
   id="path57741" />
			<path
   class="svg-label"
   d="M541.824,993.092c-0.296,1.023-1.144,1.359-1.871,1.359c-1.199,0-2.119-0.576-2.119-2.326     c0-0.512,0.176-2.151,2.039-2.151c0.84,0,1.999,0.399,1.999,2.343v0.199h-2.918c0.032,0.32,0.096,1.04,1,1.04     c0.312,0,0.632-0.159,0.72-0.464H541.824z M540.721,991.789c-0.064-0.688-0.504-0.896-0.863-0.896     c-0.528,0-0.808,0.336-0.872,0.896H540.721z"
   id="path57743" />
			<path
   class="svg-label"
   d="M543.77,989.582h-1.119v-1.039h1.119V989.582z M543.77,990.086v4.254h-1.119v-4.254H543.77z"
   id="path57745" />
			<path
   class="svg-label"
   d="M548.688,994.34h-1.12v-2.583c0-0.312-0.016-0.839-0.727-0.839c-0.496,0-0.88,0.335-0.88,0.982v2.439h-1.12     v-4.254h1.072v0.623h0.016c0.152-0.256,0.472-0.735,1.279-0.735c0.832,0,1.479,0.487,1.479,1.423V994.34z"
   id="path57747" />
			<path
   class="svg-label"
   d="M553.385,993.092c-0.296,1.023-1.144,1.359-1.871,1.359c-1.199,0-2.119-0.576-2.119-2.326     c0-0.512,0.176-2.151,2.039-2.151c0.84,0,1.999,0.399,1.999,2.343v0.199h-2.919c0.033,0.32,0.097,1.04,1,1.04     c0.313,0,0.632-0.159,0.72-0.464H553.385z M552.281,991.789c-0.064-0.688-0.504-0.896-0.863-0.896     c-0.527,0-0.808,0.336-0.871,0.896H552.281z"
   id="path57749" />
			<path
   class="svg-label"
   d="M531.545,1003.939h-1.199v-5.74h1.199v2.334l2.191-2.334h1.551l-2.343,2.35l2.479,3.391h-1.543     l-1.775-2.519l-0.56,0.575V1003.939z"
   id="path57751" />
			<path
   class="svg-label"
   d="M539.232,1003.107c0,0.504,0.112,0.616,0.248,0.664v0.168h-1.208c-0.064-0.199-0.08-0.264-0.104-0.504     c-0.256,0.264-0.616,0.615-1.375,0.615c-0.64,0-1.295-0.359-1.295-1.238c0-0.832,0.528-1.256,1.239-1.359l1.007-0.152     c0.176-0.023,0.392-0.096,0.392-0.336c0-0.472-0.448-0.496-0.736-0.496c-0.56,0-0.656,0.344-0.688,0.592h-1.08     c0.128-1.303,1.032-1.486,1.903-1.486c0.6,0,1.695,0.184,1.695,1.23V1003.107z M538.137,1001.869     c-0.112,0.088-0.296,0.159-0.76,0.231c-0.416,0.071-0.76,0.176-0.76,0.64c0,0.392,0.304,0.512,0.52,0.512c0.496,0,1-0.32,1-0.84     V1001.869z"
   id="path57753" />
			<path
   class="svg-label"
   d="M542.641,1000.98c-0.049-0.271-0.145-0.559-0.752-0.559s-0.688,0.231-0.688,0.416     c0,0.671,2.662,0.184,2.662,1.75c0,1.24-1.199,1.463-1.863,1.463c-0.967,0-2.014-0.336-2.046-1.471h1.152     c0,0.359,0.224,0.623,0.928,0.623c0.575,0,0.711-0.279,0.711-0.439c0-0.711-2.639-0.176-2.639-1.767     c0-0.624,0.392-1.423,1.719-1.423c0.832,0,1.823,0.207,1.912,1.406H542.641z"
   id="path57755" />
			<path
   class="svg-label"
   d="M545.833,1003.939h-1.119v-5.74h1.119v3.102l1.407-1.615h1.375l-1.503,1.647l1.544,2.606h-1.344     l-1.016-1.822l-0.464,0.479V1003.939z"
   id="path57757" />
			<path
   class="svg-label"
   d="M552.576,1003.107c0,0.504,0.111,0.616,0.248,0.664v0.168h-1.207c-0.064-0.199-0.08-0.264-0.104-0.504     c-0.256,0.264-0.616,0.615-1.375,0.615c-0.64,0-1.296-0.359-1.296-1.238c0-0.832,0.528-1.256,1.24-1.359l1.007-0.152     c0.176-0.023,0.392-0.096,0.392-0.336c0-0.472-0.447-0.496-0.735-0.496c-0.56,0-0.655,0.344-0.688,0.592h-1.079     c0.127-1.303,1.031-1.486,1.902-1.486c0.6,0,1.695,0.184,1.695,1.23V1003.107z M551.48,1001.869     c-0.111,0.088-0.295,0.159-0.76,0.231c-0.415,0.071-0.76,0.176-0.76,0.64c0,0.392,0.305,0.512,0.521,0.512     c0.495,0,0.999-0.32,0.999-0.84V1001.869z"
   id="path57759" />
			<path
   class="svg-label"
   d="M557.465,1003.939h-1.096v-0.535h-0.017c-0.271,0.479-0.768,0.646-1.231,0.646     c-1.263,0-1.791-1.119-1.791-2.286c0-1.472,0.832-2.19,1.768-2.19c0.719,0,1.055,0.392,1.23,0.663h0.017v-2.038h1.12V1003.939z      M555.401,1003.132c0.712,0,0.991-0.592,0.991-1.224c0-0.68-0.191-1.367-0.959-1.367c-0.712,0-0.951,0.632-0.951,1.304     C554.482,1002.348,554.682,1003.132,555.401,1003.132z"
   id="path57761" />
			<path
   class="svg-label"
   d="M562.12,1002.691c-0.296,1.023-1.144,1.359-1.871,1.359c-1.199,0-2.118-0.575-2.118-2.326     c0-0.512,0.176-2.15,2.038-2.15c0.84,0,1.999,0.399,1.999,2.342v0.201h-2.918c0.031,0.318,0.096,1.039,0.999,1.039     c0.312,0,0.632-0.16,0.72-0.465H562.12z M561.017,1001.389c-0.063-0.688-0.504-0.896-0.863-0.896     c-0.528,0-0.808,0.336-0.872,0.896H561.017z"
   id="path57763" />
		</g>
		<g
   id="g57765">
			<path
   class="svg-label"
   d="M197.971,960.813h-1.199v-5.741h1.199V960.813z"
   id="path57767" />
			<path
   class="svg-label"
   d="M199.907,960.813h-1.264l2.047-5.741h1.383l2.023,5.741h-1.303l-0.368-1.184h-2.119L199.907,960.813z      M200.627,958.638h1.463l-0.711-2.271h-0.016L200.627,958.638z"
   id="path57769" />
			<path
   class="svg-label"
   d="M206.067,960.813h-1.2v-5.741h2.623c1.111,0,1.783,0.711,1.783,1.839c0,0.52-0.288,1.831-1.831,1.831     h-1.375V960.813z M207.178,957.75c0.896,0,0.896-0.64,0.896-0.896c0-0.56-0.312-0.792-1.056-0.792h-0.951v1.687H207.178z"
   id="path57771" />
		</g>
		<g
   id="g57773">
			<path
   class="svg-label"
   d="M197.971,1112.133h-1.199v-5.74h1.199V1112.133z"
   id="path57775" />
			<path
   class="svg-label"
   d="M199.907,1112.133h-1.264l2.047-5.74h1.383l2.023,5.74h-1.303l-0.368-1.184h-2.119L199.907,1112.133z      M200.627,1109.959h1.463l-0.711-2.271h-0.016L200.627,1109.959z"
   id="path57777" />
			<path
   class="svg-label"
   d="M206.067,1112.133h-1.2v-5.74h2.623c1.111,0,1.783,0.711,1.783,1.839c0,0.52-0.288,1.831-1.831,1.831     h-1.375V1112.133z M207.178,1109.07c0.896,0,0.896-0.639,0.896-0.895c0-0.561-0.312-0.792-1.056-0.792h-0.951v1.687H207.178z"
   id="path57779" />
		</g>
	</g>
	<g
   id="TOILETS">
		<g
   id="g57782">
			<circle
   class="svg-label"
   cx="429.63"
   cy="988.803"
   r="8.096"
   id="circle57784" />
			<path
   class="svg-labelfill"
   d="M425.327,987.771v4.686c0,0,0.324,0.438,0.709,0v-2.402h0.46v2.393c0,0,0.315,0.441,0.69,0.025v-4.752     l1.131,1.17c0,0,0.473,0.076,0.468-0.406l-1.519-1.775h-2l-1.46,1.686c0,0-0.124,0.563,0.444,0.453L425.327,987.771z"
   id="path57786" />
			<circle
   class="svg-labelfill"
   cx="426.29"
   cy="985.631"
   r="0.801"
   id="circle57788" />
			<path
   class="svg-labelfill"
   d="M429.859,992.441c0,0.15-0.122,0.272-0.272,0.272l0,0c-0.15,0-0.271-0.122-0.271-0.272v-7.34     c0-0.15,0.121-0.271,0.271-0.271l0,0c0.15,0,0.272,0.121,0.272,0.271V992.441z"
   id="path57790" />
			<circle
   class="svg-labelfill"
   cx="433.02"
   cy="985.631"
   r="0.812"
   id="circle57792" />
			<path
   class="svg-labelfill"
   d="M431.97,986.709h2.004l1.506,1.699c0,0,0.063,0.547-0.51,0.439l-1.018-1.095l0.795,3.106h-0.916     l-0.004,1.639c0,0-0.317,0.445-0.607,0v-1.636h-0.455l-0.006,1.622c0,0-0.334,0.401-0.602,0.004v-1.623h-0.917l0.765-3.123     l-1.041,1.094c0,0-0.455,0.166-0.434-0.435L431.97,986.709z"
   id="path57794" />
		</g>
		<g
   id="g57796">
			<circle
   class="svg-label"
   cx="266.82"
   cy="1099.061"
   r="8.096"
   id="circle57798" />
			<path
   class="svg-labelfill"
   d="M262.517,1098.029v4.686c0,0,0.324,0.438,0.708,0v-2.402h0.46v2.393c0,0,0.315,0.441,0.69,0.025v-4.752     l1.131,1.17c0,0,0.473,0.076,0.468-0.406l-1.518-1.775h-2l-1.46,1.686c0,0-0.125,0.563,0.444,0.453L262.517,1098.029z"
   id="path57800" />
			<circle
   class="svg-labelfill"
   cx="263.479"
   cy="1095.889"
   r="0.8"
   id="circle57802" />
			<path
   class="svg-labelfill"
   d="M267.049,1102.699c0,0.15-0.122,0.272-0.272,0.272l0,0c-0.15,0-0.272-0.122-0.272-0.272v-7.34     c0-0.15,0.122-0.271,0.272-0.271l0,0c0.15,0,0.272,0.121,0.272,0.271V1102.699z"
   id="path57804" />
			<circle
   class="svg-labelfill"
   cx="270.209"
   cy="1095.889"
   r="0.812"
   id="circle57806" />
			<path
   class="svg-labelfill"
   d="M269.159,1096.967h2.005l1.505,1.699c0,0,0.063,0.547-0.509,0.439l-1.019-1.095l0.796,3.106h-0.917     l-0.003,1.639c0,0-0.318,0.445-0.608,0v-1.636h-0.455l-0.006,1.622c0,0-0.334,0.401-0.602,0.004v-1.623h-0.917l0.765-3.123     l-1.041,1.094c0,0-0.456,0.166-0.435-0.435L269.159,1096.967z"
   id="path57808" />
		</g>
	</g>
	<g
   id="ELEVATORS">
		<g
   id="g57811">
			<circle
   class="svg-label"
   cx="178.258"
   cy="52.888"
   r="8.096"
   id="circle57813" />
			<g
   id="g57815">
				<path
   class="svg-labelfill"
   d="M180.378,49.838c0,1.446,0,2.877,0,4.348c-0.583-0.526-1.136-1.027-1.709-1.545      c-0.01,0.057-0.017,0.077-0.017,0.097c0,0.43-0.004,0.86,0.004,1.291c0.001,0.059,0.043,0.129,0.088,0.172      c0.469,0.448,0.94,0.891,1.412,1.334c0.252,0.236,0.503,0.47,0.755,0.706c0.027-0.023,0.044-0.036,0.06-0.05      c0.72-0.691,1.442-1.38,2.159-2.074c0.042-0.042,0.067-0.119,0.068-0.18c0.009-0.26,0.004-0.52,0.004-0.781      c0-0.161,0-0.322,0-0.522c-0.601,0.528-1.167,1.026-1.77,1.556c0-1.479,0-2.914,0-4.351      C181.076,49.838,180.742,49.838,180.378,49.838z M175.586,49.535c-0.045,0.04-0.082,0.068-0.115,0.101      c-0.649,0.619-1.294,1.244-1.952,1.854c-0.155,0.145-0.221,0.29-0.202,0.497c0.017,0.185,0.004,0.372,0.004,0.558      c0,0.188,0,0.376,0,0.611c0.589-0.535,1.143-1.037,1.731-1.57c0,1.485,0,2.921,0,4.354c0.351,0,0.682,0,1.037,0      c0-1.445,0-2.878,0-4.34c0.593,0.525,1.157,1.025,1.753,1.552c0-0.458,0.005-0.866-0.006-1.274      c-0.003-0.083-0.045-0.185-0.105-0.244c-0.45-0.451-0.909-0.893-1.365-1.338C176.107,50.044,175.851,49.792,175.586,49.535z"
   id="path57817" />
				<path
   class="svg-labelfill"
   d="M180.378,49.838c0.364,0,0.698,0,1.055,0c0,1.437,0,2.871,0,4.351c0.603-0.53,1.169-1.028,1.77-1.556      c0,0.2,0,0.361,0,0.522c0,0.261,0.005,0.521-0.004,0.781c-0.001,0.062-0.026,0.139-0.068,0.18      c-0.717,0.694-1.439,1.383-2.159,2.074c-0.016,0.015-0.032,0.027-0.06,0.05c-0.252-0.235-0.503-0.47-0.755-0.706      c-0.472-0.443-0.943-0.887-1.412-1.334c-0.045-0.042-0.087-0.113-0.088-0.172c-0.008-0.43-0.004-0.861-0.004-1.291      c0-0.02,0.007-0.04,0.017-0.097c0.573,0.518,1.126,1.019,1.709,1.545C180.378,52.715,180.378,51.284,180.378,49.838z"
   id="path57819" />
				<path
   class="svg-labelfill"
   d="M175.586,49.535c0.265,0.257,0.521,0.509,0.779,0.761c0.456,0.445,0.915,0.887,1.365,1.338      c0.061,0.059,0.103,0.161,0.105,0.244c0.011,0.408,0.006,0.816,0.006,1.274c-0.596-0.527-1.16-1.026-1.753-1.552      c0,1.462,0,2.895,0,4.34c-0.355,0-0.687,0-1.037,0c0-1.433,0-2.87,0-4.354c-0.589,0.533-1.143,1.035-1.731,1.57      c0-0.235,0-0.423,0-0.611c0-0.186,0.013-0.373-0.004-0.558c-0.019-0.207,0.047-0.352,0.202-0.497      c0.658-0.61,1.303-1.235,1.952-1.854C175.504,49.604,175.541,49.575,175.586,49.535z"
   id="path57821" />
			</g>
		</g>
		<g
   id="g57823">
			<circle
   class="svg-label"
   cx="289.802"
   cy="964.533"
   r="8.096"
   id="circle57825" />
			<g
   id="g57827">
				<path
   class="svg-labelfill"
   d="M291.922,961.482c0,1.445,0,2.877,0,4.348c-0.583-0.525-1.136-1.025-1.709-1.545      c-0.01,0.059-0.017,0.078-0.017,0.098c0,0.43-0.004,0.859,0.004,1.291c0.001,0.059,0.043,0.129,0.088,0.172      c0.469,0.447,0.94,0.891,1.412,1.334c0.252,0.236,0.503,0.471,0.755,0.705c0.027-0.023,0.044-0.035,0.06-0.051      c0.72-0.689,1.442-1.379,2.159-2.074c0.042-0.041,0.067-0.117,0.068-0.18c0.009-0.26,0.004-0.52,0.004-0.781      c0-0.16,0-0.322,0-0.521c-0.601,0.527-1.167,1.025-1.77,1.557c0-1.48,0-2.914,0-4.352      C292.62,961.482,292.286,961.482,291.922,961.482z M287.13,961.18c-0.045,0.039-0.082,0.068-0.115,0.1      c-0.649,0.619-1.294,1.244-1.952,1.855c-0.155,0.145-0.221,0.289-0.202,0.496c0.017,0.184,0.004,0.371,0.004,0.557      c0,0.189,0,0.377,0,0.611c0.589-0.533,1.143-1.035,1.731-1.568c0,1.484,0,2.92,0,4.354c0.351,0,0.682,0,1.037,0      c0-1.445,0-2.877,0-4.34c0.593,0.525,1.157,1.025,1.753,1.551c0-0.457,0.005-0.865-0.006-1.273      c-0.003-0.082-0.045-0.186-0.105-0.244c-0.45-0.449-0.909-0.893-1.365-1.338C287.651,961.689,287.395,961.438,287.13,961.18z"
   id="path57829" />
				<path
   class="svg-labelfill"
   d="M291.922,961.482c0.364,0,0.698,0,1.055,0c0,1.438,0,2.871,0,4.352c0.603-0.531,1.169-1.029,1.77-1.557      c0,0.199,0,0.361,0,0.521c0,0.262,0.005,0.521-0.004,0.781c-0.001,0.063-0.026,0.139-0.068,0.18      c-0.717,0.695-1.439,1.385-2.159,2.074c-0.016,0.016-0.032,0.027-0.06,0.051c-0.252-0.234-0.503-0.469-0.755-0.705      c-0.472-0.443-0.943-0.887-1.412-1.334c-0.045-0.043-0.087-0.113-0.088-0.172c-0.008-0.432-0.004-0.861-0.004-1.291      c0-0.02,0.007-0.039,0.017-0.098c0.573,0.52,1.126,1.02,1.709,1.545C291.922,964.359,291.922,962.928,291.922,961.482z"
   id="path57831" />
				<path
   class="svg-labelfill"
   d="M287.13,961.18c0.265,0.258,0.521,0.51,0.779,0.76c0.456,0.445,0.915,0.889,1.365,1.338      c0.061,0.059,0.103,0.162,0.105,0.244c0.011,0.408,0.006,0.816,0.006,1.273c-0.596-0.525-1.16-1.025-1.753-1.551      c0,1.463,0,2.895,0,4.34c-0.355,0-0.687,0-1.037,0c0-1.434,0-2.869,0-4.354c-0.589,0.533-1.143,1.035-1.731,1.568      c0-0.234,0-0.422,0-0.611c0-0.186,0.013-0.373-0.004-0.557c-0.019-0.207,0.047-0.352,0.202-0.496      c0.658-0.611,1.303-1.236,1.952-1.855C287.048,961.248,287.085,961.219,287.13,961.18z"
   id="path57833" />
			</g>
		</g>
	</g>
	<g
   id="FOOD">
	</g>
	<g
   id="COPY">
		<g
   id="g57837">
			<circle
   class="svg-label"
   cx="328.56"
   cy="1037.913"
   r="8.097"
   id="circle57839" />
			<g
   id="g57841">
				<path
   class="svg-labelfill"
   d="M328.561,1037.586c-0.09,0-0.18,0-0.27,0c-1.367,0-2.734,0-4.1,0c-0.07,0-0.117,0-0.117,0.098      c0.004,1.249-0.004,2.498,0.006,3.748c0.004,0.499,0.242,0.879,0.684,1.122c0.246,0.136,0.514,0.151,0.787,0.152      c0.096,0.001,0.117-0.029,0.117-0.12c-0.004-0.607-0.004-1.216-0.002-1.824c0-0.332,0.287-0.624,0.617-0.625      c1.51-0.001,3.021-0.001,4.531,0.001c0.361,0,0.639,0.282,0.639,0.644c0.002,0.608,0.002,1.216,0,1.824      c0,0.071,0.016,0.105,0.094,0.1c0.117-0.01,0.234-0.004,0.35-0.017c0.666-0.075,1.145-0.606,1.146-1.276      c0.002-1.242-0.002-2.485,0.002-3.729c0-0.082-0.027-0.098-0.104-0.098C331.483,1037.587,330.022,1037.586,328.561,1037.586z       M328.551,1037.25c1.078,0,2.158,0,3.236,0c0.389,0,0.775,0,1.162,0c0.041,0,0.098,0.014,0.094-0.057      c-0.008-0.156,0.002-0.316-0.033-0.467c-0.102-0.455-0.48-0.743-0.953-0.744c-1.748,0-3.494,0-5.24,0      c-0.295,0-0.494-0.188-0.51-0.477c-0.014-0.283-0.205-0.479-0.486-0.483c-0.209-0.003-0.42-0.001-0.629,0.016      c-0.551,0.046-1.057,0.544-1.094,1.095c-0.023,0.332-0.014,0.666-0.021,1c-0.004,0.09,0.02,0.119,0.115,0.119      C325.645,1037.249,327.098,1037.25,328.551,1037.25z M328.561,1042.703c0.818,0,1.637-0.001,2.455,0.002      c0.074,0,0.105-0.015,0.104-0.1c-0.004-0.246-0.004-0.494,0-0.741c0.002-0.081-0.018-0.109-0.104-0.109      c-1.641,0.003-3.281,0.002-4.922-0.001c-0.078,0-0.096,0.027-0.094,0.1c0.004,0.24,0.006,0.48-0.002,0.722      c-0.002,0.099,0.021,0.131,0.125,0.13C326.936,1042.701,327.749,1042.703,328.561,1042.703z M332.709,1033.434      c0.002-0.241-0.203-0.374-0.445-0.289c-1.504,0.527-3.006,1.055-4.51,1.582c-0.297,0.104-0.592,0.206-0.887,0.312      c-0.166,0.06-0.25,0.206-0.211,0.358c0.055,0.212,0.229,0.291,0.465,0.208c1.105-0.389,2.213-0.777,3.318-1.165      c0.678-0.237,1.354-0.475,2.029-0.711C332.629,1033.673,332.708,1033.576,332.709,1033.434z"
   id="path57843" />
				<path
   class="svg-labelfill"
   d="M328.561,1037.586c1.461,0,2.922,0.001,4.381,0c0.076,0,0.104,0.016,0.104,0.098      c-0.004,1.243,0,2.486-0.002,3.729c-0.002,0.67-0.48,1.201-1.146,1.276c-0.115,0.013-0.232,0.007-0.35,0.017      c-0.078,0.006-0.094-0.028-0.094-0.1c0.002-0.608,0.002-1.216,0-1.824c0-0.361-0.277-0.644-0.639-0.644      c-1.51-0.002-3.021-0.002-4.531-0.001c-0.33,0.001-0.617,0.293-0.617,0.625c-0.002,0.608-0.002,1.217,0.002,1.824      c0,0.091-0.021,0.121-0.117,0.12c-0.273-0.001-0.541-0.017-0.787-0.152c-0.441-0.243-0.68-0.623-0.684-1.122      c-0.01-1.25-0.002-2.499-0.006-3.748c0-0.098,0.047-0.098,0.117-0.098c1.365,0,2.732,0,4.1,0      C328.381,1037.586,328.471,1037.586,328.561,1037.586z M331.77,1038.533c-0.195,0.001-0.332,0.141-0.332,0.337      c0.002,0.182,0.145,0.321,0.328,0.32c0.193-0.001,0.332-0.142,0.33-0.338C332.096,1038.672,331.954,1038.532,331.77,1038.533z       M330.813,1038.857c0-0.186-0.141-0.324-0.328-0.324c-0.191,0-0.328,0.137-0.328,0.326c0,0.193,0.141,0.333,0.334,0.331      C330.674,1039.188,330.815,1039.043,330.813,1038.857z"
   id="path57845" />
				<path
   class="svg-labelfill"
   d="M328.551,1037.25c-1.453,0-2.906-0.001-4.359,0.002c-0.096,0-0.119-0.029-0.115-0.119      c0.008-0.334-0.002-0.668,0.021-1c0.037-0.551,0.543-1.049,1.094-1.095c0.209-0.017,0.42-0.019,0.629-0.016      c0.281,0.004,0.473,0.2,0.486,0.483c0.016,0.289,0.215,0.477,0.51,0.477c1.746,0,3.492,0,5.24,0      c0.473,0.001,0.852,0.289,0.953,0.744c0.035,0.15,0.025,0.311,0.033,0.467c0.004,0.07-0.053,0.057-0.094,0.057      c-0.387,0-0.773,0-1.162,0C330.709,1037.25,329.629,1037.25,328.551,1037.25z"
   id="path57847" />
				<path
   class="svg-labelfill"
   d="M328.561,1042.703c-0.813,0-1.625-0.002-2.438,0.002c-0.104,0.001-0.127-0.031-0.125-0.13      c0.008-0.241,0.006-0.481,0.002-0.722c-0.002-0.072,0.016-0.1,0.094-0.1c1.641,0.003,3.281,0.004,4.922,0.001      c0.086,0,0.105,0.028,0.104,0.109c-0.004,0.247-0.004,0.495,0,0.741c0.002,0.085-0.029,0.1-0.104,0.1      C330.198,1042.702,329.379,1042.703,328.561,1042.703z"
   id="path57849" />
				<path
   class="svg-labelfill"
   d="M332.709,1033.434c-0.002,0.143-0.08,0.239-0.24,0.295c-0.676,0.236-1.352,0.474-2.029,0.711      c-1.105,0.388-2.213,0.776-3.318,1.165c-0.236,0.083-0.41,0.004-0.465-0.208c-0.039-0.152,0.045-0.299,0.211-0.358      c0.295-0.105,0.59-0.208,0.887-0.312c1.504-0.527,3.006-1.055,4.51-1.582C332.506,1033.06,332.711,1033.192,332.709,1033.434z"
   id="path57851" />
				<path
   class="svg-labelfill"
   d="M331.77,1038.533c0.184-0.001,0.326,0.139,0.326,0.319c0.002,0.196-0.137,0.337-0.33,0.338      c-0.184,0.001-0.326-0.139-0.328-0.32C331.438,1038.674,331.575,1038.534,331.77,1038.533z"
   id="path57853" />
				<path
   class="svg-labelfill"
   d="M330.813,1038.857c0.002,0.186-0.139,0.331-0.322,0.333c-0.193,0.002-0.334-0.138-0.334-0.331      c0-0.189,0.137-0.326,0.328-0.326C330.672,1038.533,330.813,1038.672,330.813,1038.857z"
   id="path57855" />
			</g>
		</g>
	</g>
	<g
   id="RECYCLE">
	</g>
	<g
   id="SURF">
	</g>
	<g
   id="g57859">
	</g>
	<g
   id="g57861">
	</g>
	<g
   id="g57863">
	</g>
	<g
   id="g57865">
	</g>
	<g
   id="g57867">
	</g>
	<g
   id="g57869">
	</g>
</g>
</svg>