<?xml version="1.0" encoding="utf-8"?>
<!-- Generator: Adobe Illustrator 18.1.0, SVG Export Plug-In . SVG Version: 6.00 Build 0)  -->
<!DOCTYPE svg PUBLIC "-//W3C//DTD SVG 1.1//EN" "http://www.w3.org/Graphics/SVG/1.1/DTD/svg11.dtd">
<svg version="1.1" id="Layer_1" xmlns="http://www.w3.org/2000/svg" xmlns:xlink="http://www.w3.org/1999/xlink" x="0px" y="0px"
	 viewBox="30.5 82.5 119 119" enable-background="new 30.5 82.5 119 119" xml:space="preserve">
<path d="M139.6,135.9l-3.7,0.4c1.9,14.3-3.1,28.3-13.2,38.4c-8.7,8.7-20.3,13.4-32.7,13.4s-23.9-4.7-32.7-13.4
	c-8.7-8.7-13.4-20.3-13.4-32.7s4.7-23.9,13.4-32.7S77.6,95.9,90,95.9c11,0,21.5,3.9,30,11l-21.3,6.3l1,3.6l26.3-7.9l-7.9-26.3
	l-3.6,1l5.5,18.6c-8.6-6.7-19-10.1-30.1-10.1c-13.3,0-25.8,5.1-35.3,14.6C45.1,116.2,40,128.7,40,142s5.1,25.8,14.6,35.3
	c9.6,9.5,22.2,14.6,35.4,14.6l0,0c13.3,0,25.8-5.1,35.3-14.6C136.4,166.4,141.6,151.3,139.6,135.9z"/>
</svg>
