<?xml version="1.0" encoding="utf-8"?>
<!-- Generator: Adobe Illustrator 18.1.0, SVG Export Plug-In . SVG Version: 6.00 Build 0)  -->
<svg version="1.1" id="Capa_1" xmlns="http://www.w3.org/2000/svg" xmlns:xlink="http://www.w3.org/1999/xlink" x="0px" y="0px"
	 viewBox="256 346 100 100" enable-background="new 256 346 100 100" xml:space="preserve">
<path fill="#588BB3" d="M306,346c-27.6,0-50,22.4-50,50s22.4,50,50,50s50-22.4,50-50S333.6,346,306,346z M291.2,385.2
	c0.1,0,0.3,0,0.4,0c0.1,0.1,0.2,0.2,0.2,0.3l0.6,4.9c0,0.2-0.1,0.4-0.3,0.5c-2.9,1.3-5.3,3.3-7,6c-1.7,2.7-2.6,5.6-2.6,8.8
	c0,4.4,1.6,8.3,4.7,11.4c3.1,3.1,7,4.7,11.4,4.7c3,0,5.8-0.8,8.4-2.3c2.6-1.6,4.6-3.7,6-6.3c1.4-2.6,2-5.5,1.8-8.5
	c0-0.2,0.1-0.4,0.3-0.5c0.2-0.1,0.4,0,0.5,0.2l3.8,7.6c0.1,0.1,0.1,0.2,0,0.3c-1.5,4.5-4.1,8.2-8,11c-3.8,2.8-8.1,4.2-12.9,4.2
	c-3.9,0-7.6-1-10.9-2.9c-3.3-1.9-6-4.6-8-8c-2-3.3-2.9-7-2.9-10.9c0-4.6,1.3-8.8,4-12.5C283.4,389.4,286.9,386.7,291.2,385.2z
	 M327.2,418c-1.2,0-2-0.5-2.5-1.6l-8.7-17.4h-17.2c-0.7,0-1.3-0.2-1.9-0.7c-0.5-0.5-0.9-1.1-0.9-1.8l-3.6-28.9c-0.1-0.5,0-1,0.2-1.8
	c0.4-1.3,1.1-2.5,2.3-3.3c1.1-0.8,2.4-1.3,3.9-1.3c1.7,0,3.3,0.6,4.5,1.9c1.2,1.2,1.9,2.8,1.9,4.5c0,1.8-0.7,3.4-2.1,4.7
	c-1.2,1.2-2.7,1.7-4.2,1.7l1.3,9.8h15.3c0.3,0,0.5,0.2,0.5,0.5v4.8c0,0.3-0.2,0.5-0.5,0.5h-14.6l0.5,3.8h16.5c1.2,0,2,0.5,2.5,1.6
	l8.3,16.5l6.9-3.5c0.2-0.1,0.5,0,0.6,0.2l2.2,4.2c0.1,0.1,0.1,0.2,0,0.3c0,0.1-0.1,0.2-0.2,0.3l-9.5,4.8
	C328.1,417.9,327.6,418,327.2,418z"/>
</svg>
