<?xml version="1.0" encoding="utf-8"?>
<!-- Generator: Adobe Illustrator 18.1.0, SVG Export Plug-In . SVG Version: 6.00 Build 0)  -->
<!DOCTYPE svg PUBLIC "-//W3C//DTD SVG 1.1//EN" "http://www.w3.org/Graphics/SVG/1.1/DTD/svg11.dtd">
<svg version="1.1" id="Layer_1" xmlns="http://www.w3.org/2000/svg" xmlns:xlink="http://www.w3.org/1999/xlink" x="0px" y="0px"
	 viewBox="-39 93 100 100" enable-background="new -39 93 100 100" xml:space="preserve">
<path fill="#F4F4E9" d="M45.5,138.5l-2.6,0.3c1.3,10-2.1,19.7-9.2,26.8c-6.1,6.1-14.2,9.4-22.8,9.4c-8.6,0-16.7-3.3-22.8-9.4
	c-6.1-6.1-9.4-14.2-9.4-22.8c0-8.6,3.3-16.7,9.4-22.8c6.1-6.1,14.2-9.4,22.8-9.4c7.7,0,15,2.7,20.9,7.7l-14.9,4.4l0.7,2.5l18.4-5.5
	l-5.5-18.4l-2.5,0.7l3.8,13c-6-4.6-13.3-7-21-7c-9.3,0-18,3.6-24.6,10.2c-6.6,6.6-10.2,15.3-10.2,24.6c0,9.3,3.6,18,10.2,24.6
	C-7,174,1.7,177.6,11,177.6c0,0,0,0,0,0c9.3,0,18-3.6,24.6-10.2C43.3,159.8,46.9,149.2,45.5,138.5z"/>
</svg>
