<?xml version="1.0" encoding="utf-8"?>
<!-- Generator: Adobe Illustrator 16.2.1, SVG Export Plug-In . SVG Version: 6.00 Build 0)  -->
<!DOCTYPE svg PUBLIC "-//W3C//DTD SVG 1.1//EN" "http://www.w3.org/Graphics/SVG/1.1/DTD/svg11.dtd">
<svg version="1.1" id="Ebene_1" xmlns="http://www.w3.org/2000/svg" xmlns:xlink="http://www.w3.org/1999/xlink" x="0px" y="0px"
	 width="46px" height="37px" viewBox="0 0 46 37" enable-background="new 0 0 46 37" xml:space="preserve">
<g>
	<g>
		<line fill="none" stroke="#000000" stroke-width="5" stroke-miterlimit="10" x1="-330" y1="34.479" x2="-284" y2="34.479"/>
	</g>
	<g>
		<line fill="none" stroke="#000000" stroke-width="5" stroke-miterlimit="10" x1="-330" y1="18.479" x2="-284" y2="18.479"/>
	</g>
	<g>
		<line fill="none" stroke="#000000" stroke-width="5" stroke-miterlimit="10" x1="-330" y1="2.479" x2="-284" y2="2.479"/>
	</g>
</g>
<line fill="none" stroke="#000000" stroke-width="5" stroke-miterlimit="10" x1="-258.289" y1="1.723" x2="-225.004" y2="35.008"/>
<line fill="none" stroke="#000000" stroke-width="5" stroke-miterlimit="10" x1="-225.004" y1="1.723" x2="-258.289" y2="35.008"/>
<path fill="none" stroke="#010202" stroke-miterlimit="10" d="M-156.48,18.426"/>
<path fill="none" stroke="#010202" stroke-miterlimit="10" d="M-198.156,18.426"/>
<polyline fill="none" stroke="#010202" stroke-width="5" stroke-miterlimit="10" points="-167.621,34.947 -182.77,18.426 
	-167.621,1.906 "/>
<polyline fill="none" stroke="#010202" stroke-width="5" stroke-miterlimit="10" points="-115.645,1.905 -100.496,18.426 
	-115.645,34.947 "/>
<g>
	<circle cx="22.619" cy="4.797" r="4.543"/>
	<polygon points="27.247,14.144 27.247,32.146 31.206,32.146 31.206,36.745 14.795,36.745 14.795,32.146 18.754,32.146 
		18.754,18.743 14.795,18.743 14.795,14.144 	"/>
</g>
</svg>
