<?xml version="1.0" encoding="utf-8"?>
<!-- Generator: Adobe Illustrator 16.2.1, SVG Export Plug-In . SVG Version: 6.00 Build 0)  -->
<!DOCTYPE svg PUBLIC "-//W3C//DTD SVG 1.1//EN" "http://www.w3.org/Graphics/SVG/1.1/DTD/svg11.dtd">
<svg version="1.1" id="Ebene_1" xmlns="http://www.w3.org/2000/svg" xmlns:xlink="http://www.w3.org/1999/xlink" x="0px" y="0px"
	 width="100px" height="100px" viewBox="0 0 100 100" enable-background="new 0 0 100 100" xml:space="preserve">
<g>
	<g>
		<path fill="#FFFFFF" d="M94.485,83.337c0,6.158-4.991,11.148-11.145,11.148c-6.157,0-11.146-4.99-11.146-11.148
			c0-6.153,4.989-11.144,11.146-11.144C89.494,72.193,94.485,77.184,94.485,83.337z"/>
	</g>
	<g>
		<circle fill="#FFFFFF" cx="83.34" cy="49.998" r="11.146"/>
	</g>
	<g>
		<circle fill="#FFFFFF" cx="83.34" cy="16.66" r="11.146"/>
	</g>
</g>
<g>
	<path fill="#FFFFFF" d="M61.145,83.337c0,6.158-4.99,11.148-11.144,11.148c-6.157,0-11.147-4.99-11.147-11.148
		c0-6.153,4.99-11.144,11.147-11.144C56.154,72.193,61.145,77.184,61.145,83.337z"/>
</g>
<g>
	<circle fill="#FFFFFF" cx="49.999" cy="49.998" r="11.146"/>
</g>
<g>
	<circle fill="#FFFFFF" cx="49.999" cy="16.66" r="11.146"/>
</g>
<g>
	<g>
		<path fill="#FFFFFF" d="M27.805,83.337c0,6.158-4.989,11.148-11.144,11.148c-6.157,0-11.146-4.99-11.146-11.148
			c0-6.153,4.989-11.144,11.146-11.144C22.815,72.193,27.805,77.184,27.805,83.337z"/>
	</g>
	<g>
		<circle fill="#FFFFFF" cx="16.66" cy="49.998" r="11.145"/>
	</g>
	<g>
		<circle fill="#FFFFFF" cx="16.66" cy="16.66" r="11.145"/>
	</g>
</g>
</svg>
