<?xml version="1.0" encoding="utf-8"?>
<!-- Generator: Adobe Illustrator 16.0.4, SVG Export Plug-In . SVG Version: 6.00 Build 0)  -->
<!DOCTYPE svg PUBLIC "-//W3C//DTD SVG 1.1//EN" "http://www.w3.org/Graphics/SVG/1.1/DTD/svg11.dtd">
<svg version="1.1" id="Layer_1" xmlns="http://www.w3.org/2000/svg" xmlns:xlink="http://www.w3.org/1999/xlink" x="0px" y="0px"
	 width="31px" height="22px" viewBox="0 0 31 22" enable-background="new 0 0 31 22" xml:space="preserve">
<g id="hamburger" class="menueicon">
	<path d="M31,2c0,1.104-0.896,2-2,2H2C0.896,4,0,3.104,0,2l0,0c0-1.104,0.896-2,2-2h27C30.104,0,31,0.896,31,2L31,2z"/>
	<path d="M31,11c0,1.104-0.896,2-2,2H2c-1.104,0-2-0.896-2-2l0,0c0-1.104,0.896-2,2-2h27C30.104,9,31,9.896,31,11L31,11z"/>
	<path d="M31,20c0,1.104-0.896,2-2,2H2c-1.104,0-2-0.896-2-2l0,0c0-1.104,0.896-2,2-2h27C30.104,18,31,18.896,31,20L31,20z"/>
</g>
</svg>
