<?xml version="1.0" encoding="utf-8"?>
<!-- Generator: Adobe Illustrator 16.0.4, SVG Export Plug-In . SVG Version: 6.00 Build 0)  -->
<!DOCTYPE svg PUBLIC "-//W3C//DTD SVG 1.1//EN" "http://www.w3.org/Graphics/SVG/1.1/DTD/svg11.dtd">
<svg version="1.1" id="Layer_1" xmlns="http://www.w3.org/2000/svg" xmlns:xlink="http://www.w3.org/1999/xlink" x="0px" y="0px"
	 width="23.66px" height="23.666px" viewBox="0 0 23.66 23.666" enable-background="new 0 0 23.66 23.666" xml:space="preserve">
<g id="hamburger" class="menueicon">
	<path d="M14.33,22.14c0,0.843-0.896,1.526-2,1.526l0,0c-1.104,0-2-0.684-2-1.526V1.527c0-0.843,0.896-1.527,2-1.527l0,0
		c1.104,0,2,0.684,2,1.527V22.14z"/>
	<path d="M23.66,12.333c0,1.104-0.684,2-1.526,2H1.526c-0.843,0-1.526-0.896-1.526-2l0,0c0-1.104,0.684-2,1.526-2h20.607
		C22.977,10.333,23.66,11.229,23.66,12.333L23.66,12.333z"/>
</g>
</svg>
