<?xml version="1.0" encoding="utf-8"?>
<!-- Generator: Adobe Illustrator 18.0.0, SVG Export Plug-In . SVG Version: 6.00 Build 0)  -->
<!DOCTYPE svg PUBLIC "-//W3C//DTD SVG 1.1//EN" "http://www.w3.org/Graphics/SVG/1.1/DTD/svg11.dtd">
<svg version="1.1" id="Ebene_1" xmlns="http://www.w3.org/2000/svg" xmlns:xlink="http://www.w3.org/1999/xlink" x="0px" y="0px"
	 viewBox="0 0 520 205" enable-background="new 0 0 520 205" xml:space="preserve">
<g>
	<circle fill="none" stroke="#13161B" stroke-width="2" stroke-miterlimit="10" cx="493" cy="34" r="14"/>
	<line fill="none" stroke="#13161B" stroke-width="2" stroke-miterlimit="10" x1="499.5" y1="27.7" x2="486.5" y2="40.8"/>
	<line fill="none" stroke="#13161B" stroke-width="2" stroke-miterlimit="10" x1="499.5" y1="40.8" x2="486.5" y2="27.7"/>
</g>
<g>
	<line fill="none" stroke="#13161B" stroke-width="2" stroke-miterlimit="10" x1="10" y1="178.5" x2="260" y2="178.5"/>
	<line fill="none" stroke="#13161B" stroke-width="2" stroke-miterlimit="10" x1="314" y1="178.5" x2="510" y2="178.5"/>
	<g>
		<path fill="#13161B" stroke="#13161B" stroke-width="2" stroke-miterlimit="10" d="M36,147.3c-0.6,2.4-1.4,4.7-2.3,6.7
			c-0.9,2-1.8,3.8-2.8,5.2c-1,1.5-2,2.6-3.1,3.4c-1.1,0.8-2.1,1.2-3.1,1.2c-1.7,0-2.9-1.3-3.7-3.9c-0.8-2.6-1.2-6.4-1.2-11.4
			c0-2.5,0-4.7,0-6.6c0-1.9,0-3.8,0-5.7c0-1.9,0-2.5,0-1.8c0,0.7,0,1.3-0.1,1.9c0,0.1,0,0.4,0,0.7c0,0.3,0.1,0.2,0.3-0.5
			c0.2-0.7,0.4-1.4,0.7-2.1c0.3-0.7,0.7-1.4,1.2-2c0.5-0.6,1-1.1,1.7-1.5c0.6-0.4,1.4-0.6,2.3-0.6l0.9,0.1c1.1,0,1.9,0.2,2.5,0.6
			c0.6,0.4,0.9,0.9,0.9,1.5L27.2,152l0.4,0c1-2.3,1.9-4.6,2.8-6.9s1.6-4.3,2.2-5.8c0.6-1.5,1.2-2.8,1.8-3.9c0.6-1.1,1.2-2.1,1.9-2.8
			s1.4-1.3,2.3-1.7c0.8-0.4,1.8-0.6,3-0.6c1,0,1.7,0.2,2.3,0.6c0.5,0.4,0.8,0.9,0.8,1.6L41.4,152l0.5,0l8.4-19.3
			c0.3-0.6,0.9-1.2,1.7-1.7c0.9-0.5,2-0.7,3.2-0.7c1.3,0,2.3,0.3,3.1,0.8c0.8,0.5,1.2,1.2,1.2,2c0,0.6-0.1,1.3-0.3,2
			c-0.2,0.7-0.4,1.4-0.7,2c-0.2,0.6-0.5,1.1-0.7,1.6c-0.2,0.4-0.3,0.7-0.4,0.7c-0.5,0.9-1,1.9-1.5,3.2c-0.5,1.2-0.9,2.1-1.3,2.7
			c-0.4,0.7-0.7,1.3-1,1.9c0.3,0.9,0.7,1.7,1.2,2.4c0.4,0.6,1,1.1,1.6,1.6c0.6,0.5,1.4,0.7,2.3,0.7c0.7,0,1.6-0.2,2.6-0.6
			c1-0.4,1.9-0.8,2.7-1.3c1-0.6,2-1.2,3.1-1.9v8.1c-1.5,1-3,1.8-4.6,2.4c-1.6,0.6-3.1,0.9-4.6,0.9c-1.1,0-2.2-0.1-3.2-0.4
			c-1-0.3-1.9-0.7-2.7-1.3c-0.8-0.6-1.4-1.4-1.8-2.4c-0.5-1-0.7-2.2-0.7-3.6c-0.8,1.8-1.6,3.4-2.4,4.9s-1.7,2.8-2.6,3.8
			c-0.9,1.1-1.8,1.9-2.7,2.5c-0.9,0.6-1.8,0.9-2.7,0.9c-0.3,0-0.6-0.2-0.8-0.7c-0.2-0.5-0.4-1.1-0.6-1.9c-0.2-0.8-0.3-1.8-0.4-2.9
			s-0.2-2.2-0.2-3.4c-0.1-1.2-0.1-2.5-0.1-3.7c0-1.3,0-2.5,0-3.7L36,147.3z"/>
		<path fill="#13161B" stroke="#13161B" stroke-width="2" stroke-miterlimit="10" d="M76.3,163.9c-2.1,0-3.9-0.4-5.5-1.2
			c-1.6-0.8-2.9-1.8-3.9-3.1c-1-1.3-1.8-2.8-2.4-4.6c-0.5-1.7-0.8-3.5-0.8-5.4c0-1.2,0.2-2.7,0.7-4.4c0.5-1.7,1-3.2,1.5-4.6
			c0.5-1.3,1.1-2.6,1.9-3.8c0.8-1.2,1.6-2.3,2.7-3.2c1-0.9,2.2-1.6,3.4-2.2c1.3-0.5,2.7-0.8,4.2-0.8c1.3,0,2.4,0.2,3.5,0.6
			c1.1,0.4,2,1,2.8,1.7c0.8,0.7,1.4,1.6,1.9,2.6c0.4,1,0.7,2.2,0.7,3.5c0,1.4-0.5,2.9-1.4,4.6c-0.9,1.7-2,3.1-3.2,4.3
			c-1.2,1.2-2.7,2.3-4.3,3.2c-1.7,0.9-3.5,1.7-5.4,2.2c0.3,0.6,0.7,1.1,1,1.5c0.3,0.4,0.7,0.7,1,0.9c0.3,0.2,0.7,0.4,1.1,0.5
			c0.4,0.1,0.8,0.1,1.2,0.1c1.3,0,2.8-0.3,4.3-0.8c1.5-0.5,2.9-1.2,4.4-2c1.4-0.8,2.7-1.6,4-2.6c1.3-0.9,2.3-1.8,3.2-2.6l4.3,4.4
			c-2,2.1-4.1,4-6.3,5.6c-1,0.7-2,1.4-3.1,2c-1.1,0.7-2.3,1.3-3.5,1.8c-1.2,0.5-2.5,0.9-3.8,1.2C79,163.8,77.6,163.9,76.3,163.9z
			 M71.8,147.9c0.8,0,1.7-0.2,2.6-0.6c1-0.4,1.8-0.9,2.7-1.6c0.8-0.6,1.6-1.5,2.4-2.6c0.8-1.1,1.2-2,1.2-2.7c0-1-0.2-1.8-0.6-2.4
			c-0.4-0.6-0.8-1-1.4-1c-1,0-1.8,0.2-2.5,0.5c-0.7,0.4-1.3,0.8-1.7,1.4c-0.5,0.6-0.8,1.2-1.1,1.9c-0.3,0.7-0.6,1.6-1,2.6
			c-0.4,1.1-0.6,1.9-0.6,2.6C71.8,146.9,71.8,147.4,71.8,147.9z"/>
		<path fill="#13161B" stroke="#13161B" stroke-width="2" stroke-miterlimit="10" d="M90.4,156.9c0-1,0.1-2.1,0.2-3.4
			c0.1-1.3,0.3-2.7,0.5-4.2s0.4-2.9,0.7-4.5c0.3-1.5,0.6-3.1,1-4.8c0.4-1.7,0.7-3.1,1-4.3c0.3-1.1,0.6-2.1,0.9-2.8
			c0.2-0.5,0.4-0.9,0.5-1.2c0.2-0.3,0.4-0.5,0.6-0.7s0.5-0.3,0.9-0.3c0.3-0.1,0.8-0.1,1.3-0.1c0.6,0,1,0,1.4,0.1
			c0.3,0.1,0.6,0.2,0.7,0.4c0.2,0.2,0.3,0.5,0.3,0.9c0,0.4,0.1,1,0.1,1.6c0,0.8-0.1,2-0.2,3.5c-0.1,1.5-0.1,2.9-0.1,4h0.4
			c0.4-0.9,1-2.1,1.7-3.5s1.4-2.7,2.1-3.6s1.6-1.8,2.5-2.4c0.9-0.7,2-1,3.3-1c0.4,0,0.8,0.1,1.2,0.2c0.4,0.1,0.8,0.4,1.1,0.6
			c0.3,0.3,0.5,0.6,0.7,1c0.2,0.4,0.3,0.8,0.3,1.3c0,0.4-0.1,0.9-0.2,1.6c-0.1,0.7-0.3,1.6-0.5,2.7s-0.4,2-0.5,2.7
			c-0.1,0.7-0.2,1.3-0.2,1.8c0,0.8,0.1,1.5,0.2,2c0.2,0.5,0.4,1,0.6,1.3c0.3,0.3,0.5,0.6,0.9,0.7c0.3,0.1,0.7,0.2,1,0.2
			c1,0,2.1-0.2,3.1-0.7c1.1-0.4,2.1-1,3-1.5c1.1-0.7,2.1-1.4,3.1-2.2l-0.5,7.9c-0.6,0.4-1.2,0.8-2,1.3s-1.5,0.9-2.4,1.3
			c-0.8,0.4-1.7,0.8-2.6,1c-0.9,0.3-1.8,0.4-2.8,0.4c-1.7,0-3-0.3-4.1-1s-1.8-1.6-2.5-2.7c-0.6-1.1-1.1-2.4-1.3-3.7
			s-0.5-2.8-0.7-4.2h-0.5l-6,16.8c-0.3,0.9-0.6,1.6-0.9,2.2c-0.3,0.6-0.6,1-0.9,1.4s-0.6,0.6-0.9,0.8c-0.3,0.1-0.7,0.2-1.1,0.2
			c-0.9,0-1.7-0.2-2.2-0.6c-0.6-0.4-1-0.9-1.3-1.6s-0.5-1.4-0.6-2.3C90.4,158.7,90.4,157.8,90.4,156.9z"/>
		<path fill="#13161B" stroke="#13161B" stroke-width="2" stroke-miterlimit="10" d="M149.3,143.4c0.9-1.2,1.9-2.6,3.1-4
			s2.7-3.1,4.6-4.9c1.9-1.9,3.5-3.2,4.7-4c1.2-0.8,2.4-1.2,3.4-1.2c0.3,0,0.6,0.1,0.9,0.2s0.7,0.3,1,0.6c0.3,0.3,0.6,0.7,0.8,1.1
			c0.2,0.5,0.3,1.1,0.3,1.9c0,1.6-0.2,3.1-0.6,4.5c-0.4,1.5-1.2,3.3-2.4,5.4c-1.2,2.1-2,3.9-2.4,5.4c-0.4,1.5-0.6,3.1-0.6,4.8
			c0,0.9,0.1,1.6,0.4,2.2s0.6,0.8,1,0.8c0.5,0,1.1-0.1,1.7-0.3c0.6-0.2,1.2-0.5,1.8-0.9c0.6-0.4,1.2-0.8,1.8-1.2
			c0.6-0.5,1.1-0.9,1.6-1.4c1.2-1.2,2.4-2.5,3.6-3.9l0.6,9c-0.4,0.3-0.9,0.7-1.5,1.1s-1.3,0.9-2.1,1.4s-1.6,1-2.4,1.5
			c-0.9,0.5-1.8,1-2.6,1.3c-0.9,0.4-1.8,0.7-2.7,1c-0.9,0.3-1.7,0.4-2.5,0.4c-1.3,0-2.4-0.3-3.3-0.9c-0.9-0.6-1.7-1.4-2.3-2.4
			c-0.6-1-1-2-1.3-3.2s-0.4-2.2-0.4-3.3c0-0.7,0.1-1.5,0.3-2.4c0.2-0.9,0.4-1.8,0.7-2.7c0.3-0.9,0.6-1.8,1-2.6
			c0.4-0.9,0.7-1.6,1-2.3s0.6-1.2,0.8-1.7c0.2-0.4,0.4-0.7,0.5-0.7l-0.7-0.1c-0.4,0.2-1,0.9-1.9,1.9c-0.9,1-1.9,2.3-3.1,3.8
			c-1.1,1.5-2.3,3.2-3.5,5.1c-1.2,1.9-2.3,3.9-3.3,5.9c-0.5,1-0.9,1.9-1.2,2.6c-0.3,0.7-0.6,1.3-0.9,1.8c-0.3,0.5-0.6,0.8-1,1
			c-0.4,0.2-0.8,0.3-1.4,0.3c-0.7,0-1.3-0.2-1.7-0.6c-0.4-0.4-0.7-0.9-1-1.6c-0.2-0.7-0.4-1.4-0.4-2.3c-0.1-0.8-0.1-1.7-0.1-2.6
			c0-1.5,0-3.6,0.1-6c0-2.5,0.1-5.3,0.3-8.3c0.2-3,0.5-6.2,1-9.4c0.5-3.3,0.9-6.5,1.4-9.7c0.5-3.2,1.2-6.3,2.1-9.2
			c0.9-2.9,2.1-5.5,3.4-7.7s2.9-4,4.7-5.3c1.8-1.3,3.9-2,6.2-2c1.2,0,2.2,0.2,3,0.5c0.8,0.4,1.4,0.9,1.8,1.5c0.5,0.7,0.8,1.4,1,2.3
			c0.2,0.9,0.3,1.9,0.3,3.1c0,1.7-0.2,3.5-0.7,5.6c-0.5,2-1.1,4.2-1.9,6.4c-0.8,2.2-1.7,4.4-2.6,6.7c-1,2.3-2,4.4-3,6.6
			c-1,2.1-2,4.1-3,6s-1.9,3.5-2.6,5L149.3,143.4z M152.2,122.3c1.3-3.4,2.3-6.3,2.9-8.7c0.6-2.4,0.9-4.1,0.9-5.2
			c0-1.7-0.2-2.6-0.7-2.6c-0.6,0-1.4,1-2.6,2.9c-1.1,1.9-2.5,4.7-4,8.3c-0.4,1.2-0.7,2.5-1.1,3.8c-0.3,1.3-0.6,2.6-0.8,4
			c-0.2,1.3-0.4,2.6-0.6,3.9s-0.4,2.5-0.5,3.6c-0.5,2.7-0.9,5.3-1.1,7.8c0.6-1.4,1.3-2.9,2-4.6c0.7-1.7,1.4-3.3,2.1-4.9
			c0.7-1.6,1.4-3.2,2-4.6C151.3,124.5,151.8,123.3,152.2,122.3z"/>
		<path fill="#13161B" stroke="#13161B" stroke-width="2" stroke-miterlimit="10" d="M209.2,155.6c-0.5,0.7-1.2,1.6-2.1,2.6
			c-0.9,1-1.8,1.9-2.9,2.8c-1.1,0.9-2.2,1.6-3.5,2.2c-1.2,0.6-2.5,0.9-3.7,0.9c-1.5,0-2.7-0.5-3.7-1.4c-1-0.9-1.9-2.3-2.6-4.1
			c-0.5,0.6-1.2,1.3-2,1.9c-0.8,0.6-1.7,1.2-2.6,1.7s-1.9,0.9-2.9,1.3c-1,0.3-2,0.5-3,0.5c-1.1,0-2.1-0.2-3.1-0.7
			c-1-0.4-1.9-1.1-2.7-1.9c-0.8-0.8-1.4-1.8-1.9-3c-0.5-1.2-0.7-2.5-0.7-4c0-1.7,0.2-3.4,0.7-5.2c0.5-1.8,1.2-3.7,2.2-5.7
			c1-2.1,2.1-3.8,3.2-5.3c1.1-1.5,2.4-2.8,3.7-3.9c1.4-1.1,2.8-2,4.3-2.7s3-1,4.6-1c0.5,0,0.9,0.1,1.2,0.3s0.5,0.4,0.7,0.7
			c0.2,0.3,0.4,0.5,0.6,0.8c0.2,0.2,0.4,0.4,0.7,0.5c0.3,0.1,0.5,0.2,0.8,0.2c0.3,0,0.6,0.1,0.9,0.1c0.2,0,0.5,0,0.8,0
			c0.3,0,0.5,0,0.8,0c0.3,0,0.7,0,0.9,0.1c0.3,0.1,0.6,0.2,0.8,0.4s0.4,0.5,0.5,1c0.1,0.4,0.2,1,0.2,1.7c0,1.1-0.1,2.3-0.3,3.6
			c-0.2,1.3-0.5,2.6-0.8,4s-0.6,2.9-1,4.7c-0.4,1.8-0.6,3.2-0.6,4.4c0,1,0.1,1.8,0.3,2.4c0.2,0.6,0.6,0.9,1.2,0.9
			c0.5,0,1-0.1,1.5-0.3c0.5-0.2,1-0.5,1.6-0.9c0.5-0.4,1.1-0.8,1.6-1.3c0.5-0.5,1-1,1.5-1.5c1.1-1.2,2.2-2.6,3.3-4.1L209.2,155.6z
			 M180.3,153c0,0.6,0,1.1,0.1,1.7c0.1,0.5,0.2,1,0.4,1.5c0.2,0.4,0.5,0.8,0.8,1c0.3,0.3,0.8,0.4,1.3,0.4c0.8,0,1.6-0.4,2.3-1.1
			c0.7-0.7,1.3-1.6,1.8-2.6c0.5-1,0.9-2.1,1.2-3.1c0.3-1.1,0.5-2,0.6-2.7l2.5-10.9c-0.9,0-1.8,0.2-2.7,0.7c-0.9,0.5-1.7,1.1-2.5,1.8
			c-0.8,0.8-1.5,1.7-2.1,2.7c-0.6,1-1.3,2.2-1.9,3.7c-0.6,1.5-1.1,2.8-1.3,3.9C180.5,151,180.3,152,180.3,153z"/>
		<path fill="#13161B" stroke="#13161B" stroke-width="2" stroke-miterlimit="10" d="M234.4,156.4c-2.2,1.3-4.1,2.4-5.8,3.3
			c-1.7,0.9-3.2,1.7-4.5,2.4c-1.3,0.6-2.5,1.1-3.5,1.4c-1,0.3-1.9,0.5-2.8,0.5c-1.7,0-3.2-0.5-4.5-1.5c-1.3-1-2.4-2.5-3.2-4.5
			c-0.9-1.9-1.5-4.3-2-7c-0.4-2.8-0.7-5.9-0.7-9.3c0-1.3,0.1-2.8,0.2-4.3c0.1-1.5,0.3-3,0.5-4.5c-0.7-0.1-1.2-0.2-1.6-0.3
			c-0.4-0.1-0.8-0.2-1.2-0.3c-0.4-0.1-0.9-0.2-1.6-0.3c-0.6-0.1-1.6-0.2-2.8-0.4c-0.5-0.1-1-0.2-1.3-0.4c-0.3-0.2-0.5-0.5-0.6-0.7
			c-0.1-0.3-0.2-0.6-0.2-0.9c0-0.3,0-0.6,0-0.8c0-0.4,0.2-0.6,0.7-0.8c0.4-0.2,1-0.3,1.7-0.4c0.7-0.1,1.4-0.1,2.3-0.2
			c0.8,0,1.6,0,2.4,0c0.8,0,1.4,0,2,0.1c0.6,0,1,0,1.2-0.1c0.6-3,1.4-5.9,2.3-8.8c0.9-2.8,2-5.3,3.1-7.5c1.2-2.2,2.4-4,3.8-5.3
			c1.4-1.3,2.8-2,4.3-2c1,0,1.8,0.3,2.6,0.8c0.8,0.5,1.5,1.3,2,2.1c0.6,0.9,1,1.9,1.3,3.1c0.3,1.2,0.5,2.4,0.5,3.7
			c0,1.1-0.2,2.2-0.5,3.4c-0.3,1.2-0.7,2.4-1.3,3.7s-1.2,2.5-1.9,3.8c-0.7,1.3-1.5,2.5-2.3,3.8c0.2-0.1,0.5-0.1,1,0
			c0.5,0,1,0.1,1.6,0.1c0.6,0,1.3,0,2,0.1c0.7,0,1.4,0,2.1,0.1c0.7,0,1.3,0,1.9,0.1c0.6,0,1.1,0,1.4,0.1c0.4,0,0.8,0.3,1,0.7
			s0.3,1.1,0.3,1.8c0,0.8-0.2,1.5-0.7,2c-0.5,0.5-0.9,0.8-1.5,0.8h-12.9c-0.7,0.9-1.3,1.8-2,2.6c-0.7,0.9-1.3,1.6-1.8,2.3
			c-0.1,1.4-0.2,2.8-0.2,4.1c0,0.6,0,1.2-0.1,1.8c0,0.6,0,1.2-0.1,1.8c0,0.6,0,1.2-0.1,1.7c0,0.6,0,1.1,0,1.5c0,1.2,0.1,2.2,0.3,3.1
			c0.2,0.8,0.6,1.5,1,2c0.4,0.5,0.9,0.9,1.6,1.1s1.3,0.4,2.1,0.4c0.5,0,1.1-0.1,1.8-0.3c0.7-0.2,1.5-0.5,2.3-0.9
			c0.8-0.4,1.7-0.9,2.7-1.4c0.9-0.5,1.8-1.1,2.8-1.8c0.9-0.6,1.8-1.3,2.6-2c0.8-0.7,1.6-1.4,2.3-2.2V156.4z M223.7,113.8
			c0-0.2,0-0.5-0.1-0.8c0-0.3-0.1-0.6-0.2-0.9c-0.1-0.3-0.3-0.5-0.5-0.7c-0.2-0.2-0.6-0.3-1-0.3c-0.6,0-1.2,0.5-1.8,1.5
			c-0.6,1-1.2,2.3-1.7,3.9c-0.6,1.6-1.1,3.3-1.6,5.3c-0.5,1.9-0.9,3.8-1.3,5.6c0.3,0,0.7,0.1,1,0.1c0.3,0,0.7,0.1,1,0.1
			c0.7-1.1,1.4-2.4,2.1-3.7c0.7-1.3,1.4-2.6,2-3.9c0.6-1.3,1.1-2.5,1.4-3.6C223.5,115.5,223.7,114.5,223.7,113.8z"/>
		<path fill="#13161B" stroke="#13161B" stroke-width="2" stroke-miterlimit="10" d="M230.9,151.3c1.3-1.1,2.3-2,3.1-2.7
			c0.8-0.7,1.6-1.6,2.4-2.5c0.8-1,1.4-1.7,1.9-2.4c0.5-0.6,1-1.3,1.6-2.2c0.6-0.8,1.4-1.9,2.3-3.1c0.9-1.2,2.1-2.7,3.5-4.5
			c0.3-0.4,0.6-0.8,1-1.2c0.4-0.4,0.8-0.7,1.2-1c0.4-0.3,0.9-0.6,1.4-0.7c0.5-0.2,1.1-0.3,1.8-0.3c1.1,0,1.9,0.1,2.5,0.4
			c0.6,0.2,1,0.5,1.3,0.9c0.3,0.3,0.4,0.7,0.5,1.1c0,0.4,0.1,0.7,0.1,1c0,0.5-0.2,1.1-0.6,1.8c-0.4,0.7-0.9,1.3-1.4,1.9
			c-0.5,0.6-1,1.2-1.5,1.7c-0.5,0.5-0.7,0.9-0.8,1.1c0,0.7,0.1,1.3,0.2,1.9c0.1,0.6,0.2,1.1,0.4,1.7c0.2,0.6,0.3,1.1,0.5,1.8
			c0.2,0.6,0.4,1.3,0.5,2.2c0.2,0.8,0.2,1.9,0.1,3.4c-0.1,1.4-0.2,2.9-0.2,4.3c0.8-0.5,1.7-1,2.6-1.5c0.9-0.4,1.9-0.9,2.9-1.4
			c1-0.5,2-1,3.1-1.6c1.1-0.6,2.1-1.3,3.2-2.1l0,7.6c-1.4,1-3,2-4.8,2.9c-1.8,0.9-3.7,1.7-5.8,2.4c-2,0.7-4,1.2-6.1,1.6
			s-4,0.6-5.8,0.6c-1.3,0-2.6-0.1-3.7-0.4c-1.1-0.2-2.1-0.6-3-1.1c-0.9-0.5-1.6-1.2-2.1-2c-0.5-0.8-0.9-1.8-1-3
			c-0.3,0.1-0.6,0.1-0.9,0.1c-0.3,0-0.6,0-0.9,0c-0.4,0-0.7,0-1,0c-0.3,0-0.6-0.1-0.8-0.3c-0.2-0.1-0.4-0.4-0.5-0.7
			c-0.1-0.3-0.2-0.8-0.2-1.4c0-0.5,0.1-1,0.4-1.5c0.3-0.5,0.6-0.9,0.9-1.2c0.4-0.4,0.7-0.7,1.1-1
			C230.4,151.6,230.7,151.4,230.9,151.3z M235.1,155.6c0.3,0,0.6,0.2,0.9,0.5c0.3,0.3,0.7,0.7,1.1,1.1c0.4,0.4,0.9,0.8,1.5,1.1
			c0.6,0.3,1.2,0.5,1.9,0.5c0.9,0,1.6-0.1,2.2-0.4c0.6-0.3,1-0.7,1.4-1.2c0.3-0.5,0.6-1.1,0.7-1.7c0.1-0.6,0.2-1.3,0.2-2
			c0-0.6,0-1.2-0.1-1.9c-0.1-0.6-0.1-1.4,0-2.4c0.1-0.9,0.1-1.7-0.1-2.2c-0.1-0.5-0.3-0.9-0.4-1.3L235.1,155.6z"/>
		<path fill="#13161B" stroke="#13161B" stroke-width="2" stroke-miterlimit="10" d="M283,194.8c-1-0.3-1.9-0.7-2.7-1.2
			s-1.5-1.3-2-2.2c-0.5-0.9-0.8-2-0.9-3.3c-0.2-2.4,0.5-4.9,1.9-7.5c0.9-1.5,1.4-2.5,1.8-3.1s0.9-1.4,1.6-2.5c0.7-1.1,1.5-2,2.2-2.9
			c1.6-1.8,2.9-3.2,3.9-4.3c1-1.1,2.2-2.2,3.6-3.4l0.7-4c-2.5,2.4-5,3.6-7.3,3.6c-1.7,0-3.4-0.5-4.8-1.6c-1.5-1.1-2.6-2.4-3.3-3.9
			c-1.3-2.8-1.4-6.1-0.1-9.8c1.2-3.5,2.3-6.4,3.5-8.7c1.2-2.3,2.7-4.3,4.6-5.9c2.7-2.4,5.4-3.7,8-3.7c1.2,0,2,0.3,2.6,1
			c0.1,0.1,0.2,0.2,0.3,0.4c0.1,0.2,0.2,0.3,0.3,0.4c0.1,0,0.2,0.1,0.3,0.3c0.1,0.1,0.3,0.2,0.4,0.3c0.1,0,0.3,0.1,0.4,0.2
			c0.2,0.1,0.4,0.1,0.6,0.1c0.2,0,0.5,0,0.8,0l1.5,0c1,0,1.7,0.3,2.1,0.9c0.1,0.2,0.3,0.6,0.4,1c0.3,0.7,0.3,3,0.1,6.9
			c-0.1,1.2-0.4,2.7-0.9,4.5c-0.5,1.8-0.8,3.8-1,6c-0.2,2.2-0.4,5-0.7,8.5c0.6-0.4,1.3-0.9,2.1-1.4c2.6-2,5.6-5.7,9-11.1l2.2,7.5
			c-0.6,1.2-1.7,2.7-3.3,4.3c-1.6,1.6-3,2.8-4.1,3.7c-0.2,0.1-0.4,0.2-0.5,0.3c-2.2,1.4-3.7,2.4-4.7,3.1c-0.6,0.4-1,1.1-1.2,2.2
			c-0.2,1.1-0.5,3-0.7,5.9c-0.1,0.8-0.2,1.5-0.2,1.9c-0.1,1-0.3,2-0.4,3s-0.3,2.1-0.7,3.3s-0.7,2.4-1.1,3.4c-0.4,1-1,2.1-1.7,3.1
			c-0.7,1-1.5,1.9-2.3,2.6c-0.9,0.7-1.9,1.3-3.1,1.7c-1.2,0.4-2.5,0.7-3.9,0.7C285,195.1,284,195,283,194.8z M287.9,177.9
			c-1.5,2.5-2.7,5-3.6,7.5c-0.7,2.1-0.4,3.2,1.1,3.2c0.5,0,1-0.1,1.4-0.2s0.8-0.4,1.2-0.7c0.4-0.3,0.7-0.7,0.9-1.1
			c0.3-0.4,0.6-1,0.9-1.7s0.6-1.5,0.8-2.2s0.5-1.7,0.9-2.9c0.2-0.7,0.3-1.4,0.4-2.1c0.1-0.8,0.2-1.7,0.4-2.9
			c0.1-1.1,0.2-1.9,0.3-2.2C291,173.7,289.4,175.5,287.9,177.9z M285.9,156.1c0.5,0.9,1.2,1.4,2.1,1.4c1.5,0,2.8-1.2,3.8-3.7
			c0.8-1.9,1.2-3.9,1.3-5.8l2.5-11.2c-2.6,0-4.9,1.7-6.9,5.2c-2.1,3.7-3.3,6.2-3.5,7.6C284.8,152.5,285,154.7,285.9,156.1z"/>
		<path fill="#13161B" stroke="#13161B" stroke-width="2" stroke-miterlimit="10" d="M323,163.9c-2.1,0-3.9-0.4-5.5-1.2
			c-1.6-0.8-2.9-1.8-3.9-3.1c-1-1.3-1.8-2.8-2.4-4.6c-0.5-1.7-0.8-3.5-0.8-5.4c0-1.2,0.2-2.7,0.7-4.4c0.5-1.7,1-3.2,1.5-4.6
			c0.5-1.3,1.1-2.6,1.9-3.8c0.8-1.2,1.6-2.3,2.7-3.2c1-0.9,2.2-1.6,3.4-2.2c1.3-0.5,2.7-0.8,4.2-0.8c1.3,0,2.4,0.2,3.5,0.6
			c1.1,0.4,2,1,2.8,1.7c0.8,0.7,1.4,1.6,1.9,2.6c0.4,1,0.7,2.2,0.7,3.5c0,1.4-0.5,2.9-1.4,4.6c-0.9,1.7-2,3.1-3.2,4.3
			c-1.2,1.2-2.7,2.3-4.3,3.2c-1.7,0.9-3.5,1.7-5.4,2.2c0.3,0.6,0.7,1.1,1,1.5c0.3,0.4,0.7,0.7,1,0.9c0.3,0.2,0.7,0.4,1.1,0.5
			c0.4,0.1,0.8,0.1,1.2,0.1c1.3,0,2.8-0.3,4.3-0.8c1.5-0.5,2.9-1.2,4.4-2c1.4-0.8,2.7-1.6,4-2.6c1.3-0.9,2.3-1.8,3.2-2.6l4.3,4.4
			c-2,2.1-4.1,4-6.3,5.6c-1,0.7-2,1.4-3.1,2s-2.3,1.3-3.5,1.8c-1.2,0.5-2.5,0.9-3.8,1.2C325.7,163.8,324.4,163.9,323,163.9z
			 M318.5,147.9c0.8,0,1.7-0.2,2.6-0.6c1-0.4,1.8-0.9,2.7-1.6s1.6-1.5,2.4-2.6c0.8-1.1,1.2-2,1.2-2.7c0-1-0.2-1.8-0.6-2.4
			c-0.4-0.6-0.8-1-1.4-1c-1,0-1.8,0.2-2.5,0.5c-0.7,0.4-1.3,0.8-1.7,1.4c-0.5,0.6-0.8,1.2-1.1,1.9c-0.3,0.7-0.6,1.6-1,2.6
			c-0.4,1.1-0.6,1.9-0.6,2.6C318.6,146.9,318.5,147.4,318.5,147.9z"/>
		<path fill="#13161B" stroke="#13161B" stroke-width="2" stroke-miterlimit="10" d="M351.1,157.8c0-0.3,0-0.7,0.1-1.2
			c0-0.5,0.1-1.2,0.2-1.9c0.1-0.7,0.2-1.4,0.3-2.2c0.1-0.8,0.2-1.5,0.3-2.3c0.2-1.8,0.5-3.7,0.9-5.8h-0.5c-0.3,0.3-0.6,0.8-0.9,1.5
			c-0.3,0.7-0.8,1.7-1.5,3c-0.6,1.3-1.4,3-2.4,5.1c-1,2.1-2.2,4.6-3.8,7.7c-0.4,0.9-1,1.5-1.6,1.8c-0.6,0.3-1.3,0.5-2,0.5
			c-0.9,0-1.7-0.2-2.2-0.6c-0.6-0.4-1-0.9-1.3-1.5c-0.3-0.6-0.5-1.4-0.6-2.2c-0.1-0.8-0.2-1.7-0.2-2.5c0-0.9,0.1-2,0.2-3.3
			s0.3-2.6,0.4-4c0.2-1.4,0.4-3,0.8-4.8c0.3-1.8,0.6-3.4,0.9-4.7c0.3-1.3,0.5-2.6,0.8-3.7c0.3-1.1,0.5-2,0.7-2.7
			c0.2-0.7,0.4-1.3,0.6-1.7c0.2-0.4,0.4-0.8,0.7-1c0.3-0.2,0.6-0.4,0.9-0.5c0.4-0.1,0.8-0.1,1.4-0.1c0.9,0,1.5,0,2,0.1
			c0.5,0.1,0.8,0.2,1.1,0.4c0.2,0.2,0.4,0.5,0.4,0.9c0,0.4,0.1,1,0.1,1.7c0,0.4,0,0.8-0.1,1.3c0,0.5-0.1,1-0.2,1.6
			c0,0.6-0.1,1.1-0.2,1.7c-0.2,1.1-0.2,1.7-0.3,1.8c-0.3,1.5-0.6,3.3-1,5.2l0.4,0.4c0-0.1,0.3-0.7,0.9-1.8c0.5-1.1,1.1-2.3,1.8-3.4
			c0.6-1.1,1.3-2.3,2.1-3.5s1.4-2.3,2.1-3.2c0.6-0.9,1.3-1.7,2.1-2.3c0.7-0.6,1.6-0.9,2.6-0.9c0.9,0,1.7,0.3,2.4,0.8
			c0.7,0.6,1,1.3,1,2.4c0,0.9-0.1,1.7-0.2,2.5c-0.1,1-0.3,1.8-0.4,2.3c-0.2,0.6-0.3,1.3-0.5,2.2c-0.2,0.7-0.4,1.8-0.8,3.2
			c-0.1,0.2-0.1,0.6-0.2,1c0,0.1,0,0.2,0,0.3l0.4,0.4c0-0.1,0.4-0.7,0.9-1.8c0.6-1.1,1.2-2.2,1.9-3.3c0.7-1.1,1.4-2.3,2.2-3.5
			c0.8-1.2,1.5-2.3,2.2-3.2c0.6-0.9,1.3-1.7,1.9-2.3c0.6-0.6,1.4-0.9,2.4-0.9c1.1,0,1.9,0.3,2.7,0.8c0.7,0.6,1.1,1.3,1.1,2.4
			c0,1.6-0.1,3-0.2,4.4c-0.2,1.4-0.4,3-0.7,4.6c-0.3,1.7-0.5,3.2-0.7,4.6c-0.2,1.4-0.2,2.9-0.2,4.4c0,1.2,0.2,2.2,0.5,3
			c0.3,0.8,0.7,1.2,1.1,1.2c0.5,0,1-0.1,1.5-0.3c0.5-0.2,1-0.5,1.6-0.8c0.5-0.3,1.1-0.7,1.6-1.1s1-0.9,1.5-1.3
			c1.1-1,2.2-2.2,3.3-3.5l0.6,8c-1,0.8-2,1.5-2.9,2.4c-1,0.8-2,1.6-3.1,2.2c-1.1,0.7-2.3,1.2-3.6,1.6c-1.3,0.4-2.8,0.6-4.4,0.6
			c-0.8,0-1.5-0.3-2-0.8c-0.5-0.5-1-1.2-1.3-2.2c-0.3-0.9-0.6-2-0.7-3.3c-0.1-1.3-0.2-2.6-0.2-4.1c0-1.4,0.1-2.9,0.2-4.5
			c0.1-1.6,0.2-3.2,0.4-4.8h-0.5l-6.8,17.3c-0.6,0.9-1.2,1.6-1.9,1.9c-0.7,0.3-1.5,0.5-2.5,0.5c-0.7,0-1.3-0.2-1.7-0.6
			c-0.4-0.4-0.8-0.9-1-1.5c-0.2-0.6-0.4-1.3-0.5-2C351.1,159.2,351.1,158.5,351.1,157.8z"/>
		<path fill="#13161B" stroke="#13161B" stroke-width="2" stroke-miterlimit="10" d="M415.9,155.6c-0.5,0.7-1.2,1.6-2.1,2.6
			c-0.9,1-1.8,1.9-2.9,2.8s-2.2,1.6-3.5,2.2c-1.2,0.6-2.5,0.9-3.7,0.9c-1.5,0-2.7-0.5-3.7-1.4c-1-0.9-1.9-2.3-2.6-4.1
			c-0.5,0.6-1.2,1.3-2,1.9c-0.8,0.6-1.7,1.2-2.6,1.7c-0.9,0.5-1.9,0.9-2.9,1.3c-1,0.3-2,0.5-3,0.5c-1.1,0-2.1-0.2-3.1-0.7
			c-1-0.4-1.9-1.1-2.7-1.9c-0.8-0.8-1.4-1.8-1.9-3c-0.5-1.2-0.7-2.5-0.7-4c0-1.7,0.2-3.4,0.7-5.2c0.5-1.8,1.2-3.7,2.2-5.7
			c1-2.1,2.1-3.8,3.2-5.3c1.1-1.5,2.4-2.8,3.7-3.9c1.4-1.1,2.8-2,4.3-2.7s3-1,4.6-1c0.5,0,0.9,0.1,1.2,0.3c0.3,0.2,0.5,0.4,0.7,0.7
			c0.2,0.3,0.4,0.5,0.6,0.8c0.2,0.2,0.4,0.4,0.7,0.5c0.3,0.1,0.5,0.2,0.8,0.2c0.3,0,0.6,0.1,0.9,0.1c0.2,0,0.5,0,0.8,0s0.5,0,0.8,0
			c0.3,0,0.7,0,0.9,0.1c0.3,0.1,0.6,0.2,0.8,0.4s0.4,0.5,0.5,1c0.1,0.4,0.2,1,0.2,1.7c0,1.1-0.1,2.3-0.3,3.6c-0.2,1.3-0.5,2.6-0.8,4
			c-0.3,1.4-0.6,2.9-1,4.7c-0.4,1.8-0.6,3.2-0.6,4.4c0,1,0.1,1.8,0.3,2.4c0.2,0.6,0.6,0.9,1.2,0.9c0.5,0,1-0.1,1.5-0.3
			c0.5-0.2,1-0.5,1.6-0.9s1.1-0.8,1.6-1.3c0.5-0.5,1-1,1.5-1.5c1.1-1.2,2.2-2.6,3.3-4.1L415.9,155.6z M387,153c0,0.6,0,1.1,0.1,1.7
			c0.1,0.5,0.2,1,0.4,1.5c0.2,0.4,0.5,0.8,0.8,1c0.3,0.3,0.8,0.4,1.3,0.4c0.8,0,1.6-0.4,2.3-1.1c0.7-0.7,1.3-1.6,1.8-2.6
			c0.5-1,0.9-2.1,1.2-3.1c0.3-1.1,0.5-2,0.6-2.7l2.5-10.9c-0.9,0-1.8,0.2-2.7,0.7c-0.9,0.5-1.7,1.1-2.5,1.8
			c-0.8,0.8-1.5,1.7-2.1,2.7c-0.6,1-1.3,2.2-1.9,3.7c-0.6,1.5-1.1,2.8-1.3,3.9C387.1,151,387,152,387,153z"/>
		<path fill="#13161B" stroke="#13161B" stroke-width="2" stroke-miterlimit="10" d="M423.6,163.9c-2.1,0-3.9-0.4-5.5-1.1
			c-1.6-0.8-2.9-1.8-3.9-3.1c-1.1-1.3-1.9-2.8-2.4-4.4c-0.5-1.7-0.8-3.4-0.8-5.2c0-1.3,0.2-2.9,0.7-4.7c0.5-1.8,0.9-3.4,1.5-4.8
			c0.5-1.4,1.2-2.7,2-3.9c0.8-1.2,1.7-2.3,2.7-3.2c1-0.9,2.2-1.7,3.4-2.2c1.3-0.5,2.6-0.8,4.2-0.8c1.4,0,2.6,0.2,3.8,0.6
			c1.2,0.4,2.1,0.9,3,1.6c0.8,0.7,1.5,1.5,1.9,2.5c0.5,1,0.7,2,0.7,3.1c0,0.8-0.1,1.5-0.3,2.3c-0.2,0.7-0.6,1.6-1.3,2.6
			c-0.6,1-1.2,1.7-1.8,2c-0.6,0.4-1.3,0.5-2,0.5c-1.1,0-1.9-0.3-2.2-0.8c-0.5-0.9-0.7-1.6-0.5-2.3c0.1-0.4,0.3-1.2,0.6-2.5
			c0-0.2,0.1-0.6,0-1.2c0-0.5-0.1-1-0.2-1.3c-0.1-0.4-0.4-0.5-0.7-0.5c-0.9,0-1.7,0.2-2.3,0.7c-0.6,0.4-1.2,1-1.7,1.7
			c-0.5,0.7-0.9,1.7-1.4,3c-0.4,1.3-0.8,2.4-1,3.2c-0.2,0.9-0.3,1.7-0.3,2.5s-0.1,1.5-0.1,2c0,0.8,0.1,1.6,0.2,2.5s0.4,1.7,0.9,2.4
			c0.4,0.7,1,1.3,1.7,1.8c0.7,0.5,1.6,0.7,2.7,0.7c1.1,0,2.3-0.3,3.6-1c1.3-0.7,2.6-1.5,3.9-2.5c1.3-1,2.6-2.1,3.7-3.3
			c1.2-1.2,2.2-2.4,3.1-3.4l2.3,3.9c-1.7,2.4-3.5,4.5-5.4,6.4c-0.8,0.8-1.7,1.6-2.7,2.4c-1,0.8-2,1.4-3.1,2
			c-1.1,0.6-2.2,1.1-3.3,1.4C426,163.8,424.8,163.9,423.6,163.9z"/>
		<path fill="#13161B" stroke="#13161B" stroke-width="2" stroke-miterlimit="10" d="M450.1,143.4c0.9-1.2,1.9-2.6,3.1-4
			c1.1-1.4,2.7-3.1,4.6-4.9c1.9-1.9,3.5-3.2,4.7-4c1.2-0.8,2.4-1.2,3.4-1.2c0.3,0,0.6,0.1,0.9,0.2c0.3,0.1,0.7,0.3,1,0.6
			c0.3,0.3,0.6,0.7,0.8,1.1c0.2,0.5,0.3,1.1,0.3,1.9c0,1.6-0.2,3.1-0.6,4.5c-0.4,1.5-1.2,3.3-2.4,5.4c-1.2,2.1-2,3.9-2.4,5.4
			s-0.6,3.1-0.6,4.8c0,0.9,0.1,1.6,0.4,2.2s0.6,0.8,1,0.8c0.5,0,1.1-0.1,1.7-0.3c0.6-0.2,1.2-0.5,1.8-0.9c0.6-0.4,1.2-0.8,1.8-1.2
			c0.6-0.5,1.1-0.9,1.6-1.4c1.2-1.2,2.4-2.5,3.6-3.9l0.6,9c-0.4,0.3-0.9,0.7-1.5,1.1s-1.3,0.9-2.1,1.4c-0.7,0.5-1.6,1-2.4,1.5
			c-0.9,0.5-1.8,1-2.6,1.3c-0.9,0.4-1.8,0.7-2.7,1c-0.9,0.3-1.7,0.4-2.5,0.4c-1.3,0-2.4-0.3-3.3-0.9c-0.9-0.6-1.7-1.4-2.3-2.4
			c-0.6-1-1-2-1.3-3.2c-0.3-1.2-0.4-2.2-0.4-3.3c0-0.7,0.1-1.5,0.3-2.4s0.4-1.8,0.7-2.7c0.3-0.9,0.6-1.8,1-2.6
			c0.4-0.9,0.7-1.6,1-2.3s0.6-1.2,0.8-1.7c0.2-0.4,0.4-0.7,0.5-0.7l-0.7-0.1c-0.4,0.2-1,0.9-1.9,1.9c-0.9,1-1.9,2.3-3.1,3.8
			c-1.1,1.5-2.3,3.2-3.5,5.1c-1.2,1.9-2.3,3.9-3.3,5.9c-0.5,1-0.9,1.9-1.2,2.6c-0.3,0.7-0.6,1.3-0.9,1.8c-0.3,0.5-0.6,0.8-1,1
			c-0.4,0.2-0.8,0.3-1.4,0.3c-0.7,0-1.3-0.2-1.7-0.6c-0.4-0.4-0.7-0.9-1-1.6c-0.2-0.7-0.4-1.4-0.4-2.3c-0.1-0.8-0.1-1.7-0.1-2.6
			c0-1.5,0-3.6,0.1-6c0-2.5,0.1-5.3,0.3-8.3c0.2-3,0.5-6.2,1-9.4c0.5-3.3,0.9-6.5,1.4-9.7c0.5-3.2,1.2-6.3,2.1-9.2
			c0.9-2.9,2.1-5.5,3.4-7.7s2.9-4,4.7-5.3c1.8-1.3,3.9-2,6.2-2c1.2,0,2.2,0.2,3,0.5c0.8,0.4,1.4,0.9,1.8,1.5c0.5,0.7,0.8,1.4,1,2.3
			c0.2,0.9,0.3,1.9,0.3,3.1c0,1.7-0.2,3.5-0.7,5.6c-0.5,2-1.1,4.2-1.9,6.4c-0.8,2.2-1.7,4.4-2.6,6.7c-1,2.3-2,4.4-3,6.6
			c-1,2.1-2,4.1-3,6c-1,1.9-1.9,3.5-2.6,5L450.1,143.4z M453.1,122.3c1.3-3.4,2.3-6.3,2.9-8.7c0.6-2.4,0.9-4.1,0.9-5.2
			c0-1.7-0.2-2.6-0.7-2.6c-0.6,0-1.4,1-2.6,2.9c-1.1,1.9-2.5,4.7-4,8.3c-0.4,1.2-0.7,2.5-1.1,3.8c-0.3,1.3-0.6,2.6-0.8,4
			c-0.2,1.3-0.4,2.6-0.6,3.9s-0.4,2.5-0.5,3.6c-0.5,2.7-0.9,5.3-1.1,7.8c0.6-1.4,1.3-2.9,2-4.6c0.7-1.7,1.4-3.3,2.1-4.9
			c0.7-1.6,1.4-3.2,2-4.6C452.2,124.5,452.7,123.3,453.1,122.3z"/>
		<path fill="#13161B" stroke="#13161B" stroke-width="2" stroke-miterlimit="10" d="M502.7,156.4c-2.2,1.3-4.1,2.4-5.8,3.3
			c-1.7,0.9-3.2,1.7-4.5,2.4c-1.3,0.6-2.5,1.1-3.5,1.4c-1,0.3-1.9,0.5-2.8,0.5c-1.7,0-3.2-0.5-4.5-1.5c-1.3-1-2.4-2.5-3.2-4.5
			c-0.9-1.9-1.5-4.3-2-7c-0.4-2.8-0.7-5.9-0.7-9.3c0-1.3,0.1-2.8,0.2-4.3c0.1-1.5,0.3-3,0.5-4.5c-0.7-0.1-1.2-0.2-1.6-0.3
			c-0.4-0.1-0.8-0.2-1.2-0.3c-0.4-0.1-0.9-0.2-1.6-0.3c-0.6-0.1-1.6-0.2-2.8-0.4c-0.5-0.1-1-0.2-1.3-0.4s-0.5-0.5-0.6-0.7
			c-0.1-0.3-0.2-0.6-0.2-0.9c0-0.3,0-0.6,0-0.8c0-0.4,0.2-0.6,0.7-0.8c0.4-0.2,1-0.3,1.7-0.4c0.7-0.1,1.4-0.1,2.3-0.2
			c0.8,0,1.6,0,2.4,0c0.8,0,1.4,0,2,0.1c0.6,0,1,0,1.2-0.1c0.6-3,1.4-5.9,2.3-8.8c0.9-2.8,2-5.3,3.1-7.5c1.2-2.2,2.4-4,3.8-5.3
			c1.4-1.3,2.8-2,4.3-2c1,0,1.8,0.3,2.6,0.8c0.8,0.5,1.5,1.3,2,2.1c0.6,0.9,1,1.9,1.3,3.1c0.3,1.2,0.5,2.4,0.5,3.7
			c0,1.1-0.2,2.2-0.5,3.4c-0.3,1.2-0.7,2.4-1.3,3.7c-0.5,1.2-1.2,2.5-1.9,3.8c-0.7,1.3-1.5,2.5-2.3,3.8c0.2-0.1,0.5-0.1,1,0
			c0.5,0,1,0.1,1.6,0.1c0.6,0,1.3,0,2,0.1c0.7,0,1.4,0,2.1,0.1c0.7,0,1.3,0,1.9,0.1c0.6,0,1.1,0,1.4,0.1c0.4,0,0.8,0.3,1,0.7
			c0.2,0.5,0.3,1.1,0.3,1.8c0,0.8-0.2,1.5-0.7,2c-0.5,0.5-0.9,0.8-1.5,0.8h-12.9c-0.7,0.9-1.3,1.8-2,2.6c-0.7,0.9-1.3,1.6-1.8,2.3
			c-0.1,1.4-0.2,2.8-0.2,4.1c0,0.6,0,1.2-0.1,1.8s0,1.2-0.1,1.8c0,0.6,0,1.2-0.1,1.7c0,0.6,0,1.1,0,1.5c0,1.2,0.1,2.2,0.3,3.1
			c0.2,0.8,0.6,1.5,1,2c0.4,0.5,0.9,0.9,1.6,1.1s1.3,0.4,2.1,0.4c0.5,0,1.1-0.1,1.8-0.3c0.7-0.2,1.5-0.5,2.3-0.9
			c0.8-0.4,1.7-0.9,2.7-1.4c0.9-0.5,1.8-1.1,2.8-1.8c0.9-0.6,1.8-1.3,2.6-2c0.8-0.7,1.6-1.4,2.3-2.2V156.4z M491.9,113.8
			c0-0.2,0-0.5-0.1-0.8c0-0.3-0.1-0.6-0.2-0.9c-0.1-0.3-0.3-0.5-0.5-0.7c-0.2-0.2-0.6-0.3-1-0.3c-0.6,0-1.2,0.5-1.8,1.5
			c-0.6,1-1.2,2.3-1.7,3.9c-0.6,1.6-1.1,3.3-1.6,5.3c-0.5,1.9-0.9,3.8-1.3,5.6c0.3,0,0.7,0.1,1,0.1c0.3,0,0.7,0.1,1,0.1
			c0.7-1.1,1.4-2.4,2.1-3.7c0.7-1.3,1.4-2.6,2-3.9c0.6-1.3,1.1-2.5,1.4-3.6C491.7,115.5,491.9,114.5,491.9,113.8z"/>
	</g>
</g>
</svg>
