<?xml version="1.0" encoding="utf-8"?>
<!-- Generator: Adobe Illustrator 18.0.0, SVG Export Plug-In . SVG Version: 6.00 Build 0)  -->
<!DOCTYPE svg PUBLIC "-//W3C//DTD SVG 1.1//EN" "http://www.w3.org/Graphics/SVG/1.1/DTD/svg11.dtd">
<svg version="1.1" id="Ebene_1" xmlns="http://www.w3.org/2000/svg" xmlns:xlink="http://www.w3.org/1999/xlink" x="0px" y="0px"
	 viewBox="0 0 520 205" enable-background="new 0 0 520 205" xml:space="preserve">
<g>
	<circle fill="none" stroke="#FF3B70" stroke-width="2" stroke-miterlimit="10" cx="398" cy="1272.5" r="50"/>
	<g>
		<rect x="377.8" y="1252" fill="none" stroke="#FF3B70" stroke-width="2" stroke-miterlimit="10" width="40" height="40"/>
		<circle fill="none" stroke="#FF3B70" stroke-miterlimit="10" cx="391.2" cy="1261.6" r="3.4"/>
		<circle fill="none" stroke="#FF3B70" stroke-miterlimit="10" cx="403.8" cy="1261.6" r="3.4"/>
		<circle fill="none" stroke="#FF3B70" stroke-miterlimit="10" cx="391.2" cy="1272.5" r="3.4"/>
		<circle fill="none" stroke="#FF3B70" stroke-miterlimit="10" cx="403.8" cy="1272.5" r="3.4"/>
		<circle fill="none" stroke="#FF3B70" stroke-miterlimit="10" cx="391.2" cy="1283.5" r="3.4"/>
		<circle fill="none" stroke="#FF3B70" stroke-miterlimit="10" cx="403.8" cy="1283.5" r="3.4"/>
	</g>
</g>
<line fill="none" stroke="#13161B" stroke-width="2" stroke-miterlimit="10" x1="783" y1="397.5" x2="1090" y2="397.5"/>
<line fill="none" stroke="#13161B" stroke-width="2" stroke-miterlimit="10" x1="1209" y1="397.5" x2="1283" y2="397.5"/>
<line fill="none" stroke="#13161B" stroke-width="2" stroke-miterlimit="10" x1="1136" y1="397.5" x2="1159" y2="397.5"/>
<g>
	<path fill="#13161B" stroke="#13161B" stroke-width="2" stroke-miterlimit="10" d="M808.8,364.7c-0.7,2.7-1.5,5.1-2.5,7.4
		c-1,2.2-2,4.1-3.1,5.8c-1.1,1.6-2.2,2.9-3.4,3.8c-1.2,0.9-2.3,1.3-3.5,1.3c-1.9,0-3.2-1.4-4.1-4.2c-0.9-2.8-1.3-7-1.3-12.5
		c0-2.7,0-5.2,0-7.2c0-2.1,0-4.2,0-6.3c0-2.1,0-2.8,0-2c0,0.7-0.1,1.4-0.1,2.1c0,0.2,0,0.4,0,0.8c0,0.4,0.1,0.2,0.3-0.6
		c0.2-0.8,0.5-1.5,0.8-2.3c0.3-0.8,0.8-1.6,1.3-2.2c0.5-0.7,1.1-1.2,1.8-1.7c0.7-0.4,1.6-0.7,2.5-0.7l1,0.1c1.2,0,2.1,0.2,2.7,0.6
		c0.6,0.4,0.9,1,0.9,1.7l-3,21.4l0.5,0c1.1-2.5,2.1-5,3-7.6c0.9-2.6,1.7-4.7,2.4-6.3c0.7-1.6,1.3-3.1,2-4.3s1.3-2.2,2-3.1
		c0.7-0.8,1.6-1.4,2.5-1.8c0.9-0.4,2-0.6,3.3-0.6c1.1,0,1.9,0.2,2.5,0.6c0.6,0.4,0.9,1,0.9,1.7l-3.4,21.4l0.6,0l9.2-21.2
		c0.3-0.7,0.9-1.3,1.9-1.8s2.1-0.8,3.5-0.8c1.4,0,2.5,0.3,3.4,0.9c0.9,0.6,1.3,1.3,1.3,2.2c0,0.7-0.1,1.4-0.4,2.2s-0.5,1.5-0.8,2.2
		c-0.3,0.7-0.5,1.3-0.8,1.7c-0.2,0.5-0.4,0.7-0.4,0.8c-0.5,1-1.1,2.1-1.7,3.5s-1,2.3-1.4,2.9c-0.4,0.7-0.8,1.4-1.1,2.1
		c0.3,1,0.8,1.8,1.3,2.6c0.5,0.6,1,1.2,1.7,1.8s1.5,0.8,2.5,0.8c0.8,0,1.7-0.2,2.8-0.6s2.1-0.9,3-1.5c1.1-0.6,2.2-1.3,3.4-2.1v8.9
		c-1.6,1.1-3.3,2-5,2.6c-1.7,0.6-3.4,1-5,1c-1.3,0-2.4-0.2-3.6-0.5c-1.1-0.3-2.1-0.8-2.9-1.5c-0.8-0.7-1.5-1.5-2-2.6
		c-0.5-1.1-0.8-2.4-0.8-3.9c-0.8,2-1.7,3.8-2.6,5.4s-1.8,3-2.8,4.2c-1,1.2-1.9,2.1-2.9,2.8c-1,0.7-2,1-2.9,1c-0.3,0-0.6-0.3-0.9-0.8
		s-0.5-1.2-0.6-2.1c-0.2-0.9-0.3-1.9-0.4-3.1c-0.1-1.2-0.2-2.5-0.3-3.8c-0.1-1.3-0.1-2.7-0.1-4.1c0-1.4,0-2.8,0-4.1L808.8,364.7z"/>
	<path fill="#13161B" stroke="#13161B" stroke-width="2" stroke-miterlimit="10" d="M863.3,354.5c0.7,1.4,1.2,2.9,1.6,4.5
		c0.4,1.6,0.5,3.4,0.5,5.4c0,1.5-0.2,2.9-0.5,4.4s-0.8,2.9-1.4,4.3s-1.3,2.7-2.2,3.9s-1.9,2.2-3,3.1s-2.3,1.6-3.7,2.1
		s-2.7,0.8-4.2,0.8c-2.2,0-4-0.5-5.5-1.4c-1.5-0.9-2.8-2.2-3.8-3.7c-1-1.5-1.7-3.2-2.2-5.2s-0.7-3.9-0.7-5.8c0-3.2,0.4-6,1.2-8.4
		c0.8-2.3,2-4.4,3.5-6.1c1.5-1.7,3.4-3.1,5.5-4.1c2.2-1,4.6-1.5,7.4-1.5c2.3,0,4.5,0.4,6.6,1.1s4,1.7,5.7,2.9c1.8,1.2,3.4,2.7,5,4.6
		s3,3.6,4.3,5.3l-0.7,5.2c-0.7-0.9-1.6-1.8-2.7-2.9c-1.1-1-2.3-2.2-3.6-3.4c-1.3-1.3-2.5-2.3-3.7-3.2c-1.2-0.9-2.3-1.6-3.2-2.2
		L863.3,354.5z M851.9,375.8c0.8,0,1.6-0.4,2.4-1.3c0.8-0.8,1.5-1.9,2.1-3.2c0.6-1.3,1.1-2.9,1.4-4.7c0.4-1.8,0.5-3.5,0.5-4.9
		c0-1.1-0.1-2.2-0.3-3.2c-0.2-1-0.4-1.8-0.8-2.5s-0.8-1.3-1.3-1.7c-0.5-0.4-1.2-0.6-2-0.6c-1,0-2,0.4-2.9,1.3
		c-0.9,0.9-1.7,2-2.4,3.3s-1.2,2.8-1.6,4.4c-0.4,1.6-0.6,3.5-0.6,5.5c0,1,0.1,2,0.3,2.9c0.2,0.9,0.5,1.7,0.9,2.4s1,1.2,1.7,1.6
		S850.9,375.8,851.9,375.8z"/>
	<path fill="#13161B" stroke="#13161B" stroke-width="2" stroke-miterlimit="10" d="M872.4,375.2c0-1.1,0.1-2.3,0.2-3.8
		c0.1-1.4,0.3-3,0.5-4.6s0.5-3.2,0.7-4.9c0.3-1.7,0.6-3.4,1.1-5.3c0.4-1.9,0.8-3.4,1.1-4.7c0.3-1.3,0.6-2.3,1-3.1
		c0.2-0.5,0.4-1,0.6-1.3c0.2-0.3,0.4-0.6,0.7-0.8c0.3-0.2,0.6-0.3,1-0.4c0.4-0.1,0.9-0.1,1.4-0.1c0.6,0,1.1,0,1.5,0.1
		s0.6,0.2,0.8,0.4c0.2,0.2,0.3,0.6,0.3,1c0,0.4,0.1,1,0.1,1.8c0,0.9-0.1,2.2-0.2,3.9s-0.2,3.1-0.1,4.4h0.4c0.5-1,1.1-2.3,1.8-3.9
		s1.5-2.9,2.3-4c0.8-1.1,1.7-1.9,2.8-2.7c1-0.7,2.2-1.1,3.6-1.1c0.5,0,0.9,0.1,1.4,0.2c0.4,0.2,0.8,0.4,1.2,0.7
		c0.3,0.3,0.6,0.7,0.8,1.1s0.3,0.9,0.3,1.5c0,0.4-0.1,1-0.2,1.8c-0.1,0.8-0.3,1.7-0.6,2.9c-0.3,1.2-0.5,2.2-0.6,3s-0.2,1.4-0.2,1.9
		c0,0.9,0.1,1.6,0.3,2.2c0.2,0.6,0.4,1.1,0.7,1.4c0.3,0.4,0.6,0.6,1,0.8c0.4,0.1,0.7,0.2,1.1,0.2c1.1,0,2.2-0.2,3.4-0.7
		c1.2-0.5,2.3-1,3.2-1.7c1.2-0.7,2.3-1.5,3.4-2.4l-0.6,8.6c-0.6,0.4-1.4,0.9-2.2,1.4c-0.8,0.5-1.7,1-2.6,1.5
		c-0.9,0.5-1.9,0.8-2.9,1.1c-1,0.3-2,0.5-3,0.5c-1.8,0-3.3-0.4-4.5-1.1c-1.1-0.8-2-1.7-2.7-2.9c-0.7-1.2-1.2-2.6-1.5-4.1
		s-0.6-3-0.8-4.6h-0.6l-6.6,18.4c-0.3,1-0.7,1.8-1,2.4c-0.3,0.6-0.6,1.1-0.9,1.5s-0.7,0.7-1,0.8s-0.8,0.2-1.2,0.2
		c-1,0-1.8-0.2-2.4-0.6s-1.1-1-1.4-1.7c-0.3-0.7-0.6-1.5-0.7-2.5C872.5,377.1,872.4,376.2,872.4,375.2z"/>
	<path fill="#13161B" stroke="#13161B" stroke-width="2" stroke-miterlimit="10" d="M934.8,374.7c-2.4,1.4-4.5,2.6-6.3,3.6
		c-1.8,1-3.5,1.9-4.9,2.6c-1.4,0.7-2.7,1.2-3.8,1.5c-1.1,0.3-2.1,0.5-3,0.5c-1.9,0-3.5-0.6-4.9-1.7c-1.4-1.1-2.6-2.8-3.6-4.9
		c-1-2.1-1.7-4.7-2.1-7.7c-0.5-3-0.7-6.4-0.7-10.2c0-1.5,0.1-3,0.2-4.7c0.1-1.7,0.3-3.3,0.5-5c-0.7-0.1-1.3-0.2-1.7-0.3
		s-0.8-0.2-1.3-0.3c-0.5-0.1-1-0.2-1.7-0.3c-0.7-0.1-1.7-0.2-3.1-0.4c-0.6-0.1-1.1-0.2-1.4-0.5s-0.6-0.5-0.7-0.8
		c-0.1-0.3-0.2-0.6-0.3-1c0-0.3,0-0.6,0-0.9c0-0.4,0.2-0.7,0.7-0.9c0.5-0.2,1.1-0.4,1.9-0.5c0.8-0.1,1.6-0.2,2.5-0.2
		c0.9,0,1.8,0,2.6,0c0.8,0,1.6,0,2.2,0.1c0.7,0,1.1,0,1.4-0.1c0.7-3.3,1.5-6.5,2.5-9.6c1-3.1,2.2-5.9,3.4-8.3
		c1.3-2.4,2.6-4.3,4.1-5.8c1.5-1.5,3.1-2.2,4.7-2.2c1.1,0,2,0.3,2.9,0.9c0.9,0.6,1.6,1.4,2.2,2.4c0.6,1,1.1,2.1,1.4,3.4
		c0.3,1.3,0.5,2.7,0.5,4.1c0,1.2-0.2,2.4-0.5,3.7c-0.3,1.3-0.8,2.6-1.4,4c-0.6,1.4-1.3,2.7-2.1,4.1c-0.8,1.4-1.6,2.8-2.5,4.1
		c0.2-0.1,0.6-0.1,1.1,0c0.5,0,1.1,0.1,1.8,0.1c0.7,0,1.4,0,2.2,0.1c0.8,0,1.5,0,2.3,0.1c0.7,0,1.4,0,2.1,0.1c0.6,0,1.2,0,1.6,0.1
		c0.5,0,0.8,0.3,1.1,0.8c0.2,0.5,0.3,1.2,0.3,2c0,0.9-0.2,1.7-0.7,2.2c-0.5,0.6-1,0.9-1.6,0.9h-14.2c-0.7,1-1.4,1.9-2.2,2.9
		c-0.7,0.9-1.4,1.8-2,2.6c-0.1,1.5-0.2,3-0.3,4.5c0,0.6,0,1.3-0.1,2c0,0.7,0,1.3-0.1,2c0,0.7,0,1.3-0.1,1.9s0,1.2,0,1.7
		c0,1.3,0.1,2.4,0.4,3.4s0.6,1.7,1.1,2.2c0.5,0.6,1,1,1.7,1.3c0.7,0.3,1.4,0.4,2.3,0.4c0.5,0,1.2-0.1,1.9-0.4s1.6-0.6,2.5-1
		c0.9-0.4,1.9-0.9,2.9-1.5s2-1.2,3-1.9c1-0.7,1.9-1.4,2.9-2.2s1.7-1.6,2.5-2.4V374.7z M923,328c0-0.3,0-0.6-0.1-0.9
		c0-0.3-0.1-0.6-0.2-0.9c-0.1-0.3-0.3-0.5-0.6-0.7c-0.3-0.2-0.6-0.3-1.1-0.3c-0.6,0-1.3,0.6-1.9,1.7c-0.7,1.1-1.3,2.6-1.9,4.3
		c-0.6,1.7-1.2,3.7-1.7,5.8c-0.5,2.1-1,4.1-1.5,6.1c0.4,0,0.7,0.1,1.1,0.1c0.4,0,0.8,0.1,1.1,0.1c0.7-1.2,1.5-2.6,2.3-4
		c0.8-1.4,1.5-2.9,2.2-4.3c0.6-1.4,1.2-2.7,1.6-3.9C922.8,329.8,923,328.8,923,328z"/>
	<path fill="#13161B" stroke="#13161B" stroke-width="2" stroke-miterlimit="10" d="M964.8,360.4c1-1.4,2.1-2.8,3.4-4.4
		c1.3-1.6,2.9-3.4,5-5.4c2.1-2,3.8-3.5,5.2-4.4c1.3-0.9,2.6-1.3,3.8-1.3c0.3,0,0.6,0.1,1,0.2s0.7,0.3,1.1,0.6
		c0.3,0.3,0.6,0.7,0.8,1.3c0.2,0.5,0.3,1.2,0.3,2.1c0,1.7-0.2,3.4-0.7,5c-0.5,1.6-1.4,3.6-2.7,5.9s-2.2,4.3-2.6,6s-0.7,3.4-0.7,5.3
		c0,1,0.1,1.8,0.4,2.4s0.7,0.9,1.1,0.9c0.6,0,1.2-0.1,1.9-0.4s1.3-0.6,2-1c0.7-0.4,1.3-0.8,2-1.4c0.6-0.5,1.2-1,1.8-1.6
		c1.4-1.3,2.7-2.7,4-4.3l0.6,9.8c-0.4,0.3-1,0.7-1.7,1.2c-0.7,0.5-1.4,1-2.2,1.5c-0.8,0.5-1.7,1.1-2.7,1.6c-1,0.6-1.9,1-2.9,1.5
		c-1,0.4-1.9,0.8-2.9,1.1c-1,0.3-1.9,0.4-2.8,0.4c-1.4,0-2.6-0.3-3.6-1c-1-0.7-1.9-1.6-2.5-2.6c-0.7-1.1-1.1-2.2-1.5-3.5
		c-0.3-1.3-0.5-2.5-0.5-3.6c0-0.8,0.1-1.7,0.3-2.7c0.2-1,0.5-2,0.8-3c0.3-1,0.7-2,1.1-2.9c0.4-0.9,0.8-1.8,1.1-2.5
		c0.3-0.7,0.6-1.4,0.9-1.8c0.3-0.5,0.4-0.7,0.5-0.8l-0.8-0.1c-0.4,0.3-1.1,0.9-2.1,2c-1,1.1-2.1,2.5-3.4,4.1
		c-1.3,1.7-2.6,3.5-3.9,5.6c-1.3,2.1-2.6,4.2-3.6,6.4c-0.5,1.1-1,2-1.3,2.9c-0.3,0.8-0.7,1.5-1,2c-0.3,0.5-0.7,0.9-1.1,1.1
		c-0.4,0.3-0.9,0.4-1.5,0.4c-0.8,0-1.4-0.2-1.9-0.7c-0.5-0.4-0.8-1-1.1-1.7c-0.2-0.7-0.4-1.6-0.5-2.5c-0.1-0.9-0.1-1.9-0.1-2.8
		c0-1.7,0-3.9,0.1-6.6c0-2.7,0.2-5.8,0.4-9.1c0.2-3.3,0.6-6.8,1.1-10.3c0.5-3.6,1-7.1,1.6-10.6c0.5-3.5,1.3-6.9,2.3-10.1
		c1-3.2,2.3-6,3.7-8.4s3.2-4.3,5.1-5.8c2-1.4,4.2-2.1,6.8-2.1c1.3,0,2.4,0.2,3.3,0.6c0.8,0.4,1.5,1,2,1.7c0.5,0.7,0.9,1.6,1.1,2.6
		c0.2,1,0.3,2.1,0.3,3.4c0,1.8-0.3,3.9-0.8,6.1c-0.5,2.2-1.2,4.6-2,7s-1.8,4.8-2.9,7.3c-1.1,2.5-2.2,4.9-3.3,7.2s-2.2,4.5-3.3,6.6
		s-2.1,3.9-2.9,5.4L964.8,360.4z M968.1,337.2c1.5-3.8,2.5-6.9,3.2-9.5s1-4.5,1-5.7c0-1.9-0.3-2.8-0.8-2.8c-0.6,0-1.6,1-2.8,3.1
		c-1.3,2.1-2.7,5.1-4.4,9.1c-0.4,1.4-0.8,2.8-1.2,4.2c-0.4,1.4-0.6,2.9-0.8,4.3c-0.2,1.4-0.4,2.9-0.6,4.3c-0.2,1.4-0.4,2.7-0.6,4
		c-0.5,2.9-1,5.8-1.2,8.6c0.7-1.5,1.4-3.2,2.2-5c0.8-1.8,1.6-3.6,2.3-5.4c0.8-1.8,1.5-3.5,2.2-5
		C967.1,339.7,967.6,338.3,968.1,337.2z"/>
	<path fill="#13161B" stroke="#13161B" stroke-width="2" stroke-miterlimit="10" d="M1014.2,375.1c-0.9,0.8-2,1.7-3.3,2.6
		s-2.7,1.8-4.3,2.5s-3.1,1.4-4.7,1.9c-1.6,0.5-3.1,0.8-4.5,0.8c-1.3,0-2.4-0.2-3.2-0.5c-0.9-0.4-1.6-0.9-2.1-1.5
		c-0.5-0.6-0.9-1.4-1.2-2.3s-0.4-1.9-0.4-3c0-1.5,0.2-3.4,0.5-5.4c0.7-4.3,1.2-6.7,1.4-7.2c0.3-1,1-3.4,2-7c0.9-2.9,1.5-4.8,1.7-5.7
		c0.1-0.6,0.5-1.2,1-1.7c0.5-0.4,1.1-0.8,1.7-1.1c0.6-0.3,1.3-0.5,2-0.6c0.7-0.1,1.3-0.2,1.9-0.2c1,0,1.7,0.2,2.1,0.6
		c0.4,0.4,0.5,0.9,0.5,1.5c0,0.5-0.1,1.3-0.4,2.3c-0.3,1-0.5,2.1-0.9,3.4c-0.3,1.3-0.8,2.9-1.4,4.9c-0.6,2-1.1,3.7-1.3,5.1
		c-0.2,1.4-0.5,2.8-0.9,4.2c-0.4,1.4-0.5,2.6-0.5,3.8c0,1.1,0.1,2,0.4,2.6c0.2,0.7,0.7,1,1.5,1c0.9,0,1.9-0.3,2.9-0.9
		c1.1-0.6,2.2-1.4,3.3-2.2c1.1-0.9,2.2-1.8,3.2-2.7c1.1-0.9,2-1.7,2.8-2.4V375.1z M997.7,336.4c0-0.6,0.1-1.2,0.4-1.9s0.6-1.4,1.2-2
		c0.6-0.6,1.3-1.2,2.2-1.6c0.9-0.4,2.1-0.7,3.4-0.7c0.9,0,1.7,0.1,2.4,0.3c0.8,0.2,1.4,0.5,2,0.9c0.6,0.4,1,0.9,1.3,1.6
		c0.3,0.7,0.5,1.5,0.5,2.4c0,0.8-0.1,1.7-0.4,2.5c-0.3,0.8-0.7,1.5-1.3,2.1c-0.6,0.6-1.3,1.1-2.2,1.5c-0.9,0.4-2,0.6-3.2,0.6
		c-2.2,0-3.8-0.5-4.8-1.5C998.2,339.5,997.7,338.1,997.7,336.4z"/>
	<path fill="#13161B" stroke="#13161B" stroke-width="2" stroke-miterlimit="10" d="M1011.6,375.2c0-1.6,0.1-3.5,0.3-5.6
		c0.2-2.1,0.4-4.5,0.7-7c0.3-2.5,0.6-4.8,1-6.9c0.4-2,0.7-3.8,1.1-5.2c0.3-1.1,0.8-2.1,1.6-2.8s1.8-1.1,3.2-1.1
		c1.3,0,2.2,0.4,2.8,1.2c0.5,0.8,0.8,1.9,0.8,3.2c0,0.4,0,0.9-0.1,1.5s-0.2,1.3-0.3,2.1c-0.1,0.8-0.2,1.5-0.4,2.3
		c-0.1,0.8-0.2,1.7-0.4,2.7c-0.1,1-0.2,1.8-0.3,2.3c-0.1,0.5-0.1,0.8-0.1,1h0.7c0.1-0.3,0.4-0.7,0.7-1.3c0.3-0.6,0.7-1.5,1.1-2.6
		s0.9-2.1,1.3-3c0.5-0.9,0.9-1.7,1.3-2.5s0.8-1.5,1.1-2.1s0.6-1.1,0.8-1.4c0.8-1.3,1.7-2.2,2.7-2.7s2.1-0.7,3.4-0.7
		c1.2,0,2.2,0.5,2.9,1.5c0.7,1,1.1,2.5,1.1,4.3c0,0.3-0.1,0.7-0.2,1.4c-0.1,0.6-0.3,1.4-0.4,2.3s-0.4,2-0.6,3.4
		c-0.2,1.4-0.4,2.7-0.6,3.8c-0.2,1.1-0.3,2.2-0.4,3.3c-0.1,1.1-0.2,2.1-0.2,3c0,1.5,0.2,2.8,0.6,3.8s1,1.5,1.8,1.5
		c0.3,0,0.7-0.1,1.3-0.3c0.8-0.3,1.3-0.6,1.5-0.8c1.1-0.8,1.6-1.2,1.7-1.2c0.1,0,0.9-0.5,2.5-1.5c2-1.3,4.3-2.8,7-4.6l0,8.3
		l-1.8,1.4c-0.1,0.1-1.3,0.8-3.5,1.9c-3.1,1.7-5.1,2.7-5.9,3c-1.9,0.9-3.1,1.4-3.6,1.5c-1.2,0.4-2.5,0.6-3.9,0.6
		c-1.4,0-2.5-1-3.4-2.9c-0.9-2-1.4-4.8-1.4-8.6c0-1.5,0.1-3.1,0.3-4.8c0.2-1.7,0.4-3.5,0.7-5.5h-0.6l-9.7,19.2
		c-0.5,1-1.1,1.7-1.7,2.1c-0.6,0.4-1.3,0.6-2.1,0.6c-1,0-1.8-0.2-2.4-0.6s-1.1-1-1.4-1.7c-0.3-0.7-0.6-1.5-0.7-2.5
		C1011.7,377.1,1011.6,376.2,1011.6,375.2z"/>
	<path fill="#13161B" stroke="#13161B" stroke-width="2" stroke-miterlimit="10" d="M1043.6,376.3c0-0.5,0.1-1,0.3-1.4
		c0.2-0.4,0.5-0.7,0.8-1c0.3-0.3,0.7-0.7,1.1-1s0.8-0.8,1.3-1.2l11.8-16.4c-0.4-0.2-0.8-0.4-1.1-0.6c-0.3-0.2-0.6-0.3-0.9-0.5
		c-0.3-0.1-0.5-0.2-0.8-0.3c-0.3-0.1-0.6-0.1-0.9-0.1c-0.8,0-1.4,0-2,0c-0.5,0-1,0.1-1.3,0.3c-0.4,0.1-0.7,0.4-1,0.6
		c-0.3,0.3-0.6,0.7-0.9,1.2c-0.8,1.1-1.4,2-1.9,2.5c-0.5,0.5-1,0.8-1.4,0.8c-0.4,0-0.7-0.2-0.8-0.5c-0.2-0.4-0.2-0.8-0.2-1.4
		c0-0.2,0-0.5,0-0.8c0-0.3,0.1-0.6,0.1-0.9c0.4-2.1,0.9-3.9,1.6-5.2c0.7-1.3,1.5-2.4,2.3-3.1s1.7-1.2,2.7-1.5
		c0.9-0.3,1.8-0.4,2.6-0.4c0.6,0,1.2,0.1,1.8,0.4c0.6,0.3,1.2,0.6,1.8,1c0.6,0.4,1.2,0.7,1.8,1c0.6,0.3,1.2,0.4,1.9,0.5
		c0.5,0,0.9,0,1.3,0c0.4,0,0.8,0,1.1,0c1,0,1.8,0,2.4-0.1c0.6,0,1-0.1,1.3-0.1s0.5-0.1,0.6-0.1c0.1,0,0.2-0.1,0.3-0.1
		c0.9,0,1.5,0.3,1.9,0.9c0.4,0.6,0.6,1.4,0.6,2.5c0,0.8-0.1,1.6-0.2,2.2c0,0.2-0.3,0.5-0.7,0.8c-0.4,0.3-1.2,0.6-2.2,0.9
		c-0.3,0.5-0.8,1.3-1.5,2.3c-0.7,1-1.5,2.1-2.4,3.3c-0.9,1.2-1.9,2.6-3,4.1c-1.1,1.5-2.1,2.9-2.9,4c-0.9,1.1-1.6,2.1-2.3,3
		c-0.7,0.8-1.1,1.4-1.3,1.7l-0.2,0.7c0,0,0.2,0.1,0.7,0.3c0.4,0.2,0.9,0.4,1.5,0.6s1.2,0.4,1.8,0.6c0.6,0.2,1.2,0.3,1.6,0.3
		c1,0,2-0.2,2.8-0.5s1.6-0.7,2.4-1.2c0.7-0.5,1.4-1,2-1.5c0.6-0.5,1.2-1,1.8-1.5c0.6-0.5,1.2-0.9,1.7-1.2c0.6-0.3,1.2-0.5,1.8-0.5
		c0.5,0,0.9,0.1,1.3,0.3c0.4,0.2,0.7,0.5,1,0.9c0.3,0.3,0.5,0.7,0.6,1.2c0.1,0.4,0.2,0.9,0.2,1.3c0,0.7-0.3,1.4-0.8,2.2
		c-0.5,0.8-1.3,1.5-2.2,2.2c-0.9,0.7-2,1.4-3.2,2c-1.2,0.6-2.5,1.2-3.8,1.7c-1.3,0.5-2.7,0.9-4,1.2c-1.4,0.3-2.6,0.4-3.9,0.4
		c-0.1,0-0.4,0-0.8-0.1c-0.4-0.1-1-0.3-1.7-0.5c-0.7-0.2-1.5-0.5-2.4-0.9s-1.9-0.8-3-1.3c-0.9,0.3-1.7,0.4-2.4,0.4
		c-0.7,0-1.4-0.1-1.9-0.4c-0.5-0.2-1-0.6-1.3-1c-0.4-0.4-0.6-0.9-0.8-1.5C1043.7,377.5,1043.6,376.9,1043.6,376.3z"/>
	<path fill="#13161B" stroke="#13161B" stroke-width="2" stroke-miterlimit="10" d="M1098.8,348.6c0,0.7,0,1.6-0.1,2.7
		c0,1.1-0.2,2.4-0.4,3.7c-0.3,1.4-0.6,3-0.9,4.9c-0.4,1.9-0.7,3.5-0.9,4.8c-0.2,1.3-0.4,2.4-0.6,3.3c-0.2,0.9-0.3,1.6-0.3,2.1
		c0,0.7,0,1.3,0,1.9c0,0.6,0.1,1.1,0.2,1.5c0.1,0.4,0.3,0.8,0.5,1c0.2,0.2,0.5,0.4,1,0.4c0.5,0,1.2-0.1,2-0.4
		c0.8-0.3,1.6-0.6,2.5-1.1c0.9-0.5,1.8-1,2.7-1.6c0.9-0.6,1.8-1.2,2.6-1.8c0.8-0.6,1.6-1.3,2.2-1.9c0.7-0.6,1.2-1.2,1.6-1.8
		c0,0.8,0,1.6,0,2.2c0,0.7,0,1.3,0,1.9s0,1.2,0,1.9c0,0.6,0,1.4,0,2.1c-0.5,0.5-1.2,1.1-2,1.7c-0.8,0.6-1.7,1.2-2.7,1.8
		c-1,0.6-2,1.2-3.1,1.7c-1.1,0.6-2.2,1-3.3,1.5c-1.1,0.4-2.2,0.8-3.2,1c-1.1,0.3-2,0.4-2.9,0.4c-0.9,0-1.7-0.2-2.4-0.5
		c-0.7-0.4-1.2-0.9-1.7-1.5c-0.5-0.7-0.9-1.4-1.2-2.3c-0.3-0.9-0.6-1.9-0.8-3c-0.9,1.1-1.8,2.2-2.8,3.1c-1,1-2,1.8-3,2.5
		c-1,0.7-2.1,1.3-3.1,1.7c-1,0.4-2.1,0.6-3,0.6c-0.8,0-1.6-0.1-2.3-0.4c-0.7-0.3-1.3-0.7-1.9-1.4c-0.5-0.6-1-1.5-1.3-2.5
		c-0.3-1-0.5-2.3-0.5-3.9c0-3.2,0.3-5.7,0.7-7.4c0.7-2.5,1.4-6.2,2.1-11.2c0.1-0.4,0.2-0.9,0.3-1.5c0.1-0.6,0.3-1.3,0.5-2
		s0.5-1.5,0.9-2.2s0.7-1.5,1.2-2.1c0.5-0.6,1-1.1,1.6-1.5c0.6-0.4,1.3-0.6,2.1-0.6c1.3,0.1,2.2,0.3,2.8,0.6c0.6,0.4,0.8,0.8,0.8,1.3
		c-0.2,1.7-0.5,3.2-0.7,4.8c-0.3,1.5-0.6,3.1-0.8,4.6c-0.3,1.6-0.6,3.3-0.9,5.2c-0.3,1.9-0.6,3.4-0.8,4.6c-0.2,1.1-0.4,2.1-0.5,2.8
		c-0.1,0.7-0.2,1.1-0.2,1.1c0,0.5,0,0.9,0.1,1.3c0.1,0.4,0.2,0.8,0.4,1.1c0.2,0.3,0.4,0.6,0.7,0.8c0.3,0.2,0.6,0.3,1,0.3
		c0.5,0,1.1-0.1,1.7-0.4c0.6-0.3,1.1-0.7,1.6-1.3c0.5-0.5,1-1.2,1.4-2c0.4-0.8,0.7-1.7,0.9-2.7l4.1-20.1c0.1-0.6,0.6-1.1,1.4-1.5
		c0.8-0.4,1.8-0.6,2.9-0.6c1.2,0,2.2,0.2,2.9,0.7C1098.5,347.3,1098.8,347.9,1098.8,348.6z"/>
	<path fill="#13161B" stroke="#13161B" stroke-width="2" stroke-miterlimit="10" d="M1104.7,384.3c0-0.1,0-0.9,0.1-2.2
		c0.1-1.4,0.2-3.2,0.4-5.5c0.2-2.3,0.4-4.9,0.7-7.9c0.3-3,0.6-6.1,1.1-9.5c0.5-3.3,1.1-6.7,1.7-10.2c0.7-3.5,1.5-6.9,2.4-10.2
		c0.9-3.3,2-6.4,3.1-9.3c1.2-2.9,2.5-5.5,4-7.7c1.5-2.2,3.1-3.9,4.9-5.2c1.8-1.3,3.8-1.9,5.9-1.9c0.8,0,1.7,0.1,2.6,0.4
		c0.9,0.3,1.8,0.8,2.5,1.4c0.8,0.6,1.4,1.5,1.9,2.6c0.5,1.1,0.8,2.4,0.8,3.9c0,1.4-0.2,3.1-0.7,5c-0.5,1.9-1.1,3.9-2,6
		c-0.8,2.1-1.8,4.4-3,6.7c-1.2,2.3-2.4,4.6-3.8,6.9c-1.4,2.3-2.8,4.5-4.3,6.8c-1.5,2.2-3,4.3-4.6,6.2l-0.1,0.6
		c0.5-0.2,0.9-0.4,1.2-0.4c0.3-0.1,0.5-0.1,0.8-0.1c0.3,0,0.6,0,0.8,0.1c0.2,0.1,0.4,0.1,0.6,0.2c0.2,0.1,0.4,0.1,0.5,0.2
		c0.2,0.1,0.4,0.1,0.7,0.1c2.4,0,4.6-0.3,6.5-0.9c1.9-0.6,3.4-1.2,4.7-1.9c1.5-0.8,2.8-1.8,3.9-2.8l-0.8,9c-1.6,0.9-3.3,1.6-5.1,2.1
		c-1.8,0.5-3.4,0.9-4.9,1.1c-1.7,0.3-3.5,0.4-5.3,0.5c0.9,1.6,1.8,3.3,2.6,5c0.7,1.5,1.3,3.2,1.8,5c0.5,1.9,0.8,3.7,0.8,5.6
		c0,0.2,0,0.7-0.1,1.4c-0.1,0.7-0.2,1.6-0.3,2.6c-0.2,1-0.4,2.2-0.7,3.4c-0.3,1.2-0.7,2.5-1.1,3.8c-0.4,1.3-1,2.5-1.6,3.7
		c-0.6,1.2-1.4,2.2-2.3,3.2c-0.9,0.9-1.9,1.7-3,2.2c-1.1,0.6-2.4,0.8-3.8,0.8c-1.3,0-2.5-0.3-3.5-0.9c-1-0.6-1.9-1.4-2.6-2.5
		c-0.7-1-1.3-2.3-1.8-3.6c-0.5-1.4-0.8-2.8-1.1-4.4c-0.3-1.5-0.5-3.1-0.6-4.7C1104.8,387.3,1104.7,385.8,1104.7,384.3z
		 M1114.5,364.9c-0.1,0-0.2,0.3-0.3,0.8s-0.2,1.3-0.3,2.1c-0.1,0.8-0.2,2.1-0.3,3.6c-0.1,1.6-0.2,2.9-0.3,3.9c-0.1,1-0.1,2-0.2,2.8
		c0,0.9-0.1,1.6-0.1,2.1c0,3.6,0.1,6.5,0.2,8.6c0.1,2.1,0.3,3.8,0.5,4.9s0.4,1.8,0.7,2.2c0.3,0.3,0.5,0.5,0.8,0.5
		c0.8,0,1.5-0.4,2-1.1c0.5-0.8,0.9-1.7,1.2-2.9c0.3-1.2,0.4-2.4,0.5-3.8c0.1-1.4,0.1-2.7,0.1-4c0-0.9,0-1.9-0.1-3.2
		c-0.1-1.3-0.1-2.6-0.2-4.1s-0.3-3.1-0.6-4.9c-0.3-1.8-0.7-3.2-1.3-4.1c-0.6-0.9-1-1.7-1.4-2.4S1114.8,364.9,1114.5,364.9z
		 M1123.8,326.4c-1.4,3.3-2.6,6.4-3.6,9.3c-0.9,2.7-1.5,5.1-1.9,7.2c-0.4,2.1-0.7,3.9-0.9,5.5c-0.2,1.6-0.4,3-0.5,4.4
		c1.6-2.8,3.2-5.6,4.9-8.2s3.1-5.2,4.4-7.5c1.3-2.3,2.3-4.6,3.2-6.8c0.9-2.2,1.3-3.7,1.3-4.7c0-1.3-0.2-2.3-0.5-2.9
		c-0.4-0.6-1-0.9-1.8-0.9c-1.3,0-2.2,0.3-2.7,0.9C1125.3,323.2,1124.7,324.4,1123.8,326.4z"/>
	<path fill="#13161B" stroke="#13161B" stroke-width="2" stroke-miterlimit="10" d="M1162.4,348.6c0,0.7,0,1.6-0.1,2.7
		c0,1.1-0.2,2.4-0.4,3.7c-0.3,1.4-0.6,3-0.9,4.9s-0.7,3.5-0.9,4.8c-0.2,1.3-0.4,2.4-0.6,3.3c-0.2,0.9-0.3,1.6-0.3,2.1
		c0,0.7,0,1.3,0,1.9c0,0.6,0.1,1.1,0.2,1.5c0.1,0.4,0.3,0.8,0.5,1c0.2,0.2,0.5,0.4,1,0.4c0.5,0,1.2-0.1,2-0.4
		c0.8-0.3,1.6-0.6,2.5-1.1c0.9-0.5,1.8-1,2.7-1.6c0.9-0.6,1.8-1.2,2.6-1.8c0.8-0.6,1.6-1.3,2.2-1.9c0.7-0.6,1.2-1.2,1.6-1.8
		c0,0.8,0,1.6,0,2.2c0,0.7,0,1.3,0,1.9s0,1.2,0,1.9c0,0.6,0,1.4,0,2.1c-0.5,0.5-1.2,1.1-2,1.7c-0.8,0.6-1.7,1.2-2.7,1.8
		c-1,0.6-2,1.2-3.1,1.7c-1.1,0.6-2.2,1-3.3,1.5c-1.1,0.4-2.2,0.8-3.2,1s-2,0.4-2.9,0.4c-0.9,0-1.7-0.2-2.4-0.5
		c-0.7-0.4-1.2-0.9-1.7-1.5c-0.5-0.7-0.9-1.4-1.2-2.3c-0.3-0.9-0.6-1.9-0.8-3c-0.9,1.1-1.8,2.2-2.8,3.1c-1,1-2,1.8-3,2.5
		c-1,0.7-2.1,1.3-3.1,1.7c-1,0.4-2.1,0.6-3,0.6c-0.8,0-1.6-0.1-2.3-0.4c-0.7-0.3-1.3-0.7-1.9-1.4c-0.5-0.6-1-1.5-1.3-2.5
		c-0.3-1-0.5-2.3-0.5-3.9c0-3.2,0.3-5.7,0.7-7.4c0.7-2.5,1.4-6.2,2.1-11.2c0.1-0.4,0.2-0.9,0.3-1.5s0.3-1.3,0.5-2
		c0.2-0.7,0.5-1.5,0.9-2.2s0.7-1.5,1.2-2.1c0.5-0.6,1-1.1,1.6-1.5c0.6-0.4,1.3-0.6,2.1-0.6c1.3,0.1,2.2,0.3,2.8,0.6s0.8,0.8,0.8,1.3
		c-0.2,1.7-0.5,3.2-0.7,4.8c-0.3,1.5-0.6,3.1-0.8,4.6c-0.3,1.6-0.6,3.3-0.9,5.2c-0.3,1.9-0.6,3.4-0.8,4.6c-0.2,1.1-0.4,2.1-0.5,2.8
		c-0.1,0.7-0.2,1.1-0.2,1.1c0,0.5,0,0.9,0.1,1.3c0.1,0.4,0.2,0.8,0.4,1.1c0.2,0.3,0.4,0.6,0.7,0.8c0.3,0.2,0.6,0.3,1,0.3
		c0.5,0,1.1-0.1,1.7-0.4c0.6-0.3,1.1-0.7,1.6-1.3c0.5-0.5,1-1.2,1.4-2c0.4-0.8,0.7-1.7,0.9-2.7l4.1-20.1c0.1-0.6,0.6-1.1,1.4-1.5
		c0.8-0.4,1.8-0.6,2.9-0.6c1.2,0,2.2,0.2,2.9,0.7C1162,347.3,1162.4,347.9,1162.4,348.6z M1150.3,335.3c0,0.1,0,0.3,0,0.7
		c0,0.4-0.1,0.8-0.2,1.3c-0.1,0.5-0.3,1-0.6,1.5c-0.2,0.5-0.6,1-1,1.4c-0.4,0.4-1,0.8-1.7,1.1c-0.7,0.3-1.5,0.4-2.5,0.4
		c-1.6,0-2.8-0.4-3.8-1.3c-0.9-0.8-1.4-2.2-1.4-4.2c0-0.8,0.1-1.6,0.3-2.4c0.2-0.8,0.6-1.5,1-2c0.5-0.6,1.1-1.1,1.8-1.4
		s1.6-0.6,2.7-0.6c1.7,0,3,0.5,4,1.4C1149.8,332.2,1150.3,333.5,1150.3,335.3z M1167.5,335.3c0,0.1,0,0.3,0,0.7
		c0,0.4-0.1,0.8-0.2,1.3c-0.1,0.5-0.3,1-0.5,1.5s-0.6,1-1,1.4c-0.4,0.4-1,0.8-1.7,1.1c-0.7,0.3-1.5,0.4-2.5,0.4
		c-1.5,0-2.8-0.4-3.7-1.3c-1-0.8-1.5-2.2-1.5-4.2c0-0.8,0.1-1.6,0.3-2.4c0.2-0.8,0.6-1.5,1.1-2c0.5-0.6,1.1-1.1,1.8-1.4
		c0.7-0.4,1.6-0.6,2.6-0.6c1.7,0,3.1,0.5,4,1.4C1167.1,332.2,1167.5,333.5,1167.5,335.3z"/>
	<path fill="#13161B" stroke="#13161B" stroke-width="2" stroke-miterlimit="10" d="M1174.7,416.7c-1.1-0.3-2-0.7-2.9-1.3
		c-0.9-0.6-1.6-1.4-2.2-2.4c-0.6-1-0.9-2.2-1-3.6c-0.2-2.6,0.5-5.3,2.1-8.2c0.9-1.6,1.6-2.8,1.9-3.4c0.4-0.6,0.9-1.5,1.7-2.7
		c0.8-1.2,1.6-2.2,2.5-3.2c1.7-1.9,3.1-3.5,4.3-4.7s2.5-2.4,4-3.8l0.7-4.4c-2.8,2.6-5.4,3.9-8,3.9c-1.9,0-3.7-0.6-5.3-1.7
		c-1.6-1.2-2.8-2.6-3.6-4.3c-1.5-3.1-1.5-6.7-0.1-10.8c1.3-3.8,2.6-7,3.9-9.5c1.3-2.5,3-4.7,5-6.5c3-2.7,5.9-4,8.7-4
		c1.3,0,2.2,0.4,2.8,1.1c0.1,0.1,0.2,0.2,0.3,0.4c0.1,0.2,0.3,0.3,0.3,0.4c0.1,0,0.2,0.1,0.3,0.3c0.1,0.1,0.3,0.2,0.4,0.3
		c0.1,0,0.3,0.1,0.5,0.2c0.2,0.1,0.4,0.1,0.7,0.1c0.2,0,0.5,0,0.9,0l1.6,0c1.1,0,1.9,0.3,2.3,1c0.1,0.3,0.3,0.6,0.5,1.1
		c0.3,0.8,0.3,3.3,0.1,7.6c-0.1,1.3-0.4,3-0.9,4.9c-0.6,2-0.9,4.2-1.1,6.5c-0.2,2.4-0.4,5.5-0.8,9.4c0.7-0.4,1.5-0.9,2.3-1.5
		c2.9-2.2,6.2-6.2,9.8-12.2l2.4,8.2c-0.7,1.4-1.9,2.9-3.6,4.7c-1.8,1.8-3.3,3.1-4.5,4.1c-0.2,0.1-0.4,0.3-0.5,0.3
		c-2.4,1.5-4.1,2.6-5.1,3.4c-0.7,0.4-1.1,1.2-1.4,2.4c-0.2,1.2-0.5,3.3-0.8,6.5c-0.1,0.9-0.2,1.6-0.3,2.1c-0.1,1.1-0.3,2.2-0.4,3.3
		c-0.1,1.1-0.4,2.3-0.7,3.7c-0.4,1.4-0.8,2.6-1.2,3.8s-1.1,2.3-1.8,3.4c-0.7,1.1-1.6,2.1-2.5,2.9c-0.9,0.8-2.1,1.4-3.4,1.9
		c-1.3,0.5-2.7,0.7-4.3,0.7C1176.9,417.1,1175.8,417,1174.7,416.7z M1180,398.3c-1.7,2.7-3,5.5-4,8.3c-0.8,2.3-0.4,3.5,1.3,3.5
		c0.6,0,1.1-0.1,1.6-0.2s0.9-0.4,1.3-0.8c0.4-0.4,0.7-0.8,1-1.2c0.3-0.4,0.6-1.1,0.9-1.9c0.3-0.8,0.6-1.7,0.9-2.5s0.6-1.9,1-3.2
		c0.2-0.7,0.4-1.5,0.5-2.3c0.1-0.9,0.2-1.9,0.4-3.2c0.2-1.3,0.3-2,0.3-2.4C1183.4,393.6,1181.7,395.6,1180,398.3z M1177.8,374.4
		c0.6,1,1.4,1.5,2.3,1.5c1.7,0,3.1-1.3,4.2-4c0.9-2.1,1.3-4.2,1.4-6.4l2.8-12.3c-2.8,0-5.4,1.9-7.5,5.8c-2.3,4.1-3.6,6.8-3.8,8.3
		C1176.7,370.4,1176.9,372.8,1177.8,374.4z"/>
	<path fill="#13161B" stroke="#13161B" stroke-width="2" stroke-miterlimit="10" d="M1218.6,382.9c-2.3,0-4.3-0.4-6-1.3
		c-1.7-0.8-3.2-2-4.3-3.4c-1.2-1.4-2-3.1-2.6-5c-0.6-1.9-0.9-3.9-0.9-5.9c0-1.4,0.3-3,0.8-4.9c0.5-1.9,1-3.5,1.6-5
		c0.5-1.5,1.2-2.8,2.1-4.2c0.8-1.3,1.8-2.5,2.9-3.5c1.1-1,2.4-1.8,3.7-2.4c1.4-0.6,2.9-0.9,4.6-0.9c1.4,0,2.7,0.2,3.8,0.7
		c1.2,0.4,2.2,1.1,3.1,1.9c0.9,0.8,1.6,1.8,2,2.9c0.5,1.1,0.7,2.4,0.7,3.8c0,1.5-0.5,3.2-1.5,5c-1,1.9-2.2,3.4-3.5,4.8
		c-1.3,1.3-2.9,2.5-4.7,3.5c-1.8,1-3.8,1.8-6,2.4c0.4,0.6,0.7,1.2,1.1,1.6c0.4,0.4,0.7,0.8,1.1,1c0.4,0.2,0.8,0.4,1.2,0.5
		c0.4,0.1,0.8,0.1,1.3,0.1c1.5,0,3-0.3,4.7-0.9c1.6-0.6,3.2-1.3,4.8-2.2c1.5-0.9,3-1.8,4.4-2.8c1.4-1,2.5-2,3.5-2.9l4.8,4.8
		c-2.2,2.3-4.5,4.3-6.9,6.1c-1.1,0.8-2.2,1.5-3.4,2.2c-1.2,0.7-2.5,1.4-3.8,2c-1.3,0.6-2.7,1-4.2,1.4
		C1221.5,382.7,1220.1,382.9,1218.6,382.9z M1213.7,365.4c0.9,0,1.9-0.2,2.9-0.7c1-0.4,2-1,2.9-1.7c0.9-0.7,1.8-1.6,2.6-2.8
		c0.9-1.2,1.3-2.1,1.3-2.9c0-1.1-0.2-2-0.6-2.7c-0.4-0.7-0.9-1-1.5-1c-1.1,0-2,0.2-2.7,0.6c-0.8,0.4-1.4,0.9-1.9,1.5
		c-0.5,0.6-0.9,1.3-1.2,2.1c-0.3,0.8-0.7,1.7-1.1,2.9c-0.4,1.2-0.6,2.1-0.7,2.8C1213.7,364.2,1213.7,364.8,1213.7,365.4z"/>
	<path fill="#13161B" stroke="#13161B" stroke-width="2" stroke-miterlimit="10" d="M1234,375.2c0-1.6,0.1-3.5,0.3-5.6
		c0.2-2.1,0.4-4.5,0.7-7c0.3-2.5,0.6-4.8,1-6.9c0.4-2,0.7-3.8,1.1-5.2c0.3-1.1,0.8-2.1,1.6-2.8s1.8-1.1,3.2-1.1s2.2,0.4,2.8,1.2
		c0.5,0.8,0.8,1.9,0.8,3.2c0,0.4,0,0.9-0.1,1.5s-0.2,1.3-0.3,2.1c-0.1,0.8-0.2,1.5-0.4,2.3s-0.2,1.7-0.4,2.7c-0.1,1-0.2,1.8-0.3,2.3
		c-0.1,0.5-0.1,0.8-0.1,1h0.7c0.1-0.3,0.4-0.7,0.7-1.3c0.3-0.6,0.7-1.5,1.1-2.6s0.9-2.1,1.3-3c0.5-0.9,0.9-1.7,1.3-2.5
		s0.8-1.5,1.1-2.1c0.3-0.6,0.6-1.1,0.8-1.4c0.8-1.3,1.7-2.2,2.7-2.7c1-0.5,2.1-0.7,3.4-0.7s2.2,0.5,2.9,1.5c0.7,1,1.1,2.5,1.1,4.3
		c0,0.3-0.1,0.7-0.2,1.4c-0.1,0.6-0.3,1.4-0.4,2.3c-0.2,0.9-0.4,2-0.6,3.4c-0.2,1.4-0.4,2.7-0.6,3.8s-0.3,2.2-0.4,3.3
		c-0.1,1.1-0.2,2.1-0.2,3c0,1.5,0.2,2.8,0.6,3.8s1,1.5,1.8,1.5c0.3,0,0.7-0.1,1.3-0.3c0.8-0.3,1.3-0.6,1.5-0.8
		c1.1-0.8,1.6-1.2,1.7-1.2c0.1,0,0.9-0.5,2.5-1.5c2-1.3,4.3-2.8,7-4.6l0,8.3l-1.8,1.4c-0.1,0.1-1.3,0.8-3.5,1.9
		c-3.1,1.7-5.1,2.7-5.9,3c-1.9,0.9-3.1,1.4-3.6,1.5c-1.2,0.4-2.5,0.6-3.9,0.6s-2.5-1-3.4-2.9c-0.9-2-1.4-4.8-1.4-8.6
		c0-1.5,0.1-3.1,0.3-4.8c0.2-1.7,0.4-3.5,0.7-5.5h-0.6l-9.7,19.2c-0.5,1-1.1,1.7-1.7,2.1c-0.6,0.4-1.3,0.6-2.1,0.6
		c-1,0-1.8-0.2-2.4-0.6c-0.6-0.4-1.1-1-1.4-1.7c-0.3-0.7-0.6-1.5-0.7-2.5S1234,376.2,1234,375.2z"/>
</g>
<g>
	<circle fill="none" stroke="#13161B" stroke-width="2" stroke-miterlimit="10" cx="1255" cy="277" r="25"/>
	<line fill="none" stroke="#13161B" stroke-width="2" stroke-miterlimit="10" x1="1266.7" y1="265.8" x2="1243.3" y2="289.2"/>
	<line fill="none" stroke="#13161B" stroke-width="2" stroke-miterlimit="10" x1="1266.7" y1="289.2" x2="1243.3" y2="265.8"/>
</g>
<line fill="none" stroke="#13161B" stroke-width="2" stroke-miterlimit="10" x1="5" y1="178.5" x2="255" y2="178.5"/>
<line fill="none" stroke="#13161B" stroke-width="2" stroke-miterlimit="10" x1="309" y1="178.5" x2="505" y2="178.5"/>
<g>
	<circle fill="none" stroke="#13161B" stroke-width="2" stroke-miterlimit="10" cx="481" cy="57" r="25"/>
	<line fill="none" stroke="#13161B" stroke-width="2" stroke-miterlimit="10" x1="492.7" y1="45.8" x2="469.3" y2="69.2"/>
	<line fill="none" stroke="#13161B" stroke-width="2" stroke-miterlimit="10" x1="492.7" y1="69.2" x2="469.3" y2="45.8"/>
</g>
<g>
	<path fill="#13161B" stroke="#13161B" stroke-width="2" stroke-miterlimit="10" d="M14.7,134.5c0,0.7,0,1.3-0.1,1.9
		c0,0.1,0,0.4,0,0.7c0,0.2,0,0.2,0.1,0c0-0.3,0-0.5,0-0.8C14.7,134.4,14.7,133.8,14.7,134.5z"/>
	<path fill="#13161B" stroke="#13161B" stroke-width="2" stroke-miterlimit="10" d="M112.8,146.1c-1.1,0.4-2.1,0.7-3.1,0.7
		c-0.4,0-0.7-0.1-1-0.2s-0.6-0.4-0.9-0.7c-0.3-0.3-0.5-0.8-0.6-1.3c-0.2-0.5-0.2-1.2-0.2-2c0-0.5,0.1-1.1,0.2-1.8s0.3-1.6,0.5-2.7
		s0.4-2,0.5-2.7s0.2-1.2,0.2-1.6c0-0.5-0.1-0.9-0.3-1.3c-0.2-0.4-0.4-0.7-0.7-1c-0.3-0.3-0.7-0.5-1.1-0.6c-0.4-0.1-0.8-0.2-1.2-0.2
		c-1.2,0-2.3,0.3-3.3,1c-0.9,0.7-1.8,1.5-2.5,2.4s-1.4,2.3-2.1,3.8s-1.2,2.7-1.7,3.7H95c0-1,0-2.6,0.1-4.2c0.1-1.5,0.2-2.8,0.2-3.6
		c0-0.7,0-1.3-0.1-1.7c0-0.4-0.1-0.7-0.3-0.9c-0.2-0.2-0.4-0.4-0.7-0.4s-0.8-0.1-1.4-0.1c-0.5,0-0.9,0-1.3,0.1
		c-0.3,0.1-0.6,0.2-0.9,0.3c-0.2,0.2-0.4,0.4-0.6,0.7c-0.2,0.3-0.4,0.7-0.5,1.2c-0.3,0.7-0.6,1.7-0.9,2.8c-0.3,1.1-0.6,2.6-1,4.3
		s-0.7,3.3-1,4.8c-0.3,1.5-0.5,3-0.7,4.5c0,0.2,0,0.4-0.1,0.6c-0.5,0.4-0.9,0.8-1.5,1.1c-1.3,0.9-2.6,1.8-4,2.6
		c-1.4,0.8-2.9,1.4-4.4,2c-1.5,0.5-2.9,0.8-4.3,0.8c-0.4,0-0.8,0-1.2-0.1c-0.4-0.1-0.7-0.2-1.1-0.5c-0.3-0.2-0.7-0.5-1-0.9
		c-0.3-0.4-0.7-0.9-1-1.5c2-0.5,3.8-1.3,5.4-2.2c1.7-0.9,3.1-2,4.3-3.2c1.2-1.2,2.3-2.7,3.2-4.3s1.4-3.2,1.4-4.6
		c0-1.3-0.2-2.4-0.7-3.5c-0.5-1-1.1-1.9-1.9-2.6c-0.8-0.7-1.7-1.3-2.8-1.7c-1.1-0.4-2.2-0.6-3.5-0.6c-1.5,0-2.9,0.3-4.2,0.8
		c-1.3,0.5-2.4,1.3-3.4,2.2c-1,0.9-1.9,2-2.7,3.2c-0.8,1.2-1.4,2.5-1.9,3.8c-0.5,1.3-1,2.8-1.5,4.6s-0.7,3.2-0.7,4.4
		c0,0.1,0,0.3,0,0.4c-0.8,0.4-1.6,0.9-2.5,1.2c-1,0.4-1.8,0.6-2.6,0.6c-0.9,0-1.6-0.2-2.3-0.7c-0.6-0.5-1.2-1-1.6-1.6
		c-0.5-0.7-0.9-1.5-1.2-2.4c0.3-0.6,0.6-1.2,1-1.9c0.3-0.6,0.7-1.5,1.3-2.7c0.5-1.2,1-2.3,1.5-3.2c0,0,0.1-0.3,0.4-0.7
		c0.2-0.4,0.5-1,0.7-1.6c0.2-0.6,0.5-1.3,0.7-2s0.3-1.4,0.3-2c0-0.8-0.4-1.5-1.2-2s-1.8-0.8-3.1-0.8c-1.2,0-2.3,0.2-3.2,0.7
		c-0.9,0.5-1.5,1-1.7,1.7L37,152l-0.5,0l3.1-19.5c0-0.7-0.3-1.2-0.8-1.6c-0.5-0.4-1.3-0.6-2.3-0.6c-1.2,0-2.2,0.2-3,0.6
		c-0.8,0.4-1.6,0.9-2.3,1.7c-0.7,0.7-1.3,1.7-1.9,2.8c-0.6,1.1-1.2,2.4-1.8,3.9s-1.3,3.4-2.2,5.8c-0.8,2.3-1.8,4.7-2.8,6.9l-0.4,0
		l2.7-19.6c0-0.6-0.3-1.2-0.9-1.5c-0.6-0.4-1.4-0.6-2.5-0.6l-0.9-0.1c-0.9,0-1.7,0.2-2.3,0.6c-0.6,0.4-1.2,0.9-1.7,1.5
		c-0.5,0.6-0.9,1.3-1.2,2c-0.3,0.7-0.5,1.5-0.7,2.1c-0.1,0.3,0,0.4,0,0.5c0,1.6,0.1,3.3,0.1,4.9c0,1.9,0,4.1,0,6.6
		c0,5,0.2,8.9,1,11.4c0.8,2.6,2,3.9,3.6,3.9c1,0,2-0.4,3.1-1.2c1.1-0.8,2.1-2,3.1-3.4c1-1.5,1.9-3.2,2.8-5.2c0.9-2,1.6-4.3,2.3-6.7
		l1,0.2c0,1.2,0,2.5,0,3.7c0,1.3,0.1,2.5,0.1,3.7c0.1,1.2,0.1,2.4,0.2,3.4c0.1,1.1,0.2,2,0.4,2.9c0.2,0.8,0.4,1.5,0.6,1.9
		s0.5,0.7,0.8,0.7c0.9,0,1.8-0.3,2.7-0.9c0.9-0.6,1.8-1.4,2.7-2.5s1.7-2.4,2.6-3.8c0.8-1.5,1.6-3.1,2.4-4.9c0,1.4,0.3,2.6,0.7,3.6
		c0.5,1,1.1,1.8,1.8,2.4s1.7,1.1,2.7,1.3c1,0.3,2.1,0.4,3.2,0.4c1.5,0,3-0.3,4.6-0.9c1-0.4,1.9-0.8,2.9-1.3c0.4,0.9,0.9,1.7,1.5,2.4
		c1,1.3,2.4,2.4,3.9,3.1c1.6,0.8,3.4,1.2,5.5,1.2c1.3,0,2.7-0.2,4-0.5c1.3-0.3,2.6-0.7,3.8-1.2c1.2-0.5,2.4-1.1,3.5-1.8
		c1-0.6,2-1.2,2.9-1.9c0,0.3,0,0.6,0.1,0.9c0.1,0.8,0.3,1.6,0.6,2.3c0.3,0.7,0.7,1.2,1.3,1.6c0.6,0.4,1.3,0.6,2.2,0.6
		c0.4,0,0.8-0.1,1.1-0.2s0.6-0.4,0.9-0.8s0.6-0.8,0.9-1.4s0.6-1.3,0.9-2.2l6-16.8h0.5c0.2,1,0.4,2.8,0.7,4.2s0.7,2.6,1.3,3.8
		s1.4,2,2.5,2.7s2.4,1,4.1,1c0.9,0,1.9-0.1,2.8-0.4s1.8-0.6,2.6-1c0.8-0.4,1.6-0.9,2.4-1.3c0.7-0.5,1.4-0.9,2-1.3l0.5-7.9
		c-1,0.8-2,1.6-3.1,2.2C114.8,145.1,113.8,145.6,112.8,146.1z M66.9,146.2c0-0.7,0.3-1.5,0.6-2.6c0.4-1.1,0.7-1.9,1-2.6
		c0.3-0.7,0.7-1.3,1.1-1.9c0.5-0.6,1-1,1.7-1.4c0.7-0.4,1.5-0.5,2.5-0.5c0.5,0,1,0.3,1.4,1c0.4,0.6,0.6,1.4,0.6,2.4
		c0,0.7-0.4,1.6-1.2,2.7c-0.8,1.1-1.6,1.9-2.4,2.6c-0.8,0.6-1.7,1.2-2.7,1.6c-1,0.4-1.8,0.6-2.6,0.6
		C66.8,147.4,66.8,146.9,66.9,146.2z"/>
	<path fill="#13161B" stroke="#13161B" stroke-width="2" stroke-miterlimit="10" d="M199.2,152.3c-0.5,0.5-1,1-1.5,1.5
		c-0.5,0.5-1.1,0.9-1.6,1.3c-0.5,0.4-1,0.7-1.6,0.9c-0.5,0.2-1,0.3-1.5,0.3c-0.6,0-1-0.3-1.2-0.9c-0.2-0.6-0.3-1.4-0.3-2.4
		c0-1.2,0.2-2.7,0.6-4.4c0.4-1.8,0.7-3.3,1-4.7s0.5-2.7,0.8-4c0.2-1.3,0.3-2.5,0.3-3.6c0-0.7-0.1-1.3-0.2-1.7
		c-0.1-0.4-0.3-0.7-0.5-1c-0.2-0.2-0.5-0.4-0.8-0.4c-0.3-0.1-0.6-0.1-0.9-0.1c-0.2,0-0.5,0-0.8,0c-0.3,0-0.5,0-0.8,0
		c-0.3,0-0.6,0-0.9-0.1s-0.6-0.1-0.8-0.2c-0.3-0.1-0.5-0.3-0.7-0.5c-0.2-0.2-0.4-0.5-0.6-0.8c-0.2-0.3-0.4-0.5-0.7-0.7
		c-0.3-0.2-0.7-0.3-1.2-0.3c-1.6,0-3.1,0.3-4.6,1c-1.5,0.7-2.9,1.5-4.3,2.7c-1.4,1.1-2.6,2.4-3.7,3.9c-1.1,1.5-2.2,3.3-3.2,5.3
		c-1,2.1-1.7,4-2.2,5.7c-0.1,0.4-0.2,0.8-0.3,1.2c-0.6,0.6-1.2,1.3-1.8,1.8c-0.5,0.5-1.1,1-1.6,1.4c-0.6,0.5-1.2,0.9-1.8,1.2
		c-0.6,0.4-1.2,0.7-1.8,0.9c-0.6,0.2-1.2,0.3-1.7,0.3c-0.4,0-0.8-0.3-1-0.8c-0.3-0.5-0.4-1.3-0.4-2.2c0-1.7,0.2-3.3,0.6-4.8
		c0.4-1.5,1.2-3.3,2.4-5.4s2-3.9,2.4-5.4c0.4-1.5,0.6-3,0.6-4.5c0-0.8-0.1-1.4-0.3-1.9s-0.5-0.9-0.8-1.1c-0.3-0.3-0.6-0.5-1-0.6
		c-0.3-0.1-0.6-0.2-0.9-0.2c-1.1,0-2.2,0.4-3.4,1.2c-1.2,0.8-2.8,2.2-4.7,4c-1.9,1.9-3.4,3.5-4.6,4.9c-1.1,1.4-2.2,2.8-3.1,4
		l-0.7-0.5c0.8-1.4,1.6-3.1,2.6-5s2-3.9,3-6s2-4.3,3-6.6s1.9-4.5,2.6-6.7s1.4-4.3,1.9-6.4c0.5-2,0.7-3.9,0.7-5.6
		c0-1.1-0.1-2.1-0.3-3.1c-0.2-0.9-0.5-1.7-1-2.4c-0.5-0.7-1.1-1.2-1.8-1.5c-0.8-0.4-1.8-0.5-3-0.5c-2.3,0-4.4,0.7-6.2,2
		c-1.8,1.3-3.4,3.1-4.7,5.3c-1.3,2.2-2.5,4.8-3.4,7.7c-0.9,2.9-1.6,6-2.1,9.2c-0.5,3.2-0.9,6.4-1.4,9.7c-0.5,3.2-0.8,6.4-1,9.4
		c-0.2,3-0.3,5.8-0.3,8.3c0,2.5-0.1,4.5-0.1,6c0,0.9,0,1.7,0.1,2.6c0.1,0.8,0.2,1.6,0.4,2.3c0.2,0.7,0.5,1.2,1,1.6
		c0.4,0.4,1,0.6,1.7,0.6c0.6,0,1-0.1,1.4-0.3c0.4-0.2,0.7-0.6,1-1c0.3-0.5,0.6-1.1,0.9-1.8c0.3-0.7,0.7-1.6,1.2-2.6
		c1-2,2.1-4,3.3-5.9c1.2-1.9,2.4-3.6,3.5-5.1c1.1-1.5,2.2-2.8,3.1-3.8c0.9-1,1.6-1.6,1.9-1.9l0.7,0.1c-0.1,0.1-0.2,0.3-0.5,0.7
		c-0.2,0.4-0.5,1-0.8,1.7c-0.3,0.7-0.7,1.4-1,2.3c-0.4,0.9-0.7,1.7-1,2.6c-0.3,0.9-0.5,1.8-0.7,2.7c-0.2,0.9-0.3,1.7-0.3,2.4
		c0,1,0.1,2.1,0.4,3.3s0.7,2.2,1.3,3.2c0.6,1,1.4,1.8,2.3,2.4c0.9,0.6,2,0.9,3.3,0.9c0.8,0,1.7-0.1,2.5-0.4c0.9-0.3,1.8-0.6,2.7-1
		c0.9-0.4,1.8-0.8,2.6-1.3c0.9-0.5,1.7-1,2.4-1.5c0.6-0.4,1.1-0.7,1.6-1.1c0.5,1.1,1,2,1.8,2.8c0.8,0.8,1.7,1.5,2.7,1.9
		c1,0.4,2.1,0.7,3.1,0.7c1,0,2-0.2,3-0.5c1-0.3,2-0.8,2.9-1.3c0.9-0.5,1.8-1.1,2.6-1.7c0.8-0.6,1.5-1.3,2-1.9
		c0.7,1.8,1.6,3.2,2.6,4.1c1,0.9,2.2,1.4,3.7,1.4c1.2,0,2.5-0.3,3.7-0.9c1.2-0.6,2.4-1.4,3.5-2.2c1.1-0.9,2-1.8,2.9-2.8
		c0.9-1,1.6-1.8,2.1-2.6l-1.6-7.4C201.4,149.7,200.3,151.1,199.2,152.3z M141.6,135.5c-0.7,1.7-1.4,3.2-2,4.6
		c0.3-2.5,0.6-5.2,1.1-7.8c0.2-1.1,0.3-2.3,0.5-3.6c0.2-1.3,0.4-2.6,0.6-3.9c0.2-1.3,0.4-2.6,0.8-4c0.3-1.3,0.7-2.6,1.1-3.8
		c1.5-3.6,2.9-6.4,4-8.3c1.1-1.9,2-2.9,2.6-2.9c0.5,0,0.7,0.9,0.7,2.6c0,1.1-0.3,2.9-0.9,5.2c-0.6,2.4-1.6,5.2-2.9,8.7
		c-0.4,1-0.9,2.2-1.5,3.7c-0.6,1.4-1.3,3-2,4.6C143.1,132.2,142.3,133.8,141.6,135.5z M183.7,148c-0.1,0.7-0.3,1.6-0.6,2.7
		c-0.3,1.1-0.7,2.1-1.2,3.1s-1.1,1.9-1.8,2.6c-0.7,0.7-1.4,1.1-2.3,1.1c-0.5,0-0.9-0.1-1.3-0.4c-0.3-0.3-0.6-0.6-0.8-1
		c-0.2-0.4-0.3-0.9-0.4-1.5s-0.1-1.1-0.1-1.7c0-1,0.1-2,0.4-3.1c0.3-1.1,0.7-2.4,1.3-3.9c0.6-1.5,1.3-2.7,1.9-3.7s1.4-1.9,2.1-2.7
		c0.8-0.8,1.6-1.4,2.5-1.8c0.9-0.5,1.8-0.7,2.7-0.7L183.7,148z"/>
	<path fill="#13161B" stroke="#13161B" stroke-width="2" stroke-miterlimit="10" d="M256.1,151.2c-1.1,0.6-2.1,1.1-3.1,1.6
		c-1,0.5-2,0.9-2.9,1.4c-0.9,0.4-1.8,0.9-2.6,1.5c0-1.4,0.1-2.9,0.2-4.3s0.1-2.5-0.1-3.4c-0.2-0.8-0.3-1.5-0.5-2.2
		c-0.2-0.6-0.4-1.2-0.5-1.8c-0.2-0.6-0.3-1.1-0.4-1.7c-0.1-0.6-0.2-1.2-0.2-1.9c0.1-0.2,0.3-0.6,0.8-1.1c0.5-0.5,0.9-1.1,1.5-1.7
		c0.5-0.6,1-1.2,1.4-1.9c0.4-0.7,0.6-1.3,0.6-1.8c0-0.3,0-0.6-0.1-1c0-0.4-0.2-0.7-0.5-1.1c-0.3-0.3-0.7-0.6-1.3-0.9
		c-0.6-0.2-1.4-0.4-2.5-0.4c-0.6,0-1.2,0.1-1.8,0.3c-0.5,0.2-1,0.4-1.4,0.7c-0.4,0.3-0.8,0.7-1.2,1s-0.7,0.8-1,1.2
		c-1.4,1.8-2.6,3.3-3.5,4.5c-0.9,1.2-1.7,2.2-2.3,3.1c-0.6,0.8-1.2,1.6-1.6,2.2s-1.3,1.4-2.1,2.4c-0.6,0.8-1.1,1.4-2.1,2v-0.2
		c0,0.7-1.2,1.5-2,2.2s-1.6,1.4-2.5,2c-0.9,0.6-1.8,1.2-2.7,1.8c-0.9,0.5-1.8,1-2.6,1.4c-0.8,0.4-1.6,0.7-2.3,0.9s-1.3,0.3-1.8,0.3
		c-0.8,0-1.5-0.1-2.1-0.4s-1.1-0.6-1.6-1.1c-0.4-0.5-0.8-1.2-1-2c-0.2-0.8-0.3-1.8-0.3-3.1c0-0.5,0-1,0-1.5c0-0.6,0-1.1,0.1-1.7
		s0-1.2,0.1-1.8c0-0.6,0-1.2,0.1-1.8c0.1-1.3,0.1-2.7,0.2-4.1c0.6-0.7,1.2-1.6,1.8-2.5c0.7-0.9,1.3-1.8,2-2.8h12.9
		c0.5,0,1-0.1,1.5-0.7c0.4-0.5,0.7-1.1,0.7-2c0-0.7-0.1-1.3-0.3-1.8c-0.2-0.5-0.5-0.7-1-0.7c-0.4,0-0.9,0-1.4-0.1
		c-0.6,0-1.2,0-1.9-0.1c-0.7,0-1.4,0-2.1-0.1c-0.7,0-1.4,0-2-0.1c-0.6,0-1.2,0-1.6-0.1c-0.5,0-0.8,0-1,0c0.8-1.2,1.6-2.5,2.3-3.8
		c0.7-1.3,1.4-2.5,1.9-3.8c0.5-1.2,1-2.5,1.3-3.7c0.3-1.2,0.5-2.3,0.5-3.4c0-1.3-0.2-2.5-0.5-3.7c-0.3-1.2-0.7-2.2-1.3-3.1
		c-0.6-0.9-1.2-1.6-2-2.1c-0.8-0.5-1.7-0.8-2.6-0.8c-1.5,0-2.9,0.7-4.3,2s-2.6,3.1-3.8,5.3c-1.2,2.2-2.2,4.7-3.1,7.5
		c-0.9,2.8-1.7,5.7-2.3,8.8c-0.2,0-0.6,0.1-1.2,0.1c-0.6,0-1.3,0-2-0.1c-0.8,0-1.5,0-2.4,0s-1.6,0.1-2.3,0.2
		c-0.7,0.1-1.3,0.2-1.7,0.4c-0.4,0.2-0.7,0.5-0.7,0.8c0,0.2,0,0.5,0,0.8c0,0.3,0.1,0.6,0.2,0.9c0.1,0.3,0.4,0.5,0.6,0.7
		c0.3,0.2,0.7,0.4,1.3,0.4c1.2,0.1,2.1,0.3,2.8,0.4c0.6,0.1,1.2,0.2,1.6,0.3c0.4,0.1,0.8,0.2,1.2,0.3c0.4,0.1,0.9,0.2,1.6,0.3
		c-0.2,1.5-0.4,3-0.5,4.5c-0.1,1.5-0.2,3-0.2,4.3c0,3.5,0.2,6.6,0.7,9.3c0.4,2.8,1.1,5.1,2,7c0.9,1.9,1.9,3.4,3.2,4.5
		c1.3,1,2.8,1.5,4.5,1.5c0.8,0,1.8-0.2,2.8-0.5c1-0.3,2.2-0.8,3.5-1.4c1.3-0.6,2.8-1.4,4.5-2.4c1-0.6,2.1-1.2,3.3-1.8
		c0,0,0.1,0,0.1,0c0.1,1.2,0.4,2.1,1,3c0.5,0.8,1.2,1.5,2.1,2c0.9,0.5,1.9,0.9,3,1.1c1.1,0.2,2.4,0.4,3.7,0.4c1.8,0,3.8-0.2,5.8-0.6
		s4.1-0.9,6.1-1.6c2-0.7,3.9-1.5,5.8-2.4c1.8-0.9,3.4-1.9,4.8-2.9l0-7.6C258.2,149.9,257.1,150.6,256.1,151.2z M211.8,121.9
		c0.5-1.9,1-3.7,1.6-5.3c0.6-1.6,1.1-2.9,1.7-3.9c0.6-1,1.2-1.5,1.8-1.5c0.4,0,0.8,0.1,1,0.3c0.2,0.2,0.4,0.4,0.5,0.7
		c0.1,0.3,0.2,0.6,0.2,0.9c0,0.3,0.1,0.6,0.1,0.8c0,0.7-0.2,1.6-0.6,2.7c-0.4,1.1-0.9,2.3-1.4,3.6c-0.6,1.3-1.2,2.6-2,3.9
		c-0.7,1.3-1.4,2.5-2.1,3.7c-0.4,0-0.7-0.1-1-0.1c-0.3,0-0.7-0.1-1-0.1C210.9,125.7,211.3,123.9,211.8,121.9z M239.7,155.6
		c-0.1,0.6-0.4,1.2-0.7,1.7c-0.3,0.5-0.8,0.9-1.4,1.2c-0.6,0.3-1.3,0.4-2.2,0.4c-0.7,0-1.4-0.2-1.9-0.5c-0.6-0.3-1.1-0.7-1.5-1.1
		c-0.4-0.4-0.8-0.8-1.1-1.1c-0.3-0.3-0.6-0.5-0.9-0.5l9.3-9.8c0.1,0.4,0.2,0.8,0.4,1.3c0.1,0.5,0.2,1.2,0.1,2.2
		c-0.1,0.9-0.1,1.7,0,2.4c0.1,0.6,0.1,1.3,0.1,1.9C239.9,154.2,239.8,154.9,239.7,155.6z"/>
	<path fill="#13161B" stroke="#13161B" stroke-width="2" stroke-miterlimit="10" d="M495.6,150c-0.8,0.7-1.8,1.4-2.7,2
		c-0.9,0.6-1.9,1.2-2.8,1.8c-0.9,0.5-1.8,1-2.7,1.4c-0.8,0.4-1.6,0.7-2.3,0.9s-1.3,0.3-1.8,0.3c-0.8,0-1.5-0.1-2.1-0.4
		c-0.6-0.2-1.1-0.6-1.6-1.1c-0.4-0.5-0.8-1.2-1-2c-0.2-0.8-0.3-1.8-0.3-3.1c0-0.5,0-1,0-1.5c0-0.6,0-1.1,0.1-1.7s0-1.2,0.1-1.8
		c0-0.6,0-1.2,0.1-1.8c0.1-1.3,0.1-2.7,0.2-4.1c0.6-0.7,1.2-1.6,1.8-2.5c0.7-0.9,1.3-1.8,2-2.8h12.9c0.5,0,1-0.1,1.5-0.7
		c0.4-0.5,0.7-1.1,0.7-2c0-0.7-0.1-1.3-0.3-1.8c-0.2-0.5-0.5-0.7-1-0.7c-0.4,0-0.9,0-1.4-0.1c-0.6,0-1.2,0-1.9-0.1
		c-0.7,0-1.4,0-2.1-0.1c-0.7,0-1.4,0-2-0.1c-0.6,0-1.2,0-1.6-0.1c-0.5,0-0.8,0-1,0c0.8-1.2,1.6-2.5,2.3-3.8c0.7-1.3,1.4-2.5,1.9-3.8
		c0.5-1.2,1-2.5,1.3-3.7c0.3-1.2,0.5-2.3,0.5-3.4c0-1.3-0.2-2.5-0.5-3.7c-0.3-1.2-0.7-2.2-1.3-3.1c-0.6-0.9-1.2-1.6-2-2.1
		c-0.8-0.5-1.7-0.8-2.6-0.8c-1.5,0-2.9,0.7-4.3,2s-2.6,3.1-3.8,5.3c-1.2,2.2-2.2,4.7-3.1,7.5c-0.9,2.8-1.7,5.7-2.3,8.8
		c-0.2,0-0.6,0.1-1.2,0.1c-0.6,0-1.3,0-2-0.1c-0.8,0-1.5,0-2.4,0s-1.6,0.1-2.3,0.2c-0.7,0.1-1.3,0.2-1.7,0.4
		c-0.4,0.2-0.7,0.5-0.7,0.8c0,0.2,0,0.5,0,0.8c0,0,0,0,0,0c-0.1,0-0.2-0.1-0.3-0.1c-0.3-0.1-0.6-0.2-0.9-0.2c-1.1,0-2.2,0.4-3.4,1.2
		c-1.2,0.8-2.8,2.2-4.7,4c-1.9,1.9-3.4,3.5-4.6,4.9c-1.1,1.4-2.2,2.8-3.1,4l-0.7-0.5c0.8-1.4,1.6-3.1,2.6-5c1-1.9,2-3.9,3-6
		s2-4.3,3-6.6s1.9-4.5,2.6-6.7s1.4-4.3,1.9-6.4c0.5-2,0.7-3.9,0.7-5.6c0-1.1-0.1-2.1-0.3-3.1c-0.2-0.9-0.5-1.7-1-2.4
		c-0.5-0.7-1.1-1.2-1.8-1.5c-0.8-0.4-1.8-0.5-3-0.5c-2.3,0-4.4,0.7-6.2,2c-1.8,1.3-3.4,3.1-4.7,5.3c-1.3,2.2-2.5,4.8-3.4,7.7
		c-0.9,2.9-1.6,6-2.1,9.2c-0.5,3.2-0.9,6.4-1.4,9.7c-0.5,3.2-0.8,6.4-1,9.4c-0.1,2.1-0.2,4.1-0.3,6c-0.6,0.7-1.2,1.4-1.9,2.1
		c-1.2,1.2-2.4,2.3-3.7,3.3c-1.3,1-2.6,1.8-3.9,2.5c-1.3,0.7-2.5,1-3.6,1c-1.1,0-2-0.2-2.7-0.7s-1.3-1.1-1.7-1.8
		c-0.4-0.7-0.7-1.5-0.9-2.4c-0.1-0.9-0.2-1.7-0.2-2.5c0-0.5,0-1.2,0.1-2c0-0.8,0.2-1.6,0.3-2.5c0.2-0.9,0.5-2,1-3.2
		c0.4-1.3,0.9-2.3,1.4-3s1-1.3,1.7-1.7c0.6-0.4,1.4-0.7,2.3-0.7c0.4,0,0.6,0.2,0.7,0.5c0.1,0.4,0.2,0.8,0.2,1.3c0,0.6,0,1,0,1.2
		c-0.3,1.3-0.5,2.1-0.6,2.5c-0.2,0.7,0,1.4,0.5,2.3c0.3,0.6,1.1,0.8,2.2,0.8c0.7,0,1.4-0.2,2-0.5c0.6-0.4,1.2-1,1.8-2
		c0.6-1,1.1-1.9,1.3-2.6c0.2-0.7,0.3-1.5,0.3-2.3c0-1.1-0.2-2.1-0.7-3.1c-0.5-1-1.1-1.8-1.9-2.5c-0.8-0.7-1.8-1.2-3-1.6
		s-2.4-0.6-3.8-0.6c-1.5,0-2.9,0.3-4.2,0.8c-1.3,0.5-2.4,1.3-3.4,2.2s-1.9,2-2.7,3.2c-0.8,1.2-1.4,2.5-2,3.9c-0.5,1.4-1,2.9-1.5,4.8
		s-0.7,3.4-0.7,4.7c0,0.7,0,1.3,0.1,2c-0.1,0.1-0.2,0.2-0.2,0.3c-0.5,0.5-1,1-1.5,1.5c-0.5,0.5-1.1,0.9-1.6,1.3
		c-0.5,0.4-1,0.7-1.6,0.9c-0.5,0.2-1,0.3-1.5,0.3c-0.6,0-1-0.3-1.2-0.9c-0.2-0.6-0.3-1.4-0.3-2.4c0-1.2,0.2-2.7,0.6-4.4
		c0.4-1.8,0.7-3.3,1-4.7s0.5-2.7,0.8-4c0.2-1.3,0.3-2.5,0.3-3.6c0-0.7-0.1-1.3-0.2-1.7c-0.1-0.4-0.3-0.7-0.5-1
		c-0.2-0.2-0.5-0.4-0.8-0.4c-0.3-0.1-0.6-0.1-0.9-0.1c-0.2,0-0.5,0-0.8,0c-0.3,0-0.5,0-0.8,0c-0.3,0-0.6,0-0.9-0.1
		c-0.3,0-0.6-0.1-0.8-0.2c-0.3-0.1-0.5-0.3-0.7-0.5c-0.2-0.2-0.4-0.5-0.6-0.8c-0.2-0.3-0.4-0.5-0.7-0.7c-0.3-0.2-0.7-0.3-1.2-0.3
		c-1.6,0-3.1,0.3-4.6,1c-1.5,0.7-2.9,1.5-4.3,2.7c-1.4,1.1-2.6,2.4-3.7,3.9c-1.1,1.5-2.2,3.3-3.2,5.3c-1,2.1-1.7,4-2.2,5.7
		c-0.4,1.6-0.7,3.3-0.7,4.8c-0.5,0.4-0.9,0.7-1.4,1c-0.5,0.3-1.1,0.6-1.6,0.8c-0.5,0.2-1,0.3-1.5,0.3c-0.4,0-0.8-0.4-1.1-1.2
		c-0.3-0.8-0.5-1.8-0.5-3c0-1.6,0.1-3,0.2-4.4c0.2-1.4,0.4-2.9,0.7-4.6c0.3-1.7,0.5-3.2,0.7-4.6s0.2-2.9,0.2-4.4
		c0-1-0.4-1.8-1.1-2.4c-0.7-0.6-1.6-0.8-2.7-0.8c-0.9,0-1.7,0.3-2.4,0.9s-1.3,1.4-1.9,2.3c-0.7,0.9-1.4,2-2.2,3.2
		c-0.8,1.2-1.5,2.4-2.2,3.5c-0.7,1.1-1.3,2.2-1.9,3.3c-0.6,1.1-0.9,1.7-0.9,1.8l-0.4-0.4c0,0,0-0.1,0-0.3c0.1-0.4,0.1-0.8,0.2-1
		c0.4-1.4,0.7-2.5,0.8-3.2c0.2-0.9,0.4-1.6,0.5-2.2c0.1-0.5,0.3-1.3,0.4-2.3c0.1-0.8,0.2-1.6,0.2-2.5c0-1-0.3-1.8-1-2.4
		c-0.7-0.6-1.5-0.8-2.4-0.8c-1,0-1.9,0.3-2.6,0.9c-0.7,0.6-1.4,1.4-2.1,2.3c-0.7,0.9-1.4,2-2.1,3.2s-1.4,2.4-2.1,3.5
		c-0.6,1.1-1.2,2.2-1.8,3.4c-0.5,1.1-0.8,1.7-0.9,1.8l-0.4-0.4c0.3-1.9,0.7-3.6,1-5.2c0,0,0.1-0.6,0.3-1.8c0.1-0.6,0.2-1.2,0.2-1.7
		c0.1-0.6,0.1-1.1,0.2-1.6c0-0.5,0.1-0.9,0.1-1.3c0-0.7,0-1.3-0.1-1.7c0-0.4-0.2-0.7-0.4-0.9c-0.2-0.2-0.6-0.4-1.1-0.4
		c-0.5-0.1-1.1-0.1-2-0.1c-0.6,0-1,0-1.4,0.1c-0.4,0.1-0.7,0.2-0.9,0.5c-0.3,0.2-0.5,0.6-0.7,1c-0.2,0.4-0.4,1-0.6,1.7
		c-0.2,0.7-0.5,1.6-0.7,2.7c-0.3,1.1-0.5,2.3-0.8,3.7c-0.3,1.3-0.6,2.9-0.9,4.7c-0.3,1.8-0.6,3.4-0.8,4.8c0,0.3-0.1,0.6-0.1,1
		c-0.1,0.1-0.2,0.2-0.3,0.3c-1.3,0.9-2.6,1.8-4,2.6c-1.4,0.8-2.9,1.4-4.4,2c-1.5,0.5-2.9,0.8-4.3,0.8c-0.4,0-0.8,0-1.2-0.1
		c-0.4-0.1-0.7-0.2-1.1-0.5s-0.7-0.5-1-0.9c-0.3-0.4-0.7-0.9-1-1.5c2-0.5,3.8-1.3,5.4-2.2c1.7-0.9,3.1-2,4.3-3.2
		c1.2-1.2,2.3-2.7,3.2-4.3c0.9-1.7,1.4-3.2,1.4-4.6c0-1.3-0.2-2.4-0.7-3.5c-0.5-1-1.1-1.9-1.9-2.6c-0.8-0.7-1.7-1.3-2.8-1.7
		c-1.1-0.4-2.2-0.6-3.5-0.6c-1.5,0-2.9,0.3-4.2,0.8c-1.3,0.5-2.4,1.3-3.4,2.2c-1,0.9-1.9,2-2.7,3.2c-0.8,1.2-1.4,2.5-1.9,3.8
		c-0.5,1.3-1,2.8-1.5,4.6c-0.5,1.7-0.7,3.2-0.7,4.4c0,0.3,0,0.5,0,0.8c-2.8,4.2-5.3,7.2-7.6,8.9c-0.7,0.6-1.4,1-2.1,1.4
		c0.3-3.5,0.6-6.4,0.7-8.5c0.2-2.2,0.5-4.2,1-6s0.8-3.3,0.9-4.5c0.2-3.9,0.2-6.2-0.1-6.9c-0.2-0.4-0.3-0.7-0.4-1
		c-0.4-0.6-1.1-0.9-2.1-0.9l-1.5,0c-0.3,0-0.6,0-0.8,0c-0.2,0-0.4-0.1-0.6-0.1c-0.2-0.1-0.3-0.1-0.4-0.2c-0.1,0-0.2-0.1-0.4-0.3
		c-0.1-0.1-0.2-0.2-0.3-0.3c-0.1,0-0.2-0.2-0.3-0.4c-0.1-0.2-0.2-0.3-0.3-0.4c-0.5-0.7-1.4-1-2.6-1c-2.6,0-5.2,1.2-8,3.7
		c-1.9,1.7-3.4,3.7-4.6,5.9s-2.4,5.2-3.5,8.7c-1.3,3.7-1.2,7,0.1,9.8c0.7,1.6,1.8,2.9,3.3,3.9c1.5,1.1,3.1,1.6,4.8,1.6
		c2.4,0,4.8-1.2,7.3-3.6l-0.7,4c-1.4,1.2-2.6,2.4-3.6,3.4c-1,1.1-2.3,2.5-3.9,4.3c-0.8,0.9-1.5,1.8-2.2,2.9s-1.3,1.9-1.6,2.5
		c-0.3,0.6-0.9,1.6-1.8,3.1c-1.5,2.6-2.1,5.1-1.9,7.5c0.1,1.3,0.4,2.4,0.9,3.3s1.2,1.7,2,2.2c0.8,0.5,1.7,0.9,2.7,1.2
		c1,0.3,2,0.4,3.2,0.4c1.4,0,2.7-0.2,3.9-0.7c1.2-0.4,2.2-1,3.1-1.7c0.9-0.7,1.6-1.6,2.3-2.6c0.7-1,1.2-2.1,1.7-3.1
		c0.4-1,0.8-2.2,1.1-3.4c0.3-1.2,0.6-2.4,0.7-3.3c0.1-1,0.3-2,0.4-3c0.1-0.5,0.1-1.1,0.2-1.9c0.3-2.9,0.5-4.9,0.7-5.9
		c0.2-1.1,0.6-1.8,1.2-2.2c1-0.7,2.5-1.7,4.7-3.1c0.1-0.1,0.3-0.2,0.5-0.3c1.1-0.9,2.5-2.1,4.1-3.7c0.7-0.7,1.3-1.4,1.8-2
		c0.3,0.6,0.7,1.1,1.1,1.6c1,1.3,2.4,2.4,3.9,3.1c1.6,0.8,3.4,1.2,5.5,1.2c1.3,0,2.7-0.2,4-0.5c1.3-0.3,2.6-0.7,3.8-1.2
		c1.2-0.5,2.4-1.1,3.5-1.8c0.6-0.4,1.2-0.8,1.8-1.2c0,0.1,0,0.2,0,0.4c0.1,0.8,0.3,1.5,0.6,2.2c0.3,0.6,0.7,1.2,1.3,1.5
		c0.6,0.4,1.3,0.6,2.2,0.6c0.7,0,1.4-0.2,2-0.5c0.6-0.3,1.1-0.9,1.6-1.8c1.5-3,2.8-5.6,3.8-7.7c1-2.1,1.8-3.8,2.4-5.1
		s1.1-2.2,1.5-2.9c0.3-0.7,0.7-1.4,0.9-1.4h0.5c-0.4,2-0.7,3.9-0.9,5.7c-0.1,0.8-0.2,1.5-0.3,2.3s-0.2,1.5-0.3,2.2
		c-0.1,0.7-0.2,1.3-0.2,1.8c0,0.5-0.1,1-0.1,1.2c0,0.7,0,1.4,0.1,2.1s0.2,1.4,0.5,2c0.2,0.6,0.6,1.1,1,1.5c0.4,0.4,1,0.6,1.7,0.6
		c0.9,0,1.8-0.2,2.5-0.5s1.4-0.8,1.9-1.8l6.8-17.1h0.5c-0.2,1-0.3,3.1-0.4,4.7c-0.1,1.6-0.2,3-0.2,4.5c0,1.5,0.1,2.8,0.2,4.1
		c0.1,1.3,0.4,2.3,0.7,3.2c0.3,0.9,0.8,1.6,1.3,2.2s1.2,0.8,2,0.8c1.6,0,3.1-0.2,4.4-0.6c1.3-0.4,2.5-1,3.6-1.6
		c0.7-0.5,1.5-1,2.2-1.5c0.3,0.5,0.6,0.9,1,1.3c0.8,0.8,1.7,1.5,2.7,1.9c1,0.4,2.1,0.7,3.1,0.7c1,0,2-0.2,3-0.5c1-0.3,2-0.8,2.9-1.3
		c0.9-0.5,1.8-1.1,2.6-1.7c0.8-0.6,1.5-1.3,2-1.9c0.7,1.8,1.6,3.2,2.6,4.1c1,0.9,2.2,1.4,3.7,1.4c1.2,0,2.5-0.3,3.7-0.9
		c1.2-0.6,2.4-1.4,3.5-2.2c0.9-0.8,1.7-1.5,2.5-2.4c0.3,0.4,0.5,0.8,0.8,1.2c1.1,1.3,2.4,2.3,3.9,3.1c1.6,0.8,3.4,1.1,5.5,1.1
		c1.2,0,2.4-0.2,3.5-0.6c1.2-0.4,2.3-0.9,3.3-1.4c1.1-0.6,2.1-1.3,3.1-2c1-0.8,1.9-1.5,2.7-2.4c0.7-0.6,1.3-1.3,1.9-2
		c0,0.5,0,0.9,0,1.3c0,0.9,0,1.7,0.1,2.6c0.1,0.8,0.2,1.6,0.4,2.3c0.2,0.7,0.5,1.2,1,1.6c0.4,0.4,1,0.6,1.7,0.6c0.6,0,1-0.1,1.4-0.3
		c0.4-0.2,0.7-0.6,1-1c0.3-0.5,0.6-1.1,0.9-1.8c0.3-0.7,0.7-1.6,1.2-2.6c1-2,2.1-4,3.3-5.9c1.2-1.9,2.4-3.6,3.5-5.1
		c1.1-1.5,2.2-2.8,3.1-3.8c0.9-1,1.6-1.6,1.9-1.9l0.7,0.1c-0.1,0.1-0.2,0.3-0.5,0.7c-0.2,0.4-0.5,1-0.8,1.7c-0.3,0.7-0.7,1.4-1,2.3
		c-0.4,0.9-0.7,1.7-1,2.6c-0.3,0.9-0.5,1.8-0.7,2.7c-0.2,0.9-0.3,1.7-0.3,2.4c0,1,0.1,2.1,0.4,3.3c0.3,1.2,0.7,2.2,1.3,3.2
		c0.6,1,1.4,1.8,2.3,2.4c0.9,0.6,2,0.9,3.3,0.9c0.8,0,1.7-0.1,2.5-0.4c0.9-0.3,1.8-0.6,2.7-1c0.9-0.4,1.8-0.8,2.6-1.3
		c0.9-0.5,1.7-1,2.4-1.5c0.7-0.5,1.4-1,2.1-1.4s1.1-0.8,1.5-1.1l-0.6-9c-1.2,1.5-2.4,2.8-3.6,3.9c-0.5,0.5-1.1,1-1.6,1.4
		c-0.6,0.5-1.2,0.9-1.8,1.2c-0.6,0.4-1.2,0.7-1.8,0.9c-0.6,0.2-1.2,0.3-1.7,0.3c-0.4,0-0.8-0.3-1-0.8c-0.3-0.5-0.4-1.3-0.4-2.2
		c0-1.7,0.2-3.3,0.6-4.8c0.4-1.5,1.2-3.3,2.4-5.4s2-3.9,2.4-5.4c0.4-1.5,0.6-3,0.6-4.5c0-0.6-0.1-1.1-0.2-1.6
		c0.2,0.1,0.4,0.1,0.6,0.1c1.2,0.1,2.1,0.3,2.8,0.4c0.6,0.1,1.2,0.2,1.6,0.3c0.4,0.1,0.8,0.2,1.2,0.3c0.4,0.1,0.9,0.2,1.6,0.3
		c-0.2,1.5-0.4,3-0.5,4.5c-0.1,1.5-0.2,3-0.2,4.3c0,3.5,0.2,6.6,0.7,9.3c0.4,2.8,1.1,5.1,2,7c0.9,1.9,1.9,3.4,3.2,4.5
		c1.3,1,2.8,1.5,4.5,1.5c0.8,0,1.8-0.2,2.8-0.5c1-0.3,2.2-0.8,3.5-1.4c1.3-0.6,3-1.4,4.7-2.4c1.7-0.9,3.9-2,5.9-3.3v-8.6
		C497,148.5,496.4,149.3,495.6,150z M480.1,121.9c0.5-1.9,1-3.7,1.6-5.3c0.6-1.6,1.1-2.9,1.7-3.9c0.6-1,1.2-1.5,1.8-1.5
		c0.4,0,0.8,0.1,1,0.3c0.2,0.2,0.4,0.4,0.5,0.7c0.1,0.3,0.2,0.6,0.2,0.9c0,0.3,0.1,0.6,0.1,0.8c0,0.7-0.2,1.6-0.6,2.7
		c-0.4,1.1-0.9,2.3-1.4,3.6c-0.6,1.3-1.2,2.6-2,3.9c-0.7,1.3-1.4,2.5-2.1,3.7c-0.4,0-0.7-0.1-1-0.1c-0.3,0-0.7-0.1-1-0.1
		C479.1,125.7,479.6,123.9,480.1,121.9z M287.3,174.7c-0.1,1.1-0.3,2.1-0.4,2.9c-0.1,0.8-0.2,1.5-0.4,2.1c-0.3,1.2-0.6,2.2-0.9,2.9
		s-0.5,1.5-0.8,2.2s-0.6,1.3-0.9,1.7c-0.3,0.4-0.6,0.8-0.9,1.1c-0.4,0.3-0.7,0.6-1.2,0.7c-0.4,0.1-0.9,0.2-1.4,0.2
		c-1.5,0-1.9-1.1-1.1-3.2c0.9-2.6,2.1-5.1,3.6-7.5s3.1-4.3,4.7-5.4C287.5,172.9,287.4,173.6,287.3,174.7z M288.1,148.1
		c-0.1,1.9-0.5,3.9-1.3,5.8c-1,2.4-2.3,3.7-3.8,3.7c-0.9,0-1.6-0.5-2.1-1.4c-0.8-1.5-1-3.6-0.6-6.5c0.2-1.3,1.4-3.8,3.5-7.6
		c2-3.5,4.3-5.2,6.9-5.2L288.1,148.1z M313.6,146.2c0-0.7,0.3-1.5,0.6-2.6c0.4-1.1,0.7-1.9,1-2.6c0.3-0.7,0.7-1.3,1.1-1.9
		c0.5-0.6,1-1,1.7-1.4c0.7-0.4,1.5-0.5,2.5-0.5c0.5,0,1,0.3,1.4,1c0.4,0.6,0.6,1.4,0.6,2.4c0,0.7-0.4,1.6-1.2,2.7
		c-0.8,1.1-1.6,1.9-2.4,2.6c-0.8,0.6-1.7,1.2-2.7,1.6s-1.8,0.6-2.6,0.6C313.5,147.4,313.6,146.9,313.6,146.2z M390.4,148
		c-0.1,0.7-0.3,1.6-0.6,2.7c-0.3,1.1-0.7,2.1-1.2,3.1s-1.1,1.9-1.8,2.6c-0.7,0.7-1.4,1.1-2.3,1.1c-0.5,0-0.9-0.1-1.3-0.4
		c-0.3-0.3-0.6-0.6-0.8-1c-0.2-0.4-0.3-0.9-0.4-1.5s-0.1-1.1-0.1-1.7c0-1,0.1-2,0.4-3.1c0.3-1.1,0.7-2.4,1.3-3.9
		c0.6-1.5,1.3-2.7,1.9-3.7s1.4-1.9,2.1-2.7c0.8-0.8,1.6-1.4,2.5-1.8c0.9-0.5,1.8-0.7,2.7-0.7L390.4,148z M442.5,135.5
		c-0.7,1.7-1.4,3.2-2,4.6c0.3-2.5,0.6-5.2,1.1-7.8c0.2-1.1,0.3-2.3,0.5-3.6c0.2-1.3,0.4-2.6,0.6-3.9c0.2-1.3,0.4-2.6,0.8-4
		c0.3-1.3,0.7-2.6,1.1-3.8c1.5-3.6,2.9-6.4,4-8.3c1.1-1.9,2-2.9,2.6-2.9c0.5,0,0.7,0.9,0.7,2.6c0,1.1-0.3,2.9-0.9,5.2
		c-0.6,2.4-1.6,5.2-2.9,8.7c-0.4,1-0.9,2.2-1.5,3.7c-0.6,1.4-1.3,3-2,4.6C443.9,132.2,443.2,133.8,442.5,135.5z"/>
</g>
</svg>
