<?xml version="1.0" encoding="utf-8"?>
<!-- Generator: Adobe Illustrator 18.0.0, SVG Export Plug-In . SVG Version: 6.00 Build 0)  -->
<!DOCTYPE svg PUBLIC "-//W3C//DTD SVG 1.1//EN" "http://www.w3.org/Graphics/SVG/1.1/DTD/svg11.dtd">
<svg version="1.1" id="Ebene_1" xmlns="http://www.w3.org/2000/svg" xmlns:xlink="http://www.w3.org/1999/xlink" x="0px" y="0px"
	 viewBox="0 0 120 120" enable-background="new 0 0 120 120" xml:space="preserve">
<g>
	<circle fill="none" stroke="#FFFF00" stroke-width="2" stroke-miterlimit="10" cx="60" cy="60" r="50"/>
	<g>
		<g>
			<path fill="#FFFF00" d="M79.8,39.5v40h-40v-40H79.8 M79.8,33.5h-40c-3.3,0-6,2.7-6,6v40c0,3.3,2.7,6,6,6h40c3.3,0,6-2.7,6-6v-40
				C85.8,36.2,83.1,33.5,79.8,33.5L79.8,33.5z"/>
		</g>
		<g>
			<path fill="#FFFF00" d="M53.2,52.9c-2.1,0-3.9-1.7-3.9-3.9s1.7-3.9,3.9-3.9S57,46.9,57,49S55.3,52.9,53.2,52.9z"/>
			<path fill="#FFFF00" d="M53.2,45.7c1.9,0,3.4,1.5,3.4,3.4s-1.5,3.4-3.4,3.4s-3.4-1.5-3.4-3.4S51.3,45.7,53.2,45.7 M53.2,44.7
				c-2.4,0-4.4,2-4.4,4.4s2,4.4,4.4,4.4s4.4-2,4.4-4.4S55.6,44.7,53.2,44.7L53.2,44.7z"/>
		</g>
		<g>
			<path fill="#FFFF00" d="M65.8,52.9c-2.1,0-3.9-1.7-3.9-3.9s1.7-3.9,3.9-3.9c2.1,0,3.9,1.7,3.9,3.9S68,52.9,65.8,52.9z"/>
			<path fill="#FFFF00" d="M65.8,45.7c1.9,0,3.4,1.5,3.4,3.4s-1.5,3.4-3.4,3.4s-3.4-1.5-3.4-3.4S64,45.7,65.8,45.7 M65.8,44.7
				c-2.4,0-4.4,2-4.4,4.4s2,4.4,4.4,4.4c2.4,0,4.4-2,4.4-4.4S68.2,44.7,65.8,44.7L65.8,44.7z"/>
		</g>
		<g>
			<path fill="#FFFF00" d="M53.2,63.9c-2.1,0-3.9-1.7-3.9-3.9c0-2.1,1.7-3.9,3.9-3.9S57,57.9,57,60C57,62.1,55.3,63.9,53.2,63.9z"/>
			<path fill="#FFFF00" d="M53.2,56.6c1.9,0,3.4,1.5,3.4,3.4s-1.5,3.4-3.4,3.4s-3.4-1.5-3.4-3.4S51.3,56.6,53.2,56.6 M53.2,55.6
				c-2.4,0-4.4,2-4.4,4.4s2,4.4,4.4,4.4s4.4-2,4.4-4.4S55.6,55.6,53.2,55.6L53.2,55.6z"/>
		</g>
		<g>
			<path fill="#FFFF00" d="M65.8,63.9c-2.1,0-3.9-1.7-3.9-3.9c0-2.1,1.7-3.9,3.9-3.9c2.1,0,3.9,1.7,3.9,3.9
				C69.7,62.1,68,63.9,65.8,63.9z"/>
			<path fill="#FFFF00" d="M65.8,56.6c1.9,0,3.4,1.5,3.4,3.4s-1.5,3.4-3.4,3.4s-3.4-1.5-3.4-3.4S64,56.6,65.8,56.6 M65.8,55.6
				c-2.4,0-4.4,2-4.4,4.4s2,4.4,4.4,4.4c2.4,0,4.4-2,4.4-4.4S68.2,55.6,65.8,55.6L65.8,55.6z"/>
		</g>
		<g>
			<path fill="#FFFF00" d="M53.2,74.8c-2.1,0-3.9-1.7-3.9-3.9c0-2.1,1.7-3.9,3.9-3.9S57,68.8,57,71C57,73.1,55.3,74.8,53.2,74.8z"/>
			<path fill="#FFFF00" d="M53.2,67.6c1.9,0,3.4,1.5,3.4,3.4s-1.5,3.4-3.4,3.4s-3.4-1.5-3.4-3.4S51.3,67.6,53.2,67.6 M53.2,66.6
				c-2.4,0-4.4,2-4.4,4.4s2,4.4,4.4,4.4s4.4-2,4.4-4.4S55.6,66.6,53.2,66.6L53.2,66.6z"/>
		</g>
		<g>
			<path fill="#FFFF00" d="M65.8,74.8c-2.1,0-3.9-1.7-3.9-3.9c0-2.1,1.7-3.9,3.9-3.9c2.1,0,3.9,1.7,3.9,3.9
				C69.7,73.1,68,74.8,65.8,74.8z"/>
			<path fill="#FFFF00" d="M65.8,67.6c1.9,0,3.4,1.5,3.4,3.4s-1.5,3.4-3.4,3.4s-3.4-1.5-3.4-3.4S64,67.6,65.8,67.6 M65.8,66.6
				c-2.4,0-4.4,2-4.4,4.4s2,4.4,4.4,4.4c2.4,0,4.4-2,4.4-4.4S68.2,66.6,65.8,66.6L65.8,66.6z"/>
		</g>
	</g>
</g>
</svg>
