<?xml version="1.0" encoding="utf-8"?>
<!-- Generator: Adobe Illustrator 18.0.0, SVG Export Plug-In . SVG Version: 6.00 Build 0)  -->
<!DOCTYPE svg PUBLIC "-//W3C//DTD SVG 1.1//EN" "http://www.w3.org/Graphics/SVG/1.1/DTD/svg11.dtd">
<svg version="1.1" id="Ebene_1" xmlns="http://www.w3.org/2000/svg" xmlns:xlink="http://www.w3.org/1999/xlink" x="0px" y="0px"
	 viewBox="0 0 520 205" enable-background="new 0 0 520 205" xml:space="preserve">
<g>
	<circle fill="none" stroke="#13161B" stroke-width="2" stroke-miterlimit="10" cx="493" cy="34" r="14"/>
	<line fill="none" stroke="#13161B" stroke-width="2" stroke-miterlimit="10" x1="499.5" y1="27.7" x2="486.5" y2="40.8"/>
	<line fill="none" stroke="#13161B" stroke-width="2" stroke-miterlimit="10" x1="499.5" y1="40.8" x2="486.5" y2="27.7"/>
</g>
<line fill="none" stroke="#13161B" stroke-width="2" stroke-miterlimit="10" x1="10" y1="178.5" x2="317" y2="178.5"/>
<line fill="none" stroke="#13161B" stroke-width="2" stroke-miterlimit="10" x1="436" y1="178.5" x2="510" y2="178.5"/>
<line fill="none" stroke="#13161B" stroke-width="2" stroke-miterlimit="10" x1="363" y1="178.5" x2="386" y2="178.5"/>
<g>
	<path fill="#13161B" stroke="#13161B" stroke-width="2" stroke-miterlimit="10" d="M35.8,145.7c-0.7,2.7-1.5,5.1-2.5,7.4
		c-1,2.2-2,4.1-3.1,5.8c-1.1,1.6-2.2,2.9-3.4,3.8c-1.2,0.9-2.3,1.3-3.5,1.3c-1.9,0-3.2-1.4-4.1-4.2s-1.3-7-1.3-12.5
		c0-2.7,0-5.2,0-7.2c0-2.1,0-4.2,0-6.3c0-2.1,0-2.8,0-2c0,0.7-0.1,1.4-0.1,2.1c0,0.2,0,0.4,0,0.8c0,0.4,0.1,0.2,0.3-0.6
		c0.2-0.8,0.5-1.5,0.8-2.3c0.3-0.8,0.8-1.6,1.3-2.2c0.5-0.7,1.1-1.2,1.8-1.7c0.7-0.4,1.6-0.7,2.5-0.7l1,0.1c1.2,0,2.1,0.2,2.7,0.6
		c0.6,0.4,0.9,1,0.9,1.7l-3,21.4l0.5,0c1.1-2.5,2.1-5,3-7.6c0.9-2.6,1.7-4.7,2.4-6.3c0.7-1.6,1.3-3.1,2-4.3c0.6-1.2,1.3-2.2,2-3.1
		c0.7-0.8,1.6-1.4,2.5-1.8c0.9-0.4,2-0.6,3.3-0.6c1.1,0,1.9,0.2,2.5,0.6c0.6,0.4,0.9,1,0.9,1.7l-3.4,21.4l0.6,0l9.2-21.2
		c0.3-0.7,0.9-1.3,1.9-1.8c1-0.5,2.1-0.8,3.5-0.8c1.4,0,2.5,0.3,3.4,0.9c0.9,0.6,1.3,1.3,1.3,2.2c0,0.7-0.1,1.4-0.4,2.2
		s-0.5,1.5-0.8,2.2c-0.3,0.7-0.5,1.3-0.8,1.7c-0.2,0.5-0.4,0.7-0.4,0.8c-0.5,1-1.1,2.1-1.7,3.5c-0.6,1.3-1,2.3-1.4,2.9
		c-0.4,0.7-0.8,1.4-1.1,2.1c0.3,1,0.8,1.8,1.3,2.6c0.5,0.6,1,1.2,1.7,1.8c0.7,0.5,1.5,0.8,2.5,0.8c0.8,0,1.7-0.2,2.8-0.6
		c1.1-0.4,2.1-0.9,3-1.5c1.1-0.6,2.2-1.3,3.4-2.1v8.9c-1.6,1.1-3.3,2-5,2.6c-1.7,0.6-3.4,1-5,1c-1.3,0-2.4-0.2-3.6-0.5
		s-2.1-0.8-2.9-1.5s-1.5-1.5-2-2.6c-0.5-1.1-0.8-2.4-0.8-3.9c-0.8,2-1.7,3.8-2.6,5.4s-1.8,3-2.8,4.2c-1,1.2-1.9,2.1-2.9,2.8
		s-2,1-2.9,1c-0.3,0-0.6-0.3-0.9-0.8s-0.5-1.2-0.6-2.1s-0.3-1.9-0.4-3.1c-0.1-1.2-0.2-2.5-0.3-3.8c-0.1-1.3-0.1-2.7-0.1-4.1
		c0-1.4,0-2.8,0-4.1L35.8,145.7z"/>
	<path fill="#13161B" stroke="#13161B" stroke-width="2" stroke-miterlimit="10" d="M90.3,135.5c0.7,1.4,1.2,2.9,1.6,4.5
		c0.4,1.6,0.5,3.4,0.5,5.4c0,1.5-0.2,2.9-0.5,4.4c-0.3,1.5-0.8,2.9-1.4,4.3s-1.3,2.7-2.2,3.9c-0.9,1.2-1.9,2.2-3,3.1
		c-1.1,0.9-2.3,1.6-3.7,2.1c-1.3,0.5-2.7,0.8-4.2,0.8c-2.2,0-4-0.5-5.5-1.4c-1.5-0.9-2.8-2.2-3.8-3.7c-1-1.5-1.7-3.2-2.2-5.2
		s-0.7-3.9-0.7-5.8c0-3.2,0.4-6,1.2-8.4c0.8-2.3,2-4.4,3.5-6.1c1.5-1.7,3.4-3.1,5.5-4.1c2.2-1,4.6-1.5,7.4-1.5
		c2.3,0,4.5,0.4,6.6,1.1c2,0.7,4,1.7,5.7,2.9s3.4,2.7,5,4.6s3,3.6,4.3,5.3l-0.7,5.2c-0.7-0.9-1.6-1.8-2.7-2.9s-2.3-2.2-3.6-3.4
		c-1.3-1.3-2.5-2.3-3.7-3.2s-2.3-1.6-3.2-2.2L90.3,135.5z M78.9,156.8c0.8,0,1.6-0.4,2.4-1.3c0.8-0.8,1.5-1.9,2.1-3.2
		s1.1-2.9,1.4-4.7c0.4-1.8,0.5-3.5,0.5-4.9c0-1.1-0.1-2.2-0.3-3.2c-0.2-1-0.4-1.8-0.8-2.5c-0.3-0.7-0.8-1.3-1.3-1.7
		c-0.5-0.4-1.2-0.6-2-0.6c-1,0-2,0.4-2.9,1.3c-0.9,0.9-1.7,2-2.4,3.3c-0.7,1.3-1.2,2.8-1.6,4.4c-0.4,1.6-0.6,3.5-0.6,5.5
		c0,1,0.1,2,0.3,2.9c0.2,0.9,0.5,1.7,0.9,2.4c0.4,0.7,1,1.2,1.7,1.6C77.1,156.6,77.9,156.8,78.9,156.8z"/>
	<path fill="#13161B" stroke="#13161B" stroke-width="2" stroke-miterlimit="10" d="M99.4,156.2c0-1.1,0.1-2.3,0.2-3.8
		c0.1-1.4,0.3-3,0.5-4.6c0.2-1.6,0.5-3.2,0.7-4.9s0.6-3.4,1.1-5.3c0.4-1.9,0.8-3.4,1.1-4.7c0.3-1.3,0.6-2.3,1-3.1
		c0.2-0.5,0.4-1,0.6-1.3c0.2-0.3,0.4-0.6,0.7-0.8c0.3-0.2,0.6-0.3,1-0.4c0.4-0.1,0.9-0.1,1.4-0.1c0.6,0,1.1,0,1.5,0.1
		c0.4,0.1,0.6,0.2,0.8,0.4s0.3,0.6,0.3,1s0.1,1,0.1,1.8c0,0.9-0.1,2.2-0.2,3.9c-0.1,1.7-0.2,3.1-0.1,4.4h0.4c0.5-1,1.1-2.3,1.8-3.9
		s1.5-2.9,2.3-4c0.8-1.1,1.7-1.9,2.8-2.7c1-0.7,2.2-1.1,3.6-1.1c0.5,0,0.9,0.1,1.4,0.2c0.4,0.2,0.8,0.4,1.2,0.7s0.6,0.7,0.8,1.1
		s0.3,0.9,0.3,1.5c0,0.4-0.1,1-0.2,1.8c-0.1,0.8-0.3,1.7-0.6,2.9c-0.3,1.2-0.5,2.2-0.6,3c-0.1,0.8-0.2,1.4-0.2,1.9
		c0,0.9,0.1,1.6,0.3,2.2c0.2,0.6,0.4,1.1,0.7,1.4c0.3,0.4,0.6,0.6,1,0.8c0.4,0.1,0.7,0.2,1.1,0.2c1.1,0,2.2-0.2,3.4-0.7
		s2.3-1,3.2-1.7c1.2-0.7,2.3-1.5,3.4-2.4l-0.6,8.6c-0.6,0.4-1.4,0.9-2.2,1.4c-0.8,0.5-1.7,1-2.6,1.5s-1.9,0.8-2.9,1.1
		c-1,0.3-2,0.5-3,0.5c-1.8,0-3.3-0.4-4.5-1.1c-1.1-0.8-2-1.7-2.7-2.9c-0.7-1.2-1.2-2.6-1.5-4.1c-0.3-1.5-0.6-3-0.8-4.6h-0.6
		l-6.6,18.4c-0.3,1-0.7,1.8-1,2.4s-0.6,1.1-0.9,1.5c-0.3,0.4-0.7,0.7-1,0.8s-0.8,0.2-1.2,0.2c-1,0-1.8-0.2-2.4-0.6s-1.1-1-1.4-1.7
		c-0.3-0.7-0.6-1.5-0.7-2.5C99.5,158.1,99.4,157.2,99.4,156.2z"/>
	<path fill="#13161B" stroke="#13161B" stroke-width="2" stroke-miterlimit="10" d="M161.8,155.7c-2.4,1.4-4.5,2.6-6.3,3.6
		c-1.8,1-3.5,1.9-4.9,2.6c-1.4,0.7-2.7,1.2-3.8,1.5c-1.1,0.3-2.1,0.5-3,0.5c-1.9,0-3.5-0.6-4.9-1.7c-1.4-1.1-2.6-2.8-3.6-4.9
		c-1-2.1-1.7-4.7-2.1-7.7c-0.5-3-0.7-6.4-0.7-10.2c0-1.5,0.1-3,0.2-4.7c0.1-1.7,0.3-3.3,0.5-5c-0.7-0.1-1.3-0.2-1.7-0.3
		c-0.4-0.1-0.8-0.2-1.3-0.3c-0.5-0.1-1-0.2-1.7-0.3c-0.7-0.1-1.7-0.2-3.1-0.4c-0.6-0.1-1.1-0.2-1.4-0.5c-0.3-0.2-0.6-0.5-0.7-0.8
		c-0.1-0.3-0.2-0.6-0.3-1c0-0.3,0-0.6,0-0.9c0-0.4,0.2-0.7,0.7-0.9c0.5-0.2,1.1-0.4,1.9-0.5c0.8-0.1,1.6-0.2,2.5-0.2
		c0.9,0,1.8,0,2.6,0c0.8,0,1.6,0,2.2,0.1c0.7,0,1.1,0,1.4-0.1c0.7-3.3,1.5-6.5,2.5-9.6c1-3.1,2.2-5.9,3.4-8.3
		c1.3-2.4,2.6-4.3,4.1-5.8c1.5-1.5,3.1-2.2,4.7-2.2c1.1,0,2,0.3,2.9,0.9c0.9,0.6,1.6,1.4,2.2,2.4c0.6,1,1.1,2.1,1.4,3.4
		c0.3,1.3,0.5,2.7,0.5,4.1c0,1.2-0.2,2.4-0.5,3.7c-0.3,1.3-0.8,2.6-1.4,4c-0.6,1.4-1.3,2.7-2.1,4.1c-0.8,1.4-1.6,2.8-2.5,4.1
		c0.2-0.1,0.6-0.1,1.1,0c0.5,0,1.1,0.1,1.8,0.1c0.7,0,1.4,0,2.2,0.1c0.8,0,1.5,0,2.3,0.1c0.7,0,1.4,0,2.1,0.1c0.6,0,1.2,0,1.6,0.1
		c0.5,0,0.8,0.3,1.1,0.8c0.2,0.5,0.3,1.2,0.3,2c0,0.9-0.2,1.7-0.7,2.2c-0.5,0.6-1,0.9-1.6,0.9h-14.2c-0.7,1-1.4,1.9-2.2,2.9
		c-0.7,0.9-1.4,1.8-2,2.6c-0.1,1.5-0.2,3-0.3,4.5c0,0.6,0,1.3-0.1,2s0,1.3-0.1,2s0,1.3-0.1,1.9c0,0.6,0,1.2,0,1.7
		c0,1.3,0.1,2.4,0.4,3.4c0.2,0.9,0.6,1.7,1.1,2.2c0.5,0.6,1,1,1.7,1.3c0.7,0.3,1.4,0.4,2.3,0.4c0.5,0,1.2-0.1,1.9-0.4
		c0.8-0.2,1.6-0.6,2.5-1s1.9-0.9,2.9-1.5c1-0.6,2-1.2,3-1.9c1-0.7,1.9-1.4,2.9-2.2c0.9-0.8,1.7-1.6,2.5-2.4V155.7z M150,109
		c0-0.3,0-0.6-0.1-0.9c0-0.3-0.1-0.6-0.2-0.9c-0.1-0.3-0.3-0.5-0.6-0.7c-0.3-0.2-0.6-0.3-1.1-0.3c-0.6,0-1.3,0.6-1.9,1.7
		c-0.7,1.1-1.3,2.6-1.9,4.3c-0.6,1.7-1.2,3.7-1.7,5.8c-0.5,2.1-1,4.1-1.5,6.1c0.4,0,0.7,0.1,1.1,0.1c0.4,0,0.8,0.1,1.1,0.1
		c0.7-1.2,1.5-2.6,2.3-4c0.8-1.4,1.5-2.9,2.2-4.3c0.6-1.4,1.2-2.7,1.6-3.9C149.8,110.8,150,109.8,150,109z"/>
	<path fill="#13161B" stroke="#13161B" stroke-width="2" stroke-miterlimit="10" d="M191.8,141.4c1-1.4,2.1-2.8,3.4-4.4
		c1.3-1.6,2.9-3.4,5-5.4c2.1-2,3.8-3.5,5.2-4.4c1.3-0.9,2.6-1.3,3.8-1.3c0.3,0,0.6,0.1,1,0.2s0.7,0.3,1.1,0.6
		c0.3,0.3,0.6,0.7,0.8,1.3c0.2,0.5,0.3,1.2,0.3,2.1c0,1.7-0.2,3.4-0.7,5c-0.5,1.6-1.4,3.6-2.7,5.9c-1.3,2.3-2.2,4.3-2.6,6
		s-0.7,3.4-0.7,5.3c0,1,0.1,1.8,0.4,2.4s0.7,0.9,1.1,0.9c0.6,0,1.2-0.1,1.9-0.4s1.3-0.6,2-1c0.7-0.4,1.3-0.8,2-1.4
		c0.6-0.5,1.2-1,1.8-1.6c1.4-1.3,2.7-2.7,4-4.3l0.6,9.8c-0.4,0.3-1,0.7-1.7,1.2c-0.7,0.5-1.4,1-2.2,1.5c-0.8,0.5-1.7,1.1-2.7,1.6
		c-1,0.6-1.9,1-2.9,1.5c-1,0.4-1.9,0.8-2.9,1.1c-1,0.3-1.9,0.4-2.8,0.4c-1.4,0-2.6-0.3-3.6-1c-1-0.7-1.9-1.6-2.5-2.6
		c-0.7-1.1-1.1-2.2-1.5-3.5s-0.5-2.5-0.5-3.6c0-0.8,0.1-1.7,0.3-2.7s0.5-2,0.8-3c0.3-1,0.7-2,1.1-2.9c0.4-0.9,0.8-1.8,1.1-2.5
		c0.3-0.7,0.6-1.4,0.9-1.8c0.3-0.5,0.4-0.7,0.5-0.8l-0.8-0.1c-0.4,0.3-1.1,0.9-2.1,2c-1,1.1-2.1,2.5-3.4,4.1
		c-1.3,1.7-2.6,3.5-3.9,5.6c-1.3,2.1-2.6,4.2-3.6,6.4c-0.5,1.1-1,2-1.3,2.9c-0.3,0.8-0.7,1.5-1,2c-0.3,0.5-0.7,0.9-1.1,1.1
		c-0.4,0.3-0.9,0.4-1.5,0.4c-0.8,0-1.4-0.2-1.9-0.7c-0.5-0.4-0.8-1-1.1-1.7c-0.2-0.7-0.4-1.6-0.5-2.5c-0.1-0.9-0.1-1.9-0.1-2.8
		c0-1.7,0-3.9,0.1-6.6c0-2.7,0.2-5.8,0.4-9.1c0.2-3.3,0.6-6.8,1.1-10.3c0.5-3.6,1-7.1,1.6-10.6c0.5-3.5,1.3-6.9,2.3-10.1
		c1-3.2,2.3-6,3.7-8.4s3.2-4.3,5.1-5.8c2-1.4,4.2-2.1,6.8-2.1c1.3,0,2.4,0.2,3.3,0.6c0.8,0.4,1.5,1,2,1.7s0.9,1.6,1.1,2.6
		c0.2,1,0.3,2.1,0.3,3.4c0,1.8-0.3,3.9-0.8,6.1c-0.5,2.2-1.2,4.6-2,7c-0.8,2.4-1.8,4.8-2.9,7.3c-1.1,2.5-2.2,4.9-3.3,7.2
		c-1.1,2.3-2.2,4.5-3.3,6.6c-1.1,2.1-2.1,3.9-2.9,5.4L191.8,141.4z M195.1,118.2c1.5-3.8,2.5-6.9,3.2-9.5c0.7-2.6,1-4.5,1-5.7
		c0-1.9-0.3-2.8-0.8-2.8c-0.6,0-1.6,1-2.8,3.1c-1.3,2.1-2.7,5.1-4.4,9.1c-0.4,1.4-0.8,2.8-1.2,4.2c-0.4,1.4-0.6,2.9-0.8,4.3
		c-0.2,1.4-0.4,2.9-0.6,4.3c-0.2,1.4-0.4,2.7-0.6,4c-0.5,2.9-1,5.8-1.2,8.6c0.7-1.5,1.4-3.2,2.2-5c0.8-1.8,1.6-3.6,2.3-5.4
		c0.8-1.8,1.5-3.5,2.2-5C194.1,120.7,194.6,119.3,195.1,118.2z"/>
	<path fill="#13161B" stroke="#13161B" stroke-width="2" stroke-miterlimit="10" d="M241.2,156.1c-0.9,0.8-2,1.7-3.3,2.6
		s-2.7,1.8-4.3,2.5c-1.5,0.8-3.1,1.4-4.7,1.9c-1.6,0.5-3.1,0.8-4.5,0.8c-1.3,0-2.4-0.2-3.2-0.5c-0.9-0.4-1.6-0.9-2.1-1.5
		c-0.5-0.6-0.9-1.4-1.2-2.3s-0.4-1.9-0.4-3c0-1.5,0.2-3.4,0.5-5.4c0.7-4.3,1.2-6.7,1.4-7.2c0.3-1,1-3.4,2-7c0.9-2.9,1.5-4.8,1.7-5.7
		c0.1-0.6,0.5-1.2,1-1.7c0.5-0.4,1.1-0.8,1.7-1.1c0.6-0.3,1.3-0.5,2-0.6c0.7-0.1,1.3-0.2,1.9-0.2c1,0,1.7,0.2,2.1,0.6
		c0.4,0.4,0.5,0.9,0.5,1.5c0,0.5-0.1,1.3-0.4,2.3c-0.3,1-0.5,2.1-0.9,3.4c-0.3,1.3-0.8,2.9-1.4,4.9c-0.6,2-1.1,3.7-1.3,5.1
		s-0.5,2.8-0.9,4.2c-0.4,1.4-0.5,2.6-0.5,3.8c0,1.1,0.1,2,0.4,2.6c0.2,0.7,0.7,1,1.5,1c0.9,0,1.9-0.3,2.9-0.9
		c1.1-0.6,2.2-1.4,3.3-2.2s2.2-1.8,3.2-2.7c1.1-0.9,2-1.7,2.8-2.4V156.1z M224.7,117.4c0-0.6,0.1-1.2,0.4-1.9c0.2-0.7,0.6-1.4,1.2-2
		c0.6-0.6,1.3-1.2,2.2-1.6c0.9-0.4,2.1-0.7,3.4-0.7c0.9,0,1.7,0.1,2.4,0.3c0.8,0.2,1.4,0.5,2,0.9c0.6,0.4,1,0.9,1.3,1.6
		c0.3,0.7,0.5,1.5,0.5,2.4c0,0.8-0.1,1.7-0.4,2.5c-0.3,0.8-0.7,1.5-1.3,2.1c-0.6,0.6-1.3,1.1-2.2,1.5s-2,0.6-3.2,0.6
		c-2.2,0-3.8-0.5-4.8-1.5C225.2,120.5,224.7,119.1,224.7,117.4z"/>
	<path fill="#13161B" stroke="#13161B" stroke-width="2" stroke-miterlimit="10" d="M238.6,156.2c0-1.6,0.1-3.5,0.3-5.6
		c0.2-2.1,0.4-4.5,0.7-7c0.3-2.5,0.6-4.8,1-6.9c0.4-2,0.7-3.8,1.1-5.2c0.3-1.1,0.8-2.1,1.6-2.8c0.8-0.8,1.8-1.1,3.2-1.1
		c1.3,0,2.2,0.4,2.8,1.2c0.5,0.8,0.8,1.9,0.8,3.2c0,0.4,0,0.9-0.1,1.5c-0.1,0.6-0.2,1.3-0.3,2.1c-0.1,0.8-0.2,1.5-0.4,2.3
		c-0.1,0.8-0.2,1.7-0.4,2.7c-0.1,1-0.2,1.8-0.3,2.3s-0.1,0.8-0.1,1h0.7c0.1-0.3,0.4-0.7,0.7-1.3c0.3-0.6,0.7-1.5,1.1-2.6
		c0.4-1.1,0.9-2.1,1.3-3s0.9-1.7,1.3-2.5c0.4-0.8,0.8-1.5,1.1-2.1c0.3-0.6,0.6-1.1,0.8-1.4c0.8-1.3,1.7-2.2,2.7-2.7
		c1-0.5,2.1-0.7,3.4-0.7s2.2,0.5,2.9,1.5s1.1,2.5,1.1,4.3c0,0.3-0.1,0.7-0.2,1.4s-0.3,1.4-0.4,2.3c-0.2,0.9-0.4,2-0.6,3.4
		c-0.2,1.4-0.4,2.7-0.6,3.8c-0.2,1.1-0.3,2.2-0.4,3.3c-0.1,1.1-0.2,2.1-0.2,3c0,1.5,0.2,2.8,0.6,3.8c0.4,1,1,1.5,1.8,1.5
		c0.3,0,0.7-0.1,1.3-0.3c0.8-0.3,1.3-0.6,1.5-0.8c1.1-0.8,1.6-1.2,1.7-1.2c0.1,0,0.9-0.5,2.5-1.5c2-1.3,4.3-2.8,7-4.6l0,8.3
		l-1.8,1.4c-0.1,0.1-1.3,0.8-3.5,1.9c-3.1,1.7-5.1,2.7-5.9,3c-1.9,0.9-3.1,1.4-3.6,1.5c-1.2,0.4-2.5,0.6-3.9,0.6s-2.5-1-3.4-2.9
		s-1.4-4.8-1.4-8.6c0-1.5,0.1-3.1,0.3-4.8c0.2-1.7,0.4-3.5,0.7-5.5h-0.6l-9.7,19.2c-0.5,1-1.1,1.7-1.7,2.1c-0.6,0.4-1.3,0.6-2.1,0.6
		c-1,0-1.8-0.2-2.4-0.6c-0.6-0.4-1.1-1-1.4-1.7c-0.3-0.7-0.6-1.5-0.7-2.5C238.7,158.1,238.6,157.2,238.6,156.2z"/>
	<path fill="#13161B" stroke="#13161B" stroke-width="2" stroke-miterlimit="10" d="M270.6,157.3c0-0.5,0.1-1,0.3-1.4s0.5-0.7,0.8-1
		c0.3-0.3,0.7-0.7,1.1-1s0.8-0.8,1.3-1.2l11.8-16.4c-0.4-0.2-0.8-0.4-1.1-0.6c-0.3-0.2-0.6-0.3-0.9-0.5c-0.3-0.1-0.5-0.2-0.8-0.3
		s-0.6-0.1-0.9-0.1c-0.8,0-1.4,0-2,0c-0.5,0-1,0.1-1.3,0.3c-0.4,0.1-0.7,0.4-1,0.6c-0.3,0.3-0.6,0.7-0.9,1.2c-0.8,1.1-1.4,2-1.9,2.5
		s-1,0.8-1.4,0.8c-0.4,0-0.7-0.2-0.8-0.5c-0.2-0.4-0.2-0.8-0.2-1.4c0-0.2,0-0.5,0-0.8c0-0.3,0.1-0.6,0.1-0.9
		c0.4-2.1,0.9-3.9,1.6-5.2c0.7-1.3,1.5-2.4,2.3-3.1c0.8-0.7,1.7-1.2,2.7-1.5c0.9-0.3,1.8-0.4,2.6-0.4c0.6,0,1.2,0.1,1.8,0.4
		c0.6,0.3,1.2,0.6,1.8,1c0.6,0.4,1.2,0.7,1.8,1s1.2,0.4,1.9,0.5c0.5,0,0.9,0,1.3,0c0.4,0,0.8,0,1.1,0c1,0,1.8,0,2.4-0.1
		c0.6,0,1-0.1,1.3-0.1c0.3,0,0.5-0.1,0.6-0.1c0.1,0,0.2-0.1,0.3-0.1c0.9,0,1.5,0.3,1.9,0.9c0.4,0.6,0.6,1.4,0.6,2.5
		c0,0.8-0.1,1.6-0.2,2.2c0,0.2-0.3,0.5-0.7,0.8c-0.4,0.3-1.2,0.6-2.2,0.9c-0.3,0.5-0.8,1.3-1.5,2.3c-0.7,1-1.5,2.1-2.4,3.3
		c-0.9,1.2-1.9,2.6-3,4.1c-1.1,1.5-2.1,2.9-2.9,4c-0.9,1.1-1.6,2.1-2.3,3c-0.7,0.8-1.1,1.4-1.3,1.7l-0.2,0.7c0,0,0.2,0.1,0.7,0.3
		c0.4,0.2,0.9,0.4,1.5,0.6s1.2,0.4,1.8,0.6c0.6,0.2,1.2,0.3,1.6,0.3c1,0,2-0.2,2.8-0.5c0.8-0.3,1.6-0.7,2.4-1.2c0.7-0.5,1.4-1,2-1.5
		c0.6-0.5,1.2-1,1.8-1.5c0.6-0.5,1.1-0.9,1.7-1.2c0.6-0.3,1.2-0.5,1.8-0.5c0.5,0,0.9,0.1,1.3,0.3c0.4,0.2,0.7,0.5,1,0.9
		c0.3,0.3,0.5,0.7,0.6,1.2c0.1,0.4,0.2,0.9,0.2,1.3c0,0.7-0.3,1.4-0.8,2.2s-1.3,1.5-2.2,2.2c-0.9,0.7-2,1.4-3.2,2
		c-1.2,0.6-2.5,1.2-3.8,1.7c-1.3,0.5-2.7,0.9-4,1.2c-1.4,0.3-2.6,0.4-3.9,0.4c-0.1,0-0.4,0-0.8-0.1s-1-0.3-1.7-0.5s-1.5-0.5-2.4-0.9
		c-0.9-0.4-1.9-0.8-3-1.3c-0.9,0.3-1.7,0.4-2.4,0.4c-0.7,0-1.4-0.1-1.9-0.4c-0.5-0.2-1-0.6-1.3-1c-0.4-0.4-0.6-0.9-0.8-1.5
		C270.7,158.5,270.6,157.9,270.6,157.3z"/>
	<path fill="#13161B" stroke="#13161B" stroke-width="2" stroke-miterlimit="10" d="M325.8,129.6c0,0.7,0,1.6-0.1,2.7
		c0,1.1-0.2,2.4-0.4,3.7c-0.3,1.4-0.6,3-0.9,4.9s-0.7,3.5-0.9,4.8c-0.2,1.3-0.4,2.4-0.6,3.3c-0.2,0.9-0.3,1.6-0.3,2.1
		c0,0.7,0,1.3,0,1.9c0,0.6,0.1,1.1,0.2,1.5c0.1,0.4,0.3,0.8,0.5,1c0.2,0.2,0.5,0.4,1,0.4c0.5,0,1.2-0.1,2-0.4
		c0.8-0.3,1.6-0.6,2.5-1.1c0.9-0.5,1.8-1,2.7-1.6c0.9-0.6,1.8-1.2,2.6-1.8c0.8-0.6,1.6-1.3,2.2-1.9c0.7-0.6,1.2-1.2,1.6-1.8
		c0,0.8,0,1.6,0,2.2c0,0.7,0,1.3,0,1.9s0,1.2,0,1.9c0,0.6,0,1.4,0,2.1c-0.5,0.5-1.2,1.1-2,1.7c-0.8,0.6-1.7,1.2-2.7,1.8
		c-1,0.6-2,1.2-3.1,1.7c-1.1,0.6-2.2,1-3.3,1.5c-1.1,0.4-2.2,0.8-3.2,1c-1.1,0.3-2,0.4-2.9,0.4c-0.9,0-1.7-0.2-2.4-0.5
		c-0.7-0.4-1.2-0.9-1.7-1.5s-0.9-1.4-1.2-2.3c-0.3-0.9-0.6-1.9-0.8-3c-0.9,1.1-1.8,2.2-2.8,3.1c-1,1-2,1.8-3,2.5
		c-1,0.7-2.1,1.3-3.1,1.7c-1,0.4-2.1,0.6-3,0.6c-0.8,0-1.6-0.1-2.3-0.4c-0.7-0.3-1.3-0.7-1.9-1.4c-0.5-0.6-1-1.5-1.3-2.5
		c-0.3-1-0.5-2.3-0.5-3.9c0-3.2,0.3-5.7,0.7-7.4c0.7-2.5,1.4-6.2,2.1-11.2c0.1-0.4,0.2-0.9,0.3-1.5s0.3-1.3,0.5-2s0.5-1.5,0.9-2.2
		c0.3-0.8,0.7-1.5,1.2-2.1c0.5-0.6,1-1.1,1.6-1.5c0.6-0.4,1.3-0.6,2.1-0.6c1.3,0.1,2.2,0.3,2.8,0.6s0.8,0.8,0.8,1.3
		c-0.2,1.7-0.5,3.2-0.7,4.8c-0.3,1.5-0.6,3.1-0.8,4.6c-0.3,1.6-0.6,3.3-0.9,5.2c-0.3,1.9-0.6,3.4-0.8,4.6c-0.2,1.1-0.4,2.1-0.5,2.8
		c-0.1,0.7-0.2,1.1-0.2,1.1c0,0.5,0,0.9,0.1,1.3c0.1,0.4,0.2,0.8,0.4,1.1c0.2,0.3,0.4,0.6,0.7,0.8c0.3,0.2,0.6,0.3,1,0.3
		c0.5,0,1.1-0.1,1.7-0.4s1.1-0.7,1.6-1.3c0.5-0.5,1-1.2,1.4-2c0.4-0.8,0.7-1.7,0.9-2.7l4.1-20.1c0.1-0.6,0.6-1.1,1.4-1.5
		c0.8-0.4,1.8-0.6,2.9-0.6c1.2,0,2.2,0.2,2.9,0.7C325.5,128.3,325.8,128.9,325.8,129.6z"/>
	<path fill="#13161B" stroke="#13161B" stroke-width="2" stroke-miterlimit="10" d="M331.7,165.3c0-0.1,0-0.9,0.1-2.2
		c0.1-1.4,0.2-3.2,0.4-5.5c0.2-2.3,0.4-4.9,0.7-7.9c0.3-3,0.6-6.1,1.1-9.5c0.5-3.3,1.1-6.7,1.7-10.2c0.7-3.5,1.5-6.9,2.4-10.2
		c0.9-3.3,2-6.4,3.1-9.3c1.2-2.9,2.5-5.5,4-7.7c1.5-2.2,3.1-3.9,4.9-5.2c1.8-1.3,3.8-1.9,5.9-1.9c0.8,0,1.7,0.1,2.6,0.4
		c0.9,0.3,1.8,0.8,2.5,1.4c0.8,0.6,1.4,1.5,1.9,2.6c0.5,1.1,0.8,2.4,0.8,3.9c0,1.4-0.2,3.1-0.7,5c-0.5,1.9-1.1,3.9-2,6
		c-0.8,2.1-1.8,4.4-3,6.7c-1.1,2.3-2.4,4.6-3.8,6.9c-1.4,2.3-2.8,4.5-4.3,6.8c-1.5,2.2-3,4.3-4.6,6.2l-0.1,0.6
		c0.5-0.2,0.9-0.4,1.2-0.4c0.3-0.1,0.5-0.1,0.8-0.1c0.3,0,0.6,0,0.8,0.1c0.2,0.1,0.4,0.1,0.6,0.2c0.2,0.1,0.4,0.1,0.5,0.2
		c0.2,0.1,0.4,0.1,0.7,0.1c2.4,0,4.6-0.3,6.5-0.9c1.9-0.6,3.4-1.2,4.7-1.9c1.5-0.8,2.8-1.8,3.9-2.8l-0.8,9c-1.6,0.9-3.3,1.6-5.1,2.1
		s-3.4,0.9-4.9,1.1c-1.7,0.3-3.5,0.4-5.3,0.5c0.9,1.6,1.8,3.3,2.6,5c0.7,1.5,1.3,3.2,1.8,5c0.5,1.9,0.8,3.7,0.8,5.6
		c0,0.2,0,0.7-0.1,1.4c-0.1,0.7-0.2,1.6-0.3,2.6c-0.2,1-0.4,2.2-0.7,3.4c-0.3,1.2-0.7,2.5-1.1,3.8c-0.4,1.3-1,2.5-1.6,3.7
		c-0.6,1.2-1.4,2.2-2.3,3.2c-0.9,0.9-1.9,1.7-3,2.2c-1.1,0.6-2.4,0.8-3.8,0.8c-1.3,0-2.5-0.3-3.5-0.9c-1-0.6-1.9-1.4-2.6-2.5
		c-0.7-1-1.3-2.3-1.8-3.6c-0.5-1.4-0.8-2.8-1.1-4.4c-0.3-1.5-0.5-3.1-0.6-4.7C331.8,168.3,331.7,166.8,331.7,165.3z M341.5,145.9
		c-0.1,0-0.2,0.3-0.3,0.8s-0.2,1.3-0.3,2.1c-0.1,0.8-0.2,2.1-0.3,3.6c-0.1,1.6-0.2,2.9-0.3,3.9c-0.1,1-0.1,2-0.2,2.8
		c0,0.9-0.1,1.6-0.1,2.1c0,3.6,0.1,6.5,0.2,8.6c0.1,2.1,0.3,3.8,0.5,4.9c0.2,1.1,0.4,1.8,0.7,2.2c0.3,0.3,0.5,0.5,0.8,0.5
		c0.8,0,1.5-0.4,2-1.1c0.5-0.8,0.9-1.7,1.1-2.9c0.3-1.2,0.4-2.4,0.5-3.8c0.1-1.4,0.1-2.7,0.1-4c0-0.9,0-1.9-0.1-3.2
		c-0.1-1.3-0.1-2.6-0.2-4.1s-0.3-3.1-0.6-4.9c-0.3-1.8-0.7-3.2-1.3-4.1c-0.6-0.9-1-1.7-1.4-2.4S341.8,145.9,341.5,145.9z
		 M350.8,107.4c-1.4,3.3-2.6,6.4-3.6,9.3c-0.9,2.7-1.5,5.1-1.9,7.2c-0.4,2.1-0.7,3.9-0.9,5.5c-0.2,1.6-0.4,3-0.5,4.4
		c1.6-2.8,3.2-5.6,4.9-8.2c1.7-2.7,3.1-5.2,4.4-7.5s2.3-4.6,3.2-6.8c0.9-2.2,1.3-3.7,1.3-4.7c0-1.3-0.2-2.3-0.5-2.9
		c-0.4-0.6-1-0.9-1.8-0.9c-1.3,0-2.2,0.3-2.7,0.9C352.3,104.2,351.7,105.4,350.8,107.4z"/>
	<path fill="#13161B" stroke="#13161B" stroke-width="2" stroke-miterlimit="10" d="M389.4,129.6c0,0.7,0,1.6-0.1,2.7
		c0,1.1-0.2,2.4-0.4,3.7c-0.3,1.4-0.6,3-0.9,4.9s-0.7,3.5-0.9,4.8c-0.2,1.3-0.4,2.4-0.6,3.3c-0.2,0.9-0.3,1.6-0.3,2.1
		c0,0.7,0,1.3,0,1.9c0,0.6,0.1,1.1,0.2,1.5c0.1,0.4,0.3,0.8,0.5,1c0.2,0.2,0.5,0.4,1,0.4c0.5,0,1.2-0.1,2-0.4
		c0.8-0.3,1.6-0.6,2.5-1.1c0.9-0.5,1.8-1,2.7-1.6c0.9-0.6,1.8-1.2,2.6-1.8c0.8-0.6,1.6-1.3,2.2-1.9c0.7-0.6,1.2-1.2,1.6-1.8
		c0,0.8,0,1.6,0,2.2c0,0.7,0,1.3,0,1.9s0,1.2,0,1.9c0,0.6,0,1.4,0,2.1c-0.5,0.5-1.2,1.1-2,1.7c-0.8,0.6-1.7,1.2-2.7,1.8
		c-1,0.6-2,1.2-3.1,1.7c-1.1,0.6-2.2,1-3.3,1.5c-1.1,0.4-2.2,0.8-3.2,1c-1.1,0.3-2,0.4-2.9,0.4c-0.9,0-1.7-0.2-2.4-0.5
		c-0.7-0.4-1.2-0.9-1.7-1.5c-0.5-0.7-0.9-1.4-1.2-2.3c-0.3-0.9-0.6-1.9-0.8-3c-0.9,1.1-1.8,2.2-2.8,3.1c-1,1-2,1.8-3,2.5
		c-1,0.7-2.1,1.3-3.1,1.7c-1,0.4-2.1,0.6-3,0.6c-0.8,0-1.6-0.1-2.3-0.4c-0.7-0.3-1.3-0.7-1.9-1.4c-0.5-0.6-1-1.5-1.3-2.5
		c-0.3-1-0.5-2.3-0.5-3.9c0-3.2,0.3-5.7,0.7-7.4c0.7-2.5,1.4-6.2,2.1-11.2c0.1-0.4,0.2-0.9,0.3-1.5s0.3-1.3,0.5-2
		c0.2-0.7,0.5-1.5,0.9-2.2c0.3-0.8,0.7-1.5,1.2-2.1c0.5-0.6,1-1.1,1.6-1.5c0.6-0.4,1.3-0.6,2.1-0.6c1.3,0.1,2.2,0.3,2.8,0.6
		c0.6,0.4,0.8,0.8,0.8,1.3c-0.2,1.7-0.5,3.2-0.7,4.8c-0.3,1.5-0.6,3.1-0.8,4.6c-0.3,1.6-0.6,3.3-0.9,5.2c-0.3,1.9-0.6,3.4-0.8,4.6
		c-0.2,1.1-0.4,2.1-0.5,2.8c-0.1,0.7-0.2,1.1-0.2,1.1c0,0.5,0,0.9,0.1,1.3c0.1,0.4,0.2,0.8,0.4,1.1c0.2,0.3,0.4,0.6,0.7,0.8
		c0.3,0.2,0.6,0.3,1,0.3c0.5,0,1.1-0.1,1.7-0.4c0.6-0.3,1.1-0.7,1.6-1.3c0.5-0.5,1-1.2,1.4-2c0.4-0.8,0.7-1.7,0.9-2.7l4.1-20.1
		c0.1-0.6,0.6-1.1,1.4-1.5c0.8-0.4,1.8-0.6,2.9-0.6c1.2,0,2.2,0.2,2.9,0.7C389,128.3,389.4,128.9,389.4,129.6z M377.3,116.3
		c0,0.1,0,0.3,0,0.7c0,0.4-0.1,0.8-0.2,1.3c-0.1,0.5-0.3,1-0.6,1.5c-0.2,0.5-0.6,1-1,1.4c-0.4,0.4-1,0.8-1.7,1.1
		c-0.7,0.3-1.5,0.4-2.5,0.4c-1.6,0-2.8-0.4-3.8-1.3c-0.9-0.8-1.4-2.2-1.4-4.2c0-0.8,0.1-1.6,0.3-2.4c0.2-0.8,0.6-1.5,1-2
		s1.1-1.1,1.8-1.4s1.6-0.6,2.7-0.6c1.7,0,3,0.5,4,1.4S377.3,114.5,377.3,116.3z M394.5,116.3c0,0.1,0,0.3,0,0.7
		c0,0.4-0.1,0.8-0.2,1.3c-0.1,0.5-0.3,1-0.5,1.5c-0.2,0.5-0.6,1-1,1.4c-0.4,0.4-1,0.8-1.7,1.1s-1.5,0.4-2.5,0.4
		c-1.5,0-2.8-0.4-3.7-1.3s-1.5-2.2-1.5-4.2c0-0.8,0.1-1.6,0.3-2.4c0.2-0.8,0.6-1.5,1.1-2c0.5-0.6,1.1-1.1,1.8-1.4
		c0.7-0.4,1.6-0.6,2.6-0.6c1.7,0,3.1,0.5,4,1.4C394.1,113.2,394.5,114.5,394.5,116.3z"/>
	<path fill="#13161B" stroke="#13161B" stroke-width="2" stroke-miterlimit="10" d="M401.7,197.7c-1.1-0.3-2-0.7-2.9-1.3
		c-0.9-0.6-1.6-1.4-2.2-2.4s-0.9-2.2-1-3.6c-0.2-2.6,0.5-5.3,2.1-8.2c0.9-1.6,1.6-2.8,1.9-3.4c0.4-0.6,0.9-1.5,1.7-2.7
		s1.6-2.2,2.5-3.2c1.7-1.9,3.1-3.5,4.3-4.7c1.1-1.2,2.5-2.4,4-3.8l0.7-4.4c-2.8,2.6-5.4,3.9-8,3.9c-1.9,0-3.7-0.6-5.3-1.7
		s-2.8-2.6-3.6-4.3c-1.5-3.1-1.5-6.7-0.1-10.8c1.3-3.8,2.6-7,3.9-9.5c1.3-2.5,3-4.7,5-6.5c3-2.7,5.9-4,8.7-4c1.3,0,2.2,0.4,2.8,1.1
		c0.1,0.1,0.2,0.2,0.3,0.4c0.1,0.2,0.3,0.3,0.3,0.4c0.1,0,0.2,0.1,0.3,0.3c0.1,0.1,0.3,0.2,0.4,0.3c0.1,0,0.3,0.1,0.5,0.2
		c0.2,0.1,0.4,0.1,0.7,0.1c0.2,0,0.5,0,0.9,0l1.6,0c1.1,0,1.9,0.3,2.3,1c0.1,0.3,0.3,0.6,0.5,1.1c0.3,0.8,0.3,3.3,0.1,7.6
		c-0.1,1.3-0.4,3-0.9,4.9s-0.9,4.2-1.1,6.5c-0.2,2.4-0.4,5.5-0.8,9.4c0.7-0.4,1.5-0.9,2.3-1.5c2.9-2.2,6.2-6.2,9.8-12.2l2.4,8.2
		c-0.7,1.4-1.9,2.9-3.6,4.7c-1.8,1.8-3.3,3.1-4.5,4.1c-0.2,0.1-0.4,0.3-0.5,0.3c-2.4,1.5-4.1,2.6-5.1,3.4c-0.7,0.4-1.1,1.2-1.4,2.4
		c-0.2,1.2-0.5,3.3-0.8,6.5c-0.1,0.9-0.2,1.6-0.3,2.1c-0.1,1.1-0.3,2.2-0.4,3.3s-0.4,2.3-0.7,3.7c-0.4,1.4-0.8,2.6-1.2,3.8
		s-1.1,2.3-1.8,3.4c-0.7,1.1-1.6,2.1-2.5,2.9c-0.9,0.8-2.1,1.4-3.4,1.9c-1.3,0.5-2.7,0.7-4.3,0.7C403.9,198.1,402.8,198,401.7,197.7
		z M407,179.3c-1.7,2.7-3,5.5-4,8.3c-0.8,2.3-0.4,3.5,1.3,3.5c0.6,0,1.1-0.1,1.6-0.2c0.5-0.1,0.9-0.4,1.3-0.8c0.4-0.4,0.7-0.8,1-1.2
		c0.3-0.4,0.6-1.1,0.9-1.9c0.3-0.8,0.6-1.7,0.9-2.5c0.3-0.8,0.6-1.9,1-3.2c0.2-0.7,0.4-1.5,0.5-2.3c0.1-0.9,0.2-1.9,0.4-3.2
		c0.2-1.3,0.3-2,0.3-2.4C410.4,174.6,408.7,176.6,407,179.3z M404.8,155.4c0.6,1,1.4,1.5,2.3,1.5c1.7,0,3.1-1.3,4.2-4
		c0.9-2.1,1.3-4.2,1.4-6.4l2.8-12.3c-2.8,0-5.4,1.9-7.5,5.8c-2.3,4.1-3.6,6.8-3.8,8.3C403.7,151.4,403.9,153.8,404.8,155.4z"/>
	<path fill="#13161B" stroke="#13161B" stroke-width="2" stroke-miterlimit="10" d="M445.6,163.9c-2.3,0-4.3-0.4-6-1.3
		c-1.7-0.8-3.2-2-4.3-3.4c-1.2-1.4-2-3.1-2.6-5c-0.6-1.9-0.9-3.9-0.9-5.9c0-1.4,0.3-3,0.8-4.9c0.5-1.9,1-3.5,1.6-5
		c0.5-1.5,1.2-2.8,2.1-4.2c0.8-1.3,1.8-2.5,2.9-3.5c1.1-1,2.4-1.8,3.7-2.4c1.4-0.6,2.9-0.9,4.6-0.9c1.4,0,2.7,0.2,3.8,0.7
		c1.2,0.4,2.2,1.1,3.1,1.9c0.9,0.8,1.6,1.8,2,2.9c0.5,1.1,0.7,2.4,0.7,3.8c0,1.5-0.5,3.2-1.5,5s-2.2,3.4-3.5,4.8
		c-1.3,1.3-2.9,2.5-4.7,3.5c-1.8,1-3.8,1.8-6,2.4c0.4,0.6,0.7,1.2,1.1,1.6c0.4,0.4,0.7,0.8,1.1,1c0.4,0.2,0.8,0.4,1.2,0.5
		c0.4,0.1,0.8,0.1,1.3,0.1c1.5,0,3-0.3,4.7-0.9c1.6-0.6,3.2-1.3,4.8-2.2c1.5-0.9,3-1.8,4.4-2.8c1.4-1,2.5-2,3.5-2.9l4.8,4.8
		c-2.2,2.3-4.5,4.3-6.9,6.1c-1.1,0.8-2.2,1.5-3.4,2.2c-1.2,0.7-2.5,1.4-3.8,2c-1.3,0.6-2.7,1-4.2,1.4
		C448.5,163.7,447.1,163.9,445.6,163.9z M440.7,146.4c0.9,0,1.9-0.2,2.9-0.7c1-0.4,2-1,2.9-1.7c0.9-0.7,1.8-1.6,2.6-2.8
		c0.9-1.2,1.3-2.1,1.3-2.9c0-1.1-0.2-2-0.6-2.7c-0.4-0.7-0.9-1-1.5-1c-1.1,0-2,0.2-2.7,0.6c-0.8,0.4-1.4,0.9-1.9,1.5
		c-0.5,0.6-0.9,1.3-1.2,2.1c-0.3,0.8-0.7,1.7-1.1,2.9c-0.4,1.2-0.6,2.1-0.7,2.8S440.7,145.8,440.7,146.4z"/>
	<path fill="#13161B" stroke="#13161B" stroke-width="2" stroke-miterlimit="10" d="M461,156.2c0-1.6,0.1-3.5,0.3-5.6
		c0.2-2.1,0.4-4.5,0.7-7c0.3-2.5,0.6-4.8,1-6.9c0.4-2,0.7-3.8,1.1-5.2c0.3-1.1,0.8-2.1,1.6-2.8s1.8-1.1,3.2-1.1s2.2,0.4,2.8,1.2
		c0.5,0.8,0.8,1.9,0.8,3.2c0,0.4,0,0.9-0.1,1.5c-0.1,0.6-0.2,1.3-0.3,2.1c-0.1,0.8-0.2,1.5-0.4,2.3s-0.2,1.7-0.4,2.7
		c-0.1,1-0.2,1.8-0.3,2.3c-0.1,0.5-0.1,0.8-0.1,1h0.7c0.1-0.3,0.4-0.7,0.7-1.3s0.7-1.5,1.1-2.6s0.9-2.1,1.3-3s0.9-1.7,1.3-2.5
		c0.4-0.8,0.8-1.5,1.1-2.1c0.3-0.6,0.6-1.1,0.8-1.4c0.8-1.3,1.7-2.2,2.7-2.7c1-0.5,2.1-0.7,3.4-0.7c1.2,0,2.2,0.5,2.9,1.5
		s1.1,2.5,1.1,4.3c0,0.3-0.1,0.7-0.2,1.4c-0.1,0.6-0.3,1.4-0.4,2.3c-0.2,0.9-0.4,2-0.6,3.4c-0.2,1.4-0.4,2.7-0.6,3.8
		c-0.2,1.1-0.3,2.2-0.4,3.3c-0.1,1.1-0.2,2.1-0.2,3c0,1.5,0.2,2.8,0.6,3.8c0.4,1,1,1.5,1.8,1.5c0.3,0,0.7-0.1,1.3-0.3
		c0.8-0.3,1.3-0.6,1.5-0.8c1.1-0.8,1.6-1.2,1.7-1.2c0.1,0,0.9-0.5,2.5-1.5c2-1.3,4.3-2.8,7-4.6l0,8.3l-1.8,1.4
		c-0.1,0.1-1.3,0.8-3.5,1.9c-3.1,1.7-5.1,2.7-5.9,3c-1.9,0.9-3.1,1.4-3.6,1.5c-1.2,0.4-2.5,0.6-3.9,0.6s-2.5-1-3.4-2.9
		s-1.4-4.8-1.4-8.6c0-1.5,0.1-3.1,0.3-4.8s0.4-3.5,0.7-5.5h-0.6l-9.7,19.2c-0.5,1-1.1,1.7-1.7,2.1c-0.6,0.4-1.3,0.6-2.1,0.6
		c-1,0-1.8-0.2-2.4-0.6s-1.1-1-1.4-1.7c-0.3-0.7-0.6-1.5-0.7-2.5C461.1,158.1,461,157.2,461,156.2z"/>
</g>
</svg>
