<?xml version="1.0" encoding="utf-8"?>
<!-- Generator: Adobe Illustrator 18.0.0, SVG Export Plug-In . SVG Version: 6.00 Build 0)  -->
<!DOCTYPE svg PUBLIC "-//W3C//DTD SVG 1.1//EN" "http://www.w3.org/Graphics/SVG/1.1/DTD/svg11.dtd">
<svg version="1.1" id="Ebene_1" xmlns="http://www.w3.org/2000/svg" xmlns:xlink="http://www.w3.org/1999/xlink" x="0px" y="0px"
	 viewBox="0 0 520 205" enable-background="new 0 0 520 205" xml:space="preserve">
<g>
	<circle fill="none" stroke="#13161B" stroke-width="2" stroke-miterlimit="10" cx="493" cy="34" r="14"/>
	<line fill="none" stroke="#13161B" stroke-width="2" stroke-miterlimit="10" x1="499.5" y1="27.7" x2="486.5" y2="40.8"/>
	<line fill="none" stroke="#13161B" stroke-width="2" stroke-miterlimit="10" x1="499.5" y1="40.8" x2="486.5" y2="27.7"/>
</g>
<g>
	<line fill="none" stroke="#13161B" stroke-width="2" stroke-miterlimit="10" x1="10" y1="178.5" x2="510" y2="178.5"/>
	<g>
		<path fill="#13161B" stroke="#13161B" stroke-width="2" stroke-miterlimit="10" d="M161.8,154.3c-0.5,0.7-1.2,1.6-2,2.5
			c-0.9,1-1.8,1.9-2.9,2.7c-1.1,0.9-2.2,1.6-3.4,2.2c-1.2,0.6-2.4,0.9-3.6,0.9c-1.5,0-2.7-0.5-3.7-1.4c-1-0.9-1.8-2.3-2.5-4
			c-0.5,0.6-1.2,1.2-2,1.9s-1.6,1.2-2.6,1.7c-0.9,0.5-1.9,0.9-2.9,1.3c-1,0.3-2,0.5-3,0.5c-1.1,0-2.1-0.2-3.1-0.7
			c-1-0.4-1.9-1.1-2.7-1.9c-0.8-0.8-1.4-1.8-1.9-3s-0.7-2.5-0.7-4c0-1.6,0.2-3.3,0.7-5.1c0.5-1.7,1.2-3.6,2.2-5.6c1-2,2-3.8,3.2-5.2
			c1.1-1.5,2.3-2.8,3.7-3.9c1.3-1.1,2.7-2,4.2-2.6c1.5-0.6,3-1,4.5-1c0.5,0,0.9,0.1,1.2,0.3c0.3,0.2,0.5,0.4,0.7,0.7
			c0.2,0.3,0.4,0.5,0.5,0.8c0.2,0.2,0.4,0.4,0.7,0.5c0.3,0.1,0.5,0.2,0.8,0.2c0.3,0,0.6,0,0.9,0c0.2,0,0.5,0,0.7,0s0.5,0,0.7,0
			c0.3,0,0.6,0,0.9,0.1c0.3,0.1,0.5,0.2,0.8,0.4c0.2,0.2,0.4,0.5,0.5,0.9c0.1,0.4,0.2,0.9,0.2,1.6c0,1.1-0.1,2.2-0.3,3.5
			c-0.2,1.3-0.5,2.6-0.8,4c-0.3,1.3-0.6,2.9-1,4.6c-0.4,1.7-0.5,3.2-0.5,4.4c0,1,0.1,1.8,0.3,2.4c0.2,0.6,0.6,0.9,1.2,0.9
			c0.5,0,1-0.1,1.5-0.3c0.5-0.2,1-0.5,1.5-0.9s1-0.8,1.6-1.3c0.5-0.5,1-1,1.5-1.5c1.1-1.2,2.2-2.5,3.3-4L161.8,154.3z M133.3,151.7
			c0,0.6,0,1.1,0.1,1.7s0.2,1,0.4,1.4s0.5,0.8,0.8,1c0.3,0.3,0.8,0.4,1.3,0.4c0.8,0,1.6-0.4,2.2-1.1c0.7-0.7,1.2-1.6,1.7-2.6
			s0.9-2,1.2-3.1c0.3-1.1,0.5-2,0.6-2.7l2.5-10.8c-0.9,0-1.8,0.2-2.7,0.7c-0.9,0.4-1.7,1.1-2.4,1.8c-0.8,0.8-1.5,1.6-2.1,2.6
			s-1.3,2.2-1.9,3.6c-0.6,1.4-1.1,2.7-1.3,3.8C133.5,149.7,133.3,150.8,133.3,151.7z"/>
		<path fill="#13161B" stroke="#13161B" stroke-width="2" stroke-miterlimit="10" d="M166.5,162.5c-1.2,0-2.3-0.5-3.3-1.5
			c-1-1-1.9-2.4-2.7-4.2c-0.8-1.7-1.4-3.8-1.8-6c-0.4-2.3-0.6-4.7-0.6-7.2c0-2.2,0.3-5.1,1-8.7c0.6-3.6,1-5.4,1-5.4
			c0,0,0.5-1.8,1.4-5.4c1-3.6,1.9-6.5,2.9-8.7c1-2.2,2-4.2,3.2-6.1c1.1-1.9,2.3-3.5,3.6-5c1.2-1.4,2.6-2.5,3.9-3.3
			c1.4-0.8,2.7-1.2,4.1-1.2c1,0,1.9,0.2,2.5,0.6c0.7,0.4,1.2,0.9,1.6,1.5c0.4,0.6,0.6,1.4,0.8,2.2s0.2,1.6,0.2,2.5
			c0,2.1-0.2,4.2-0.7,6.4s-1.2,4.3-2,6.5c-0.8,2.2-1.8,4.4-2.9,6.6c-1.1,2.2-2.3,4.4-3.4,6.5c-1.2,2.2-2.4,4.3-3.6,6.4
			c-1.2,2.1-2.3,4.2-3.3,6.2c-0.1,0.2-0.2,0.5-0.3,0.9c-0.1,0.4-0.2,0.7-0.3,1.2c-0.1,0.4-0.2,0.9-0.3,1.3c-0.1,0.5-0.2,0.9-0.3,1.4
			v0.5c0,0.6,0.1,1.1,0.2,1.7c0.1,0.5,0.3,1,0.5,1.5c0.2,0.4,0.4,0.8,0.6,1c0.2,0.3,0.4,0.4,0.6,0.4c0.4,0,0.9-0.1,1.5-0.3
			c0.6-0.2,1.1-0.4,1.8-0.7c0.6-0.3,1.3-0.6,1.9-1c0.7-0.4,1.3-0.8,1.9-1.2c1.4-0.9,2.9-2,4.5-3.2l2.9,7c-2,1.3-4,2.5-6,3.6
			c-0.9,0.4-1.8,0.9-2.7,1.3c-0.9,0.4-1.8,0.8-2.8,1.1c-0.9,0.3-1.8,0.6-2.7,0.8C168.1,162.4,167.2,162.5,166.5,162.5z M166.5,136.3
			c1-1.8,2.1-3.8,3.2-6c1.1-2.2,2.2-4.5,3.2-6.9c1-2.4,1.9-4.7,2.6-7.1c0.7-2.3,1.2-4.5,1.4-6.6c0-0.6,0-1.2,0-1.7
			c0-0.5-0.1-0.7-0.3-0.7c-0.6,0-1.3,0.4-2,1.3c-0.7,0.8-1.4,2-2.1,3.4c-0.7,1.4-1.5,3.8-2.5,7c-1,3.2-1.5,4.8-1.5,4.8
			c0,0-0.3,1.5-0.9,4.5C167,131.4,166.6,134,166.5,136.3z"/>
		<path fill="#13161B" stroke="#13161B" stroke-width="2" stroke-miterlimit="10" d="M184.3,162.5c-1.2,0-2.3-0.5-3.3-1.5
			c-1-1-1.9-2.4-2.7-4.2c-0.8-1.7-1.4-3.8-1.8-6c-0.4-2.3-0.6-4.7-0.6-7.2c0-2.2,0.3-5.1,1-8.7c0.6-3.6,1-5.4,1-5.4
			c0,0,0.5-1.8,1.4-5.4c1-3.6,1.9-6.5,2.9-8.7c1-2.2,2-4.2,3.2-6.1c1.1-1.9,2.3-3.5,3.6-5c1.2-1.4,2.6-2.5,3.9-3.3
			c1.4-0.8,2.7-1.2,4.1-1.2c1,0,1.9,0.2,2.5,0.6c0.7,0.4,1.2,0.9,1.6,1.5c0.4,0.6,0.6,1.4,0.8,2.2s0.2,1.6,0.2,2.5
			c0,2.1-0.2,4.2-0.7,6.4c-0.5,2.2-1.2,4.3-2,6.5c-0.8,2.2-1.8,4.4-2.9,6.6c-1.1,2.2-2.3,4.4-3.4,6.5c-1.2,2.2-2.4,4.3-3.6,6.4
			c-1.2,2.1-2.3,4.2-3.3,6.2c-0.1,0.2-0.2,0.5-0.3,0.9c-0.1,0.4-0.2,0.7-0.3,1.2c-0.1,0.4-0.2,0.9-0.3,1.3c-0.1,0.5-0.2,0.9-0.3,1.4
			v0.5c0,0.6,0.1,1.1,0.2,1.7c0.1,0.5,0.3,1,0.5,1.5c0.2,0.4,0.4,0.8,0.6,1c0.2,0.3,0.4,0.4,0.6,0.4c0.4,0,0.9-0.1,1.5-0.3
			c0.6-0.2,1.1-0.4,1.8-0.7c0.6-0.3,1.3-0.6,1.9-1c0.7-0.4,1.3-0.8,1.9-1.2c1.4-0.9,2.9-2,4.5-3.2l2.9,7c-2,1.3-4,2.5-6,3.6
			c-0.9,0.4-1.8,0.9-2.7,1.3c-0.9,0.4-1.8,0.8-2.8,1.1c-0.9,0.3-1.8,0.6-2.7,0.8C185.9,162.4,185.1,162.5,184.3,162.5z M184.3,136.3
			c1-1.8,2.1-3.8,3.2-6c1.1-2.2,2.2-4.5,3.2-6.9s1.9-4.7,2.6-7.1c0.7-2.3,1.2-4.5,1.4-6.6c0-0.6,0-1.2,0-1.7c0-0.5-0.1-0.7-0.3-0.7
			c-0.6,0-1.3,0.4-2,1.3c-0.7,0.8-1.4,2-2.1,3.4c-0.7,1.4-1.5,3.8-2.5,7c-1,3.2-1.5,4.8-1.5,4.8c0,0-0.3,1.5-0.9,4.5
			C184.8,131.4,184.4,134,184.3,136.3z"/>
		<path fill="#13161B" stroke="#13161B" stroke-width="2" stroke-miterlimit="10" d="M205.9,162.5c-2.1,0-3.9-0.4-5.4-1.1
			s-2.8-1.8-3.9-3.1c-1-1.3-1.8-2.8-2.3-4.5c-0.5-1.7-0.8-3.5-0.8-5.3c0-1.2,0.2-2.7,0.7-4.4c0.5-1.7,0.9-3.2,1.4-4.5
			c0.5-1.3,1.1-2.6,1.9-3.7c0.7-1.2,1.6-2.2,2.6-3.1c1-0.9,2.1-1.6,3.4-2.2c1.2-0.5,2.6-0.8,4.1-0.8c1.2,0,2.4,0.2,3.4,0.6
			c1.1,0.4,2,1,2.8,1.7c0.8,0.7,1.4,1.6,1.8,2.6c0.4,1,0.7,2.1,0.7,3.4c0,1.3-0.4,2.8-1.3,4.5c-0.9,1.7-1.9,3.1-3.1,4.3
			c-1.2,1.2-2.6,2.2-4.3,3.2c-1.6,0.9-3.4,1.7-5.4,2.2c0.3,0.6,0.7,1.1,1,1.5c0.3,0.4,0.6,0.7,1,0.9s0.7,0.4,1,0.5
			c0.4,0.1,0.8,0.1,1.2,0.1c1.3,0,2.7-0.3,4.2-0.8c1.5-0.5,2.9-1.2,4.3-1.9c1.4-0.8,2.7-1.6,3.9-2.5c1.2-0.9,2.3-1.8,3.1-2.6
			l4.3,4.3c-1.9,2.1-4,3.9-6.2,5.5c-1,0.7-2,1.4-3.1,2c-1.1,0.7-2.2,1.2-3.4,1.8c-1.2,0.5-2.5,0.9-3.7,1.2
			C208.5,162.4,207.2,162.5,205.9,162.5z M201.5,146.8c0.8,0,1.7-0.2,2.6-0.6s1.8-0.9,2.6-1.5c0.8-0.6,1.6-1.5,2.4-2.5
			c0.8-1.1,1.2-1.9,1.2-2.6c0-1-0.2-1.8-0.5-2.4c-0.4-0.6-0.8-0.9-1.3-0.9c-1,0-1.8,0.2-2.4,0.5s-1.2,0.8-1.7,1.3
			c-0.5,0.5-0.8,1.2-1.1,1.9c-0.3,0.7-0.6,1.6-1,2.6c-0.4,1-0.6,1.9-0.6,2.6C201.5,145.7,201.5,146.3,201.5,146.8z"/>
		<path fill="#13161B" stroke="#13161B" stroke-width="2" stroke-miterlimit="10" d="M252,146.2c-0.6,2.4-1.4,4.6-2.3,6.6
			s-1.8,3.7-2.8,5.2c-1,1.4-2,2.6-3.1,3.4c-1.1,0.8-2.1,1.2-3.1,1.2c-1.7,0-2.9-1.3-3.7-3.8s-1.2-6.3-1.2-11.3c0-2.5,0-4.6,0-6.5
			c0-1.9,0-3.8,0-5.7c0-1.9,0-2.5,0-1.8c0,0.7,0,1.3-0.1,1.9c0,0.1,0,0.4,0,0.7c0,0.3,0.1,0.2,0.3-0.5c0.2-0.7,0.4-1.4,0.7-2.1
			c0.3-0.7,0.7-1.4,1.1-2c0.5-0.6,1-1.1,1.6-1.5c0.6-0.4,1.4-0.6,2.3-0.6l0.9,0.1c1.1,0,1.9,0.2,2.4,0.6c0.6,0.4,0.8,0.9,0.8,1.5
			l-2.7,19.3l0.4,0c1-2.3,1.9-4.5,2.7-6.8s1.6-4.2,2.2-5.7c0.6-1.5,1.2-2.8,1.8-3.9c0.6-1.1,1.2-2,1.8-2.7c0.7-0.7,1.4-1.3,2.2-1.6
			c0.8-0.4,1.8-0.5,3-0.5c1,0,1.7,0.2,2.2,0.6c0.5,0.4,0.8,0.9,0.8,1.5l-3.1,19.2l0.5,0l8.2-19c0.3-0.6,0.8-1.2,1.7-1.6
			s1.9-0.7,3.1-0.7c1.3,0,2.3,0.3,3,0.8c0.8,0.5,1.2,1.2,1.2,2c0,0.6-0.1,1.3-0.3,2c-0.2,0.7-0.4,1.4-0.7,2s-0.5,1.1-0.7,1.6
			c-0.2,0.4-0.3,0.7-0.4,0.7c-0.5,0.9-1,1.9-1.5,3.1c-0.5,1.2-0.9,2.1-1.2,2.7c-0.4,0.7-0.7,1.3-1,1.9c0.3,0.9,0.7,1.6,1.2,2.3
			c0.4,0.6,0.9,1.1,1.6,1.6c0.6,0.5,1.4,0.7,2.2,0.7c0.7,0,1.6-0.2,2.5-0.6c1-0.4,1.8-0.8,2.7-1.3c1-0.6,2-1.2,3-1.9v8
			c-1.5,1-3,1.8-4.5,2.3c-1.6,0.6-3.1,0.9-4.5,0.9c-1.1,0-2.2-0.1-3.2-0.4s-1.9-0.7-2.7-1.3c-0.8-0.6-1.4-1.4-1.8-2.3
			c-0.5-1-0.7-2.1-0.7-3.5c-0.8,1.8-1.5,3.4-2.4,4.9c-0.8,1.5-1.7,2.7-2.5,3.8c-0.9,1.1-1.7,1.9-2.6,2.5c-0.9,0.6-1.8,0.9-2.7,0.9
			c-0.3,0-0.6-0.2-0.8-0.7s-0.4-1.1-0.6-1.9c-0.2-0.8-0.3-1.7-0.4-2.8c-0.1-1.1-0.2-2.2-0.2-3.4s-0.1-2.4-0.1-3.7c0-1.3,0-2.5,0-3.7
			L252,146.2z"/>
		<path fill="#13161B" stroke="#13161B" stroke-width="2" stroke-miterlimit="10" d="M301,137c0.6,1.3,1.1,2.6,1.4,4.1
			c0.3,1.4,0.5,3,0.5,4.8c0,1.3-0.1,2.6-0.4,3.9s-0.7,2.6-1.2,3.8s-1.2,2.4-2,3.5c-0.8,1.1-1.7,2-2.7,2.8c-1,0.8-2.1,1.4-3.3,1.9
			c-1.2,0.5-2.5,0.7-3.8,0.7c-1.9,0-3.6-0.4-5-1.3c-1.4-0.8-2.5-2-3.4-3.3c-0.9-1.4-1.5-2.9-1.9-4.6c-0.4-1.7-0.6-3.5-0.6-5.2
			c0-2.9,0.4-5.4,1.1-7.5c0.7-2.1,1.8-3.9,3.1-5.5s3-2.8,5-3.7c2-0.9,4.2-1.3,6.6-1.3c2.1,0,4.1,0.3,5.9,1c1.8,0.7,3.6,1.5,5.2,2.6
			c1.6,1.1,3.1,2.5,4.5,4.1s2.7,3.2,3.9,4.7l-0.6,4.7c-0.6-0.8-1.4-1.7-2.4-2.6c-1-0.9-2.1-2-3.2-3.1c-1.1-1.1-2.3-2.1-3.4-2.9
			c-1.1-0.8-2.1-1.4-2.8-2L301,137z M290.7,156.2c0.8,0,1.5-0.4,2.2-1.1c0.7-0.8,1.3-1.7,1.9-2.9c0.5-1.2,1-2.6,1.3-4.2
			c0.3-1.6,0.5-3.1,0.5-4.4c0-1-0.1-2-0.2-2.8c-0.2-0.9-0.4-1.6-0.7-2.3c-0.3-0.6-0.7-1.1-1.2-1.5s-1.1-0.6-1.8-0.6
			c-0.9,0-1.8,0.4-2.6,1.2c-0.8,0.8-1.5,1.8-2.2,3c-0.6,1.2-1.1,2.5-1.5,4s-0.5,3.1-0.5,4.9c0,0.9,0.1,1.8,0.3,2.6
			c0.2,0.8,0.5,1.5,0.8,2.1c0.4,0.6,0.9,1.1,1.5,1.5C289.1,156,289.9,156.2,290.7,156.2z"/>
		<path fill="#13161B" stroke="#13161B" stroke-width="2" stroke-miterlimit="10" d="M309.2,155.6c0-1,0.1-2.1,0.2-3.4
			c0.1-1.3,0.3-2.7,0.4-4.1c0.2-1.4,0.4-2.9,0.7-4.4c0.3-1.5,0.6-3.1,1-4.8s0.7-3.1,1-4.2c0.3-1.1,0.6-2.1,0.9-2.8
			c0.2-0.5,0.4-0.9,0.5-1.2s0.4-0.5,0.6-0.7s0.5-0.3,0.9-0.3s0.8-0.1,1.3-0.1c0.6,0,1,0,1.3,0.1c0.3,0.1,0.6,0.2,0.7,0.4
			s0.2,0.5,0.3,0.9s0,0.9,0,1.6c0,0.8-0.1,2-0.2,3.5s-0.1,2.8-0.1,3.9h0.4c0.4-0.9,1-2,1.7-3.5c0.7-1.4,1.4-2.6,2.1-3.6
			c0.7-0.9,1.6-1.8,2.5-2.4c0.9-0.7,2-1,3.2-1c0.4,0,0.8,0.1,1.2,0.2c0.4,0.1,0.7,0.3,1,0.6c0.3,0.3,0.5,0.6,0.7,1
			c0.2,0.4,0.3,0.8,0.3,1.3c0,0.4-0.1,0.9-0.2,1.6s-0.3,1.6-0.5,2.6s-0.4,2-0.5,2.7c-0.1,0.7-0.2,1.3-0.2,1.7c0,0.8,0.1,1.5,0.2,2
			c0.2,0.5,0.4,1,0.6,1.3c0.3,0.3,0.5,0.5,0.9,0.7c0.3,0.1,0.7,0.2,1,0.2c1,0,2-0.2,3.1-0.7c1.1-0.4,2-0.9,2.9-1.5
			c1-0.6,2.1-1.4,3-2.2l-0.5,7.8c-0.6,0.4-1.2,0.8-2,1.3c-0.7,0.5-1.5,0.9-2.3,1.3c-0.8,0.4-1.7,0.8-2.6,1c-0.9,0.3-1.8,0.4-2.7,0.4
			c-1.7,0-3-0.3-4-1c-1-0.7-1.8-1.6-2.4-2.7c-0.6-1.1-1-2.3-1.3-3.7s-0.5-2.7-0.7-4.1h-0.5l-5.9,16.5c-0.3,0.9-0.6,1.6-0.9,2.1
			c-0.3,0.6-0.6,1-0.8,1.4c-0.3,0.4-0.6,0.6-0.9,0.7s-0.7,0.2-1.1,0.2c-0.9,0-1.6-0.2-2.2-0.6c-0.6-0.4-1-0.9-1.3-1.6
			c-0.3-0.7-0.5-1.4-0.6-2.2C309.2,157.4,309.2,156.5,309.2,155.6z"/>
		<path fill="#13161B" stroke="#13161B" stroke-width="2" stroke-miterlimit="10" d="M365.3,155.1c-2.1,1.2-4,2.3-5.7,3.2
			c-1.7,0.9-3.1,1.7-4.4,2.3c-1.3,0.6-2.4,1.1-3.5,1.4c-1,0.3-1.9,0.5-2.7,0.5c-1.7,0-3.1-0.5-4.4-1.5c-1.3-1-2.3-2.5-3.2-4.4
			c-0.9-1.9-1.5-4.2-1.9-6.9s-0.6-5.8-0.6-9.2c0-1.3,0.1-2.7,0.2-4.2c0.1-1.5,0.3-3,0.5-4.5c-0.7-0.1-1.2-0.2-1.6-0.3
			c-0.4-0.1-0.8-0.2-1.2-0.3c-0.4-0.1-0.9-0.2-1.6-0.3c-0.6-0.1-1.6-0.2-2.8-0.4c-0.5-0.1-0.9-0.2-1.2-0.4c-0.3-0.2-0.5-0.5-0.6-0.7
			c-0.1-0.3-0.2-0.6-0.2-0.9c0-0.3,0-0.6,0-0.8c0-0.3,0.2-0.6,0.6-0.8c0.4-0.2,1-0.3,1.7-0.4c0.7-0.1,1.4-0.1,2.2-0.2s1.6,0,2.3,0
			c0.7,0,1.4,0,2,0c0.6,0,1,0,1.2,0c0.6-3,1.3-5.9,2.3-8.6c0.9-2.8,1.9-5.3,3.1-7.4s2.4-3.9,3.7-5.2c1.3-1.3,2.8-2,4.2-2
			c1,0,1.8,0.3,2.6,0.8c0.8,0.5,1.5,1.2,2,2.1c0.5,0.9,1,1.9,1.3,3.1c0.3,1.2,0.4,2.4,0.4,3.7c0,1.1-0.2,2.2-0.5,3.4
			c-0.3,1.2-0.7,2.4-1.3,3.6c-0.5,1.2-1.2,2.5-1.9,3.7c-0.7,1.3-1.5,2.5-2.3,3.7c0.2-0.1,0.5-0.1,1,0c0.5,0,1,0.1,1.6,0.1
			c0.6,0,1.3,0,2,0.1c0.7,0,1.4,0,2.1,0.1c0.7,0,1.3,0,1.9,0.1c0.6,0,1.1,0,1.4,0.1c0.4,0,0.8,0.3,1,0.7c0.2,0.5,0.3,1.1,0.3,1.8
			c0,0.8-0.2,1.5-0.7,2c-0.4,0.5-0.9,0.8-1.5,0.8h-12.7c-0.6,0.9-1.3,1.8-1.9,2.6c-0.7,0.8-1.3,1.6-1.8,2.3c-0.1,1.4-0.2,2.7-0.2,4
			c0,0.6,0,1.2-0.1,1.8c0,0.6,0,1.2-0.1,1.8c0,0.6,0,1.2,0,1.7c0,0.6,0,1.1,0,1.5c0,1.2,0.1,2.2,0.3,3c0.2,0.8,0.5,1.5,1,2
			c0.4,0.5,0.9,0.9,1.5,1.1c0.6,0.2,1.3,0.3,2,0.3c0.5,0,1-0.1,1.7-0.3c0.7-0.2,1.5-0.5,2.3-0.9c0.8-0.4,1.7-0.8,2.6-1.4
			c0.9-0.5,1.8-1.1,2.7-1.7c0.9-0.6,1.8-1.3,2.6-2c0.8-0.7,1.6-1.4,2.2-2.1V155.1z M354.7,113.2c0-0.2,0-0.5,0-0.8
			c0-0.3-0.1-0.6-0.2-0.8c-0.1-0.3-0.3-0.5-0.5-0.7c-0.2-0.2-0.6-0.3-1-0.3c-0.6,0-1.2,0.5-1.7,1.5c-0.6,1-1.2,2.3-1.7,3.9
			c-0.5,1.6-1.1,3.3-1.5,5.2c-0.5,1.9-0.9,3.7-1.3,5.5c0.3,0,0.7,0.1,1,0.1c0.3,0,0.7,0.1,1,0.1c0.7-1.1,1.4-2.3,2.1-3.6
			c0.7-1.3,1.4-2.6,1.9-3.8c0.6-1.3,1.1-2.4,1.4-3.5C354.5,114.8,354.7,113.9,354.7,113.2z"/>
		<path fill="#13161B" stroke="#13161B" stroke-width="2" stroke-miterlimit="10" d="M373.8,162.5c-2.1,0-3.9-0.4-5.4-1.1
			s-2.8-1.8-3.9-3.1c-1-1.3-1.8-2.8-2.3-4.5c-0.5-1.7-0.8-3.5-0.8-5.3c0-1.2,0.2-2.7,0.7-4.4c0.5-1.7,0.9-3.2,1.4-4.5
			c0.5-1.3,1.1-2.6,1.9-3.7c0.7-1.2,1.6-2.2,2.6-3.1c1-0.9,2.1-1.6,3.4-2.2c1.2-0.5,2.6-0.8,4.1-0.8c1.2,0,2.4,0.2,3.4,0.6
			c1.1,0.4,2,1,2.8,1.7c0.8,0.7,1.4,1.6,1.8,2.6c0.4,1,0.7,2.1,0.7,3.4c0,1.3-0.4,2.8-1.3,4.5c-0.9,1.7-1.9,3.1-3.1,4.3
			c-1.2,1.2-2.6,2.2-4.3,3.2c-1.6,0.9-3.4,1.7-5.4,2.2c0.3,0.6,0.7,1.1,1,1.5c0.3,0.4,0.6,0.7,1,0.9c0.3,0.2,0.7,0.4,1,0.5
			c0.4,0.1,0.8,0.1,1.2,0.1c1.3,0,2.7-0.3,4.2-0.8c1.5-0.5,2.9-1.2,4.3-1.9c1.4-0.8,2.7-1.6,3.9-2.5c1.2-0.9,2.3-1.8,3.1-2.6
			l4.3,4.3c-1.9,2.1-4,3.9-6.2,5.5c-1,0.7-2,1.4-3.1,2c-1.1,0.7-2.2,1.2-3.4,1.8c-1.2,0.5-2.5,0.9-3.7,1.2
			C376.5,162.4,375.2,162.5,373.8,162.5z M369.4,146.8c0.8,0,1.7-0.2,2.6-0.6c0.9-0.4,1.8-0.9,2.6-1.5c0.8-0.6,1.6-1.5,2.4-2.5
			c0.8-1.1,1.2-1.9,1.2-2.6c0-1-0.2-1.8-0.5-2.4c-0.4-0.6-0.8-0.9-1.3-0.9c-1,0-1.8,0.2-2.4,0.5c-0.7,0.3-1.2,0.8-1.7,1.3
			c-0.5,0.5-0.8,1.2-1.1,1.9c-0.3,0.7-0.6,1.6-1,2.6c-0.4,1-0.6,1.9-0.6,2.6C369.4,145.7,369.4,146.3,369.4,146.8z"/>
	</g>
</g>
</svg>
