<?xml version="1.0" encoding="utf-8"?>
<!-- Generator: Adobe Illustrator 18.0.0, SVG Export Plug-In . SVG Version: 6.00 Build 0)  -->
<!DOCTYPE svg PUBLIC "-//W3C//DTD SVG 1.1//EN" "http://www.w3.org/Graphics/SVG/1.1/DTD/svg11.dtd">
<svg version="1.1" id="Ebene_1" xmlns="http://www.w3.org/2000/svg" xmlns:xlink="http://www.w3.org/1999/xlink" x="0px" y="0px"
	 viewBox="0 0 76 76" enable-background="new 0 0 76 76" xml:space="preserve">
<rect x="265.2" y="-50" fill="#151617" width="176" height="176"/>
<rect x="581.5" y="-236.9" fill="#151617" width="321.2" height="484.3"/>
<g>
	<circle fill="none" stroke="#FF3B70" stroke-width="2" stroke-miterlimit="10" cx="406.2" cy="1496" r="50"/>
	<g>
		<rect x="386.1" y="1475.5" fill="none" stroke="#FF3B70" stroke-width="2" stroke-miterlimit="10" width="40" height="40"/>
		<circle fill="none" stroke="#FF3B70" stroke-miterlimit="10" cx="399.4" cy="1485" r="3.4"/>
		<circle fill="none" stroke="#FF3B70" stroke-miterlimit="10" cx="412.1" cy="1485" r="3.4"/>
		<circle fill="none" stroke="#FF3B70" stroke-miterlimit="10" cx="399.4" cy="1496" r="3.4"/>
		<circle fill="none" stroke="#FF3B70" stroke-miterlimit="10" cx="412.1" cy="1496" r="3.4"/>
		<circle fill="none" stroke="#FF3B70" stroke-miterlimit="10" cx="399.4" cy="1507" r="3.4"/>
		<circle fill="none" stroke="#FF3B70" stroke-miterlimit="10" cx="412.1" cy="1507" r="3.4"/>
	</g>
</g>
<circle fill="none" stroke="#FFFF14" stroke-width="2" stroke-miterlimit="10" cx="501.2" cy="257.4" r="14"/>
<line fill="none" stroke="#FFFF14" stroke-width="2" stroke-miterlimit="10" x1="18.2" y1="402" x2="339.2" y2="402"/>
<line fill="none" stroke="#FFFF14" stroke-width="2" stroke-miterlimit="10" x1="407.2" y1="402" x2="515.2" y2="402"/>
<g>
	<g>
		<path fill="#F0F0B1" stroke="#F0F0B1" stroke-miterlimit="10" d="M302.3,41.6c-1.2,0.7-2.2,1.3-3.2,1.8c-0.9,0.5-1.7,0.9-2.5,1.3
			c-0.7,0.3-1.4,0.6-1.9,0.8c-0.6,0.2-1.1,0.3-1.5,0.3c-0.9,0-1.7-0.3-2.5-0.8s-1.3-1.4-1.8-2.4c-0.5-1.1-0.8-2.4-1.1-3.9
			c-0.2-1.5-0.4-3.2-0.4-5.1c0-0.7,0-1.5,0.1-2.4c0.1-0.8,0.1-1.7,0.3-2.5c-0.4-0.1-0.7-0.1-0.9-0.2s-0.4-0.1-0.6-0.1
			c-0.2,0-0.5-0.1-0.9-0.2c-0.4-0.1-0.9-0.1-1.5-0.2c-0.3,0-0.5-0.1-0.7-0.2c-0.2-0.1-0.3-0.3-0.4-0.4c-0.1-0.2-0.1-0.3-0.1-0.5
			c0-0.2,0-0.3,0-0.4c0-0.2,0.1-0.3,0.4-0.4c0.2-0.1,0.6-0.2,0.9-0.2c0.4-0.1,0.8-0.1,1.2-0.1c0.5,0,0.9,0,1.3,0c0.4,0,0.8,0,1.1,0
			c0.3,0,0.6,0,0.7,0c0.3-1.7,0.8-3.3,1.3-4.8c0.5-1.6,1.1-2.9,1.7-4.1c0.6-1.2,1.3-2.2,2.1-2.9c0.7-0.7,1.5-1.1,2.4-1.1
			c0.5,0,1,0.1,1.5,0.4c0.4,0.3,0.8,0.7,1.1,1.2c0.3,0.5,0.5,1.1,0.7,1.7s0.2,1.3,0.2,2.1c0,0.6-0.1,1.2-0.3,1.9
			c-0.2,0.7-0.4,1.3-0.7,2c-0.3,0.7-0.6,1.4-1,2.1s-0.8,1.4-1.3,2.1c0.1,0,0.3,0,0.6,0c0.3,0,0.6,0,0.9,0.1c0.3,0,0.7,0,1.1,0
			c0.4,0,0.8,0,1.1,0c0.4,0,0.7,0,1,0c0.3,0,0.6,0,0.8,0c0.2,0,0.4,0.2,0.5,0.4s0.2,0.6,0.2,1c0,0.5-0.1,0.8-0.4,1.1
			c-0.2,0.3-0.5,0.4-0.8,0.4H294c-0.4,0.5-0.7,1-1.1,1.4c-0.4,0.5-0.7,0.9-1,1.3c0,0.8-0.1,1.5-0.1,2.2c0,0.3,0,0.6,0,1
			c0,0.3,0,0.7,0,1s0,0.7,0,1c0,0.3,0,0.6,0,0.8c0,0.7,0.1,1.2,0.2,1.7c0.1,0.5,0.3,0.8,0.5,1.1c0.2,0.3,0.5,0.5,0.9,0.6
			c0.3,0.1,0.7,0.2,1.1,0.2c0.3,0,0.6-0.1,1-0.2c0.4-0.1,0.8-0.3,1.3-0.5c0.5-0.2,0.9-0.5,1.5-0.8c0.5-0.3,1-0.6,1.5-1
			s1-0.7,1.4-1.1c0.5-0.4,0.9-0.8,1.2-1.2V41.6z M296.4,18.2c0-0.1,0-0.3,0-0.5c0-0.2-0.1-0.3-0.1-0.5c-0.1-0.1-0.2-0.3-0.3-0.4
			c-0.1-0.1-0.3-0.1-0.5-0.1c-0.3,0-0.6,0.3-1,0.8c-0.3,0.6-0.6,1.3-0.9,2.2c-0.3,0.9-0.6,1.8-0.9,2.9c-0.3,1-0.5,2.1-0.7,3.1
			c0.2,0,0.4,0,0.6,0c0.2,0,0.4,0,0.6,0c0.4-0.6,0.8-1.3,1.2-2c0.4-0.7,0.8-1.4,1.1-2.1c0.3-0.7,0.6-1.4,0.8-2
			C296.2,19.1,296.4,18.6,296.4,18.2z"/>
		<path fill="#F0F0B1" stroke="#F0F0B1" stroke-miterlimit="10" d="M312.2,31.5c0.4,0.7,0.6,1.5,0.8,2.3c0.2,0.8,0.3,1.7,0.3,2.7
			c0,0.7-0.1,1.5-0.2,2.2s-0.4,1.5-0.7,2.1s-0.7,1.3-1.1,1.9c-0.4,0.6-0.9,1.1-1.5,1.6c-0.6,0.4-1.2,0.8-1.8,1.1
			c-0.7,0.3-1.4,0.4-2.1,0.4c-1.1,0-2-0.2-2.8-0.7c-0.8-0.5-1.4-1.1-1.9-1.9s-0.9-1.6-1.1-2.6c-0.2-1-0.3-1.9-0.3-2.9
			c0-1.6,0.2-3,0.6-4.2s1-2.2,1.7-3.1c0.8-0.9,1.7-1.5,2.8-2c1.1-0.5,2.3-0.7,3.7-0.7c1.2,0,2.3,0.2,3.3,0.5c1,0.4,2,0.8,2.9,1.5
			s1.7,1.4,2.5,2.3c0.8,0.9,1.5,1.8,2.1,2.6l-0.4,2.6c-0.3-0.4-0.8-0.9-1.3-1.4c-0.6-0.5-1.2-1.1-1.8-1.7c-0.6-0.6-1.3-1.2-1.9-1.6
			c-0.6-0.4-1.1-0.8-1.6-1.1L312.2,31.5z M306.5,42.2c0.4,0,0.8-0.2,1.2-0.6c0.4-0.4,0.7-1,1-1.6c0.3-0.6,0.5-1.4,0.7-2.3
			s0.3-1.7,0.3-2.4c0-0.6,0-1.1-0.1-1.6c-0.1-0.5-0.2-0.9-0.4-1.3c-0.2-0.4-0.4-0.6-0.7-0.8c-0.3-0.2-0.6-0.3-1-0.3
			c-0.5,0-1,0.2-1.4,0.6c-0.5,0.4-0.9,1-1.2,1.7c-0.3,0.7-0.6,1.4-0.8,2.2c-0.2,0.8-0.3,1.7-0.3,2.7c0,0.5,0,1,0.1,1.5
			c0.1,0.5,0.3,0.9,0.5,1.2s0.5,0.6,0.8,0.8C305.6,42.1,306,42.2,306.5,42.2z"/>
		<path fill="#F0F0B1" stroke="#F0F0B1" stroke-miterlimit="10" d="M316.7,41.9c0-0.8,0-1.7,0.1-2.8s0.2-2.2,0.4-3.5
			c0.1-1.3,0.3-2.4,0.5-3.4c0.2-1,0.4-1.9,0.5-2.6c0.1-0.6,0.4-1,0.8-1.4s0.9-0.6,1.6-0.6c0.7,0,1.1,0.2,1.4,0.6
			c0.3,0.4,0.4,0.9,0.4,1.6c0,0.2,0,0.4-0.1,0.7c0,0.3-0.1,0.7-0.1,1c-0.1,0.4-0.1,0.8-0.2,1.2s-0.1,0.9-0.2,1.4
			c-0.1,0.5-0.1,0.9-0.1,1.1s-0.1,0.4-0.1,0.5h0.4c0.1-0.1,0.2-0.4,0.4-0.7s0.3-0.7,0.6-1.3c0.2-0.6,0.4-1.1,0.7-1.5
			c0.2-0.4,0.5-0.9,0.7-1.3c0.2-0.4,0.4-0.8,0.6-1.1c0.2-0.3,0.3-0.5,0.4-0.7c0.4-0.7,0.8-1.1,1.3-1.4c0.5-0.2,1.1-0.4,1.7-0.4
			c0.6,0,1.1,0.3,1.5,0.8c0.4,0.5,0.5,1.2,0.5,2.1c0,0.1,0,0.4-0.1,0.7c-0.1,0.3-0.1,0.7-0.2,1.1c-0.1,0.4-0.2,1-0.3,1.7
			c-0.1,0.7-0.2,1.3-0.3,1.9s-0.2,1.1-0.2,1.6c-0.1,0.5-0.1,1-0.1,1.5c0,0.8,0.1,1.4,0.3,1.9s0.5,0.7,0.9,0.7c0.1,0,0.4-0.1,0.6-0.2
			c0.4-0.1,0.7-0.3,0.8-0.4c0.5-0.4,0.8-0.6,0.8-0.6c0,0,0.4-0.2,1.2-0.7c1-0.6,2.2-1.4,3.5-2.3l0,4.1l-0.9,0.7
			c-0.1,0.1-0.7,0.4-1.7,1c-1.6,0.8-2.5,1.3-2.9,1.5c-1,0.4-1.6,0.7-1.8,0.7c-0.6,0.2-1.3,0.3-1.9,0.3s-1.2-0.5-1.7-1.5
			s-0.7-2.4-0.7-4.3c0-0.7,0-1.5,0.1-2.4c0.1-0.9,0.2-1.8,0.4-2.8h-0.3l-4.8,9.6c-0.3,0.5-0.5,0.9-0.8,1c-0.3,0.2-0.7,0.3-1.1,0.3
			c-0.5,0-0.9-0.1-1.2-0.3c-0.3-0.2-0.5-0.5-0.7-0.9c-0.2-0.4-0.3-0.8-0.3-1.2C316.8,42.8,316.7,42.4,316.7,41.9z"/>
		<path fill="#F0F0B1" stroke="#F0F0B1" stroke-miterlimit="10" d="M344,41.7c-0.4,0.4,0.8,0.9,0.2,1.4c-0.7,0.5-1.4,0.9-2.1,1.3
			c-0.8,0.4-1.5,0.7-2.3,1c-0.8,0.3-1.5,0.4-2.3,0.4c-0.6,0-1.2-0.1-1.6-0.3c-0.4-0.2-0.8-0.4-1.1-0.7c-0.3-0.3-0.5-0.7-0.6-1.2
			c-0.1-0.5-0.2-1-0.2-1.5c0-0.8,0.1-1.7,0.3-2.7c0.4-2.1,0.6-3.3,0.7-3.6c0.2-0.5,0.5-1.7,1-3.5c0.5-1.5,0.8-2.4,0.9-2.9
			c0.1-0.3,0.2-0.6,0.5-0.8c0.3-0.2,0.5-0.4,0.9-0.6c0.3-0.1,0.7-0.2,1-0.3c0.3-0.1,0.7-0.1,0.9-0.1c0.5,0,0.9,0.1,1,0.3
			c0.2,0.2,0.3,0.4,0.3,0.8c0,0.3-0.1,0.7-0.2,1.1c-0.1,0.5-0.3,1.1-0.4,1.7c-0.2,0.6-0.4,1.4-0.7,2.4c-0.3,1-0.5,1.8-0.7,2.5
			c-0.1,0.7-0.3,1.4-0.4,2.1c-0.2,0.7-0.3,1.3-0.3,1.9c0,0.6,0.1,1,0.2,1.3s0.9-0.1,1.1-0.4c0.3-0.4,2.7-2.7,3.2-3
			c0.5-0.3-1,2.8-0.5,2.4c0.6-0.4,1.1-0.9,1.6-1.4c0.5-0.5,1-0.9,1.4-1.2L344,41.7z M337.6,22.5c0-0.3,0.1-0.6,0.2-1
			c0.1-0.4,0.3-0.7,0.6-1c0.3-0.3,0.6-0.6,1.1-0.8c0.5-0.2,1-0.3,1.7-0.3c0.4,0,0.8,0,1.2,0.1s0.7,0.3,1,0.5
			c0.3,0.2,0.5,0.5,0.7,0.8c0.2,0.3,0.2,0.7,0.2,1.2c0,0.4-0.1,0.8-0.2,1.2c-0.1,0.4-0.4,0.8-0.6,1.1c-0.3,0.3-0.7,0.6-1.1,0.8
			c-0.4,0.2-1,0.3-1.6,0.3c-1.1,0-1.9-0.3-2.4-0.8C337.8,24,337.6,23.3,337.6,22.5z"/>
		<path fill="#F0F0B1" stroke="#F0F0B1" stroke-miterlimit="10" d="M342.6,38.8c0.7-0.6,1.1-1.1,1.6-1.5c0.4-0.4,0.9-0.9,1.3-1.4
			c0.4-0.5,0.8-1,1-1.3c0.3-0.3,0.6-0.7,0.9-1.2c0.3-0.5,0.8-1,1.3-1.7c0.5-0.7,1.1-1.5,1.9-2.5c0.2-0.2,0.3-0.4,0.5-0.7
			c0.2-0.2,0.4-0.4,0.7-0.6c0.2-0.2,0.5-0.3,0.8-0.4c0.3-0.1,0.6-0.2,1-0.2c0.6,0,1,0.1,1.4,0.2c0.3,0.1,0.6,0.3,0.7,0.5
			c0.1,0.2,0.2,0.4,0.3,0.6c0,0.2,0,0.4,0,0.5c0,0.3-0.1,0.6-0.4,1c-0.2,0.4-0.5,0.7-0.8,1c-0.3,0.3-0.6,0.6-0.8,0.9
			c-0.3,0.3-0.4,0.5-0.4,0.6c0,0.4,0,0.7,0.1,1.1c0.1,0.3,0.1,0.6,0.2,0.9c0.1,0.3,0.2,0.6,0.3,1c0.1,0.3,0.2,0.7,0.3,1.2
			c0.1,0.4,0.1,1.1,0,1.8c-0.1,0.8-0.1,1.6-0.1,2.4c0.4-0.3,0.9-0.6,1.4-0.8c0.5-0.2,1-0.5,1.6-0.8c0.6-0.3,1.1-0.6,1.7-0.9
			c0.6-0.3,1.2-0.7,1.8-1.1l0,4.2c-0.8,0.6-1.6,1.1-2.6,1.6s-2.1,0.9-3.2,1.3c-1.1,0.4-2.2,0.7-3.3,0.9c-1.1,0.2-2.2,0.3-3.2,0.3
			c-0.7,0-1.4-0.1-2-0.2c-0.6-0.1-1.2-0.3-1.7-0.6c-0.5-0.3-0.9-0.6-1.2-1.1c-0.3-0.4-0.5-1-0.5-1.6c-0.2,0-0.3,0.1-0.5,0.1
			c-0.2,0-0.3,0-0.5,0c-0.2,0-0.4,0-0.6,0s-0.3-0.1-0.4-0.1c-0.1-0.1-0.2-0.2-0.3-0.4c-0.1-0.2-0.1-0.4-0.1-0.8
			c0-0.3,0.2,0.3,0.3,0.1c0.1-0.3-0.2-0.5,0-0.7c0.2-0.2-1.5,1.1-1.3,1C339.9,41.4,342.5,38.9,342.6,38.8z M344.8,41.2
			c0.1,0,0.3,0.1,0.5,0.3c0.2,0.2,0.4,0.4,0.6,0.6c0.2,0.2,0.5,0.4,0.8,0.6s0.7,0.3,1.1,0.3c0.5,0,0.9-0.1,1.2-0.2
			c0.3-0.2,0.6-0.4,0.7-0.6c0.2-0.3,0.3-0.6,0.4-0.9c0.1-0.4,0.1-0.7,0.1-1.1c0-0.3,0-0.7-0.1-1c0-0.3,0-0.8,0-1.3
			c0.1-0.5,0-0.9,0-1.2s-0.2-0.5-0.2-0.7L344.8,41.2z"/>
		<path fill="#F0F0B1" stroke="#F0F0B1" stroke-miterlimit="10" d="M363,45.7c-0.7,0-1.3-0.3-1.8-0.9c-0.6-0.6-1.1-1.3-1.5-2.3
			c-0.4-1-0.8-2.1-1-3.4c-0.2-1.3-0.4-2.6-0.4-4c0-1.2,0.2-2.8,0.5-4.8c0.4-2,0.5-3,0.5-3s0.3-1,0.8-3c0.5-2,1.1-3.6,1.6-4.8
			s1.1-2.4,1.8-3.4c0.6-1.1,1.3-2,2-2.8c0.7-0.8,1.4-1.4,2.2-1.8c0.8-0.4,1.5-0.7,2.3-0.7c0.6,0,1,0.1,1.4,0.3
			c0.4,0.2,0.7,0.5,0.9,0.9c0.2,0.4,0.4,0.8,0.4,1.2c0.1,0.5,0.1,0.9,0.1,1.4c0,1.2-0.1,2.3-0.4,3.6c-0.3,1.2-0.6,2.4-1.1,3.6
			c-0.5,1.2-1,2.4-1.6,3.7c-0.6,1.2-1.3,2.4-1.9,3.6c-0.7,1.2-1.3,2.4-2,3.6c-0.7,1.2-1.3,2.3-1.9,3.4c-0.1,0.1-0.1,0.3-0.2,0.5
			c-0.1,0.2-0.1,0.4-0.2,0.6c-0.1,0.2-0.1,0.5-0.2,0.7c-0.1,0.3-0.1,0.5-0.1,0.8v0.3c0,0.3,0,0.6,0.1,0.9c0.1,0.3,0.2,0.6,0.2,0.8
			c0.1,0.2,0.2,0.4,0.3,0.6c0.1,0.1,0.2,0.2,0.3,0.2c0.2,0,0.5,0,0.8-0.1c0.3-0.1,0.6-0.2,1-0.4c0.3-0.2,0.7-0.4,1.1-0.6
			c0.4-0.2,0.7-0.4,1.1-0.7c0.8-0.5,1.6-1.1,2.5-1.8l1.6,3.9c-1.1,0.7-2.2,1.4-3.3,2c-0.5,0.2-1,0.5-1.5,0.7s-1,0.5-1.5,0.6
			c-0.5,0.2-1,0.3-1.5,0.4C363.9,45.7,363.4,45.7,363,45.7z M363,31.1c0.6-1,1.1-2.1,1.8-3.3c0.6-1.2,1.2-2.5,1.8-3.8
			c0.6-1.3,1-2.6,1.4-3.9c0.4-1.3,0.7-2.5,0.8-3.7c0-0.4,0-0.7,0-0.9c0-0.3-0.1-0.4-0.2-0.4c-0.3,0-0.7,0.2-1.1,0.7
			c-0.4,0.5-0.8,1.1-1.2,1.9c-0.4,0.8-0.9,2.1-1.4,3.9c-0.5,1.8-0.8,2.7-0.8,2.7c0,0-0.2,0.8-0.5,2.5
			C363.3,28.4,363.1,29.9,363,31.1z"/>
		<path fill="#F0F0B1" stroke="#F0F0B1" stroke-miterlimit="10" d="M388.2,41.2c-0.3,0.4-0.7,0.9-1.1,1.4c-0.5,0.5-1,1-1.6,1.5
			c-0.6,0.5-1.2,0.9-1.9,1.2c-0.7,0.3-1.4,0.5-2,0.5c-0.8,0-1.5-0.3-2-0.8c-0.5-0.5-1-1.3-1.4-2.3c-0.3,0.3-0.7,0.7-1.1,1
			c-0.4,0.4-0.9,0.7-1.4,1c-0.5,0.3-1.1,0.5-1.6,0.7c-0.6,0.2-1.1,0.3-1.7,0.3c-0.6,0-1.2-0.1-1.7-0.4s-1.1-0.6-1.5-1
			c-0.4-0.5-0.8-1-1-1.7c-0.3-0.7-0.4-1.4-0.4-2.2c0-0.9,0.1-1.9,0.4-2.8c0.3-1,0.7-2,1.2-3.1c0.5-1.1,1.1-2.1,1.8-2.9
			c0.6-0.8,1.3-1.5,2-2.1c0.7-0.6,1.5-1.1,2.3-1.5c0.8-0.4,1.7-0.5,2.5-0.5c0.3,0,0.5,0.1,0.7,0.2s0.3,0.2,0.4,0.4
			c0.1,0.1,0.2,0.3,0.3,0.4c0.1,0.1,0.2,0.2,0.4,0.3c0.1,0.1,0.3,0.1,0.5,0.1c0.2,0,0.3,0,0.5,0c0.1,0,0.3,0,0.4,0
			c0.1,0,0.3,0,0.4,0c0.2,0,0.4,0,0.5,0.1c0.2,0,0.3,0.1,0.4,0.2c0.1,0.1,0.2,0.3,0.3,0.5c0.1,0.2,0.1,0.5,0.1,0.9
			c0,0.6-0.1,1.2-0.2,2c-0.1,0.7-0.3,1.5-0.4,2.2s-0.3,1.6-0.5,2.6c-0.2,1-0.3,1.8-0.3,2.4c0,0.6,0.1,1,0.2,1.3
			c0.1,0.3,0.3,0.5,0.7,0.5c0.3,0,0.5-0.1,0.8-0.2c0.3-0.1,0.6-0.3,0.9-0.5s0.6-0.4,0.9-0.7c0.3-0.3,0.6-0.5,0.8-0.8
			c0.6-0.7,1.2-1.4,1.8-2.2L388.2,41.2z M372.4,39.7c0,0.3,0,0.6,0.1,0.9c0,0.3,0.1,0.6,0.2,0.8c0.1,0.2,0.3,0.4,0.4,0.6
			c0.2,0.1,0.4,0.2,0.7,0.2c0.5,0,0.9-0.2,1.2-0.6c0.4-0.4,0.7-0.9,1-1.4c0.3-0.6,0.5-1.1,0.7-1.7c0.2-0.6,0.3-1.1,0.3-1.5l1.4-6
			c-0.5,0-1,0.1-1.5,0.4c-0.5,0.2-0.9,0.6-1.4,1c-0.4,0.4-0.8,0.9-1.2,1.5c-0.4,0.5-0.7,1.2-1.1,2c-0.3,0.8-0.6,1.5-0.7,2.1
			C372.4,38.6,372.4,39.2,372.4,39.7z"/>
		<path fill="#F0F0B1" stroke="#F0F0B1" stroke-miterlimit="10" d="M386.7,41.9c0-0.8,0-1.7,0.1-2.8s0.2-2.2,0.4-3.5
			c0.1-1.3,0.3-2.4,0.5-3.4c0.2-1,0.4-1.9,0.5-2.6c0.1-0.6,0.4-1,0.8-1.4s0.9-0.6,1.6-0.6c0.7,0,1.1,0.2,1.4,0.6
			c0.3,0.4,0.4,0.9,0.4,1.6c0,0.2,0,0.4-0.1,0.7c0,0.3-0.1,0.7-0.1,1c-0.1,0.4-0.1,0.8-0.2,1.2s-0.1,0.9-0.2,1.4
			c-0.1,0.5-0.1,0.9-0.1,1.1s-0.1,0.4-0.1,0.5h0.4c0.1-0.1,0.2-0.4,0.4-0.7s0.3-0.7,0.6-1.3c0.2-0.6,0.4-1.1,0.7-1.5
			c0.2-0.4,0.5-0.9,0.7-1.3c0.2-0.4,0.4-0.8,0.6-1.1c0.2-0.3,0.3-0.5,0.4-0.7c0.4-0.7,0.8-1.1,1.3-1.4c0.5-0.2,1.1-0.4,1.7-0.4
			c0.6,0,1.1,0.3,1.5,0.8c0.4,0.5,0.5,1.2,0.5,2.1c0,0.1,0,0.4-0.1,0.7c-0.1,0.3-0.1,0.7-0.2,1.1c-0.1,0.4-0.2,1-0.3,1.7
			c-0.1,0.7-0.2,1.3-0.3,1.9s-0.2,1.1-0.2,1.6c-0.1,0.5-0.1,1-0.1,1.5c0,0.8,0.1,1.4,0.3,1.9s0.5,0.7,0.9,0.7c0.1,0,0.4-0.1,0.6-0.2
			c0.4-0.1,0.7-0.3,0.8-0.4c0.5-0.4,0.8-0.6,0.8-0.6c0,0,0.4-0.2,1.2-0.7c1-0.6,2.2-1.4,3.5-2.3l0,4.1l-0.9,0.7
			c-0.1,0.1-0.7,0.4-1.7,1c-1.6,0.8-2.5,1.3-2.9,1.5c-1,0.4-1.6,0.7-1.8,0.7c-0.6,0.2-1.3,0.3-1.9,0.3s-1.2-0.5-1.7-1.5
			s-0.7-2.4-0.7-4.3c0-0.7,0-1.5,0.1-2.4c0.1-0.9,0.2-1.8,0.4-2.8h-0.3l-4.8,9.6c-0.3,0.5-0.5,0.9-0.8,1c-0.3,0.2-0.7,0.3-1.1,0.3
			c-0.5,0-0.9-0.1-1.2-0.3c-0.3-0.2-0.5-0.5-0.7-0.9c-0.2-0.4-0.3-0.8-0.3-1.2C386.7,42.8,386.7,42.4,386.7,41.9z"/>
		<path fill="#F0F0B1" stroke="#F0F0B1" stroke-miterlimit="10" d="M406.7,62.6c-0.5-0.1-1-0.4-1.5-0.6c-0.4-0.3-0.8-0.7-1.1-1.2
			s-0.4-1.1-0.5-1.8c-0.1-1.3,0.3-2.7,1.1-4.1c0.5-0.8,0.8-1.4,1-1.7s0.5-0.8,0.9-1.4s0.8-1.1,1.2-1.6c0.9-1,1.6-1.7,2.1-2.3
			s1.2-1.2,2-1.9l0.4-2.2c-1.4,1.3-2.7,2-4,2c-1,0-1.8-0.3-2.6-0.9c-0.8-0.6-1.4-1.3-1.8-2.2c-0.7-1.5-0.8-3.3-0.1-5.4
			c0.6-1.9,1.3-3.5,1.9-4.7c0.7-1.2,1.5-2.3,2.5-3.3c1.5-1.3,3-2,4.4-2c0.6,0,1.1,0.2,1.4,0.5c0,0,0.1,0.1,0.2,0.2s0.1,0.2,0.2,0.2
			c0,0,0.1,0.1,0.2,0.1c0.1,0.1,0.1,0.1,0.2,0.1c0.1,0,0.1,0,0.2,0.1c0.1,0,0.2,0.1,0.3,0.1c0.1,0,0.3,0,0.4,0l0.8,0
			c0.6,0,0.9,0.2,1.1,0.5c0.1,0.1,0.2,0.3,0.2,0.5c0.1,0.4,0.2,1.6,0.1,3.8c0,0.7-0.2,1.5-0.5,2.5c-0.3,1-0.5,2.1-0.5,3.3
			c-0.1,1.2-0.2,2.8-0.4,4.7c0.4-0.2,0.7-0.5,1.1-0.8c1.5-1.1,3.1-3.1,4.9-6.1l1.2,4.1c-0.3,0.7-1,1.5-1.8,2.4
			c-0.9,0.9-1.6,1.6-2.2,2c-0.1,0.1-0.2,0.1-0.3,0.2c-1.2,0.8-2,1.3-2.6,1.7c-0.3,0.2-0.6,0.6-0.7,1.2c-0.1,0.6-0.3,1.7-0.4,3.2
			c-0.1,0.5-0.1,0.8-0.1,1.1c-0.1,0.6-0.1,1.1-0.2,1.7c-0.1,0.5-0.2,1.2-0.4,1.8c-0.2,0.7-0.4,1.3-0.6,1.9c-0.2,0.6-0.5,1.1-0.9,1.7
			c-0.4,0.6-0.8,1.1-1.3,1.4c-0.5,0.4-1,0.7-1.7,1c-0.7,0.2-1.4,0.4-2.1,0.4C407.8,62.8,407.2,62.8,406.7,62.6z M409.4,53.4
			c-0.8,1.4-1.5,2.7-2,4.1c-0.4,1.2-0.2,1.8,0.6,1.8c0.3,0,0.6,0,0.8-0.1c0.2-0.1,0.4-0.2,0.6-0.4c0.2-0.2,0.4-0.4,0.5-0.6
			c0.1-0.2,0.3-0.5,0.5-1c0.2-0.4,0.3-0.8,0.5-1.2c0.1-0.4,0.3-0.9,0.5-1.6c0.1-0.4,0.2-0.7,0.2-1.2c0.1-0.4,0.1-1,0.2-1.6
			c0.1-0.6,0.1-1,0.1-1.2C411.1,51.1,410.2,52,409.4,53.4z M408.3,41.4c0.3,0.5,0.7,0.8,1.2,0.8c0.8,0,1.5-0.7,2.1-2
			c0.4-1.1,0.7-2.1,0.7-3.2l1.4-6.1c-1.4,0-2.7,1-3.8,2.9c-1.2,2-1.8,3.4-1.9,4.1C407.7,39.5,407.8,40.6,408.3,41.4z"/>
	</g>
	<line fill="none" stroke="#F0F0B1" stroke-width="5" stroke-miterlimit="10" x1="283.2" y1="-7.5" x2="423.2" y2="-7.5"/>
	<line fill="none" stroke="#F0F0B1" stroke-width="5" stroke-miterlimit="10" x1="283.2" y1="81.5" x2="423.2" y2="81.5"/>
</g>
<rect x="104.2" y="-22" fill="#151617" width="120" height="120"/>
<g>
	<g>
		<path fill="#F0F0B1" stroke="#F0F0B1" stroke-miterlimit="10" d="M129.5,40.5c-0.8,0.5-1.5,0.9-2.2,1.2c-0.6,0.4-1.2,0.6-1.7,0.9
			c-0.5,0.2-0.9,0.4-1.3,0.5c-0.4,0.1-0.7,0.2-1,0.2c-0.6,0-1.2-0.2-1.7-0.6c-0.5-0.4-0.9-0.9-1.2-1.7c-0.3-0.7-0.6-1.6-0.7-2.6
			c-0.2-1-0.2-2.2-0.2-3.5c0-0.5,0-1,0.1-1.6s0.1-1.1,0.2-1.7c-0.3,0-0.5-0.1-0.6-0.1c-0.1,0-0.3-0.1-0.4-0.1
			c-0.2,0-0.4-0.1-0.6-0.1c-0.2,0-0.6-0.1-1-0.1c-0.2,0-0.4-0.1-0.5-0.2c-0.1-0.1-0.2-0.2-0.2-0.3c-0.1-0.1-0.1-0.2-0.1-0.3
			c0-0.1,0-0.2,0-0.3c0-0.1,0.1-0.2,0.2-0.3c0.2-0.1,0.4-0.1,0.6-0.2c0.3,0,0.5-0.1,0.8-0.1c0.3,0,0.6,0,0.9,0c0.3,0,0.5,0,0.8,0
			c0.2,0,0.4,0,0.5,0c0.2-1.1,0.5-2.2,0.9-3.3c0.3-1.1,0.7-2,1.2-2.8c0.4-0.8,0.9-1.5,1.4-2c0.5-0.5,1-0.7,1.6-0.7
			c0.4,0,0.7,0.1,1,0.3c0.3,0.2,0.6,0.5,0.8,0.8c0.2,0.3,0.4,0.7,0.5,1.2c0.1,0.4,0.2,0.9,0.2,1.4c0,0.4-0.1,0.8-0.2,1.3
			c-0.1,0.4-0.3,0.9-0.5,1.4s-0.4,0.9-0.7,1.4s-0.6,0.9-0.9,1.4c0.1,0,0.2,0,0.4,0c0.2,0,0.4,0,0.6,0c0.2,0,0.5,0,0.7,0
			c0.3,0,0.5,0,0.8,0c0.3,0,0.5,0,0.7,0c0.2,0,0.4,0,0.5,0c0.2,0,0.3,0.1,0.4,0.3c0.1,0.2,0.1,0.4,0.1,0.7c0,0.3-0.1,0.6-0.3,0.8
			c-0.2,0.2-0.4,0.3-0.6,0.3h-4.8c-0.2,0.3-0.5,0.7-0.7,1c-0.2,0.3-0.5,0.6-0.7,0.9c0,0.5-0.1,1-0.1,1.5c0,0.2,0,0.4,0,0.7
			c0,0.2,0,0.5,0,0.7c0,0.2,0,0.4,0,0.7s0,0.4,0,0.6c0,0.5,0,0.8,0.1,1.1c0.1,0.3,0.2,0.6,0.4,0.8c0.2,0.2,0.4,0.3,0.6,0.4
			c0.2,0.1,0.5,0.1,0.8,0.1c0.2,0,0.4,0,0.7-0.1c0.3-0.1,0.6-0.2,0.9-0.3c0.3-0.1,0.6-0.3,1-0.5c0.3-0.2,0.7-0.4,1-0.7
			c0.3-0.2,0.7-0.5,1-0.8c0.3-0.3,0.6-0.5,0.8-0.8V40.5z M125.5,24.5c0-0.1,0-0.2,0-0.3c0-0.1,0-0.2-0.1-0.3c0-0.1-0.1-0.2-0.2-0.3
			c-0.1-0.1-0.2-0.1-0.4-0.1c-0.2,0-0.4,0.2-0.7,0.6c-0.2,0.4-0.4,0.9-0.6,1.5c-0.2,0.6-0.4,1.2-0.6,2c-0.2,0.7-0.3,1.4-0.5,2.1
			c0.1,0,0.3,0,0.4,0c0.1,0,0.3,0,0.4,0c0.3-0.4,0.5-0.9,0.8-1.4c0.3-0.5,0.5-1,0.7-1.5c0.2-0.5,0.4-0.9,0.5-1.3
			C125.4,25.1,125.5,24.8,125.5,24.5z"/>
		<path fill="#F0F0B1" stroke="#F0F0B1" stroke-miterlimit="10" d="M136.2,33.6c0.2,0.5,0.4,1,0.5,1.5c0.1,0.5,0.2,1.2,0.2,1.8
			c0,0.5-0.1,1-0.2,1.5c-0.1,0.5-0.3,1-0.5,1.5c-0.2,0.5-0.5,0.9-0.8,1.3c-0.3,0.4-0.6,0.8-1,1.1s-0.8,0.5-1.3,0.7
			c-0.5,0.2-0.9,0.3-1.4,0.3c-0.7,0-1.4-0.2-1.9-0.5c-0.5-0.3-1-0.7-1.3-1.3s-0.6-1.1-0.7-1.8c-0.2-0.7-0.2-1.3-0.2-2
			c0-1.1,0.1-2.1,0.4-2.9c0.3-0.8,0.7-1.5,1.2-2.1c0.5-0.6,1.1-1.1,1.9-1.4c0.7-0.3,1.6-0.5,2.5-0.5c0.8,0,1.5,0.1,2.2,0.4
			c0.7,0.2,1.3,0.6,2,1c0.6,0.4,1.2,0.9,1.7,1.6c0.5,0.6,1,1.2,1.5,1.8l-0.2,1.8c-0.2-0.3-0.5-0.6-0.9-1c-0.4-0.4-0.8-0.7-1.2-1.2
			c-0.4-0.4-0.9-0.8-1.3-1.1c-0.4-0.3-0.8-0.5-1.1-0.7L136.2,33.6z M132.3,40.9c0.3,0,0.6-0.1,0.8-0.4c0.3-0.3,0.5-0.7,0.7-1.1
			c0.2-0.4,0.4-1,0.5-1.6c0.1-0.6,0.2-1.2,0.2-1.7c0-0.4,0-0.7-0.1-1.1c-0.1-0.3-0.1-0.6-0.3-0.9s-0.3-0.4-0.5-0.6
			c-0.2-0.1-0.4-0.2-0.7-0.2c-0.3,0-0.7,0.1-1,0.4c-0.3,0.3-0.6,0.7-0.8,1.1c-0.2,0.5-0.4,1-0.6,1.5c-0.1,0.6-0.2,1.2-0.2,1.9
			c0,0.4,0,0.7,0.1,1s0.2,0.6,0.3,0.8s0.3,0.4,0.6,0.6C131.7,40.8,132,40.9,132.3,40.9z"/>
		<path fill="#F0F0B1" stroke="#F0F0B1" stroke-miterlimit="10" d="M139.3,40.6c0-0.6,0-1.2,0.1-1.9c0.1-0.7,0.2-1.5,0.3-2.4
			c0.1-0.9,0.2-1.6,0.3-2.3c0.1-0.7,0.2-1.3,0.4-1.8c0.1-0.4,0.3-0.7,0.5-1s0.6-0.4,1.1-0.4c0.5,0,0.8,0.1,0.9,0.4s0.3,0.6,0.3,1.1
			c0,0.1,0,0.3,0,0.5c0,0.2-0.1,0.4-0.1,0.7c0,0.3-0.1,0.5-0.1,0.8s-0.1,0.6-0.1,0.9c0,0.3-0.1,0.6-0.1,0.8c0,0.2,0,0.3,0,0.3h0.3
			c0.1-0.1,0.1-0.2,0.2-0.4c0.1-0.2,0.2-0.5,0.4-0.9c0.1-0.4,0.3-0.7,0.5-1s0.3-0.6,0.5-0.9s0.3-0.5,0.4-0.7s0.2-0.4,0.3-0.5
			c0.3-0.5,0.6-0.8,0.9-0.9c0.3-0.2,0.7-0.3,1.1-0.3c0.4,0,0.8,0.2,1,0.5c0.2,0.4,0.4,0.8,0.4,1.5c0,0.1,0,0.2-0.1,0.5
			c0,0.2-0.1,0.5-0.1,0.8c-0.1,0.3-0.1,0.7-0.2,1.2c-0.1,0.5-0.1,0.9-0.2,1.3c-0.1,0.4-0.1,0.8-0.1,1.1c0,0.4-0.1,0.7-0.1,1
			c0,0.5,0.1,0.9,0.2,1.3s0.3,0.5,0.6,0.5c0.1,0,0.2,0,0.4-0.1c0.3-0.1,0.5-0.2,0.5-0.3c0.4-0.3,0.6-0.4,0.6-0.4
			c0,0,0.3-0.2,0.8-0.5c0.7-0.4,1.5-1,2.4-1.6l0,2.8l-0.6,0.5c-0.1,0-0.4,0.3-1.2,0.7c-1.1,0.6-1.7,0.9-2,1
			c-0.7,0.3-1.1,0.5-1.2,0.5c-0.4,0.1-0.9,0.2-1.3,0.2s-0.8-0.3-1.2-1c-0.3-0.7-0.5-1.6-0.5-2.9c0-0.5,0-1,0.1-1.6s0.2-1.2,0.3-1.9
			h-0.2l-3.3,6.5c-0.2,0.4-0.4,0.6-0.6,0.7c-0.2,0.1-0.5,0.2-0.7,0.2c-0.3,0-0.6-0.1-0.8-0.2s-0.4-0.3-0.5-0.6
			c-0.1-0.2-0.2-0.5-0.2-0.8C139.4,41.3,139.3,41,139.3,40.6z"/>
		<path fill="#F0F0B1" stroke="#F0F0B1" stroke-miterlimit="10" d="M157.9,40.5c-0.3,0.3,0.6,0.6,0.1,1c-0.4,0.3-0.9,0.6-1.5,0.9
			s-1,0.5-1.6,0.7c-0.5,0.2-1.1,0.3-1.5,0.3c-0.4,0-0.8-0.1-1.1-0.2c-0.3-0.1-0.5-0.3-0.7-0.5s-0.3-0.5-0.4-0.8
			c-0.1-0.3-0.1-0.7-0.1-1c0-0.5,0.1-1.1,0.2-1.8c0.2-1.5,0.4-2.3,0.5-2.5c0.1-0.4,0.3-1.2,0.7-2.4c0.3-1,0.5-1.7,0.6-2
			c0-0.2,0.2-0.4,0.3-0.6c0.2-0.2,0.4-0.3,0.6-0.4c0.2-0.1,0.4-0.2,0.7-0.2c0.2,0,0.4-0.1,0.6-0.1c0.3,0,0.6,0.1,0.7,0.2
			c0.1,0.1,0.2,0.3,0.2,0.5c0,0.2,0,0.4-0.1,0.8c-0.1,0.3-0.2,0.7-0.3,1.2c-0.1,0.4-0.3,1-0.5,1.7c-0.2,0.7-0.4,1.3-0.4,1.7
			c-0.1,0.5-0.2,1-0.3,1.4c-0.1,0.5-0.2,0.9-0.2,1.3c0,0.4,0,0.7,0.1,0.9c0.1,0.2,0.6-0.1,0.8-0.3c0.2-0.2,1.8-1.9,2.2-2.1
			c0.4-0.2-0.7,1.9-0.3,1.6c0.4-0.3,0.7-0.6,1.1-0.9s0.7-0.6,1-0.8L157.9,40.5z M153.6,27.4c0-0.2,0-0.4,0.1-0.7
			c0.1-0.2,0.2-0.5,0.4-0.7c0.2-0.2,0.4-0.4,0.8-0.5c0.3-0.1,0.7-0.2,1.2-0.2c0.3,0,0.6,0,0.8,0.1s0.5,0.2,0.7,0.3
			c0.2,0.1,0.3,0.3,0.5,0.6c0.1,0.2,0.2,0.5,0.2,0.8c0,0.3,0,0.6-0.1,0.8c-0.1,0.3-0.2,0.5-0.4,0.7c-0.2,0.2-0.5,0.4-0.8,0.5
			c-0.3,0.1-0.7,0.2-1.1,0.2c-0.7,0-1.3-0.2-1.6-0.5C153.7,28.4,153.6,28,153.6,27.4z"/>
		<path fill="#F0F0B1" stroke="#F0F0B1" stroke-miterlimit="10" d="M157,38.5c0.5-0.4,0.8-0.8,1.1-1c0.3-0.3,0.6-0.6,0.9-0.9
			c0.3-0.4,0.5-0.7,0.7-0.9s0.4-0.5,0.6-0.8c0.2-0.3,0.5-0.7,0.9-1.2c0.3-0.5,0.8-1,1.3-1.7c0.1-0.2,0.2-0.3,0.4-0.4
			c0.1-0.1,0.3-0.3,0.4-0.4s0.3-0.2,0.5-0.3c0.2-0.1,0.4-0.1,0.7-0.1c0.4,0,0.7,0,0.9,0.1c0.2,0.1,0.4,0.2,0.5,0.3s0.2,0.3,0.2,0.4
			c0,0.1,0,0.3,0,0.4c0,0.2-0.1,0.4-0.2,0.7c-0.2,0.2-0.3,0.5-0.5,0.7c-0.2,0.2-0.4,0.4-0.5,0.6s-0.3,0.3-0.3,0.4
			c0,0.3,0,0.5,0.1,0.7c0,0.2,0.1,0.4,0.2,0.6c0.1,0.2,0.1,0.4,0.2,0.7c0.1,0.2,0.1,0.5,0.2,0.8s0.1,0.7,0,1.3
			c0,0.5-0.1,1.1-0.1,1.6c0.3-0.2,0.6-0.4,1-0.6c0.3-0.2,0.7-0.3,1.1-0.5c0.4-0.2,0.8-0.4,1.2-0.6c0.4-0.2,0.8-0.5,1.2-0.8l0,2.8
			c-0.5,0.4-1.1,0.8-1.8,1.1s-1.4,0.6-2.2,0.9c-0.8,0.3-1.5,0.5-2.3,0.6c-0.8,0.1-1.5,0.2-2.2,0.2c-0.5,0-1,0-1.4-0.1
			c-0.4-0.1-0.8-0.2-1.1-0.4c-0.3-0.2-0.6-0.4-0.8-0.7c-0.2-0.3-0.3-0.7-0.4-1.1c-0.1,0-0.2,0-0.3,0.1c-0.1,0-0.2,0-0.3,0
			c-0.1,0-0.3,0-0.4,0s-0.2,0-0.3-0.1c-0.1-0.1-0.2-0.1-0.2-0.3c-0.1-0.1-0.1-0.3-0.1-0.5c0-0.2,0.1,0.2,0.2,0
			c0.1-0.2-0.1-0.3,0-0.4c0.1-0.1-1,0.8-0.9,0.7C155.2,40.3,156.9,38.6,157,38.5z M158.5,40.1c0.1,0,0.2,0.1,0.3,0.2
			c0.1,0.1,0.3,0.3,0.4,0.4c0.2,0.2,0.3,0.3,0.6,0.4c0.2,0.1,0.4,0.2,0.7,0.2c0.3,0,0.6-0.1,0.8-0.2c0.2-0.1,0.4-0.3,0.5-0.4
			c0.1-0.2,0.2-0.4,0.3-0.6c0.1-0.2,0.1-0.5,0.1-0.8c0-0.2,0-0.5,0-0.7c0-0.2,0-0.5,0-0.9c0-0.4,0-0.6,0-0.8
			c-0.1-0.2-0.1-0.4-0.1-0.5L158.5,40.1z"/>
		<path fill="#F0F0B1" stroke="#F0F0B1" stroke-miterlimit="10" d="M170.9,43.3c-0.5,0-0.9-0.2-1.3-0.6c-0.4-0.4-0.7-0.9-1-1.6
			c-0.3-0.7-0.5-1.4-0.7-2.3c-0.2-0.9-0.2-1.8-0.2-2.7c0-0.8,0.1-1.9,0.4-3.3c0.2-1.4,0.4-2.1,0.4-2.1s0.2-0.7,0.5-2.1
			c0.4-1.4,0.7-2.5,1.1-3.3s0.8-1.6,1.2-2.3c0.4-0.7,0.9-1.3,1.4-1.9c0.5-0.5,1-1,1.5-1.3c0.5-0.3,1-0.5,1.6-0.5
			c0.4,0,0.7,0.1,1,0.2c0.3,0.1,0.5,0.3,0.6,0.6c0.1,0.2,0.2,0.5,0.3,0.8c0.1,0.3,0.1,0.6,0.1,0.9c0,0.8-0.1,1.6-0.3,2.4
			c-0.2,0.8-0.4,1.6-0.8,2.5c-0.3,0.8-0.7,1.7-1.1,2.5c-0.4,0.8-0.9,1.7-1.3,2.5c-0.5,0.8-0.9,1.6-1.4,2.4c-0.5,0.8-0.9,1.6-1.3,2.3
			c0,0.1-0.1,0.2-0.1,0.3c0,0.1-0.1,0.3-0.1,0.4c0,0.2-0.1,0.3-0.1,0.5c0,0.2-0.1,0.4-0.1,0.5v0.2c0,0.2,0,0.4,0.1,0.6
			c0,0.2,0.1,0.4,0.2,0.6c0.1,0.2,0.1,0.3,0.2,0.4c0.1,0.1,0.1,0.1,0.2,0.1c0.2,0,0.3,0,0.6-0.1c0.2-0.1,0.4-0.2,0.7-0.3
			c0.2-0.1,0.5-0.2,0.7-0.4c0.2-0.1,0.5-0.3,0.7-0.5c0.5-0.4,1.1-0.8,1.7-1.2l1.1,2.7c-0.8,0.5-1.5,1-2.3,1.4
			c-0.3,0.2-0.7,0.3-1,0.5c-0.3,0.2-0.7,0.3-1.1,0.4c-0.4,0.1-0.7,0.2-1,0.3C171.5,43.2,171.2,43.3,170.9,43.3z M170.9,33.3
			c0.4-0.7,0.8-1.4,1.2-2.3c0.4-0.8,0.8-1.7,1.2-2.6c0.4-0.9,0.7-1.8,1-2.7c0.3-0.9,0.5-1.7,0.5-2.5c0-0.2,0-0.5,0-0.6
			c0-0.2,0-0.3-0.1-0.3c-0.2,0-0.5,0.2-0.7,0.5s-0.5,0.7-0.8,1.3c-0.3,0.5-0.6,1.4-1,2.7c-0.4,1.2-0.6,1.8-0.6,1.8
			c0,0-0.1,0.6-0.3,1.7C171.1,31.4,170.9,32.4,170.9,33.3z"/>
		<path fill="#F0F0B1" stroke="#F0F0B1" stroke-miterlimit="10" d="M188.1,40.2c-0.2,0.3-0.5,0.6-0.8,1c-0.3,0.4-0.7,0.7-1.1,1
			c-0.4,0.3-0.8,0.6-1.3,0.8c-0.5,0.2-0.9,0.3-1.4,0.3c-0.6,0-1-0.2-1.4-0.5c-0.4-0.4-0.7-0.9-1-1.5c-0.2,0.2-0.5,0.5-0.7,0.7
			c-0.3,0.2-0.6,0.5-1,0.7c-0.4,0.2-0.7,0.4-1.1,0.5c-0.4,0.1-0.8,0.2-1.1,0.2c-0.4,0-0.8-0.1-1.2-0.2c-0.4-0.2-0.7-0.4-1-0.7
			c-0.3-0.3-0.5-0.7-0.7-1.1c-0.2-0.4-0.3-0.9-0.3-1.5c0-0.6,0.1-1.3,0.3-1.9c0.2-0.7,0.5-1.4,0.8-2.1c0.4-0.8,0.8-1.4,1.2-2
			c0.4-0.6,0.9-1,1.4-1.5c0.5-0.4,1-0.8,1.6-1c0.6-0.2,1.1-0.4,1.7-0.4c0.2,0,0.3,0,0.5,0.1c0.1,0.1,0.2,0.2,0.3,0.3
			c0.1,0.1,0.1,0.2,0.2,0.3c0.1,0.1,0.2,0.2,0.3,0.2c0.1,0,0.2,0.1,0.3,0.1c0.1,0,0.2,0,0.3,0c0.1,0,0.2,0,0.3,0c0.1,0,0.2,0,0.3,0
			c0.1,0,0.2,0,0.4,0c0.1,0,0.2,0.1,0.3,0.2c0.1,0.1,0.1,0.2,0.2,0.4s0.1,0.4,0.1,0.6c0,0.4,0,0.8-0.1,1.3c-0.1,0.5-0.2,1-0.3,1.5
			c-0.1,0.5-0.2,1.1-0.4,1.8c-0.1,0.7-0.2,1.2-0.2,1.7c0,0.4,0,0.7,0.1,0.9c0.1,0.2,0.2,0.3,0.5,0.3c0.2,0,0.4,0,0.6-0.1
			c0.2-0.1,0.4-0.2,0.6-0.3c0.2-0.1,0.4-0.3,0.6-0.5c0.2-0.2,0.4-0.4,0.6-0.6c0.4-0.4,0.8-1,1.2-1.5L188.1,40.2z M177.3,39.2
			c0,0.2,0,0.4,0,0.6c0,0.2,0.1,0.4,0.2,0.5c0.1,0.2,0.2,0.3,0.3,0.4c0.1,0.1,0.3,0.1,0.5,0.1c0.3,0,0.6-0.1,0.8-0.4
			c0.3-0.3,0.5-0.6,0.7-1c0.2-0.4,0.3-0.8,0.4-1.2c0.1-0.4,0.2-0.7,0.2-1l0.9-4.1c-0.3,0-0.7,0.1-1,0.3c-0.3,0.2-0.6,0.4-0.9,0.7
			c-0.3,0.3-0.6,0.6-0.8,1c-0.2,0.4-0.5,0.8-0.7,1.4c-0.2,0.5-0.4,1-0.5,1.4C177.3,38.4,177.3,38.8,177.3,39.2z"/>
		<path fill="#F0F0B1" stroke="#F0F0B1" stroke-miterlimit="10" d="M187.1,40.6c0-0.6,0-1.2,0.1-1.9c0.1-0.7,0.2-1.5,0.3-2.4
			s0.2-1.6,0.3-2.3c0.1-0.7,0.2-1.3,0.4-1.8c0.1-0.4,0.3-0.7,0.5-1c0.3-0.3,0.6-0.4,1.1-0.4c0.5,0,0.8,0.1,0.9,0.4s0.3,0.6,0.3,1.1
			c0,0.1,0,0.3,0,0.5c0,0.2-0.1,0.4-0.1,0.7c0,0.3-0.1,0.5-0.1,0.8c0,0.3-0.1,0.6-0.1,0.9c0,0.3-0.1,0.6-0.1,0.8c0,0.2,0,0.3,0,0.3
			h0.3c0.1-0.1,0.1-0.2,0.2-0.4c0.1-0.2,0.2-0.5,0.4-0.9c0.1-0.4,0.3-0.7,0.5-1s0.3-0.6,0.5-0.9s0.3-0.5,0.4-0.7s0.2-0.4,0.3-0.5
			c0.3-0.5,0.6-0.8,0.9-0.9c0.3-0.2,0.7-0.3,1.1-0.3c0.4,0,0.8,0.2,1,0.5c0.2,0.4,0.4,0.8,0.4,1.5c0,0.1,0,0.2-0.1,0.5
			s-0.1,0.5-0.1,0.8c-0.1,0.3-0.1,0.7-0.2,1.2c-0.1,0.5-0.1,0.9-0.2,1.3c-0.1,0.4-0.1,0.8-0.1,1.1c0,0.4-0.1,0.7-0.1,1
			c0,0.5,0.1,0.9,0.2,1.3s0.3,0.5,0.6,0.5c0.1,0,0.2,0,0.4-0.1c0.3-0.1,0.5-0.2,0.5-0.3c0.4-0.3,0.6-0.4,0.6-0.4
			c0,0,0.3-0.2,0.8-0.5c0.7-0.4,1.5-1,2.4-1.6l0,2.8l-0.6,0.5c-0.1,0-0.4,0.3-1.2,0.7c-1.1,0.6-1.7,0.9-2,1
			c-0.7,0.3-1.1,0.5-1.2,0.5c-0.4,0.1-0.9,0.2-1.3,0.2c-0.5,0-0.8-0.3-1.2-1c-0.3-0.7-0.5-1.6-0.5-2.9c0-0.5,0-1,0.1-1.6
			c0.1-0.6,0.2-1.2,0.3-1.9h-0.2l-3.3,6.5c-0.2,0.4-0.4,0.6-0.6,0.7c-0.2,0.1-0.5,0.2-0.7,0.2c-0.3,0-0.6-0.1-0.8-0.2
			s-0.4-0.3-0.5-0.6c-0.1-0.2-0.2-0.5-0.2-0.8C187.1,41.3,187.1,41,187.1,40.6z"/>
		<path fill="#F0F0B1" stroke="#F0F0B1" stroke-miterlimit="10" d="M200.7,54.8c-0.4-0.1-0.7-0.2-1-0.4c-0.3-0.2-0.6-0.5-0.7-0.8
			c-0.2-0.4-0.3-0.8-0.3-1.2c-0.1-0.9,0.2-1.8,0.7-2.8c0.3-0.6,0.5-0.9,0.7-1.2s0.3-0.5,0.6-0.9s0.6-0.8,0.8-1.1
			c0.6-0.7,1.1-1.2,1.5-1.6c0.4-0.4,0.8-0.8,1.4-1.3l0.3-1.5c-0.9,0.9-1.9,1.3-2.7,1.3c-0.7,0-1.3-0.2-1.8-0.6
			c-0.5-0.4-1-0.9-1.2-1.5c-0.5-1-0.5-2.3,0-3.7c0.4-1.3,0.9-2.4,1.3-3.2c0.4-0.9,1-1.6,1.7-2.2c1-0.9,2-1.4,3-1.4
			c0.4,0,0.8,0.1,1,0.4c0,0,0.1,0.1,0.1,0.1s0.1,0.1,0.1,0.1c0,0,0.1,0.1,0.1,0.1c0.1,0.1,0.1,0.1,0.1,0.1c0,0,0.1,0,0.2,0.1
			c0.1,0,0.1,0,0.2,0.1c0.1,0,0.2,0,0.3,0l0.6,0c0.4,0,0.6,0.1,0.8,0.3c0.1,0.1,0.1,0.2,0.2,0.4c0.1,0.3,0.1,1.1,0,2.6
			c0,0.5-0.1,1-0.3,1.7c-0.2,0.7-0.3,1.4-0.4,2.2c-0.1,0.8-0.2,1.9-0.3,3.2c0.2-0.1,0.5-0.3,0.8-0.5c1-0.7,2.1-2.1,3.4-4.1l0.8,2.8
			c-0.2,0.5-0.6,1-1.2,1.6c-0.6,0.6-1.1,1.1-1.5,1.4c-0.1,0-0.1,0.1-0.2,0.1c-0.8,0.5-1.4,0.9-1.7,1.1c-0.2,0.2-0.4,0.4-0.5,0.8
			c-0.1,0.4-0.2,1.1-0.3,2.2c0,0.3-0.1,0.6-0.1,0.7c0,0.4-0.1,0.8-0.1,1.1c0,0.4-0.1,0.8-0.3,1.3s-0.3,0.9-0.4,1.3
			c-0.2,0.4-0.4,0.8-0.6,1.2c-0.3,0.4-0.5,0.7-0.9,1c-0.3,0.3-0.7,0.5-1.1,0.7c-0.4,0.2-0.9,0.3-1.5,0.3
			C201.4,54.9,201,54.9,200.7,54.8z M202.5,48.5c-0.6,0.9-1,1.9-1.4,2.8c-0.3,0.8-0.1,1.2,0.4,1.2c0.2,0,0.4,0,0.5-0.1
			c0.2-0.1,0.3-0.1,0.4-0.3s0.3-0.3,0.4-0.4c0.1-0.2,0.2-0.4,0.3-0.7c0.1-0.3,0.2-0.6,0.3-0.8s0.2-0.6,0.3-1.1
			c0.1-0.2,0.1-0.5,0.2-0.8c0-0.3,0.1-0.6,0.1-1.1c0.1-0.4,0.1-0.7,0.1-0.8C203.7,46.9,203.1,47.6,202.5,48.5z M201.8,40.4
			c0.2,0.4,0.5,0.5,0.8,0.5c0.6,0,1-0.5,1.4-1.4c0.3-0.7,0.5-1.4,0.5-2.2l0.9-4.2c-1,0-1.8,0.7-2.6,2c-0.8,1.4-1.2,2.3-1.3,2.8
			C201.4,39,201.5,39.8,201.8,40.4z"/>
	</g>
	<line fill="none" stroke="#F0F0B1" stroke-width="5" stroke-miterlimit="10" x1="117.2" y1="6.5" x2="212.2" y2="6.5"/>
	<line fill="none" stroke="#F0F0B1" stroke-width="5" stroke-miterlimit="10" x1="117.2" y1="67.5" x2="212.2" y2="67.5"/>
</g>
<rect x="-0.2" y="-0.2" fill="#151617" width="76.2" height="76.2"/>
<g>
	<path fill="#F0F0B1" d="M17,40.2c-0.5,0.3-0.9,0.5-1.3,0.8c-0.4,0.2-0.7,0.4-1,0.5c-0.3,0.1-0.6,0.3-0.8,0.3
		c-0.2,0.1-0.5,0.1-0.6,0.1c-0.4,0-0.7-0.1-1-0.4c-0.3-0.2-0.6-0.6-0.8-1c-0.2-0.5-0.4-1-0.5-1.6c-0.1-0.6-0.2-1.4-0.2-2.2
		c0-0.3,0-0.6,0-1c0-0.4,0.1-0.7,0.1-1.1c-0.2,0-0.3,0-0.4-0.1s-0.2,0-0.3-0.1c-0.1,0-0.2,0-0.4-0.1c-0.2,0-0.4-0.1-0.6-0.1
		c-0.1,0-0.2-0.1-0.3-0.1c-0.1,0-0.1-0.1-0.2-0.2c0-0.1,0-0.1-0.1-0.2c0-0.1,0-0.1,0-0.2c0-0.1,0.1-0.1,0.2-0.2
		c0.1,0,0.2-0.1,0.4-0.1c0.2,0,0.3,0,0.5,0c0.2,0,0.4,0,0.6,0c0.2,0,0.3,0,0.5,0c0.1,0,0.2,0,0.3,0c0.1-0.7,0.3-1.4,0.5-2
		c0.2-0.7,0.5-1.2,0.7-1.8c0.3-0.5,0.6-0.9,0.9-1.2c0.3-0.3,0.7-0.5,1-0.5c0.2,0,0.4,0.1,0.6,0.2c0.2,0.1,0.3,0.3,0.5,0.5
		c0.1,0.2,0.2,0.5,0.3,0.7s0.1,0.6,0.1,0.9c0,0.2,0,0.5-0.1,0.8c-0.1,0.3-0.2,0.6-0.3,0.9c-0.1,0.3-0.3,0.6-0.4,0.9
		c-0.2,0.3-0.3,0.6-0.5,0.9c0,0,0.1,0,0.2,0c0.1,0,0.2,0,0.4,0c0.1,0,0.3,0,0.5,0c0.2,0,0.3,0,0.5,0c0.2,0,0.3,0,0.4,0
		c0.1,0,0.2,0,0.3,0c0.1,0,0.2,0.1,0.2,0.2c0,0.1,0.1,0.2,0.1,0.4c0,0.2-0.1,0.4-0.2,0.5s-0.2,0.2-0.3,0.2h-3
		c-0.2,0.2-0.3,0.4-0.5,0.6c-0.2,0.2-0.3,0.4-0.4,0.5c0,0.3,0,0.6-0.1,1c0,0.1,0,0.3,0,0.4s0,0.3,0,0.4c0,0.1,0,0.3,0,0.4
		c0,0.1,0,0.3,0,0.4c0,0.3,0,0.5,0.1,0.7s0.1,0.4,0.2,0.5c0.1,0.1,0.2,0.2,0.4,0.3c0.1,0.1,0.3,0.1,0.5,0.1c0.1,0,0.2,0,0.4-0.1
		s0.3-0.1,0.5-0.2c0.2-0.1,0.4-0.2,0.6-0.3c0.2-0.1,0.4-0.3,0.6-0.4c0.2-0.1,0.4-0.3,0.6-0.5c0.2-0.2,0.4-0.3,0.5-0.5V40.2z
		 M14.5,30.2c0-0.1,0-0.1,0-0.2c0-0.1,0-0.1-0.1-0.2c0-0.1-0.1-0.1-0.1-0.2c-0.1,0-0.1-0.1-0.2-0.1c-0.1,0-0.3,0.1-0.4,0.4
		c-0.1,0.2-0.3,0.5-0.4,0.9c-0.1,0.4-0.2,0.8-0.4,1.2c-0.1,0.4-0.2,0.9-0.3,1.3c0.1,0,0.2,0,0.2,0c0.1,0,0.2,0,0.2,0
		c0.2-0.3,0.3-0.5,0.5-0.9c0.2-0.3,0.3-0.6,0.5-0.9c0.1-0.3,0.2-0.6,0.3-0.8C14.4,30.6,14.5,30.4,14.5,30.2z"/>
	<path fill="#F0F0B1" d="M21.2,35.9c0.2,0.3,0.3,0.6,0.3,1c0.1,0.3,0.1,0.7,0.1,1.1c0,0.3,0,0.6-0.1,0.9s-0.2,0.6-0.3,0.9
		c-0.1,0.3-0.3,0.6-0.5,0.8s-0.4,0.5-0.6,0.7c-0.2,0.2-0.5,0.3-0.8,0.4c-0.3,0.1-0.6,0.2-0.9,0.2c-0.5,0-0.9-0.1-1.2-0.3
		c-0.3-0.2-0.6-0.5-0.8-0.8c-0.2-0.3-0.4-0.7-0.5-1.1c-0.1-0.4-0.1-0.8-0.1-1.2c0-0.7,0.1-1.3,0.3-1.8c0.2-0.5,0.4-0.9,0.7-1.3
		s0.7-0.7,1.2-0.9c0.5-0.2,1-0.3,1.6-0.3c0.5,0,1,0.1,1.4,0.2c0.4,0.2,0.8,0.4,1.2,0.6c0.4,0.3,0.7,0.6,1.1,1
		c0.3,0.4,0.6,0.8,0.9,1.1L24,38.3c-0.1-0.2-0.3-0.4-0.6-0.6s-0.5-0.5-0.8-0.7c-0.3-0.3-0.5-0.5-0.8-0.7S21.4,35.9,21.2,35.9
		L21.2,35.9z M18.8,40.4c0.2,0,0.3-0.1,0.5-0.3c0.2-0.2,0.3-0.4,0.4-0.7c0.1-0.3,0.2-0.6,0.3-1c0.1-0.4,0.1-0.7,0.1-1
		c0-0.2,0-0.5-0.1-0.7s-0.1-0.4-0.2-0.5c-0.1-0.2-0.2-0.3-0.3-0.4c-0.1-0.1-0.3-0.1-0.4-0.1c-0.2,0-0.4,0.1-0.6,0.3
		c-0.2,0.2-0.4,0.4-0.5,0.7c-0.1,0.3-0.3,0.6-0.3,0.9s-0.1,0.7-0.1,1.2c0,0.2,0,0.4,0.1,0.6s0.1,0.4,0.2,0.5s0.2,0.3,0.4,0.3
		C18.4,40.4,18.5,40.4,18.8,40.4z"/>
	<path fill="#F0F0B1" d="M23.1,40.3c0-0.3,0-0.7,0.1-1.2s0.1-0.9,0.2-1.5c0.1-0.5,0.1-1,0.2-1.5c0.1-0.4,0.2-0.8,0.2-1.1
		c0.1-0.2,0.2-0.4,0.3-0.6c0.2-0.2,0.4-0.2,0.7-0.2c0.3,0,0.5,0.1,0.6,0.3c0.1,0.2,0.2,0.4,0.2,0.7c0,0.1,0,0.2,0,0.3
		c0,0.1,0,0.3-0.1,0.4c0,0.2,0,0.3-0.1,0.5s-0.1,0.4-0.1,0.6c0,0.2,0,0.4-0.1,0.5s0,0.2,0,0.2h0.2c0-0.1,0.1-0.2,0.1-0.3
		s0.1-0.3,0.2-0.6c0.1-0.2,0.2-0.5,0.3-0.6c0.1-0.2,0.2-0.4,0.3-0.5c0.1-0.2,0.2-0.3,0.2-0.5c0.1-0.1,0.1-0.2,0.2-0.3
		c0.2-0.3,0.4-0.5,0.6-0.6s0.5-0.2,0.7-0.2s0.5,0.1,0.6,0.3s0.2,0.5,0.2,0.9c0,0.1,0,0.2,0,0.3c0,0.1-0.1,0.3-0.1,0.5
		s-0.1,0.4-0.1,0.7c0,0.3-0.1,0.6-0.1,0.8c0,0.2-0.1,0.5-0.1,0.7c0,0.2,0,0.4,0,0.6c0,0.3,0,0.6,0.1,0.8c0.1,0.2,0.2,0.3,0.4,0.3
		c0.1,0,0.2,0,0.3-0.1c0.2-0.1,0.3-0.1,0.3-0.2c0.2-0.2,0.3-0.3,0.4-0.3c0,0,0.2-0.1,0.5-0.3c0.4-0.3,0.9-0.6,1.5-1l0,1.8l-0.4,0.3
		c0,0-0.3,0.2-0.7,0.4c-0.7,0.4-1.1,0.6-1.2,0.6c-0.4,0.2-0.7,0.3-0.8,0.3c-0.3,0.1-0.5,0.1-0.8,0.1c-0.3,0-0.5-0.2-0.7-0.6
		c-0.2-0.4-0.3-1-0.3-1.8c0-0.3,0-0.7,0.1-1s0.1-0.8,0.2-1.2H27l-2.1,4.1c-0.1,0.2-0.2,0.4-0.4,0.4c-0.1,0.1-0.3,0.1-0.5,0.1
		c-0.2,0-0.4,0-0.5-0.1c-0.1-0.1-0.2-0.2-0.3-0.4c-0.1-0.2-0.1-0.3-0.1-0.5C23.1,40.7,23.1,40.5,23.1,40.3z"/>
	<path fill="#F0F0B1" d="M34.7,40.2c-0.2,0.2,0.4,0.4,0.1,0.6c-0.3,0.2-0.6,0.4-0.9,0.5s-0.7,0.3-1,0.4c-0.3,0.1-0.7,0.2-1,0.2
		c-0.3,0-0.5,0-0.7-0.1c-0.2-0.1-0.3-0.2-0.5-0.3s-0.2-0.3-0.2-0.5c0-0.2-0.1-0.4-0.1-0.6c0-0.3,0-0.7,0.1-1.2
		c0.2-0.9,0.2-1.4,0.3-1.5c0.1-0.2,0.2-0.7,0.4-1.5c0.2-0.6,0.3-1,0.4-1.2c0-0.1,0.1-0.3,0.2-0.4c0.1-0.1,0.2-0.2,0.4-0.2
		s0.3-0.1,0.4-0.1c0.1,0,0.3,0,0.4,0c0.2,0,0.4,0,0.4,0.1c0.1,0.1,0.1,0.2,0.1,0.3c0,0.1,0,0.3-0.1,0.5s-0.1,0.4-0.2,0.7
		c-0.1,0.3-0.2,0.6-0.3,1c-0.1,0.4-0.2,0.8-0.3,1.1c0,0.3-0.1,0.6-0.2,0.9c-0.1,0.3-0.1,0.6-0.1,0.8c0,0.2,0,0.4,0.1,0.6
		c0.1,0.1,0.4-0.1,0.5-0.2c0.1-0.1,1.1-1.2,1.4-1.3c0.2-0.1-0.4,1.2-0.2,1c0.2-0.2,0.5-0.4,0.7-0.6s0.4-0.4,0.6-0.5L34.7,40.2z
		 M32,32c0-0.1,0-0.3,0.1-0.4c0.1-0.2,0.1-0.3,0.3-0.4c0.1-0.1,0.3-0.2,0.5-0.3c0.2-0.1,0.4-0.1,0.7-0.1c0.2,0,0.4,0,0.5,0.1
		c0.2,0,0.3,0.1,0.4,0.2c0.1,0.1,0.2,0.2,0.3,0.3c0.1,0.1,0.1,0.3,0.1,0.5c0,0.2,0,0.4-0.1,0.5c-0.1,0.2-0.1,0.3-0.3,0.5
		c-0.1,0.1-0.3,0.2-0.5,0.3c-0.2,0.1-0.4,0.1-0.7,0.1c-0.5,0-0.8-0.1-1-0.3C32.1,32.7,32,32.4,32,32z"/>
	<path fill="#F0F0B1" d="M34.1,39c0.3-0.3,0.5-0.5,0.7-0.6c0.2-0.2,0.4-0.4,0.5-0.6c0.2-0.2,0.3-0.4,0.4-0.6
		c0.1-0.1,0.2-0.3,0.4-0.5c0.1-0.2,0.3-0.4,0.5-0.7s0.5-0.6,0.8-1.1c0.1-0.1,0.1-0.2,0.2-0.3c0.1-0.1,0.2-0.2,0.3-0.2
		s0.2-0.1,0.3-0.2s0.3-0.1,0.4-0.1c0.3,0,0.4,0,0.6,0.1c0.1,0.1,0.2,0.1,0.3,0.2c0.1,0.1,0.1,0.2,0.1,0.2c0,0.1,0,0.2,0,0.2
		c0,0.1-0.1,0.3-0.1,0.4c-0.1,0.2-0.2,0.3-0.3,0.4c-0.1,0.1-0.2,0.3-0.3,0.4s-0.2,0.2-0.2,0.3c0,0.2,0,0.3,0,0.4
		c0,0.1,0.1,0.3,0.1,0.4c0,0.1,0.1,0.3,0.1,0.4c0,0.1,0.1,0.3,0.1,0.5c0,0.2,0,0.5,0,0.8c0,0.3,0,0.7,0,1c0.2-0.1,0.4-0.2,0.6-0.3
		c0.2-0.1,0.4-0.2,0.7-0.3c0.2-0.1,0.5-0.2,0.7-0.4c0.2-0.1,0.5-0.3,0.7-0.5l0,1.8c-0.3,0.2-0.7,0.5-1.1,0.7
		c-0.4,0.2-0.9,0.4-1.3,0.6c-0.5,0.2-0.9,0.3-1.4,0.4C37.5,41.9,37,42,36.6,42c-0.3,0-0.6,0-0.9-0.1c-0.3-0.1-0.5-0.1-0.7-0.3
		s-0.4-0.3-0.5-0.5s-0.2-0.4-0.2-0.7c-0.1,0-0.1,0-0.2,0c-0.1,0-0.1,0-0.2,0c-0.1,0-0.2,0-0.2,0c-0.1,0-0.1,0-0.2-0.1
		c-0.1,0-0.1-0.1-0.1-0.2s0-0.2,0-0.3c0-0.1,0.1,0.1,0.1,0c0.1-0.1-0.1-0.2,0-0.3s-0.6,0.5-0.5,0.4C33,40.1,34.1,39,34.1,39z M35,40
		c0.1,0,0.1,0,0.2,0.1c0.1,0.1,0.2,0.2,0.3,0.3c0.1,0.1,0.2,0.2,0.3,0.3c0.1,0.1,0.3,0.1,0.4,0.1c0.2,0,0.4,0,0.5-0.1
		c0.1-0.1,0.2-0.2,0.3-0.3c0.1-0.1,0.1-0.2,0.2-0.4c0-0.2,0-0.3,0-0.5c0-0.1,0-0.3,0-0.4c0-0.1,0-0.3,0-0.6c0-0.2,0-0.4,0-0.5
		s-0.1-0.2-0.1-0.3L35,40z"/>
	<path fill="#F0F0B1" d="M42.8,41.9c-0.3,0-0.5-0.1-0.8-0.4c-0.2-0.2-0.5-0.6-0.6-1c-0.2-0.4-0.3-0.9-0.4-1.4
		c-0.1-0.5-0.2-1.1-0.2-1.7c0-0.5,0.1-1.2,0.2-2.1c0.2-0.9,0.2-1.3,0.2-1.3s0.1-0.4,0.3-1.3c0.2-0.9,0.5-1.5,0.7-2.1
		c0.2-0.5,0.5-1,0.7-1.4c0.3-0.4,0.6-0.8,0.8-1.2c0.3-0.3,0.6-0.6,0.9-0.8c0.3-0.2,0.6-0.3,1-0.3c0.2,0,0.4,0,0.6,0.1
		c0.2,0.1,0.3,0.2,0.4,0.4c0.1,0.2,0.2,0.3,0.2,0.5c0,0.2,0.1,0.4,0.1,0.6c0,0.5-0.1,1-0.2,1.5c-0.1,0.5-0.3,1-0.5,1.5
		c-0.2,0.5-0.4,1-0.7,1.6c-0.3,0.5-0.5,1-0.8,1.5c-0.3,0.5-0.6,1-0.9,1.5c-0.3,0.5-0.5,1-0.8,1.5c0,0.1-0.1,0.1-0.1,0.2
		c0,0.1-0.1,0.2-0.1,0.3c0,0.1-0.1,0.2-0.1,0.3c0,0.1,0,0.2-0.1,0.3V39c0,0.1,0,0.3,0,0.4c0,0.1,0.1,0.2,0.1,0.3
		c0,0.1,0.1,0.2,0.1,0.2c0,0.1,0.1,0.1,0.1,0.1c0.1,0,0.2,0,0.3-0.1c0.1,0,0.3-0.1,0.4-0.2c0.1-0.1,0.3-0.2,0.5-0.2s0.3-0.2,0.4-0.3
		c0.3-0.2,0.7-0.5,1.1-0.8l0.7,1.7c-0.5,0.3-1,0.6-1.4,0.8c-0.2,0.1-0.4,0.2-0.6,0.3s-0.4,0.2-0.7,0.3c-0.2,0.1-0.4,0.1-0.6,0.2
		C43.1,41.9,42.9,41.9,42.8,41.9z M42.8,35.7c0.2-0.4,0.5-0.9,0.8-1.4c0.3-0.5,0.5-1.1,0.8-1.6c0.2-0.6,0.4-1.1,0.6-1.7
		c0.2-0.6,0.3-1.1,0.3-1.6c0-0.2,0-0.3,0-0.4c0-0.1,0-0.2-0.1-0.2c-0.1,0-0.3,0.1-0.5,0.3c-0.2,0.2-0.3,0.5-0.5,0.8
		c-0.2,0.3-0.4,0.9-0.6,1.7c-0.2,0.8-0.3,1.1-0.3,1.1c0,0-0.1,0.4-0.2,1.1C42.9,34.5,42.8,35.2,42.8,35.7z"/>
	<path fill="#F0F0B1" d="M53.5,40c-0.1,0.2-0.3,0.4-0.5,0.6c-0.2,0.2-0.4,0.4-0.7,0.6c-0.3,0.2-0.5,0.4-0.8,0.5
		c-0.3,0.1-0.6,0.2-0.9,0.2c-0.3,0-0.6-0.1-0.9-0.3c-0.2-0.2-0.4-0.5-0.6-1c-0.1,0.1-0.3,0.3-0.5,0.4c-0.2,0.2-0.4,0.3-0.6,0.4
		c-0.2,0.1-0.4,0.2-0.7,0.3c-0.2,0.1-0.5,0.1-0.7,0.1c-0.3,0-0.5-0.1-0.7-0.2c-0.2-0.1-0.4-0.2-0.6-0.4c-0.2-0.2-0.3-0.4-0.4-0.7
		c-0.1-0.3-0.2-0.6-0.2-0.9c0-0.4,0.1-0.8,0.2-1.2c0.1-0.4,0.3-0.9,0.5-1.3c0.2-0.5,0.5-0.9,0.7-1.2c0.3-0.3,0.6-0.7,0.9-0.9
		c0.3-0.3,0.6-0.5,1-0.6c0.3-0.2,0.7-0.2,1.1-0.2c0.1,0,0.2,0,0.3,0.1c0.1,0,0.1,0.1,0.2,0.2c0,0.1,0.1,0.1,0.1,0.2
		c0,0.1,0.1,0.1,0.2,0.1c0.1,0,0.1,0,0.2,0.1c0.1,0,0.1,0,0.2,0c0.1,0,0.1,0,0.2,0c0.1,0,0.1,0,0.2,0c0.1,0,0.2,0,0.2,0
		c0.1,0,0.1,0.1,0.2,0.1c0.1,0.1,0.1,0.1,0.1,0.2c0,0.1,0,0.2,0,0.4c0,0.2,0,0.5-0.1,0.8s-0.1,0.6-0.2,0.9c-0.1,0.3-0.1,0.7-0.2,1.1
		c-0.1,0.4-0.1,0.8-0.1,1c0,0.2,0,0.4,0.1,0.6s0.1,0.2,0.3,0.2c0.1,0,0.2,0,0.3-0.1c0.1-0.1,0.2-0.1,0.4-0.2
		c0.1-0.1,0.2-0.2,0.4-0.3c0.1-0.1,0.2-0.2,0.3-0.3c0.3-0.3,0.5-0.6,0.8-0.9L53.5,40z M46.7,39.4c0,0.1,0,0.3,0,0.4
		c0,0.1,0.1,0.2,0.1,0.3c0,0.1,0.1,0.2,0.2,0.2c0.1,0.1,0.2,0.1,0.3,0.1c0.2,0,0.4-0.1,0.5-0.3c0.2-0.2,0.3-0.4,0.4-0.6
		c0.1-0.2,0.2-0.5,0.3-0.7c0.1-0.3,0.1-0.5,0.1-0.6l0.6-2.5c-0.2,0-0.4,0.1-0.6,0.2c-0.2,0.1-0.4,0.2-0.6,0.4
		c-0.2,0.2-0.3,0.4-0.5,0.6c-0.2,0.2-0.3,0.5-0.4,0.9c-0.1,0.3-0.2,0.6-0.3,0.9C46.8,38.9,46.7,39.1,46.7,39.4z"/>
	<path fill="#F0F0B1" d="M52.8,40.3c0-0.3,0-0.7,0.1-1.2s0.1-0.9,0.2-1.5c0.1-0.5,0.1-1,0.2-1.5c0.1-0.4,0.2-0.8,0.2-1.1
		c0.1-0.2,0.2-0.4,0.3-0.6c0.2-0.2,0.4-0.2,0.7-0.2s0.5,0.1,0.6,0.3c0.1,0.2,0.2,0.4,0.2,0.7c0,0.1,0,0.2,0,0.3c0,0.1,0,0.3-0.1,0.4
		c0,0.2,0,0.3-0.1,0.5c0,0.2-0.1,0.4-0.1,0.6c0,0.2,0,0.4-0.1,0.5c0,0.1,0,0.2,0,0.2h0.2c0-0.1,0.1-0.2,0.1-0.3
		c0.1-0.1,0.1-0.3,0.2-0.6c0.1-0.2,0.2-0.5,0.3-0.6c0.1-0.2,0.2-0.4,0.3-0.5c0.1-0.2,0.2-0.3,0.2-0.5c0.1-0.1,0.1-0.2,0.2-0.3
		c0.2-0.3,0.4-0.5,0.6-0.6s0.5-0.2,0.7-0.2s0.5,0.1,0.6,0.3c0.2,0.2,0.2,0.5,0.2,0.9c0,0.1,0,0.2,0,0.3s-0.1,0.3-0.1,0.5
		c0,0.2-0.1,0.4-0.1,0.7c0,0.3-0.1,0.6-0.1,0.8c0,0.2-0.1,0.5-0.1,0.7c0,0.2,0,0.4,0,0.6c0,0.3,0,0.6,0.1,0.8s0.2,0.3,0.4,0.3
		c0.1,0,0.2,0,0.3-0.1c0.2-0.1,0.3-0.1,0.3-0.2c0.2-0.2,0.3-0.3,0.4-0.3c0,0,0.2-0.1,0.5-0.3c0.4-0.3,0.9-0.6,1.5-1l0,1.8l-0.4,0.3
		c0,0-0.3,0.2-0.7,0.4c-0.7,0.4-1.1,0.6-1.2,0.6c-0.4,0.2-0.7,0.3-0.8,0.3c-0.3,0.1-0.5,0.1-0.8,0.1s-0.5-0.2-0.7-0.6
		c-0.2-0.4-0.3-1-0.3-1.8c0-0.3,0-0.7,0.1-1s0.1-0.8,0.2-1.2h-0.1l-2.1,4.1c-0.1,0.2-0.2,0.4-0.4,0.4c-0.1,0.1-0.3,0.1-0.5,0.1
		c-0.2,0-0.4,0-0.5-0.1c-0.1-0.1-0.2-0.2-0.3-0.4c-0.1-0.2-0.1-0.3-0.1-0.5C52.8,40.7,52.8,40.5,52.8,40.3z"/>
	<path fill="#F0F0B1" d="M61.3,49.1c-0.2-0.1-0.4-0.2-0.6-0.3c-0.2-0.1-0.3-0.3-0.5-0.5S60,47.8,60,47.5c0-0.5,0.1-1.1,0.5-1.7
		c0.2-0.3,0.3-0.6,0.4-0.7s0.2-0.3,0.4-0.6s0.3-0.5,0.5-0.7c0.4-0.4,0.7-0.7,0.9-1c0.2-0.2,0.5-0.5,0.8-0.8l0.2-0.9
		c-0.6,0.6-1.2,0.8-1.7,0.8c-0.4,0-0.8-0.1-1.1-0.4c-0.3-0.2-0.6-0.6-0.8-0.9c-0.3-0.7-0.3-1.4,0-2.3c0.3-0.8,0.5-1.5,0.8-2
		c0.3-0.5,0.6-1,1.1-1.4c0.6-0.6,1.3-0.9,1.9-0.9c0.3,0,0.5,0.1,0.6,0.2c0,0,0,0,0.1,0.1c0,0,0.1,0.1,0.1,0.1c0,0,0,0,0.1,0.1
		c0,0,0.1,0.1,0.1,0.1c0,0,0.1,0,0.1,0c0,0,0.1,0,0.1,0c0.1,0,0.1,0,0.2,0l0.3,0c0.2,0,0.4,0.1,0.5,0.2c0,0.1,0.1,0.1,0.1,0.2
		c0.1,0.2,0.1,0.7,0,1.6c0,0.3-0.1,0.6-0.2,1.1c-0.1,0.4-0.2,0.9-0.2,1.4c0,0.5-0.1,1.2-0.2,2c0.2-0.1,0.3-0.2,0.5-0.3
		c0.6-0.5,1.3-1.3,2.1-2.6l0.5,1.7c-0.1,0.3-0.4,0.6-0.8,1c-0.4,0.4-0.7,0.7-1,0.9c0,0-0.1,0.1-0.1,0.1c-0.5,0.3-0.9,0.6-1.1,0.7
		c-0.1,0.1-0.2,0.3-0.3,0.5c-0.1,0.2-0.1,0.7-0.2,1.4c0,0.2,0,0.3-0.1,0.4c0,0.2-0.1,0.5-0.1,0.7c0,0.2-0.1,0.5-0.2,0.8
		c-0.1,0.3-0.2,0.6-0.3,0.8c-0.1,0.2-0.2,0.5-0.4,0.7c-0.2,0.2-0.3,0.4-0.5,0.6c-0.2,0.2-0.4,0.3-0.7,0.4c-0.3,0.1-0.6,0.2-0.9,0.2
		C61.8,49.2,61.5,49.1,61.3,49.1z M62.5,45.2c-0.4,0.6-0.6,1.2-0.8,1.8c-0.2,0.5-0.1,0.7,0.3,0.7c0.1,0,0.2,0,0.3,0
		c0.1,0,0.2-0.1,0.3-0.2s0.2-0.2,0.2-0.3s0.1-0.2,0.2-0.4c0.1-0.2,0.1-0.4,0.2-0.5c0.1-0.2,0.1-0.4,0.2-0.7c0-0.2,0.1-0.3,0.1-0.5
		c0-0.2,0-0.4,0.1-0.7c0-0.3,0.1-0.4,0.1-0.5C63.2,44.2,62.8,44.6,62.5,45.2z M62,40.1c0.1,0.2,0.3,0.3,0.5,0.3
		c0.4,0,0.6-0.3,0.9-0.9c0.2-0.4,0.3-0.9,0.3-1.4l0.6-2.6c-0.6,0-1.1,0.4-1.6,1.2c-0.5,0.9-0.8,1.5-0.8,1.8
		C61.8,39.2,61.8,39.8,62,40.1z"/>
</g>
<line fill="none" stroke="#F0F0B1" stroke-width="5" stroke-miterlimit="10" x1="8.2" y1="18.5" x2="68.2" y2="18.5"/>
<line fill="none" stroke="#F0F0B1" stroke-width="5" stroke-miterlimit="10" x1="8.2" y1="57.5" x2="68.2" y2="57.5"/>
<g>
	<line fill="none" stroke="#F0F0B1" stroke-width="2" stroke-miterlimit="10" x1="593.2" y1="4" x2="791.2" y2="4"/>
	<line fill="none" stroke="#F0F0B1" stroke-width="2" stroke-miterlimit="10" x1="822.2" y1="4" x2="890.2" y2="4"/>
	<g>
		<path fill="#F0F0B1" stroke="#F0F0B1" stroke-miterlimit="10" d="M683.7-10c-1.4,0.8-2.6,1.5-3.6,2.1c-1.1,0.6-2,1.1-2.8,1.5
			c-0.8,0.4-1.6,0.7-2.2,0.9c-0.6,0.2-1.2,0.3-1.7,0.3c-1.1,0-2-0.3-2.8-1s-1.5-1.6-2-2.8c-0.5-1.2-1-2.7-1.2-4.4
			c-0.3-1.7-0.4-3.7-0.4-5.8c0-0.8,0-1.7,0.1-2.7c0.1-1,0.2-1.9,0.3-2.8c-0.4-0.1-0.8-0.1-1-0.2c-0.2-0.1-0.5-0.1-0.7-0.2
			c-0.3-0.1-0.6-0.1-1-0.2c-0.4-0.1-1-0.1-1.7-0.2c-0.3,0-0.6-0.1-0.8-0.3c-0.2-0.1-0.3-0.3-0.4-0.5c-0.1-0.2-0.1-0.4-0.1-0.6
			c0-0.2,0-0.4,0-0.5c0-0.2,0.1-0.4,0.4-0.5c0.3-0.1,0.6-0.2,1.1-0.3c0.4-0.1,0.9-0.1,1.4-0.1s1,0,1.5,0c0.5,0,0.9,0,1.3,0
			c0.4,0,0.6,0,0.8,0c0.4-1.9,0.9-3.7,1.4-5.5c0.6-1.8,1.2-3.3,2-4.7c0.7-1.4,1.5-2.5,2.4-3.3c0.9-0.8,1.8-1.2,2.7-1.2
			c0.6,0,1.2,0.2,1.7,0.5c0.5,0.3,0.9,0.8,1.3,1.3c0.4,0.6,0.6,1.2,0.8,2c0.2,0.8,0.3,1.5,0.3,2.3c0,0.7-0.1,1.4-0.3,2.1
			c-0.2,0.7-0.5,1.5-0.8,2.3c-0.3,0.8-0.7,1.6-1.2,2.4s-0.9,1.6-1.4,2.4c0.1,0,0.3-0.1,0.6,0c0.3,0,0.6,0,1,0.1c0.4,0,0.8,0,1.3,0
			c0.4,0,0.9,0,1.3,0c0.4,0,0.8,0,1.2,0s0.7,0,0.9,0c0.3,0,0.5,0.2,0.6,0.5s0.2,0.7,0.2,1.1c0,0.5-0.1,1-0.4,1.3
			c-0.3,0.3-0.6,0.5-0.9,0.5h-8.1c-0.4,0.6-0.8,1.1-1.2,1.7c-0.4,0.5-0.8,1-1.2,1.5c-0.1,0.9-0.1,1.7-0.1,2.6c0,0.4,0,0.7,0,1.1
			s0,0.8,0,1.1c0,0.4,0,0.7,0,1.1c0,0.4,0,0.7,0,1c0,0.8,0.1,1.4,0.2,1.9c0.1,0.5,0.3,0.9,0.6,1.3c0.3,0.3,0.6,0.6,1,0.7
			c0.4,0.1,0.8,0.2,1.3,0.2c0.3,0,0.7-0.1,1.1-0.2s0.9-0.3,1.5-0.6c0.5-0.2,1.1-0.5,1.7-0.9c0.6-0.3,1.2-0.7,1.7-1.1
			c0.6-0.4,1.1-0.8,1.6-1.3c0.5-0.4,1-0.9,1.4-1.4V-10z M676.9-36.6c0-0.2,0-0.3,0-0.5c0-0.2-0.1-0.4-0.1-0.5
			c-0.1-0.2-0.2-0.3-0.3-0.4c-0.1-0.1-0.4-0.2-0.6-0.2c-0.4,0-0.7,0.3-1.1,1c-0.4,0.6-0.7,1.5-1.1,2.5c-0.3,1-0.7,2.1-1,3.3
			c-0.3,1.2-0.6,2.4-0.8,3.5c0.2,0,0.4,0,0.6,0.1c0.2,0,0.4,0,0.7,0.1c0.4-0.7,0.9-1.5,1.3-2.3c0.5-0.8,0.9-1.6,1.2-2.4
			c0.4-0.8,0.7-1.5,0.9-2.2C676.8-35.6,676.9-36.2,676.9-36.6z"/>
		<path fill="#F0F0B1" stroke="#F0F0B1" stroke-miterlimit="10" d="M695-21.5c0.4,0.8,0.7,1.7,0.9,2.6c0.2,0.9,0.3,1.9,0.3,3.1
			c0,0.8-0.1,1.7-0.3,2.5c-0.2,0.8-0.4,1.7-0.8,2.4c-0.3,0.8-0.8,1.5-1.3,2.2c-0.5,0.7-1.1,1.3-1.7,1.8c-0.6,0.5-1.3,0.9-2.1,1.2
			c-0.8,0.3-1.6,0.4-2.4,0.4c-1.2,0-2.3-0.3-3.2-0.8c-0.9-0.5-1.6-1.2-2.2-2.1s-1-1.9-1.2-2.9s-0.4-2.2-0.4-3.3
			c0-1.9,0.2-3.4,0.7-4.8s1.1-2.5,2-3.5c0.9-1,1.9-1.8,3.2-2.3c1.2-0.6,2.7-0.9,4.2-0.9c1.3,0,2.6,0.2,3.7,0.6
			c1.2,0.4,2.3,1,3.3,1.7c1,0.7,2,1.6,2.8,2.6c0.9,1.1,1.7,2.1,2.5,3l-0.4,3c-0.4-0.5-0.9-1.1-1.5-1.6c-0.6-0.6-1.3-1.2-2.1-2
			s-1.4-1.3-2.1-1.8c-0.7-0.5-1.3-0.9-1.8-1.3L695-21.5z M688.5-9.3c0.5,0,0.9-0.2,1.4-0.7c0.4-0.5,0.8-1.1,1.2-1.8
			c0.3-0.7,0.6-1.6,0.8-2.7c0.2-1,0.3-2,0.3-2.8c0-0.6,0-1.2-0.1-1.8c-0.1-0.6-0.2-1-0.4-1.4c-0.2-0.4-0.4-0.7-0.8-1
			c-0.3-0.2-0.7-0.4-1.1-0.4c-0.6,0-1.1,0.2-1.6,0.7c-0.5,0.5-1,1.1-1.4,1.9c-0.4,0.8-0.7,1.6-0.9,2.5c-0.2,0.9-0.3,2-0.3,3.1
			c0,0.6,0.1,1.1,0.2,1.7c0.1,0.5,0.3,1,0.5,1.4c0.2,0.4,0.6,0.7,0.9,0.9C687.5-9.4,687.9-9.3,688.5-9.3z"/>
		<path fill="#F0F0B1" stroke="#F0F0B1" stroke-miterlimit="10" d="M700.2-9.6c0-0.9,0.1-2,0.2-3.2s0.3-2.5,0.4-4
			c0.2-1.5,0.4-2.8,0.6-3.9c0.2-1.2,0.4-2.2,0.6-3c0.2-0.6,0.5-1.2,0.9-1.6c0.4-0.4,1-0.7,1.8-0.7c0.8,0,1.3,0.2,1.6,0.7
			c0.3,0.5,0.4,1.1,0.4,1.9c0,0.2,0,0.5-0.1,0.9c0,0.4-0.1,0.8-0.2,1.2c-0.1,0.4-0.1,0.9-0.2,1.3c-0.1,0.5-0.1,1-0.2,1.6
			c-0.1,0.6-0.1,1-0.2,1.3c0,0.3-0.1,0.5-0.1,0.6h0.4c0.1-0.2,0.2-0.4,0.4-0.7c0.2-0.3,0.4-0.8,0.6-1.5c0.2-0.6,0.5-1.2,0.8-1.7
			c0.3-0.5,0.5-1,0.8-1.4c0.2-0.5,0.5-0.9,0.7-1.2c0.2-0.4,0.3-0.6,0.4-0.8c0.4-0.8,1-1.3,1.5-1.6c0.6-0.3,1.2-0.4,1.9-0.4
			s1.3,0.3,1.7,0.9c0.4,0.6,0.6,1.4,0.6,2.4c0,0.2,0,0.4-0.1,0.8c-0.1,0.4-0.1,0.8-0.2,1.3c-0.1,0.5-0.2,1.2-0.3,2s-0.2,1.5-0.3,2.1
			c-0.1,0.6-0.2,1.3-0.2,1.9c-0.1,0.6-0.1,1.2-0.1,1.7c0,0.9,0.1,1.6,0.3,2.1s0.6,0.8,1,0.8c0.2,0,0.4-0.1,0.7-0.2
			c0.5-0.2,0.8-0.3,0.9-0.4c0.6-0.5,0.9-0.7,1-0.7c0,0,0.5-0.3,1.4-0.8c1.1-0.7,2.5-1.6,4-2.6l0,4.7l-1.1,0.8
			c-0.1,0.1-0.7,0.4-2,1.1c-1.8,1-2.9,1.5-3.3,1.7c-1.1,0.5-1.8,0.8-2,0.8c-0.7,0.2-1.4,0.3-2.2,0.3s-1.4-0.6-1.9-1.7
			s-0.8-2.7-0.8-4.9c0-0.8,0.1-1.8,0.2-2.7s0.3-2,0.4-3.1h-0.3L705-6.7c-0.3,0.6-0.6,1-0.9,1.2c-0.4,0.2-0.8,0.3-1.2,0.3
			c-0.6,0-1-0.1-1.4-0.4c-0.4-0.2-0.6-0.6-0.8-1c-0.2-0.4-0.3-0.9-0.4-1.4C700.2-8.5,700.2-9.1,700.2-9.6z"/>
		<path fill="#F0F0B1" stroke="#F0F0B1" stroke-miterlimit="10" d="M731.3-9.9c-0.5,0.5,1,1.1,0.2,1.6c-0.8,0.5-1.6,1-2.4,1.5
			c-0.9,0.4-1.8,0.8-2.7,1.1c-0.9,0.3-1.8,0.4-2.6,0.4c-0.7,0-1.3-0.1-1.8-0.3c-0.5-0.2-0.9-0.5-1.2-0.9c-0.3-0.4-0.5-0.8-0.7-1.3
			c-0.1-0.5-0.2-1.1-0.2-1.7c0-0.9,0.1-1.9,0.3-3.1c0.4-2.4,0.7-3.8,0.8-4.1c0.2-0.6,0.6-1.9,1.1-4c0.5-1.7,0.9-2.8,1-3.3
			c0.1-0.4,0.3-0.7,0.6-1c0.3-0.3,0.6-0.5,1-0.6c0.4-0.2,0.7-0.3,1.1-0.4c0.4-0.1,0.7-0.1,1.1-0.1c0.6,0,1,0.1,1.2,0.3
			c0.2,0.2,0.3,0.5,0.3,0.9c0,0.3-0.1,0.7-0.2,1.3s-0.3,1.2-0.5,1.9c-0.2,0.7-0.5,1.6-0.8,2.8c-0.4,1.1-0.6,2.1-0.7,2.9
			c-0.1,0.8-0.3,1.6-0.5,2.4c-0.2,0.8-0.3,1.5-0.3,2.2c0,0.6,0.1,1.1,0.2,1.5c0.1,0.4,1-0.2,1.3-0.5c0.4-0.4,3.1-3.1,3.7-3.5
			c0.6-0.4-1.2,3.2-0.6,2.7c0.6-0.5,1.2-1,1.9-1.5c0.6-0.5,1.1-1,1.6-1.4L731.3-9.9z M724-31.8c0-0.3,0.1-0.7,0.2-1.1
			c0.1-0.4,0.4-0.8,0.7-1.2c0.3-0.4,0.7-0.7,1.3-0.9c0.5-0.2,1.2-0.4,2-0.4c0.5,0,1,0.1,1.4,0.2c0.4,0.1,0.8,0.3,1.1,0.5
			c0.3,0.2,0.6,0.5,0.8,0.9c0.2,0.4,0.3,0.8,0.3,1.4c0,0.5-0.1,0.9-0.2,1.4c-0.2,0.5-0.4,0.9-0.7,1.2c-0.3,0.4-0.8,0.6-1.3,0.9
			c-0.5,0.2-1.1,0.3-1.8,0.3c-1.2,0-2.1-0.3-2.7-0.9C724.3-30.1,724-30.8,724-31.8z"/>
		<path fill="#F0F0B1" stroke="#F0F0B1" stroke-miterlimit="10" d="M729.7-13.2c0.8-0.7,1.3-1.3,1.8-1.7c0.5-0.5,1-1,1.5-1.6
			s0.9-1.1,1.2-1.5c0.3-0.4,0.6-0.8,1-1.4c0.4-0.5,0.9-1.2,1.4-1.9s1.3-1.7,2.2-2.8c0.2-0.3,0.4-0.5,0.6-0.7
			c0.2-0.2,0.5-0.5,0.7-0.6c0.3-0.2,0.6-0.3,0.9-0.5c0.3-0.1,0.7-0.2,1.1-0.2c0.7,0,1.2,0.1,1.6,0.2c0.4,0.1,0.6,0.3,0.8,0.5
			c0.2,0.2,0.3,0.4,0.3,0.7c0,0.2,0,0.4,0,0.6c0,0.3-0.1,0.7-0.4,1.1c-0.3,0.4-0.6,0.8-0.9,1.2c-0.3,0.4-0.6,0.7-0.9,1.1
			c-0.3,0.3-0.5,0.6-0.5,0.7c0,0.4,0,0.8,0.1,1.2c0.1,0.4,0.2,0.7,0.3,1.1c0.1,0.3,0.2,0.7,0.3,1.1c0.1,0.4,0.2,0.8,0.3,1.4
			s0.1,1.2,0,2.1c-0.1,0.9-0.1,1.8-0.1,2.7c0.5-0.3,1-0.6,1.6-0.9c0.6-0.3,1.2-0.6,1.8-0.9c0.6-0.3,1.3-0.6,1.9-1
			c0.7-0.4,1.3-0.8,2-1.3l0,4.8c-0.9,0.6-1.9,1.3-3,1.8c-1.1,0.6-2.3,1.1-3.6,1.5c-1.3,0.4-2.5,0.8-3.8,1s-2.5,0.4-3.7,0.4
			c-0.8,0-1.6-0.1-2.3-0.2s-1.3-0.4-1.9-0.7c-0.5-0.3-1-0.7-1.3-1.2s-0.5-1.1-0.6-1.9c-0.2,0-0.4,0.1-0.6,0.1c-0.2,0-0.4,0-0.6,0
			c-0.2,0-0.4,0-0.6,0c-0.2,0-0.4-0.1-0.5-0.2c-0.1-0.1-0.3-0.2-0.3-0.4c-0.1-0.2-0.1-0.5-0.1-0.9c0-0.3,0.2,0.4,0.4,0.1
			c0.2-0.3-0.2-0.5,0-0.7c0.2-0.2-1.7,1.3-1.5,1.1C726.7-10.2,729.6-13.1,729.7-13.2z M732.2-10.5c0.2,0,0.4,0.1,0.6,0.3
			c0.2,0.2,0.4,0.4,0.7,0.7c0.3,0.3,0.6,0.5,0.9,0.7c0.4,0.2,0.8,0.3,1.2,0.3c0.5,0,1-0.1,1.4-0.3c0.4-0.2,0.6-0.4,0.9-0.7
			s0.4-0.7,0.4-1.1c0.1-0.4,0.1-0.8,0.1-1.3c0-0.4,0-0.8-0.1-1.2c0-0.4,0-0.9,0-1.5c0.1-0.6,0-1,0-1.4c-0.1-0.3-0.2-0.6-0.2-0.8
			L732.2-10.5z"/>
		<path fill="#F0F0B1" stroke="#F0F0B1" stroke-miterlimit="10" d="M753-5.2c-0.8,0-1.5-0.3-2.1-1c-0.7-0.7-1.2-1.5-1.7-2.6
			c-0.5-1.1-0.9-2.4-1.1-3.8c-0.3-1.5-0.4-3-0.4-4.6c0-1.4,0.2-3.2,0.6-5.5s0.6-3.4,0.6-3.4s0.3-1.1,0.9-3.4
			c0.6-2.3,1.2-4.1,1.8-5.5c0.6-1.4,1.3-2.7,2-3.9c0.7-1.2,1.5-2.3,2.3-3.1c0.8-0.9,1.6-1.6,2.5-2.1c0.9-0.5,1.7-0.8,2.6-0.8
			c0.6,0,1.2,0.1,1.6,0.4c0.4,0.2,0.8,0.6,1,1c0.2,0.4,0.4,0.9,0.5,1.4c0.1,0.5,0.1,1,0.1,1.6c0,1.3-0.2,2.7-0.5,4.1
			c-0.3,1.4-0.7,2.8-1.3,4.1c-0.5,1.4-1.2,2.8-1.8,4.2c-0.7,1.4-1.4,2.8-2.2,4.2c-0.8,1.4-1.5,2.7-2.3,4.1c-0.8,1.3-1.5,2.6-2.1,3.9
			c-0.1,0.1-0.1,0.3-0.2,0.6c-0.1,0.2-0.2,0.5-0.2,0.7c-0.1,0.3-0.1,0.5-0.2,0.8c-0.1,0.3-0.1,0.6-0.2,0.9v0.3c0,0.4,0,0.7,0.1,1.1
			c0.1,0.3,0.2,0.7,0.3,0.9c0.1,0.3,0.2,0.5,0.4,0.7s0.2,0.2,0.4,0.2c0.3,0,0.6-0.1,0.9-0.2c0.4-0.1,0.7-0.3,1.1-0.5
			c0.4-0.2,0.8-0.4,1.2-0.7c0.4-0.2,0.8-0.5,1.2-0.8c0.9-0.6,1.9-1.3,2.8-2.1l1.9,4.4c-1.3,0.9-2.6,1.6-3.8,2.3
			c-0.5,0.3-1.1,0.6-1.7,0.8c-0.6,0.3-1.2,0.5-1.8,0.7c-0.6,0.2-1.2,0.4-1.7,0.5C754-5.3,753.5-5.2,753-5.2z M753-21.9
			c0.6-1.1,1.3-2.4,2-3.8c0.7-1.4,1.4-2.9,2-4.4c0.6-1.5,1.2-3,1.6-4.5c0.5-1.5,0.8-2.9,0.9-4.2c0-0.4,0-0.8,0-1.1
			c0-0.3-0.1-0.4-0.2-0.4c-0.4,0-0.8,0.3-1.2,0.8c-0.4,0.5-0.9,1.3-1.3,2.2c-0.4,0.9-1,2.4-1.6,4.4c-0.6,2.1-0.9,3.1-0.9,3.1
			c0,0-0.2,1-0.6,2.9C753.3-25,753.1-23.4,753-21.9z"/>
		<path fill="#F0F0B1" stroke="#F0F0B1" stroke-miterlimit="10" d="M781.7-10.5c-0.3,0.5-0.8,1-1.3,1.6c-0.5,0.6-1.1,1.2-1.8,1.7
			c-0.7,0.6-1.4,1-2.2,1.4c-0.8,0.4-1.5,0.6-2.3,0.6c-0.9,0-1.7-0.3-2.3-0.9c-0.6-0.6-1.2-1.4-1.6-2.6c-0.3,0.4-0.8,0.8-1.3,1.2
			c-0.5,0.4-1,0.8-1.6,1.1c-0.6,0.3-1.2,0.6-1.8,0.8c-0.6,0.2-1.3,0.3-1.9,0.3c-0.7,0-1.3-0.1-2-0.4c-0.6-0.3-1.2-0.7-1.7-1.2
			c-0.5-0.5-0.9-1.1-1.2-1.9c-0.3-0.7-0.4-1.6-0.4-2.5c0-1,0.1-2.1,0.4-3.2c0.3-1.1,0.8-2.3,1.4-3.6c0.6-1.3,1.3-2.4,2-3.3
			c0.7-0.9,1.5-1.8,2.3-2.5c0.8-0.7,1.7-1.3,2.7-1.7c0.9-0.4,1.9-0.6,2.9-0.6c0.3,0,0.6,0.1,0.8,0.2c0.2,0.1,0.3,0.3,0.5,0.4
			s0.2,0.3,0.3,0.5c0.1,0.2,0.3,0.3,0.4,0.3c0.2,0.1,0.3,0.1,0.5,0.1c0.2,0,0.4,0,0.5,0c0.2,0,0.3,0,0.5,0c0.2,0,0.3,0,0.5,0
			c0.2,0,0.4,0,0.6,0.1c0.2,0,0.3,0.1,0.5,0.3c0.1,0.1,0.2,0.3,0.3,0.6c0.1,0.3,0.1,0.6,0.1,1c0,0.7-0.1,1.4-0.2,2.2
			c-0.1,0.8-0.3,1.7-0.5,2.5c-0.2,0.9-0.4,1.8-0.6,2.9c-0.2,1.1-0.3,2-0.3,2.8c0,0.6,0.1,1.1,0.2,1.5s0.4,0.5,0.8,0.5
			c0.3,0,0.6-0.1,0.9-0.2c0.3-0.1,0.6-0.3,1-0.6c0.3-0.2,0.7-0.5,1-0.8s0.6-0.6,0.9-0.9c0.7-0.8,1.4-1.6,2.1-2.5L781.7-10.5z
			 M763.7-12.1c0,0.4,0,0.7,0.1,1.1c0,0.3,0.1,0.6,0.3,0.9c0.1,0.3,0.3,0.5,0.5,0.7c0.2,0.2,0.5,0.2,0.8,0.2c0.5,0,1-0.2,1.4-0.7
			c0.4-0.5,0.8-1,1.1-1.6c0.3-0.6,0.6-1.3,0.7-2c0.2-0.7,0.3-1.2,0.4-1.7l1.6-6.8c-0.6,0-1.1,0.1-1.7,0.4c-0.5,0.3-1.1,0.7-1.5,1.2
			c-0.5,0.5-0.9,1-1.3,1.7c-0.4,0.6-0.8,1.4-1.2,2.3c-0.4,0.9-0.7,1.7-0.8,2.4C763.8-13.4,763.7-12.7,763.7-12.1z"/>
		<path fill="#F0F0B1" stroke="#F0F0B1" stroke-miterlimit="10" d="M780.1-9.6c0-0.9,0.1-2,0.2-3.2s0.3-2.5,0.4-4
			c0.2-1.5,0.4-2.8,0.6-3.9c0.2-1.2,0.4-2.2,0.6-3c0.2-0.6,0.5-1.2,0.9-1.6c0.4-0.4,1-0.7,1.8-0.7c0.8,0,1.3,0.2,1.6,0.7
			c0.3,0.5,0.4,1.1,0.4,1.9c0,0.2,0,0.5-0.1,0.9c0,0.4-0.1,0.8-0.2,1.2c-0.1,0.4-0.1,0.9-0.2,1.3c-0.1,0.5-0.1,1-0.2,1.6
			c-0.1,0.6-0.1,1-0.2,1.3c0,0.3-0.1,0.5-0.1,0.6h0.4c0.1-0.2,0.2-0.4,0.4-0.7c0.2-0.3,0.4-0.8,0.6-1.5c0.2-0.6,0.5-1.2,0.8-1.7
			c0.3-0.5,0.5-1,0.8-1.4c0.2-0.5,0.5-0.9,0.7-1.2c0.2-0.4,0.3-0.6,0.4-0.8c0.4-0.8,1-1.3,1.5-1.6c0.6-0.3,1.2-0.4,1.9-0.4
			s1.3,0.3,1.7,0.9c0.4,0.6,0.6,1.4,0.6,2.4c0,0.2,0,0.4-0.1,0.8c-0.1,0.4-0.1,0.8-0.2,1.3c-0.1,0.5-0.2,1.2-0.3,2s-0.2,1.5-0.3,2.1
			c-0.1,0.6-0.2,1.3-0.2,1.9c-0.1,0.6-0.1,1.2-0.1,1.7c0,0.9,0.1,1.6,0.3,2.1c0.2,0.6,0.6,0.8,1,0.8c0.2,0,0.4-0.1,0.7-0.2
			c0.5-0.2,0.8-0.3,0.9-0.4c0.6-0.5,0.9-0.7,1-0.7c0,0,0.5-0.3,1.4-0.8c1.1-0.7,2.5-1.6,4-2.6l0,4.7l-1.1,0.8
			c-0.1,0.1-0.7,0.4-2,1.1c-1.8,1-2.9,1.5-3.3,1.7c-1.1,0.5-1.8,0.8-2,0.8c-0.7,0.2-1.4,0.3-2.2,0.3c-0.8,0-1.4-0.6-1.9-1.7
			c-0.5-1.1-0.8-2.7-0.8-4.9c0-0.8,0.1-1.8,0.2-2.7s0.3-2,0.4-3.1h-0.3l-5.5,10.9c-0.3,0.6-0.6,1-0.9,1.2c-0.4,0.2-0.8,0.3-1.2,0.3
			c-0.6,0-1-0.1-1.4-0.4c-0.4-0.2-0.6-0.6-0.8-1c-0.2-0.4-0.3-0.9-0.4-1.4C780.1-8.5,780.1-9.1,780.1-9.6z"/>
		<path fill="#F0F0B1" stroke="#F0F0B1" stroke-miterlimit="10" d="M802.9,14c-0.6-0.2-1.2-0.4-1.7-0.7c-0.5-0.3-0.9-0.8-1.2-1.4
			c-0.3-0.6-0.5-1.3-0.6-2.1c-0.1-1.5,0.3-3,1.2-4.7c0.5-0.9,0.9-1.6,1.1-1.9s0.5-0.9,1-1.5c0.5-0.7,0.9-1.3,1.4-1.8
			c1-1.1,1.8-2,2.4-2.7c0.6-0.7,1.4-1.4,2.3-2.2l0.4-2.5c-1.6,1.5-3.1,2.2-4.6,2.2c-1.1,0-2.1-0.3-3-1c-0.9-0.7-1.6-1.5-2.1-2.5
			c-0.8-1.8-0.9-3.8-0.1-6.1c0.7-2.2,1.5-4,2.2-5.4c0.7-1.4,1.7-2.7,2.9-3.7c1.7-1.5,3.4-2.3,5-2.3c0.7,0,1.3,0.2,1.6,0.6
			c0,0,0.1,0.1,0.2,0.2c0.1,0.1,0.1,0.2,0.2,0.2c0,0,0.1,0.1,0.2,0.2c0.1,0.1,0.2,0.1,0.2,0.2c0.1,0,0.2,0.1,0.3,0.1
			c0.1,0,0.2,0.1,0.4,0.1c0.1,0,0.3,0,0.5,0l0.9,0c0.6,0,1.1,0.2,1.3,0.6c0.1,0.2,0.2,0.4,0.3,0.6c0.2,0.4,0.2,1.9,0.1,4.3
			c0,0.8-0.2,1.7-0.5,2.8c-0.3,1.1-0.5,2.4-0.6,3.7c-0.1,1.4-0.3,3.2-0.5,5.4c0.4-0.2,0.8-0.5,1.3-0.9c1.7-1.2,3.5-3.6,5.6-6.9
			l1.4,4.7c-0.4,0.8-1.1,1.7-2.1,2.7c-1,1-1.9,1.8-2.6,2.3c-0.1,0.1-0.2,0.1-0.3,0.2c-1.3,0.9-2.3,1.5-2.9,1.9
			c-0.4,0.3-0.6,0.7-0.8,1.4c-0.1,0.7-0.3,1.9-0.5,3.7c-0.1,0.5-0.1,0.9-0.2,1.2c-0.1,0.6-0.2,1.3-0.2,1.9c-0.1,0.6-0.2,1.3-0.4,2.1
			c-0.2,0.8-0.4,1.5-0.7,2.1c-0.3,0.7-0.6,1.3-1,2c-0.4,0.7-0.9,1.2-1.4,1.7c-0.5,0.4-1.2,0.8-1.9,1.1c-0.7,0.3-1.6,0.4-2.4,0.4
			C804.2,14.3,803.5,14.2,802.9,14z M806,3.5c-1,1.5-1.7,3.1-2.3,4.7c-0.5,1.3-0.2,2,0.7,2c0.3,0,0.6,0,0.9-0.1
			c0.3-0.1,0.5-0.2,0.7-0.5s0.4-0.5,0.6-0.7c0.2-0.3,0.3-0.6,0.5-1.1c0.2-0.5,0.4-0.9,0.5-1.4c0.2-0.5,0.3-1.1,0.5-1.8
			c0.1-0.4,0.2-0.9,0.3-1.3c0.1-0.5,0.1-1.1,0.2-1.8c0.1-0.7,0.1-1.2,0.2-1.4C807.9,0.8,806.9,2,806,3.5z M804.7-10.1
			c0.3,0.6,0.8,0.9,1.3,0.9c1,0,1.7-0.8,2.4-2.3c0.5-1.2,0.8-2.4,0.8-3.6l1.6-7c-1.6,0-3.1,1.1-4.3,3.3c-1.3,2.3-2.1,3.9-2.2,4.7
			C804-12.4,804.2-11,804.7-10.1z"/>
	</g>
	<rect x="582.8" y="14.2" fill="none" width="318.7" height="76.5"/>
	<text transform="matrix(1 0 0 1 675.7999 32.9246)" fill="#F0F0B1" font-family="'Pacifico'" font-size="20">by Ramon Marc</text>
</g>
<g>
	<path fill="#FFFF00" d="M499.4,250.1c0-0.1,0.1-0.2,0.2-0.2l3.4,0c0.1,0,0.2,0.1,0.2,0.2l-0.4,11c0,0.1-0.1,0.3-0.2,0.3l-2.4,0
		c-0.1,0-0.2-0.1-0.2-0.2L499.4,250.1z M502.7,264.7c0,0.1-0.1,0.2-0.2,0.2l-2.4,0c-0.1,0-0.2-0.1-0.2-0.2l0-2.5
		c0-0.1,0.1-0.2,0.2-0.2l2.5,0c0.1,0,0.2,0.1,0.2,0.2L502.7,264.7z"/>
</g>
<g>
	<path fill="#FFFF00" stroke="#FFFF00" stroke-width="2" stroke-miterlimit="10" d="M167.2,379.6c-2.3,1.3-4.3,2.5-6.1,3.5
		c-1.8,1-3.4,1.8-4.7,2.5c-1.4,0.7-2.6,1.2-3.7,1.5c-1.1,0.3-2.1,0.5-2.9,0.5c-1.8,0-3.4-0.5-4.7-1.6c-1.4-1.1-2.5-2.7-3.4-4.7
		c-0.9-2-1.6-4.5-2.1-7.4c-0.5-2.9-0.7-6.2-0.7-9.8c0-1.4,0.1-2.9,0.2-4.5c0.1-1.6,0.3-3.2,0.5-4.8c-0.7-0.1-1.3-0.2-1.7-0.3
		c-0.4-0.1-0.8-0.2-1.2-0.3c-0.4-0.1-1-0.2-1.7-0.3c-0.7-0.1-1.7-0.2-2.9-0.4c-0.6-0.1-1-0.2-1.3-0.5c-0.3-0.2-0.5-0.5-0.7-0.8
		c-0.1-0.3-0.2-0.6-0.2-0.9c0-0.3,0-0.6,0-0.8c0-0.4,0.2-0.7,0.7-0.9c0.5-0.2,1.1-0.3,1.8-0.4c0.7-0.1,1.5-0.2,2.4-0.2
		c0.9,0,1.7,0,2.5,0c0.8,0,1.5,0,2.1,0.1c0.6,0,1.1,0,1.3-0.1c0.6-3.2,1.4-6.3,2.4-9.2c1-3,2.1-5.6,3.3-7.9c1.2-2.3,2.5-4.2,4-5.6
		c1.4-1.4,2.9-2.1,4.5-2.1c1,0,1.9,0.3,2.8,0.9c0.8,0.6,1.6,1.3,2.1,2.3c0.6,0.9,1,2,1.4,3.3c0.3,1.3,0.5,2.6,0.5,3.9
		c0,1.1-0.2,2.3-0.5,3.6c-0.3,1.3-0.8,2.5-1.3,3.8c-0.6,1.3-1.2,2.6-2,4c-0.8,1.3-1.6,2.7-2.4,4c0.2-0.1,0.6-0.1,1.1,0
		c0.5,0.1,1.1,0.1,1.7,0.1c0.6,0,1.4,0,2.1,0.1c0.8,0,1.5,0,2.2,0.1s1.4,0,2,0.1s1.1,0,1.5,0.1c0.5,0,0.8,0.3,1,0.8
		c0.2,0.5,0.3,1.1,0.3,1.9c0,0.9-0.2,1.6-0.7,2.2s-1,0.8-1.6,0.8l-13.6,0c-0.7,0.9-1.4,1.9-2.1,2.8c-0.7,0.9-1.3,1.7-1.9,2.5
		c-0.1,1.5-0.2,2.9-0.2,4.3c0,0.6,0,1.2-0.1,1.9c0,0.6,0,1.3-0.1,1.9c0,0.6,0,1.3-0.1,1.8c0,0.6,0,1.1,0,1.6c0,1.3,0.1,2.4,0.4,3.2
		c0.2,0.9,0.6,1.6,1,2.1s1,1,1.7,1.2c0.6,0.2,1.4,0.4,2.2,0.4c0.5,0,1.1-0.1,1.9-0.4s1.6-0.6,2.4-1s1.8-0.9,2.8-1.5
		c1-0.6,1.9-1.2,2.9-1.9s1.9-1.4,2.8-2.1c0.9-0.7,1.7-1.5,2.4-2.3L167.2,379.6z M155.9,334.8c0-0.3,0-0.5-0.1-0.9
		c0-0.3-0.1-0.6-0.2-0.9c-0.1-0.3-0.3-0.5-0.6-0.7c-0.2-0.2-0.6-0.3-1-0.3c-0.6,0-1.2,0.5-1.9,1.6c-0.6,1.1-1.2,2.5-1.8,4.1
		c-0.6,1.7-1.1,3.5-1.6,5.5c-0.5,2-1,4-1.4,5.9c0.4,0,0.7,0.1,1.1,0.1c0.4,0,0.7,0.1,1.1,0.1c0.7-1.2,1.5-2.5,2.2-3.9
		c0.8-1.4,1.5-2.8,2.1-4.1c0.6-1.3,1.1-2.6,1.5-3.8C155.7,336.5,155.9,335.5,155.9,334.8z"/>
	<path fill="#FFFF00" stroke="#FFFF00" stroke-width="2" stroke-miterlimit="10" d="M186.3,360.3c0.7,1.4,1.2,2.8,1.5,4.3
		s0.5,3.2,0.5,5.2c0,1.4-0.2,2.8-0.5,4.2c-0.3,1.4-0.7,2.8-1.3,4.1c-0.6,1.3-1.3,2.6-2.1,3.7c-0.8,1.2-1.8,2.2-2.9,3s-2.2,1.5-3.5,2
		c-1.3,0.5-2.6,0.7-4.1,0.7c-2.1,0-3.9-0.5-5.3-1.4s-2.7-2.1-3.6-3.6s-1.6-3.1-2.1-5c-0.4-1.8-0.7-3.7-0.7-5.6
		c0-3.1,0.4-5.8,1.2-8.1c0.8-2.3,1.9-4.2,3.3-5.9s3.2-3,5.3-3.9c2.1-1,4.5-1.4,7.1-1.4c2.2,0,4.3,0.3,6.3,1c2,0.7,3.8,1.6,5.5,2.8
		c1.7,1.2,3.3,2.6,4.8,4.4c1.5,1.8,2.9,3.5,4.1,5.1l-0.7,5c-0.6-0.9-1.5-1.8-2.6-2.8s-2.2-2.1-3.5-3.3c-1.2-1.2-2.4-2.2-3.6-3.1
		c-1.2-0.8-2.2-1.5-3-2.1L186.3,360.3z M175.3,380.8c0.8,0,1.6-0.4,2.3-1.2c0.8-0.8,1.4-1.8,2-3.1c0.6-1.2,1-2.7,1.4-4.5
		c0.3-1.8,0.5-3.3,0.5-4.7c0-1.1-0.1-2.1-0.2-3s-0.4-1.7-0.7-2.4s-0.8-1.2-1.3-1.6c-0.5-0.4-1.1-0.6-1.9-0.6c-1,0-1.9,0.4-2.8,1.2
		c-0.9,0.8-1.6,1.9-2.3,3.2c-0.7,1.3-1.2,2.7-1.6,4.3c-0.4,1.6-0.6,3.3-0.6,5.3c0,1,0.1,1.9,0.3,2.8s0.5,1.6,0.9,2.3
		c0.4,0.6,0.9,1.2,1.6,1.6C173.6,380.6,174.4,380.8,175.3,380.8z"/>
	<path fill="#FFFF00" stroke="#FFFF00" stroke-width="2" stroke-miterlimit="10" d="M195.1,380.2c0-1.6,0.1-3.4,0.3-5.4
		c0.2-2,0.4-4.3,0.7-6.7c0.3-2.4,0.6-4.6,1-6.6c0.4-2,0.7-3.6,1-5c0.3-1.1,0.8-2,1.5-2.7c0.7-0.7,1.8-1.1,3-1.1
		c1.3,0,2.2,0.4,2.7,1.2c0.5,0.8,0.7,1.8,0.7,3.1c0,0.4,0,0.8-0.1,1.4c-0.1,0.6-0.2,1.3-0.3,2c-0.1,0.7-0.2,1.5-0.3,2.2
		c-0.1,0.8-0.2,1.6-0.3,2.6s-0.2,1.7-0.3,2.2c-0.1,0.5-0.1,0.8-0.1,1l0.7,0c0.1-0.3,0.4-0.7,0.7-1.3c0.3-0.6,0.7-1.4,1.1-2.5
		s0.8-2,1.3-2.9c0.5-0.8,0.9-1.6,1.3-2.4c0.4-0.8,0.8-1.4,1.1-2s0.6-1,0.7-1.3c0.8-1.3,1.6-2.1,2.6-2.6c1-0.5,2-0.7,3.2-0.7
		c1.2,0,2.1,0.5,2.8,1.5c0.7,1,1,2.4,1,4.1c0,0.3-0.1,0.7-0.2,1.3c-0.1,0.6-0.2,1.3-0.4,2.2c-0.2,0.9-0.3,1.9-0.5,3.3
		s-0.4,2.6-0.5,3.6c-0.2,1.1-0.3,2.1-0.4,3.2c-0.1,1-0.2,2-0.2,2.9c0,1.5,0.2,2.7,0.5,3.6c0.4,0.9,0.9,1.4,1.7,1.4
		c0.3,0,0.7-0.1,1.2-0.3c0.8-0.3,1.3-0.5,1.5-0.7c1-0.8,1.6-1.2,1.6-1.2c0.1,0,0.9-0.4,2.4-1.4c1.9-1.2,4.1-2.7,6.8-4.4l0,7.9
		l-1.8,1.3c-0.1,0.1-1.3,0.7-3.3,1.8c-3,1.6-4.9,2.6-5.6,2.9c-1.8,0.8-3,1.3-3.4,1.4c-1.2,0.4-2.4,0.6-3.7,0.6
		c-1.3,0-2.4-0.9-3.3-2.8s-1.3-4.6-1.3-8.2c0-1.4,0.1-2.9,0.3-4.6s0.4-3.4,0.7-5.3l-0.6,0l-9.3,18.4c-0.5,1-1,1.7-1.6,2
		c-0.6,0.4-1.3,0.5-2.1,0.5c-1,0-1.7-0.2-2.3-0.6c-0.6-0.4-1-1-1.4-1.7c-0.3-0.7-0.5-1.5-0.6-2.4C195.1,382,195.1,381.1,195.1,380.2
		z"/>
	<path fill="#FFFF00" stroke="#FFFF00" stroke-width="2" stroke-miterlimit="10" d="M247.5,379.8c-0.9,0.8,1.6,1.8,0.3,2.7
		c-1.3,0.9-2.6,1.7-4.1,2.4c-1.5,0.7-3,1.4-4.5,1.9c-1.5,0.5-3,0.7-4.3,0.7c-1.2,0-2.3-0.2-3.1-0.5c-0.8-0.3-1.5-0.8-2-1.4
		s-0.9-1.4-1.1-2.2c-0.2-0.9-0.3-1.9-0.3-2.9c0-1.5,0.2-3.2,0.5-5.2c0.7-4.1,1.1-6.4,1.3-6.9c0.3-1,1-3.2,1.9-6.7
		c0.9-2.8,1.5-4.7,1.7-5.5c0.1-0.6,0.4-1.1,1-1.6c0.5-0.4,1-0.8,1.7-1.1c0.6-0.3,1.3-0.5,1.9-0.6c0.7-0.1,1.3-0.2,1.8-0.2
		c1,0,1.6,0.2,2,0.5c0.3,0.4,0.5,0.9,0.5,1.5c0,0.5-0.1,1.3-0.4,2.2s-0.5,2-0.8,3.2c-0.3,1.2-0.8,2.8-1.4,4.7
		c-0.6,1.9-1,3.5-1.3,4.9c-0.2,1.3-0.5,2.7-0.8,4c-0.3,1.3-0.5,2.5-0.5,3.6c0,1.1,0.1,1.9,0.4,2.5c0.2,0.6,1.7-0.3,2.2-0.8
		c0.6-0.7,5.2-5.2,6.2-5.8s-2,5.4-0.9,4.5c1.1-0.8,2.1-1.7,3.1-2.6c1-0.9,1.9-1.7,2.7-2.3L247.5,379.8z M235.1,342.8
		c0-0.5,0.1-1.2,0.4-1.9c0.2-0.7,0.6-1.3,1.2-1.9s1.2-1.1,2.1-1.5s2-0.6,3.3-0.6c0.8,0,1.6,0.1,2.3,0.3s1.4,0.5,1.9,0.9
		c0.5,0.4,1,0.9,1.3,1.6s0.5,1.4,0.5,2.3c0,0.8-0.1,1.6-0.4,2.4c-0.3,0.8-0.7,1.4-1.2,2s-1.3,1.1-2.1,1.4c-0.9,0.4-1.9,0.6-3.1,0.6
		c-2.1,0-3.6-0.5-4.6-1.5C235.6,345.8,235.1,344.5,235.1,342.8z"/>
	<path fill="#FFFF00" stroke="#FFFF00" stroke-width="2" stroke-miterlimit="10" d="M244.8,374.2c1.3-1.1,2.2-2.1,3-2.9
		c0.8-0.8,1.7-1.7,2.5-2.7c0.8-1,1.5-1.8,2-2.5c0.5-0.6,1.1-1.4,1.7-2.3c0.7-0.9,1.5-2,2.4-3.2c0.9-1.3,2.2-2.9,3.7-4.8
		c0.3-0.4,0.6-0.8,1-1.3s0.8-0.8,1.3-1.1c0.5-0.3,1-0.6,1.5-0.8c0.6-0.2,1.2-0.3,1.9-0.3c1.1,0,2,0.1,2.6,0.4
		c0.6,0.2,1.1,0.6,1.3,0.9c0.3,0.4,0.4,0.7,0.5,1.1c0,0.4,0.1,0.7,0.1,1c0,0.6-0.2,1.2-0.7,1.9c-0.5,0.7-1,1.4-1.5,2
		c-0.5,0.6-1.1,1.2-1.5,1.8c-0.5,0.5-0.8,0.9-0.8,1.2c0,0.7,0.1,1.4,0.2,2c0.1,0.6,0.3,1.2,0.4,1.8c0.2,0.6,0.4,1.2,0.6,1.9
		s0.4,1.4,0.6,2.3s0.2,2,0.1,3.5c-0.1,1.5-0.2,3-0.2,4.6c0.9-0.6,1.8-1.1,2.7-1.6c1-0.5,2-0.9,3.1-1.5c1.1-0.5,2.2-1.1,3.3-1.7
		c1.1-0.6,2.2-1.3,3.4-2.2l0,8c-1.5,1.1-3.2,2.1-5.1,3.1s-4,1.8-6.1,2.5c-2.1,0.7-4.3,1.3-6.4,1.7c-2.2,0.4-4.2,0.6-6.1,0.6
		c-1.4,0-2.7-0.1-3.9-0.4s-2.3-0.6-3.2-1.2c-0.9-0.5-1.6-1.2-2.2-2.1c-0.6-0.9-0.9-1.9-1-3.1c-0.3,0.1-0.7,0.1-1,0.1
		c-0.3,0-0.6,0-0.9,0c-0.4,0-0.7,0-1.1,0c-0.3,0-0.6-0.1-0.9-0.3c-0.2-0.2-0.4-0.4-0.6-0.8s-0.2-0.8-0.2-1.5c0-0.6,0.3,0.6,0.6,0.1
		s-0.3-0.9,0-1.3c0.4-0.4-2.8,2.1-2.4,1.9C239.7,379.2,244.6,374.4,244.8,374.2z M249,378.8c0.3,0,0.6,0.2,0.9,0.5
		c0.3,0.4,0.7,0.7,1.2,1.2c0.4,0.4,1,0.8,1.6,1.2c0.6,0.4,1.3,0.5,2,0.5c0.9,0,1.7-0.2,2.3-0.5c0.6-0.3,1.1-0.7,1.4-1.2
		c0.4-0.5,0.6-1.1,0.7-1.8c0.1-0.7,0.2-1.4,0.2-2.1c0-0.6,0-1.3-0.1-2c-0.1-0.7-0.1-1.5,0-2.5c0.1-1,0.1-1.8-0.1-2.3
		c-0.2-0.5-0.3-1-0.4-1.4L249,378.8z"/>
	<path fill="#FFFF00" stroke="#FFFF00" stroke-width="2" stroke-miterlimit="10" d="M284,387.6c-1.3,0-2.5-0.6-3.5-1.7
		c-1.1-1.1-2-2.6-2.9-4.4c-0.8-1.9-1.4-4-1.9-6.5c-0.5-2.5-0.7-5-0.7-7.7c0-2.3,0.3-5.4,1-9.3c0.7-3.9,1-5.8,1-5.8s0.5-1.9,1.5-5.8
		c1-3.9,2.1-7,3.1-9.3s2.2-4.5,3.4-6.5c1.2-2,2.5-3.8,3.8-5.3c1.3-1.5,2.7-2.7,4.2-3.6c1.5-0.9,2.9-1.3,4.4-1.3c1.1,0,2,0.2,2.7,0.6
		c0.7,0.4,1.3,1,1.7,1.7c0.4,0.7,0.7,1.5,0.9,2.3c0.2,0.9,0.2,1.7,0.2,2.6c0,2.2-0.3,4.5-0.8,6.8c-0.5,2.3-1.2,4.6-2.1,7
		c-0.9,2.3-1.9,4.7-3.1,7c-1.2,2.4-2.4,4.7-3.7,7c-1.3,2.3-2.6,4.6-3.8,6.8c-1.3,2.2-2.5,4.4-3.6,6.6c-0.1,0.2-0.2,0.5-0.4,0.9
		c-0.1,0.4-0.3,0.8-0.4,1.2c-0.1,0.4-0.2,0.9-0.4,1.4c-0.1,0.5-0.2,1-0.3,1.5l0,0.5c0,0.6,0.1,1.2,0.2,1.8c0.1,0.6,0.3,1.1,0.5,1.6
		c0.2,0.5,0.4,0.8,0.6,1.1c0.2,0.3,0.4,0.4,0.6,0.4c0.5,0,1-0.1,1.6-0.3c0.6-0.2,1.2-0.4,1.9-0.8c0.7-0.3,1.3-0.7,2-1.1
		s1.4-0.8,2-1.3c1.5-1,3.1-2.2,4.8-3.5l3.1,7.5c-2.2,1.4-4.3,2.7-6.4,3.8c-0.9,0.5-1.9,0.9-2.9,1.4c-1,0.5-2,0.9-3,1.2
		c-1,0.4-2,0.6-2.9,0.9C285.7,387.5,284.8,387.6,284,387.6z M284,359.5c1.1-1.9,2.2-4.1,3.4-6.4c1.2-2.4,2.3-4.8,3.4-7.4
		c1.1-2.5,2-5,2.8-7.6c0.8-2.5,1.3-4.9,1.5-7c0-0.7,0-1.3-0.1-1.8c0-0.5-0.1-0.7-0.3-0.7c-0.6,0-1.3,0.4-2.1,1.3
		c-0.7,0.9-1.5,2.1-2.2,3.6c-0.7,1.5-1.6,4-2.7,7.5c-1,3.5-1.6,5.2-1.6,5.2c0,0-0.3,1.6-1,4.8C284.5,354.2,284.1,357.1,284,359.5z"
		/>
	<path fill="#FFFF00" stroke="#FFFF00" stroke-width="2" stroke-miterlimit="10" d="M332.4,378.8c-0.5,0.8-1.3,1.7-2.2,2.7
		c-0.9,1-1.9,2-3.1,2.9c-1.1,0.9-2.4,1.7-3.6,2.4c-1.3,0.6-2.6,1-3.9,1c-1.6,0-2.9-0.5-3.9-1.5c-1.1-1-2-2.4-2.7-4.3
		c-0.6,0.7-1.3,1.3-2.1,2c-0.8,0.7-1.7,1.3-2.7,1.8c-1,0.5-2,1-3.1,1.3c-1.1,0.4-2.1,0.5-3.2,0.5c-1.1,0-2.2-0.2-3.3-0.7
		c-1.1-0.5-2-1.1-2.9-2c-0.8-0.9-1.5-1.9-2-3.2c-0.5-1.3-0.7-2.7-0.7-4.2c0-1.8,0.2-3.6,0.7-5.4c0.5-1.9,1.3-3.9,2.3-6
		c1-2.2,2.2-4,3.4-5.6c1.2-1.6,2.5-3,3.9-4.1c1.4-1.2,2.9-2.1,4.5-2.8c1.6-0.7,3.2-1,4.8-1c0.5,0,1,0.1,1.3,0.3
		c0.3,0.2,0.6,0.5,0.8,0.7c0.2,0.3,0.4,0.5,0.6,0.8c0.2,0.3,0.4,0.5,0.7,0.6c0.3,0.1,0.6,0.2,0.9,0.2c0.3,0,0.6,0.1,0.9,0.1
		c0.3,0,0.5,0,0.8,0c0.3,0,0.5,0,0.8,0c0.4,0,0.7,0,1,0.1c0.3,0.1,0.6,0.2,0.8,0.5c0.2,0.2,0.4,0.6,0.5,1c0.1,0.4,0.2,1,0.2,1.8
		c0,1.1-0.1,2.4-0.4,3.8s-0.5,2.8-0.8,4.2c-0.3,1.4-0.7,3.1-1,4.9c-0.4,1.8-0.6,3.4-0.6,4.7c0,1.1,0.1,1.9,0.3,2.5
		c0.2,0.6,0.6,0.9,1.3,0.9c0.5,0,1-0.1,1.6-0.4c0.5-0.2,1.1-0.6,1.6-1s1.1-0.8,1.7-1.4c0.6-0.5,1.1-1,1.6-1.6
		c1.2-1.3,2.3-2.7,3.5-4.3L332.4,378.8z M302,376c0,0.6,0,1.2,0.1,1.8s0.2,1.1,0.4,1.5c0.2,0.5,0.5,0.8,0.9,1.1s0.8,0.4,1.4,0.4
		c0.9,0,1.7-0.4,2.4-1.1c0.7-0.8,1.3-1.7,1.8-2.7c0.5-1.1,0.9-2.2,1.3-3.3c0.3-1.1,0.5-2.1,0.6-2.9l2.6-11.5c-1,0-1.9,0.2-2.8,0.7
		c-0.9,0.5-1.8,1.1-2.6,1.9c-0.8,0.8-1.6,1.8-2.2,2.8c-0.7,1.1-1.4,2.4-2,3.9c-0.7,1.5-1.1,2.9-1.4,4.1C302.1,373.9,302,375,302,376
		z"/>
	<path fill="#FFFF00" stroke="#FFFF00" stroke-width="2" stroke-miterlimit="10" d="M329.5,380.1c0-1.6,0.1-3.4,0.3-5.4
		s0.4-4.3,0.7-6.7c0.3-2.4,0.6-4.6,1-6.6c0.4-2,0.7-3.6,1-5c0.3-1.1,0.8-2,1.5-2.7c0.7-0.7,1.8-1.1,3-1.1s2.2,0.4,2.7,1.2
		c0.5,0.8,0.7,1.8,0.7,3.1c0,0.4,0,0.8-0.1,1.4c-0.1,0.6-0.2,1.3-0.3,2s-0.2,1.5-0.3,2.2c-0.1,0.8-0.2,1.6-0.3,2.6s-0.2,1.7-0.3,2.2
		c-0.1,0.5-0.1,0.8-0.1,1l0.7,0c0.1-0.3,0.4-0.7,0.7-1.3c0.3-0.6,0.7-1.4,1.1-2.5c0.4-1.1,0.8-2,1.3-2.9c0.5-0.8,0.9-1.6,1.3-2.4
		c0.4-0.8,0.8-1.4,1.1-2c0.3-0.6,0.6-1,0.7-1.3c0.8-1.3,1.6-2.1,2.6-2.6c1-0.5,2-0.7,3.2-0.7c1.2,0,2.1,0.5,2.8,1.5
		c0.7,1,1,2.4,1,4.1c0,0.3-0.1,0.7-0.2,1.3c-0.1,0.6-0.2,1.3-0.4,2.2s-0.3,1.9-0.5,3.3c-0.2,1.3-0.4,2.6-0.5,3.6
		c-0.2,1.1-0.3,2.1-0.4,3.2s-0.2,2-0.2,2.9c0,1.5,0.2,2.7,0.5,3.6s0.9,1.4,1.7,1.4c0.3,0,0.7-0.1,1.2-0.3c0.8-0.3,1.3-0.5,1.5-0.7
		c1-0.8,1.6-1.2,1.6-1.2c0.1,0,0.9-0.4,2.4-1.4c1.9-1.2,4.1-2.7,6.8-4.4l0,7.9l-1.8,1.3c-0.1,0.1-1.3,0.7-3.3,1.8
		c-3,1.6-4.9,2.6-5.6,2.9c-1.8,0.8-3,1.3-3.4,1.4c-1.2,0.4-2.4,0.6-3.7,0.6c-1.3,0-2.4-0.9-3.3-2.8c-0.9-1.9-1.3-4.6-1.3-8.2
		c0-1.4,0.1-2.9,0.3-4.6s0.4-3.4,0.7-5.3l-0.6,0l-9.3,18.4c-0.5,1-1,1.7-1.6,2c-0.6,0.4-1.3,0.5-2.1,0.5c-1,0-1.7-0.2-2.3-0.6
		s-1-1-1.4-1.7c-0.3-0.7-0.5-1.5-0.6-2.4S329.5,381.1,329.5,380.1z"/>
	<path fill="#FFFF00" stroke="#FFFF00" stroke-width="2" stroke-miterlimit="10" d="M368,420c-1-0.3-2-0.7-2.8-1.2s-1.6-1.3-2.1-2.3
		s-0.9-2.1-1-3.5c-0.2-2.5,0.5-5.1,2.1-7.9c0.9-1.6,1.5-2.6,1.9-3.3c0.3-0.6,0.9-1.5,1.7-2.6c0.8-1.1,1.6-2.1,2.4-3
		c1.7-1.9,3-3.4,4.1-4.5s2.4-2.3,3.8-3.6l0.7-4.2c-2.6,2.5-5.2,3.8-7.7,3.8c-1.8,0-3.5-0.6-5.1-1.7c-1.5-1.1-2.7-2.5-3.5-4.1
		c-1.4-3-1.5-6.4-0.1-10.3c1.2-3.7,2.5-6.7,3.7-9.1c1.3-2.4,2.9-4.5,4.9-6.3c2.9-2.6,5.7-3.9,8.4-3.9c1.2,0,2.1,0.3,2.7,1
		c0.1,0.1,0.2,0.2,0.3,0.4c0.1,0.2,0.2,0.3,0.3,0.4c0.1,0,0.2,0.1,0.3,0.3c0.1,0.1,0.3,0.2,0.4,0.3c0.1,0,0.3,0.1,0.5,0.2
		c0.2,0.1,0.4,0.1,0.6,0.1c0.2,0,0.5,0,0.8,0l1.6,0c1.1,0,1.8,0.3,2.2,1c0.1,0.3,0.3,0.6,0.5,1c0.3,0.7,0.3,3.2,0.1,7.3
		c-0.1,1.3-0.4,2.9-0.9,4.8c-0.5,1.9-0.9,4-1,6.3c-0.2,2.3-0.4,5.3-0.8,9c0.7-0.4,1.4-0.9,2.2-1.5c2.8-2.1,5.9-6,9.5-11.7l2.3,7.9
		c-0.7,1.3-1.8,2.8-3.5,4.5c-1.7,1.7-3.1,3-4.3,3.9c-0.2,0.1-0.4,0.2-0.5,0.3c-2.3,1.5-3.9,2.5-4.9,3.2c-0.6,0.4-1.1,1.2-1.3,2.3
		c-0.2,1.1-0.5,3.2-0.8,6.2c-0.1,0.9-0.2,1.6-0.3,2c-0.1,1.1-0.3,2.1-0.4,3.2c-0.1,1-0.4,2.2-0.7,3.5c-0.3,1.3-0.7,2.5-1.2,3.6
		c-0.4,1.1-1,2.2-1.8,3.3c-0.7,1.1-1.5,2-2.4,2.8s-2,1.4-3.2,1.8c-1.3,0.5-2.6,0.7-4.1,0.7C370.1,420.4,369,420.3,368,420z
		 M373.1,402.3c-1.6,2.6-2.9,5.3-3.8,8c-0.8,2.2-0.4,3.4,1.2,3.4c0.6,0,1.1-0.1,1.5-0.2c0.4-0.1,0.8-0.4,1.2-0.8s0.7-0.8,1-1.2
		c0.3-0.4,0.6-1,0.9-1.8c0.3-0.8,0.6-1.6,0.9-2.4c0.3-0.8,0.6-1.8,0.9-3.1c0.2-0.7,0.4-1.4,0.5-2.3c0.1-0.8,0.2-1.8,0.4-3
		c0.1-1.2,0.2-2,0.3-2.3C376.4,397.8,374.7,399.7,373.1,402.3z M371,379.3c0.6,1,1.3,1.5,2.2,1.5c1.6,0,2.9-1.3,4-3.9
		c0.8-2,1.3-4.1,1.4-6.1l2.7-11.8c-2.7,0-5.1,1.8-7.2,5.5c-2.2,3.9-3.5,6.6-3.7,8C369.9,375.5,370.1,377.8,371,379.3z"/>
</g>
<g>
	<path fill="#FFFF00" d="M45.3-823.9c-1.1,1.2-1.8,2.5-2.3,3.9s-0.7,2.6-0.7,3.7c0,3.3,1,6,3,8c2,2,5.1,3,9.3,3
		c2.4,0,4.5-0.4,6.2-1.1c1.7-0.7,3.2-1.7,4.3-2.9c1.1-1.2,2-2.6,2.5-4.1c0.5-1.5,0.8-3.1,0.8-4.8c0-1.8-0.3-3.3-1-4.6
		c-0.6-1.3-1.5-2.3-2.6-3.1c-1.1-0.8-2.4-1.4-3.9-1.8c-1.5-0.4-3-0.6-4.7-0.6c-2.7,0-4.9,0.4-6.7,1.3
		C47.8-826.2,46.4-825.1,45.3-823.9z"/>
	<path fill="#FFFF00" d="M189.1-728.6c3.3,1.6,7.2,2.5,11.7,2.5c2.9,0,5.7-0.3,8.5-1c2.8-0.7,5.5-1.5,8.1-2.6
		c2.6-1.1,5.1-2.4,7.4-3.8c2.4-1.4,4.6-2.9,6.6-4.3c4.7-3.4,9.2-7.4,13.3-11.8l-9.2-9.3c-1.9,1.8-4.1,3.6-6.8,5.6
		c-2.7,2-5.5,3.8-8.5,5.5c-3,1.7-6.1,3.1-9.2,4.2c-3.2,1.1-6.2,1.7-9,1.7c-0.9,0-1.8-0.1-2.5-0.3c-0.8-0.2-1.5-0.5-2.3-1
		s-1.4-1.1-2.1-2c-0.7-0.8-1.4-1.9-2.1-3.1c4.1-1.1,8-2.7,11.5-4.7c3.6-2,6.6-4.3,9.2-6.8c2.6-2.6,4.8-5.6,6.8-9.2
		c1.9-3.6,2.9-6.8,2.9-9.7c0-2.7-0.5-5.2-1.4-7.3c-1-2.2-2.3-4.1-4-5.6c-1.7-1.5-3.7-2.7-6-3.6c-2.3-0.9-4.8-1.3-7.4-1.3
		c-3.3,0-6.2,0.6-8.9,1.7c-2.7,1.1-5.1,2.7-7.2,4.6c-2.2,1.9-4,4.2-5.6,6.8c-1.6,2.6-2.9,5.2-4,8.1c-1.1,2.8-2.1,6-3.1,9.7
		c-1,3.6-1.5,6.8-1.5,9.4c0,1.1,0.1,2.2,0.1,3.3c-0.7,0.6-1.5,1.1-2.3,1.7c-1.9,1.4-3.9,2.6-5.9,3.7s-3.9,2.1-5.6,3
		c-1.8,0.8-3.4,1.5-4.9,2c-1.5,0.5-2.7,0.7-3.7,0.7c-1.6,0-3.1-0.2-4.4-0.7s-2.4-1.3-3.3-2.4c-0.9-1.1-1.6-2.6-2.1-4.3
		c-0.5-1.8-0.7-3.9-0.7-6.5c0-1,0-2.1,0-3.3s0.1-2.4,0.1-3.7s0.1-2.6,0.1-3.9s0.1-2.6,0.1-3.8c0.1-2.9,0.3-5.8,0.5-8.7
		c1.2-1.5,2.5-2.6,3.9-4.4c1.4-1.8,2.8-3.1,4.2-5.1h27.4c1.1,0,2.2-1.1,3.1-2.2c0.9-1.1,1.4-2.8,1.4-4.6c0-1.5-0.2-2.9-0.6-3.9
		c-0.4-1-1.1-1.6-2.1-1.7c-0.8,0-1.8-0.1-3.1-0.2c-1.2,0-2.6-0.1-4-0.2c-1.4,0-2.9-0.1-4.4-0.1s-2.9-0.1-4.2-0.1
		c-1.3,0-2.5-0.1-3.5-0.2c-1-0.1-1.7-0.1-2.1,0.1c1.7-2.7,3.3-5.3,4.9-8c1.5-2.7,2.9-5.4,4-8c1.1-2.6,2-5.2,2.7-7.7
		c0.7-2.5,1-4.9,1-7.2c0-2.8-0.3-5.4-1-7.9c-0.6-2.5-1.6-4.8-2.7-6.7c-1.2-1.9-2.6-3.4-4.3-4.6c-1.7-1.1-3.6-1.7-5.6-1.7
		c-3.2,0-6.2,1.4-9.1,4.2s-5.6,6.6-8,11.2c-2.4,4.7-4.7,10-6.6,16c-2,6-3.6,12.2-4.9,18.6c-0.5,0.1-1.4,0.1-2.6,0.1
		c-1.3,0-2.7-0.1-4.3-0.1c-1.6,0-3.3-0.1-5,0s-3.3,0.1-4.8,0.3c-1.5,0.2-2.7,0.5-3.6,0.9c-0.4,0.2-0.7,0.4-0.9,0.6
		c-0.3,0-0.5,0-0.8-0.1c-1-0.1-1.7-0.1-2.1,0.1c1.7-2.7,3.3-5.3,4.9-8c1.5-2.7,2.9-5.4,4-8s2-5.2,2.7-7.7c0.7-2.5,1-4.9,1-7.2
		c0-2.8-0.3-5.4-1-7.9c-0.6-2.5-1.6-4.8-2.7-6.7c-1.2-1.9-2.6-3.4-4.3-4.6c-1.7-1.1-3.6-1.7-5.6-1.7c-3.2,0-6.2,1.4-9.1,4.2
		c-2.9,2.8-5.6,6.6-8,11.2c-2.4,4.7-4.7,10-6.6,16c-2,6-3.6,12.2-4.9,18.6c-0.5,0.1-1.4,0.1-2.6,0.1c-1.3,0-2.7-0.1-4.3-0.1
		c-1.6,0-3.3-0.1-5,0s-3.3,0.1-4.8,0.3c-1.5,0.2-2.7,0.5-3.6,0.9c-0.9,0.4-1.4,1-1.4,1.7c0,0.5,0,1,0.1,1.7c0,0.7,0.2,1.3,0.5,1.9
		c0.2,0.4,0.5,0.8,0.8,1.1c-0.6-0.2-1.4-0.2-2.3-0.2c-1.1,0-2.3,0.1-3.6,0.4c-1.3,0.3-2.6,0.7-3.9,1.2c-1.2,0.6-2.3,1.3-3.3,2.1
		c-1.1,1-1.7,2-2,3.2c-0.4,1.7-1.5,5.4-3.3,11.1c-1.9,7-3.2,11.5-3.9,13.5c-0.2,0.5-0.5,1.8-0.9,3.8l-0.3-0.6
		c-1.9,1.9-3.8,3.6-5.6,5c-1.8,1.4-3.6,2.7-5.4,3.8c-1.8,1.2-3.6,2.2-5.3,3.2c-1.8,1-3.5,1.9-5.2,2.9c1.4-2.2,2.6-4.3,3.5-6.4
		c0.9-2.1,1.6-4.1,2.1-6.2c0.5-2.1,0.8-4.2,1-6.4c0.2-2.2,0.3-4.5,0.3-6.9c0-2.9-0.4-5.6-1.2-8.3c-0.8-2.6-2-5-3.5-7
		c-1.5-2-3.4-3.6-5.6-4.9c-2.2-1.2-4.7-1.8-7.5-1.8c-2.2,0-4.4,1-6.6,3c-2.2,2-4.7,4.6-7.3,7.9l-1.1-0.8c3.3-4,6.7-8.3,10-12.9
		c3.4-4.5,6.4-9.2,9.1-14c2.7-4.8,4.9-9.5,6.6-14.3c1.7-4.8,2.5-9.4,2.5-13.9c0-3.2-0.2-6.3-0.6-9.1c-0.4-2.9-1.2-5.3-2.4-7.5
		c-1.2-2.1-2.9-3.8-5.1-5c-2.2-1.2-5.1-1.9-8.7-1.9c-3.2,0-6.2,1.3-9,3.9s-5.4,6.1-7.7,10.4s-4.5,9.3-6.4,14.8
		c-1.9,5.5-3.5,11.6-4.6,18.1c-1.2,6.6-2.1,12-2.9,16.4c-0.7,5.7-1.3,10.9-1.7,15.6c-0.9,4.2-1.8,10.8-2.7,19.8
		c-0.7,6.1-1.2,11.2-1.5,15.5c-0.4,4.9-0.7,9.2-0.9,13.1c2.5,1.9,5.1,3.7,7.9,5.4c1.5,0.9,5.1,2.7,10.8,4.3
		c0.6,0.2,4.6,0.9,12.1,0.9h1.8c1.8-1,3.5-2,5.1-2.8c1.4-0.7,2.8-1.7,4.2-2.5c1.4-0.8,2.5-1.8,3.3-2.6c3.3-0.8,6.5-1.7,9.5-2.7
		s5.8-2.1,8.6-3.4c2.7-1.3,5.4-2.8,7.9-4.6c-0.1,1.1-0.1,2.1-0.1,3.1c0,2.1,0.2,4.1,0.7,5.9c0.4,1.8,1.2,3.3,2.2,4.5
		c1,1.2,2.4,2.2,4.1,2.9s3.8,1,6.2,1c2.8,0,5.7-0.5,8.7-1.5c3.1-1,6.1-2.2,9-3.7c2.9-1.5,5.2-3.1,7.8-4.9c2.5-1.8,3.9-3.5,5.9-5
		v-5.9c0,3.1,2.2,5.9,3.3,8.4c1.8,4.1,4.4,7.3,7.1,9.5c2.7,2.2,6,3.3,9.6,3.3c1.8,0,3.8-0.3,6-1c2.2-0.7,4.7-1.7,7.5-3
		c2.8-1.3,5.4-3,8.9-5c3.6-2,6.6-4.3,11.6-7v-3.2c1,2.4,2.1,4.5,2.9,6.5c1.8,4.1,4.4,7.3,7.2,9.5c2.7,2.2,6.1,3.3,9.7,3.3
		c1.8,0,3.8-0.3,6-1c2.2-0.7,4.7-1.7,7.5-3c2.8-1.3,6-3,9.6-5c2.4-1.3,5-2.8,7.9-4.5c0.8,1.5,1.8,3,2.8,4.3
		C183-732.5,185.7-730.3,189.1-728.6z M144.3-803.3c-0.7-0.1-1.4-0.1-2.2-0.2c0.9-3.8,1.8-7.8,2.8-11.8c1-4.1,2.1-7.8,3.3-11.2
		c1.2-3.4,2.4-6.2,3.7-8.3c1.3-2.2,2.5-3.3,3.8-3.3c0.9,0,1.6,0.2,2.1,0.6c0.5,0.4,0.9,0.9,1.1,1.4c0.2,0.6,0.4,1.2,0.5,1.8
		c0.1,0.6,0.1,1.2,0.1,1.7c0,1.5-0.4,3.4-1.2,5.8c-0.8,2.3-1.8,4.9-3.1,7.6c-1.2,2.7-2.6,5.5-4.2,8.2c-1.5,2.8-3,5.4-4.5,7.8
		C145.7-803.2,145-803.2,144.3-803.3z M90.5-803.3c-0.7-0.1-1.4-0.1-2.2-0.2c0.9-3.8,1.8-7.8,2.8-11.8c1-4.1,2.1-7.8,3.3-11.2
		c1.2-3.4,2.4-6.2,3.7-8.3c1.3-2.2,2.5-3.3,3.8-3.3c0.9,0,1.6,0.2,2.1,0.6c0.5,0.4,0.9,0.9,1.1,1.4c0.2,0.6,0.4,1.2,0.5,1.8
		c0.1,0.6,0.1,1.2,0.1,1.7c0,1.5-0.4,3.4-1.2,5.8c-0.8,2.3-1.8,4.9-3.1,7.6c-1.2,2.7-2.6,5.5-4.2,8.2c-1.5,2.8-3,5.4-4.5,7.8
		C91.9-803.2,91.2-803.2,90.5-803.3z M-23.3-796.2c0.5-2.5,1.1-5.3,1.7-8.4c0.6-3.1,1.3-6.3,2-9.7c0.7-3.4,1.5-6.8,2.4-10.1
		c0.9-3.3,1.8-6.5,2.8-9.5c0.9-3,1.9-5.7,2.9-8c1-2.3,2-4.1,3-5.5c1-1.4,2-2,2.9-2c0.8,0,1.4,0.3,1.9,0.8s0.8,1.1,1.1,1.8
		c0.3,0.7,0.4,1.3,0.5,1.9c0.1,0.6,0.1,1,0.1,1.2c-0.2,3.4-0.8,6.7-1.6,10c-0.8,3.3-1.9,6.5-3.1,9.6c-1.3,3.2-2.6,6.3-4.2,9.3
		s-3.1,6-4.7,8.8c-1.6,2.9-3.2,5.7-4.8,8.3c-1.6,2.7-3,5.2-4.3,7.7C-24.2-791.6-23.8-793.6-23.3-796.2z M-9.2-741.3
		c-1.3,1-2.8,1.4-4.4,1.4c-1.4,0-2.8,0.1-4.4,0.4c-1.5,0.2-3,0.2-4.4-0.1c-1.6-0.3-3.1-0.7-4.7-1.2c0.2-1.7,0.4-3.5,0.6-5.4
		c0.2-1.7,0.4-3.5,0.7-5.7c0.7-5.6,1-8.5,1-8.6c-0.5-1,0.3-3.8,2.4-8.3c1.1-2.3,2.4-4.2,3.8-5.7c1.4-1.5,3-2.6,4.6-3.3
		c1.7-0.7,3.3-1.1,5-1.1c1.9,0,3.4,0.3,4.6,0.8c1.2,0.5,2.2,1.2,2.9,2c0.7,0.8,1.2,1.8,1.4,2.8c0.3,1.1,0.4,2.2,0.4,3.4
		c0,1.8-0.1,3.8-0.4,6c-0.2,2.2-0.6,4.4-1.1,6.6c-0.5,2.2-1.1,4.4-1.9,6.4c-0.8,2.1-1.7,3.9-2.7,5.5C-6.6-743.5-7.8-742.2-9.2-741.3
		z M56.1-741.6c-2.1,1.2-4,1.8-5.7,1.8c-1.5,0-2.4-0.6-2.9-1.9c-0.5-1.3-0.7-3-0.7-5.1c0-2.2,0.3-4.6,1-7.3c0.7-2.7,1.2-5.4,1.7-8.1
		c0.4-2.7,1.3-6,2.5-9.8c1.2-3.8,2.2-7,2.8-9.4c0.6-2.4,1.2-4.6,1.7-6.5c0.5-1.9,0.7-3.4,0.7-4.4c0-1.1-0.3-2.1-0.9-2.8
		c0.4,0.1,0.9,0.2,1.4,0.3c2.6,0.3,4.6,0.6,5.9,0.8c1.4,0.2,2.5,0.4,3.4,0.6c0.9,0.2,1.7,0.4,2.5,0.6c0.8,0.2,1.9,0.4,3.3,0.6
		c-0.4,3.2-0.8,6.4-1,9.6c-0.2,3.2-0.4,6.3-0.4,9.1c0,7,0.4,13.3,1.3,19c-1.2,1-2.5,2.2-4,3.4c-2,1.8-4.1,3.6-6.3,5.2
		C60.3-744.3,58.2-742.8,56.1-741.6z M101.7-742.8c-1.5,0.5-2.7,0.7-3.7,0.7c-1.6,0-3.1-0.2-4.4-0.7s-2.4-1.3-3.3-2.4
		c-0.9-1.1-1.6-2.6-2.1-4.3s-0.7-3.9-0.7-6.5c0-1,0-2.1,0-3.3c0-1.2,0.1-2.4,0.1-3.7c0-1.3,0.1-2.6,0.1-3.9c0.1-1.3,0.1-2.6,0.1-3.8
		c0.1-2.9,0.3-5.8,0.5-8.7c1.2-1.5,2.5-2.6,3.9-4.4c1.4-1.8,2.8-3.1,4.2-5.1h27.4c0.9,0,1.8-0.9,2.6-1.6c-0.3,2.8-0.6,5.3-0.8,8.2
		c-0.2,3.2-0.4,6.1-0.4,9c0,5.7,0.3,10.8,0.8,15.6c-0.8,0.7-1.6,1.4-2.4,2.1c-1.8,1.5-3.6,2.9-5.5,4.3c-1.9,1.4-3.9,2.6-5.9,3.7
		s-3.9,2.1-5.6,3C104.9-744,103.2-743.3,101.7-742.8z M192.7-769.3c0.8-2.2,1.5-4.1,2.1-5.6c0.6-1.5,1.4-2.9,2.4-4
		c1-1.2,2.2-2.2,3.7-2.9c1.5-0.7,3.2-1.1,5.3-1.1c1.1,0,2.1,0.7,2.9,2c0.8,1.3,1.2,3.1,1.2,5.2c0,1.5-0.8,3.4-2.5,5.7
		c-1.7,2.3-3.4,4.1-5.1,5.4c-1.7,1.3-3.6,2.5-5.7,3.3c-2,0.9-3.9,1.3-5.6,1.3c0-1,0-2.3,0.1-3.7S191.9-767.1,192.7-769.3z"/>
	<path fill="#FFFF00" d="M488.4-859.1c-3.8,2.8-7.1,6.5-10,11.2c-2.8,4.7-5.2,10.1-7.2,16.3c-2,6.2-3.5,12.7-4.5,19.5
		c-1,6.8-2,13.7-3,20.6c-1,6.9-1.7,13.6-2.1,20c-0.4,6.2-0.6,11.9-0.7,17.1c-0.4,0.3-0.8,0.6-1.3,1c-2.7,2-5.5,3.8-8.5,5.5
		c-3,1.7-6.1,3.1-9.2,4.2c-3.2,1.1-6.2,1.7-9,1.7c-0.9,0-1.8-0.1-2.5-0.3c-0.8-0.2-1.5-0.5-2.3-1s-1.4-1.1-2.1-2
		c-0.7-0.8-1.4-1.9-2.1-3.1c4.1-1.1,8-2.7,11.5-4.7c3.6-2,6.6-4.3,9.2-6.8c2.6-2.6,4.8-5.6,6.8-9.2c1.9-3.6,2.9-6.8,2.9-9.7
		c0-2.7-0.5-5.2-1.4-7.3c-1-2.2-2.3-4.1-4-5.6c-1.7-1.5-3.7-2.7-6-3.6c-2.3-0.9-4.8-1.3-7.4-1.3c-3.3,0-6.2,0.6-8.9,1.7
		c-2.7,1.1-5.1,2.7-7.2,4.6c-2.2,1.9-4,4.2-5.6,6.8c-1.6,2.6-2.9,5.2-4,8.1c-1.1,2.8-2.1,6-3.1,9.7c-0.1,0.3-0.1,0.6-0.2,0.9
		c-0.6,0.3-1.3,0.6-1.9,0.9c-2.3,1-4.5,1.4-6.6,1.4c-0.8,0-1.5-0.1-2.2-0.4c-0.7-0.3-1.3-0.8-1.9-1.5s-1-1.6-1.3-2.7
		c-0.3-1.1-0.5-2.6-0.5-4.3c0-1,0.1-2.2,0.4-3.7c0.2-1.5,0.6-3.4,1.1-5.7c0.5-2.3,0.9-4.2,1.1-5.7c0.2-1.5,0.4-2.6,0.4-3.4
		c0-1-0.2-2-0.6-2.8c-0.4-0.8-0.9-1.5-1.5-2.1s-1.4-1-2.2-1.3c-0.9-0.3-1.7-0.5-2.6-0.5c-2.6,0-4.9,0.7-6.9,2.1s-3.8,3.1-5.4,5.2
		s-3.1,4.8-4.5,7.9s-2.6,6.7-3.6,7.7h-0.8c-0.1-2,0-5.4,0.2-8.7c0.2-3.2,0.4-5.8,0.4-7.6c0-1.5,0-2.7-0.1-3.5
		c-0.1-0.9-0.3-1.5-0.6-2s-0.8-0.8-1.5-0.9s-1.7-0.2-2.9-0.2c-1.1,0-2,0.1-2.7,0.2s-1.4,0.4-1.9,0.7c-0.5,0.4-0.9,0.8-1.3,1.5
		s-0.8,1.5-1.1,2.5c-0.6,1.6-1.2,3.6-1.9,6c-0.6,2.4-1.4,5.5-2.2,9.1c-0.9,3.6-1.6,7.1-2.1,10.3c-0.5,3.2-1,6.4-1.4,9.5
		c-0.1,0.7-0.2,1.3-0.3,2c-2.6,2.2-5,4.1-7.4,5.9c-1.1,0.8-2.3,1.6-3.5,2.4c-1.2,0.8-2.4,1.5-3.6,2.1c-1.2,0.6-2.3,1.1-3.4,1.5
		c-1.1,0.4-2.1,0.5-3,0.5c-0.9,0-1.7-0.3-2.3-0.9c-0.6-0.6-1.1-1.4-1.5-2.3c-0.4-1-0.6-2.1-0.8-3.4s-0.2-2.6-0.2-4
		c0-1.1,0.1-2.2,0.2-3.4c0.1-1.2,0.3-2.3,0.6-3.5c0.2-1.1,0.5-2.2,0.7-3.1c0.2-1,0.5-1.8,0.7-2.5c1.1-3.1,3.8-8.9,7.9-17.5
		c2.7-5.6,5-11.3,7-17.1c1.9-5.7,3.9-11.6,5.8-17.4c2-5.9,3-12.2,3.2-19.1c0-1.8,0.1-3.5,0.1-5.2c0-2.7-0.2-5.3-0.6-7.9
		c-0.4-2.6-1.1-4.8-2.1-6.7c-1-1.9-2.2-3.5-3.8-4.6c-1.6-1.2-3.5-1.8-5.7-1.8c-3.1,0-6,0.9-8.9,2.8c-2.9,1.9-5.6,4.5-8.1,7.8
		c-2.5,3.3-4.9,7.3-7,11.8c-2.1,4.6-3.9,9.6-5.2,15c-1.3,5.4-2.6,10.5-3.8,15.2c-1.2,4.7-1.8,10.2-2,16.3c-3.6,0.3-7,1.2-10.2,2.5
		s-6.3,3.4-9.3,6c-3,2.7-5.4,5.6-7.3,8.8c-1.8,3.2-3.5,6.3-5,9.3c-1.5,3-2.6,6-3.4,9.2c-0.8,3.2-1.2,6.3-1.2,9.4
		c0,2.9,0.4,5.7,1.1,8.4c0.7,2.7,1.9,5.1,3.4,7.3c1.5,2.1,3.4,3.8,5.6,5.1c2.3,1.3,4.9,1.9,8,1.9c2.2,0,4.4-0.4,6.6-1.1
		c2.2-0.7,4.3-1.7,6.4-2.9c2.1-1.2,4.2-2.6,6.2-4.3c2-1.6,3.9-3.4,5.6-5.2c1.2,2.9,2.5,5.3,4.1,7c1.6,1.8,3.2,3.1,4.7,4.1
		c1.6,0.9,3,1.6,4.4,1.9c1.3,0.3,2.3,0.5,3,0.5c1.2,0,2.4-0.2,3.8-0.6c1.4-0.4,2.8-1,4.3-1.7c1.5-0.7,3-1.5,4.5-2.3
		c1.5-0.9,3-1.8,4.4-2.7c2-1.3,4-2.8,6.1-4.4c0.1,0.8,0.1,1.6,0.2,2.4c0.2,1.8,0.6,3.4,1.3,4.8c0.6,1.4,1.6,2.5,2.7,3.4
		c1.2,0.8,2.8,1.2,4.7,1.2c0.9,0,1.6-0.2,2.4-0.5c0.7-0.3,1.4-0.8,2-1.6c0.6-0.8,1.2-1.7,1.8-3s1.2-2.6,1.9-4.4l12.8-35.4h1.1
		c0.4,3,0.9,5.8,1.5,8.7c0.6,2.9,1.6,5.5,2.9,7.8c1.3,2.4,3,4.2,5.2,5.7c2.2,1.5,5.1,2.2,8.6,2.2c2,0,4-0.3,5.9-0.9
		c1.5-0.5,2.9-1,4.3-1.7c0.3,1.5,0.6,2.9,1,4.3c1.1,3.7,2.8,6.9,5,9.7c2.2,2.8,5,5,8.3,6.6c3.3,1.6,7.2,2.5,11.7,2.5
		c2.9,0,5.7-0.3,8.5-1c2.8-0.7,5.5-1.5,8.1-2.6c2.6-1.1,5.1-2.4,7.4-3.8c1.9-1.1,3.6-2.2,5.3-3.4c0,0.5,0,0.9,0.1,1.4
		c0.1,1.8,0.4,3.4,0.9,4.8c0.5,1.4,1.2,2.5,2.1,3.4c0.9,0.8,2.1,1.3,3.7,1.3c1.2,0,2.2-0.2,2.9-0.7c0.8-0.5,1.5-1.2,2.1-2.2
		c0.6-1,1.3-2.2,2-3.8c0.7-1.6,1.5-3.4,2.6-5.5c2.1-4.3,4.4-8.4,7-12.5c2.6-4,5.1-7.6,7.5-10.9c2.4-3.2,4.6-5.9,6.5-8
		c1.9-2.1,3.3-3.4,4.1-4l1.5,0.2c-0.1,0.1-0.5,0.7-1,1.6c-0.5,0.9-1.1,2.1-1.7,3.5c-0.7,1.4-1.4,3.1-2.2,4.9
		c-0.8,1.8-1.5,3.7-2.1,5.6c-0.6,1.9-1.1,3.8-1.6,5.7c-0.4,1.9-0.6,3.6-0.6,5.2c0,2.2,0.3,4.5,0.9,6.9c0.6,2.4,1.6,4.7,2.8,6.8
		c1.3,2.1,2.9,3.8,4.9,5.1c2,1.3,4.3,2,7,2c1.7,0,3.5-0.3,5.4-0.8c1.9-0.5,3.8-1.2,5.6-2c1.9-0.8,3.7-1.8,5.6-2.9
		c1.9-1.1,3.6-2.1,5.2-3.2s3-2,4.4-3c1.1-0.8,2-1.4,2.7-2c0.9,1.7,1.9,3.3,3,4.7c2.2,2.8,5,5,8.3,6.6c3.3,1.6,7.2,2.5,11.7,2.5
		c2.9,0,5.7-0.3,8.5-1c2.8-0.7,5.5-1.5,8.1-2.6c2.6-1.1,5.1-2.4,7.4-3.8c2.2-1.3,4.2-2.6,6.1-4c0,0.7,0.1,1.3,0.2,2
		c0.2,1.8,0.6,3.4,1.3,4.8c0.6,1.4,1.6,2.5,2.7,3.4c1.2,0.8,2.8,1.2,4.7,1.2c1.6,0,2.9-0.4,4.1-1.1c1.1-0.7,2.2-1.3,3.2-3.3
		l18.7-36.4h1.1c-0.6,3-1,6.7-1.4,10c-0.4,3.3-0.6,6.1-0.6,8.9c0,7.3,0.9,12.6,2.7,16.4s4,5.6,6.6,5.6c2.6,0,5.1-0.4,7.5-1.2
		c0.9-0.2,3.2-1.2,6.9-2.9c1.5-0.7,5.3-2.6,11.3-5.9c4.2-2.2,6.4-3.5,6.7-3.7l3.6-2.7l0.1-16c-5.3,3.5-9.8,6.5-13.6,8.9
		c-3,2-4.6,2.9-4.8,2.9c-0.1,0-1.2,0.7-3.3,2.4c-0.4,0.4-1.4,0.9-3,1.5c-1,0.4-1.9,0.6-2.4,0.6c-1.6,0-2.7-1-3.5-2.9
		s-1.1-4.3-1.1-7.3c0-1.8,0.1-3.7,0.3-5.8c0.2-2.1,0.5-4.2,0.8-6.4c0.3-2.1,0.7-4.6,1.1-7.3c0.4-2.7,0.8-4.9,1.1-6.6
		c0.3-1.7,0.6-3.2,0.8-4.4c0.2-1.2,0.3-2.1,0.3-2.6c0-3.5-0.7-6.3-2.1-8.3c-1.4-2-3.3-3-5.7-3c-2.4,0-4.5,0.5-6.5,1.4
		s-3.7,2.7-5.2,5.3c-0.3,0.6-0.8,1.5-1.5,2.6c-0.7,1.2-1.4,2.6-2.2,4.1c-0.8,1.5-1.7,3.2-2.6,4.9c-0.9,1.7-1.8,3.6-2.6,5.8
		c-0.8,2.2-1.5,4.3-2.1,5.5s-1.1,2-1.4,3h-1.4c0,0,0.1-1.5,0.2-2.4c0.1-1,0.3-2.7,0.5-4.7s0.4-3.9,0.7-5.4c0.2-1.5,0.5-3.1,0.7-4.6
		c0.2-1.5,0.4-2.8,0.5-4s0.2-2.2,0.2-2.9c0-2.6-0.5-4.7-1.5-6.3c-1-1.6-2.8-2.4-5.4-2.4c-2.6,0-4.6,0.7-6.1,2.2
		c-1.5,1.5-2.5,3.3-3,5.5c-0.7,2.8-1.4,6.2-2.1,10.1c-0.7,3.9-1.4,8.4-1.9,13.3c-0.4,3.5-0.8,6.7-1.1,9.8c-0.9,0.7-1.9,1.5-2.9,2.2
		c-2.7,2-5.5,3.8-8.5,5.5c-3,1.7-6.1,3.1-9.2,4.2c-3.2,1.1-6.2,1.7-9,1.7c-0.9,0-1.8-0.1-2.5-0.3c-0.8-0.2-1.5-0.5-2.3-1
		c-0.7-0.5-1.4-1.1-2.1-2c-0.7-0.8-1.4-1.9-2.1-3.1c4.1-1.1,8-2.7,11.5-4.7c3.6-2,6.6-4.3,9.2-6.8c2.6-2.6,4.8-5.6,6.8-9.2
		c1.9-3.6,2.9-6.8,2.9-9.7c0-2.7-0.5-5.2-1.4-7.3c-1-2.2-2.3-4.1-4-5.6c-1.7-1.5-3.7-2.7-6-3.6c-2.3-0.9-4.8-1.3-7.4-1.3
		c-3.3,0-6.2,0.6-8.9,1.7c-2.7,1.1-5.1,2.7-7.2,4.6c-2.2,1.9-4,4.2-5.6,6.8c-1.6,2.6-2.9,5.2-4,8.1c-1.1,2.8-2.1,6-3.1,9.7
		c-1,3.6-1.5,6.8-1.5,9.4c0,0.2,0,0.3,0,0.5c-1.6,1.8-3.2,3.4-4.8,4.9c-1.1,1.1-2.3,2.1-3.5,3.1c-1.2,1-2.5,1.9-3.8,2.6
		c-1.3,0.8-2.6,1.4-3.9,1.9c-1.3,0.5-2.5,0.7-3.6,0.7c-0.9,0-1.6-0.6-2.2-1.7c-0.6-1.2-0.9-2.7-0.9-4.7c0-3.5,0.4-6.9,1.3-10.2
		c0.9-3.2,2.6-7.1,5.1-11.6c2.5-4.5,4.2-8.3,5.1-11.4c0.9-3.1,1.4-6.3,1.4-9.6c0-1.6-0.2-3-0.6-4s-1-1.9-1.6-2.4
		c-0.6-0.6-1.3-1-2-1.2c-0.7-0.2-1.4-0.3-1.9-0.3c-2.3,0-4.7,0.9-7.3,2.6c-2.6,1.7-5.9,4.6-10,8.5c-4.1,4-7.3,7.5-9.7,10.5
		c-2.4,3-4.6,5.9-6.6,8.5l-1.4-1c1.6-3,3.5-6.5,5.6-10.5c2.1-4,4.3-8.2,6.5-12.7s4.3-9.1,6.4-13.9s4-9.5,5.6-14.2
		c1.6-4.7,3-9.2,4-13.5c1-4.3,1.5-8.3,1.5-11.8c0-2.4-0.2-4.6-0.6-6.5c-0.4-1.9-1.1-3.6-2-5s-2.3-2.5-3.9-3.2
		c-1.6-0.8-3.7-1.1-6.3-1.1C496.6-863.2,492.2-861.8,488.4-859.1z M317.8-787.9c0-1.8,0.4-3.8,0.5-6c0.1-2.2,0.4-4.5,0.6-6.8
		c0.1-1.2,0.3-3.1,0.6-5.9s0.6-5.8,1-9.3c0.4-3.4,1.1-6.9,2-10.5c0.9-3.6,1.7-6.9,2.5-9.9c0.8-3,1.8-5.5,3-7.5
		c1.3-1.9,2.7-2.9,4.2-2.9c0.9,0,1.5,0.5,2,1.5c0.5,1,0.7,2.8,0.7,5.4c0,2-0.1,4.6-0.4,7.9c-0.2,2.5-0.7,5.2-1.3,8
		c-0.6,2.8-1.4,5.6-2.3,8.5c-0.9,2.9-1.8,5.8-2.7,8.7c-0.9,2.9-2.3,5.7-3.2,8.4c-2.2,6.3-5.8,12.6-7.8,18.9v-0.7c0-0.7,0-1.8,0-3.1
		C317.2-784.5,317.8-786.1,317.8-787.9z M285.3-742.7c-1-0.4-1.9-0.9-2.4-1.4c-0.6-0.6-1-1.3-1.2-2c-0.2-0.7-0.3-1.5-0.3-2.2
		c0-2.4,0.4-5.1,1.3-8.1c0.9-3,2.1-6.5,3.7-10.6c1.6-4.1,3.7-7.4,6.1-10c2.4-2.5,5.2-4.5,8.4-6.1c0.1,0,0.1,0.4,0.1,1.4
		c0,1,0.1,2.3,0.1,3.9c0,1.6,0.1,3.3,0.1,5.3c0,1.9,0.1,4.4,0.1,7.4c0,3,0.1,5.2,0.2,6.7c0.1,1.5,0.2,2.5,0.4,3.2
		c-1.1,2.4-2.3,4.6-3.6,6.6c-0.6,0.8-1.2,1.7-1.9,2.4c-0.7,0.8-1.4,1.5-2.2,2.1c-0.8,0.6-1.6,1.1-2.4,1.5c-0.8,0.4-1.7,0.6-2.5,0.6
		C287.7-742.1,286.3-742.3,285.3-742.7z M428.2-779c1-1.2,2.2-2.2,3.7-2.9c1.5-0.7,3.2-1.1,5.3-1.1c1.1,0,2.1,0.7,2.9,2
		c0.8,1.3,1.2,3.1,1.2,5.2c0,1.5-0.8,3.4-2.5,5.7c-1.7,2.3-3.4,4.1-5.1,5.4c-1.7,1.3-3.6,2.5-5.7,3.3c-2,0.9-3.9,1.3-5.6,1.3
		c0-1,0-2.3,0.1-3.7s0.5-3.3,1.3-5.5c0.8-2.2,1.5-4.1,2.1-5.6C426.4-776.5,427.2-777.8,428.2-779z M553.1-763.8
		c0.1-1.4,0.5-3.3,1.3-5.5c0.8-2.2,1.5-4.1,2.1-5.6c0.6-1.5,1.4-2.9,2.4-4c1-1.2,2.2-2.2,3.7-2.9c1.5-0.7,3.2-1.1,5.3-1.1
		c1.1,0,2.1,0.7,2.9,2c0.8,1.3,1.2,3.1,1.2,5.2c0,1.5-0.8,3.4-2.5,5.7c-1.7,2.3-3.4,4.1-5.1,5.4s-3.6,2.5-5.7,3.3
		c-2,0.9-3.9,1.3-5.6,1.3C552.9-761.2,553-762.4,553.1-763.8z M500.6-844.1c0,2.4-0.6,6.1-1.9,11.1c-1.3,5-3.3,11.1-6.1,18.4
		c-0.9,2.1-1.9,4.7-3.3,7.8c-1.3,3.1-2.7,6.3-4.2,9.8c-1.5,3.4-3,6.9-4.5,10.5c-1.5,3.5-2.9,6.8-4.2,9.8c0.6-5.4,1.4-10.9,2.4-16.6
		c0.3-2.4,0.7-4.9,1.1-7.7c0.4-2.7,0.8-5.5,1.2-8.3c0.4-2.8,0.9-5.6,1.6-8.4c0.7-2.8,1.4-5.5,2.2-8.1c3.3-7.7,6.1-13.6,8.6-17.6
		c2.4-4,4.3-6.1,5.5-6.1C500.1-849.5,500.6-847.7,500.6-844.1z"/>
	<path fill="#FFFF00" d="M717.2-745.3c-1,1.2-1.8,2.5-2.3,4c-0.5,1.5-0.7,3-0.7,4.6c0,1.9,0.3,3.5,0.9,4.8s1.4,2.4,2.4,3.3
		c1,0.8,2.2,1.5,3.7,1.9c1.4,0.4,3,0.6,4.8,0.6c2.2,0,4-0.3,5.6-0.8s2.8-1.3,3.8-2.1c1-0.9,1.8-1.8,2.3-2.8c0.5-1,0.9-2,1.2-2.9
		c0.3-0.9,0.4-1.7,0.5-2.4c0-0.7,0.1-1.1,0.1-1.3c0-3.4-1-6-3.1-7.8c-2-1.8-5-2.7-9-2.7c-2.3,0-4.3,0.3-5.9,1
		C719.6-747.4,718.2-746.5,717.2-745.3z"/>
	<path fill="#FFFF00" d="M778.7-745.3c-1,1.2-1.8,2.5-2.3,4c-0.5,1.5-0.7,3-0.7,4.6c0,1.9,0.3,3.5,0.9,4.8s1.4,2.4,2.4,3.3
		c1,0.8,2.2,1.5,3.7,1.9c1.4,0.4,3,0.6,4.8,0.6c2.2,0,4-0.3,5.6-0.8s2.8-1.3,3.8-2.1c1-0.9,1.8-1.8,2.3-2.8c0.5-1,0.9-2,1.2-2.9
		c0.3-0.9,0.4-1.7,0.5-2.4c0-0.7,0.1-1.1,0.1-1.3c0-3.4-1-6-3.1-7.8c-2-1.8-5-2.7-9-2.7c-2.3,0-4.3,0.3-5.9,1
		C781.1-747.4,779.7-746.5,778.7-745.3z"/>
	<path fill="#FFFF00" d="M840.2-745.3c-1,1.2-1.8,2.5-2.3,4c-0.5,1.5-0.7,3-0.7,4.6c0,1.9,0.3,3.5,0.9,4.8s1.4,2.4,2.4,3.3
		c1,0.8,2.2,1.5,3.7,1.9c1.4,0.4,3,0.6,4.8,0.6c2.2,0,4-0.3,5.6-0.8c1.5-0.6,2.8-1.3,3.8-2.1c1-0.9,1.8-1.8,2.3-2.8
		c0.5-1,0.9-2,1.2-2.9c0.3-0.9,0.4-1.7,0.5-2.4c0-0.7,0.1-1.1,0.1-1.3c0-3.4-1-6-3.1-7.8c-2-1.8-5-2.7-9-2.7c-2.3,0-4.3,0.3-5.9,1
		C842.6-747.4,841.3-746.5,840.2-745.3z"/>
</g>
</svg>
