<?xml version="1.0" encoding="utf-8"?>
<!-- Generator: Adobe Illustrator 18.0.0, SVG Export Plug-In . SVG Version: 6.00 Build 0)  -->
<!DOCTYPE svg PUBLIC "-//W3C//DTD SVG 1.1//EN" "http://www.w3.org/Graphics/SVG/1.1/DTD/svg11.dtd">
<svg version="1.1" id="Ebene_1" xmlns="http://www.w3.org/2000/svg" xmlns:xlink="http://www.w3.org/1999/xlink" x="0px" y="0px"
	 viewBox="0 0 520 205" enable-background="new 0 0 520 205" xml:space="preserve">
<g>
	<circle fill="none" stroke="#FF3B70" stroke-width="2" stroke-miterlimit="10" cx="398" cy="1272.5" r="50"/>
	<g>
		<rect x="377.8" y="1252" fill="none" stroke="#FF3B70" stroke-width="2" stroke-miterlimit="10" width="40" height="40"/>
		<circle fill="none" stroke="#FF3B70" stroke-miterlimit="10" cx="391.2" cy="1261.6" r="3.4"/>
		<circle fill="none" stroke="#FF3B70" stroke-miterlimit="10" cx="403.8" cy="1261.6" r="3.4"/>
		<circle fill="none" stroke="#FF3B70" stroke-miterlimit="10" cx="391.2" cy="1272.5" r="3.4"/>
		<circle fill="none" stroke="#FF3B70" stroke-miterlimit="10" cx="403.8" cy="1272.5" r="3.4"/>
		<circle fill="none" stroke="#FF3B70" stroke-miterlimit="10" cx="391.2" cy="1283.5" r="3.4"/>
		<circle fill="none" stroke="#FF3B70" stroke-miterlimit="10" cx="403.8" cy="1283.5" r="3.4"/>
	</g>
</g>
<line fill="none" stroke="#FFFF00" stroke-width="2" stroke-miterlimit="10" x1="10" y1="178.5" x2="317" y2="178.5"/>
<line fill="none" stroke="#FFFF00" stroke-width="2" stroke-miterlimit="10" x1="436" y1="178.5" x2="510" y2="178.5"/>
<line fill="none" stroke="#FFFF00" stroke-width="2" stroke-miterlimit="10" x1="363" y1="178.5" x2="386" y2="178.5"/>
<g>
	<path fill="#FFFF00" stroke="#FFFF00" stroke-width="2" stroke-miterlimit="10" d="M18,131.1c0,0.7-0.1,1.4-0.1,2.1
		c0,0.2,0,0.4,0,0.8c0,0.2,0,0.2,0.1,0c0-0.3,0-0.6,0-0.9C18,131.1,18,130.4,18,131.1z"/>
	<path fill="#FFFF00" stroke="#FFFF00" stroke-width="2" stroke-miterlimit="10" d="M140.7,144.4c0-0.7,0-1.3,0.1-2
		c0-0.7,0-1.3,0.1-2c0.1-1.5,0.2-3,0.3-4.5c0.6-0.8,1.3-1.6,2-2.5c0.7-0.9,1.5-1.8,2.2-2.8h14.2c0.6,0,1.1-0.3,1.6-0.9
		c0.5-0.6,0.7-1.4,0.7-2.3c0-0.8-0.1-1.5-0.3-2c-0.2-0.5-0.6-0.8-1.1-0.8c-0.4,0-0.9-0.1-1.6-0.1c-0.6,0-1.3-0.1-2.1-0.1
		c-0.7,0-1.5,0-2.3-0.1s-1.5,0-2.2-0.1c-0.7,0-1.3-0.1-1.8-0.1c-0.5,0-0.9,0-1.1,0c0.9-1.4,1.7-2.8,2.5-4.1c0.8-1.4,1.5-2.8,2.1-4.1
		c0.6-1.4,1.1-2.7,1.4-4c0.3-1.3,0.5-2.6,0.5-3.7c0-1.4-0.2-2.8-0.5-4.1c-0.3-1.3-0.8-2.5-1.4-3.4c-0.6-1-1.4-1.8-2.2-2.4
		c-0.9-0.6-1.8-0.9-2.9-0.9c-1.6,0-3.2,0.7-4.7,2.2c-1.5,1.5-2.9,3.4-4.1,5.8c-1.3,2.4-2.4,5.2-3.4,8.3c-1,3.1-1.9,6.3-2.5,9.6
		c-0.2,0-0.7,0.1-1.4,0.1c-0.7,0-1.4,0-2.2-0.1c-0.8,0-1.7,0-2.6,0c-0.9,0-1.7,0.1-2.5,0.2c-0.8,0.1-1.4,0.3-1.9,0.5
		c-0.5,0.2-0.7,0.5-0.7,0.9c0,0.2,0,0.5,0,0.9c0,0.3,0.1,0.7,0.3,1c0.2,0.3,0.4,0.6,0.7,0.8c0.3,0.2,0.8,0.4,1.4,0.5
		c1.3,0.2,2.4,0.3,3.1,0.4c0.7,0.1,1.3,0.2,1.7,0.3c0.5,0.1,0.9,0.2,1.3,0.3s1,0.2,1.7,0.3c-0.2,1.6-0.4,3.3-0.5,5
		c-0.1,1.7-0.2,3.2-0.2,4.7c0,1.2,0,2.3,0.1,3.4c-0.9,0.6-1.9,1.1-3,1.5c-1.2,0.5-2.3,0.7-3.4,0.7c-0.4,0-0.8-0.1-1.1-0.2
		c-0.4-0.1-0.7-0.4-1-0.8c-0.3-0.4-0.5-0.8-0.7-1.4c-0.2-0.6-0.3-1.3-0.3-2.2c0-0.5,0.1-1.2,0.2-1.9s0.3-1.8,0.6-3
		c0.3-1.2,0.5-2.2,0.6-2.9c0.1-0.8,0.2-1.3,0.2-1.8c0-0.5-0.1-1-0.3-1.5c-0.2-0.4-0.5-0.8-0.8-1.1c-0.3-0.3-0.7-0.5-1.2-0.7
		s-0.9-0.2-1.4-0.2c-1.4,0-2.5,0.4-3.6,1.1c-1,0.7-2,1.6-2.8,2.7c-0.8,1.1-1.6,2.4-2.3,4s-1.4,2.9-1.8,3.9H110c0-1,0-2.7,0.1-4.4
		s0.2-3,0.2-3.9c0-0.8,0-1.4-0.1-1.8c0-0.4-0.1-0.8-0.3-1c-0.2-0.2-0.4-0.4-0.8-0.4c-0.4-0.1-0.9-0.1-1.5-0.1c-0.6,0-1,0-1.4,0.1
		c-0.4,0.1-0.7,0.2-1,0.4c-0.3,0.2-0.5,0.4-0.7,0.8c-0.2,0.3-0.4,0.8-0.6,1.3c-0.3,0.8-0.6,1.8-1,3.1c-0.3,1.3-0.7,2.8-1.1,4.7
		c0,0.2-0.1,0.4-0.1,0.6c-0.5-0.6-1.1-1.3-1.6-2c-1.5-1.8-3.2-3.4-5-4.6c-1.8-1.2-3.7-2.2-5.7-2.9c-2-0.7-4.2-1.1-6.6-1.1
		c-2.7,0-5.2,0.5-7.4,1.5c-2.2,1-4,2.4-5.5,4.1c-1.5,1.7-2.7,3.8-3.5,6.1c-0.8,2.3-1.2,5.1-1.2,8.4c0,0.5,0,1,0,1.4
		c-0.6,0.3-1.2,0.6-1.8,0.8c-1.1,0.4-2,0.6-2.8,0.6c-1,0-1.8-0.3-2.5-0.8s-1.3-1.1-1.7-1.8c-0.5-0.8-1-1.6-1.3-2.6
		c0.3-0.6,0.7-1.3,1.1-2.1c0.3-0.6,0.8-1.6,1.4-2.9c0.6-1.3,1.1-2.5,1.7-3.5c0,0,0.2-0.3,0.4-0.8s0.5-1.1,0.8-1.7
		c0.3-0.7,0.5-1.4,0.8-2.2c0.2-0.8,0.4-1.5,0.4-2.2c0-0.9-0.4-1.7-1.3-2.2c-0.9-0.6-2-0.9-3.4-0.9c-1.4,0-2.5,0.3-3.5,0.8
		s-1.6,1.1-1.9,1.8l-9.2,21.2l-0.6,0l3.4-21.4c0-0.7-0.3-1.3-0.9-1.7c-0.6-0.4-1.4-0.6-2.5-0.6c-1.3,0-2.4,0.2-3.3,0.6
		c-0.9,0.4-1.8,1-2.5,1.8s-1.4,1.8-2,3.1s-1.3,2.7-2,4.3s-1.5,3.8-2.4,6.3s-1.9,5.1-3,7.6l-0.5,0l3-21.4c0-0.7-0.3-1.3-0.9-1.7
		c-0.6-0.4-1.5-0.6-2.7-0.6l-1-0.1c-1,0-1.8,0.2-2.5,0.7c-0.7,0.4-1.3,1-1.8,1.7c-0.5,0.7-0.9,1.4-1.3,2.2c-0.3,0.8-0.6,1.6-0.8,2.3
		c-0.1,0.3-0.1,0.5-0.1,0.6c0,1.8,0,3.6,0,5.4c0,2.1,0,4.5,0,7.2c0,5.5,0.4,9.7,1.3,12.5s2.2,4.2,4.1,4.2c1.1,0,2.3-0.4,3.4-1.3
		c1.2-0.9,2.3-2.2,3.4-3.8c1.1-1.6,2.1-3.5,3.1-5.8c1-2.2,1.8-4.7,2.5-7.4l1.1,0.2c0,1.3,0,2.7,0,4.1s0.1,2.8,0.1,4.1
		c0.1,1.3,0.1,2.6,0.3,3.8c0.1,1.2,0.3,2.2,0.4,3.1c0.2,0.9,0.4,1.6,0.6,2.1s0.6,0.8,0.9,0.8c1,0,2-0.3,2.9-1c1-0.7,2-1.6,2.9-2.8
		c1-1.2,1.9-2.6,2.8-4.2s1.8-3.4,2.6-5.4c0,1.5,0.3,2.8,0.8,3.9c0.5,1.1,1.2,1.9,2,2.6c0.8,0.7,1.8,1.2,2.9,1.5
		c1.1,0.3,2.3,0.5,3.6,0.5c1.6,0,3.3-0.3,5-1c0.8-0.3,1.5-0.6,2.3-1c0.3,0.6,0.6,1.2,1,1.8c1,1.5,2.2,2.8,3.8,3.7
		c1.5,0.9,3.4,1.4,5.5,1.4c1.5,0,2.9-0.3,4.2-0.8c1.3-0.5,2.6-1.2,3.7-2.1s2.1-1.9,3-3.1c0.9-1.2,1.6-2.5,2.2-3.9s1.1-2.8,1.4-4.3
		s0.5-2.9,0.5-4.4c0-2-0.2-3.8-0.5-5.4c-0.4-1.6-0.9-3.1-1.6-4.5l0.3-0.4c0.9,0.6,1.9,1.3,3.2,2.2c1.2,0.9,2.5,1.9,3.7,3.2
		c1.1,1.1,2.2,2.2,3.3,3.1c-0.2,1.5-0.5,2.9-0.6,4.3c-0.2,1.6-0.4,3.1-0.5,4.6c-0.1,1.4-0.2,2.7-0.2,3.8c0,1,0.1,1.9,0.2,2.9
		c0.1,0.9,0.3,1.7,0.7,2.5c0.3,0.7,0.8,1.3,1.4,1.7s1.4,0.6,2.4,0.6c0.4,0,0.8-0.1,1.2-0.2s0.7-0.4,1-0.8c0.3-0.4,0.6-0.9,0.9-1.5
		c0.3-0.6,0.6-1.2,1-2.1l6.6-18.2h0.6c0.2,1,0.5,2.8,0.8,4.4s0.8,2.8,1.5,4c0.7,1.2,1.6,2.1,2.7,2.9c1.1,0.8,2.6,1.1,4.5,1.1
		c1,0,2-0.2,3-0.5c1-0.3,2-0.7,2.9-1.1c0.9-0.4,1.7-0.9,2.5-1.4c0.5,2.7,1.1,5.1,2,7c1,2.1,2.1,3.8,3.6,4.9c1.4,1.1,3.1,1.7,4.9,1.7
		c0.9,0,1.9-0.2,3-0.5c1.1-0.3,2.4-0.9,3.8-1.5c1.4-0.7,3.2-1.5,5-2.6c1.8-1,3.4-2.2,6.4-3.6v-9.4c-1,0.8-1.7,1.6-2.6,2.4
		c-0.9,0.8-1.9,1.5-2.9,2.2c-1,0.7-2,1.3-3,1.9c-1,0.6-2,1.1-2.9,1.5c-0.9,0.4-1.8,0.8-2.6,1c-0.8,0.2-1.4,0.4-1.9,0.4
		c-0.8,0-1.6-0.1-2.3-0.4c-0.7-0.3-1.3-0.7-1.7-1.3c-0.5-0.6-0.8-1.3-1.1-2.2s-0.4-2-0.4-3.4c0-0.5,0-1.1,0-1.7
		S140.7,145,140.7,144.4z M142.5,117.4c0.5-2.1,1.1-4,1.7-5.8c0.6-1.7,1.2-3.2,1.9-4.3c0.7-1.1,1.3-1.7,1.9-1.7
		c0.5,0,0.8,0.1,1.1,0.3c0.3,0.2,0.4,0.4,0.6,0.7c0.1,0.3,0.2,0.6,0.2,0.9c0,0.3,0.1,0.6,0.1,0.9c0,0.8-0.2,1.8-0.6,3
		c-0.4,1.2-0.9,2.5-1.6,3.9c-0.6,1.4-1.4,2.8-2.2,4.3c-0.8,1.4-1.6,2.8-2.3,4c-0.4,0-0.8-0.1-1.1-0.1c-0.4,0-0.7-0.1-1.1-0.1
		C141.5,121.5,142,119.5,142.5,117.4z M84.8,147.2c-0.4,1.8-0.8,3.4-1.4,4.7c-0.6,1.3-1.3,2.4-2.1,3.2c-0.8,0.8-1.6,1.3-2.4,1.3
		c-1,0-1.8-0.2-2.5-0.6s-1.2-0.9-1.7-1.6c-0.4-0.7-0.7-1.5-0.9-2.4s-0.3-1.9-0.3-2.9c0-2,0.2-3.9,0.6-5.5c0.4-1.6,0.9-3.1,1.6-4.4
		c0.7-1.3,1.5-2.4,2.4-3.3c0.9-0.9,1.9-1.3,2.9-1.3c0.8,0,1.4,0.2,2,0.6c0.5,0.4,1,1,1.3,1.7c0.3,0.7,0.6,1.6,0.8,2.5
		c0.2,1,0.3,2,0.3,3.2C85.3,143.8,85.2,145.4,84.8,147.2z"/>
	<path fill="#FFFF00" stroke="#FFFF00" stroke-width="2" stroke-miterlimit="10" d="M231,122.6c1.3,0,2.3-0.2,3.2-0.6
		c0.9-0.4,1.6-0.9,2.2-1.5c0.6-0.6,1-1.3,1.3-2.1c0.3-0.8,0.4-1.6,0.4-2.5c0-0.9-0.2-1.7-0.5-2.4c-0.3-0.7-0.8-1.2-1.3-1.6
		c-0.6-0.4-1.2-0.7-2-0.9c-0.8-0.2-1.6-0.3-2.4-0.3c-1.4,0-2.5,0.2-3.4,0.7c-0.9,0.4-1.7,1-2.2,1.6c-0.6,0.6-1,1.3-1.2,2
		c-0.2,0.7-0.4,1.4-0.4,1.9c0,1.7,0.5,3.1,1.5,4.1C227.3,122.1,228.9,122.6,231,122.6z"/>
	<path fill="#FFFF00" stroke="#FFFF00" stroke-width="2" stroke-miterlimit="10" d="M388.5,122.3c1,0,1.8-0.1,2.5-0.4
		c0.7-0.3,1.2-0.7,1.7-1.1c0.4-0.4,0.8-0.9,1-1.4c0.2-0.5,0.4-1,0.5-1.5c0.1-0.5,0.2-0.9,0.2-1.3c0-0.4,0-0.6,0-0.7
		c0-1.8-0.5-3.1-1.4-4.1s-2.2-1.4-4-1.4c-1,0-1.9,0.2-2.6,0.6s-1.3,0.8-1.8,1.4c-0.5,0.6-0.8,1.3-1.1,2c-0.2,0.8-0.3,1.6-0.3,2.4
		c0,1.9,0.5,3.3,1.5,4.2C385.8,121.8,387,122.3,388.5,122.3z"/>
	<path fill="#FFFF00" stroke="#FFFF00" stroke-width="2" stroke-miterlimit="10" d="M371.3,122.3c1,0,1.8-0.1,2.5-0.4
		c0.7-0.3,1.2-0.7,1.7-1.1c0.4-0.4,0.8-0.9,1-1.4c0.2-0.5,0.4-1,0.6-1.5c0.1-0.5,0.2-0.9,0.2-1.3s0-0.6,0-0.7c0-1.8-0.5-3.1-1.4-4.1
		c-0.9-0.9-2.2-1.4-4-1.4c-1,0-1.9,0.2-2.7,0.6s-1.3,0.8-1.8,1.4c-0.5,0.6-0.8,1.3-1,2s-0.3,1.6-0.3,2.4c0,1.9,0.5,3.3,1.4,4.2
		S369.8,122.3,371.3,122.3z"/>
	<path fill="#FFFF00" stroke="#FFFF00" stroke-width="2" stroke-miterlimit="10" d="M495.1,151.4c-1.6,1-2.4,1.5-2.5,1.5
		c0,0-0.6,0.4-1.7,1.2c-0.2,0.2-0.7,0.5-1.5,0.8c-0.5,0.2-1,0.3-1.3,0.3c-0.8,0-1.4-0.5-1.8-1.5c-0.4-1-0.6-2.2-0.6-3.8
		c0-0.9,0.1-1.9,0.2-3c0.1-1.1,0.3-2.2,0.4-3.3s0.4-2.4,0.6-3.8c0.2-1.4,0.4-2.5,0.6-3.4s0.3-1.6,0.4-2.3s0.2-1.1,0.2-1.4
		c0-1.8-0.4-3.2-1.1-4.3c-0.7-1-1.7-1.5-2.9-1.5s-2.3,0.2-3.4,0.7c-1,0.5-1.9,1.4-2.7,2.7c-0.2,0.3-0.4,0.8-0.8,1.4
		c-0.3,0.6-0.7,1.3-1.1,2.1c-0.4,0.8-0.9,1.6-1.3,2.5c-0.5,0.9-0.9,1.9-1.3,3c-0.4,1.1-0.8,2.1-1.1,2.7s-0.6,1.4-0.7,1.4h-0.7
		c0,0,0-0.6,0.1-1.1c0.1-0.5,0.2-1.3,0.3-2.3s0.2-1.9,0.4-2.7c0.1-0.8,0.2-1.6,0.4-2.3s0.2-1.4,0.3-2.1c0.1-0.6,0.1-1.1,0.1-1.5
		c0-1.4-0.3-2.4-0.8-3.2c-0.5-0.8-1.4-1.2-2.8-1.2c-1.3,0-2.4,0.4-3.2,1.1c-0.8,0.8-1.3,1.7-1.6,2.8c-0.3,1.5-0.7,3.2-1.1,5.2
		s-0.7,4.3-1,6.9c-0.2,1.8-0.4,3.5-0.5,5.1c-0.5,0.4-1,0.8-1.5,1.2c-1.4,1-2.8,2-4.4,2.8c-1.5,0.9-3.1,1.6-4.8,2.2
		c-1.6,0.6-3.2,0.9-4.7,0.9c-0.5,0-0.9,0-1.3-0.1c-0.4-0.1-0.8-0.3-1.2-0.5s-0.7-0.6-1.1-1c-0.4-0.4-0.7-1-1.1-1.6
		c2.1-0.6,4.1-1.4,6-2.4c1.8-1,3.4-2.2,4.7-3.5c1.3-1.3,2.5-2.9,3.5-4.8c1-1.9,1.5-3.5,1.5-5c0-1.4-0.2-2.7-0.7-3.8
		c-0.5-1.1-1.2-2.1-2-2.9c-0.9-0.8-1.9-1.4-3.1-1.9c-1.2-0.4-2.5-0.7-3.8-0.7c-1.7,0-3.2,0.3-4.6,0.9c-1.4,0.6-2.6,1.4-3.7,2.4
		c-1.1,1-2.1,2.2-2.9,3.5c-0.8,1.3-1.5,2.7-2.1,4.2c-0.6,1.5-1.1,3.1-1.6,5s-0.8,3.5-0.8,4.9c0,0.3,0,0.6,0,0.9
		c-3.1,4.6-5.8,7.9-8.3,9.8c-0.8,0.6-1.6,1.1-2.3,1.5c0.4-3.8,0.6-7,0.8-9.4c0.2-2.4,0.5-4.6,1.1-6.5c0.6-2,0.9-3.6,0.9-4.9
		c0.2-4.3,0.2-6.8-0.1-7.6c-0.2-0.4-0.3-0.8-0.5-1.1c-0.4-0.7-1.2-1-2.3-1l-1.6,0c-0.3,0-0.6,0-0.9,0c-0.2,0-0.5-0.1-0.7-0.1
		c-0.2-0.1-0.4-0.1-0.5-0.2c-0.1,0-0.3-0.1-0.4-0.3c-0.1-0.1-0.3-0.2-0.3-0.3c-0.1,0-0.2-0.2-0.3-0.4c-0.1-0.2-0.3-0.4-0.3-0.4
		c-0.6-0.7-1.5-1.1-2.8-1.1c-2.8,0-5.7,1.3-8.7,4c-2.1,1.8-3.7,4-5,6.5c-1.3,2.5-2.6,5.7-3.9,9.5c-0.7,2-1,4-1,5.7
		c-0.8,0.5-1.6,1-2.4,1.4c-0.9,0.5-1.7,0.8-2.5,1.1c-0.8,0.3-1.4,0.4-2,0.4c-0.4,0-0.8-0.1-1-0.4c-0.2-0.2-0.4-0.6-0.5-1
		c-0.1-0.4-0.2-0.9-0.2-1.5c0-0.6,0-1.2,0-1.9c0-0.4,0.1-1.1,0.3-2.1c0.2-0.9,0.4-2,0.6-3.3c0.2-1.3,0.5-2.8,0.9-4.8
		c0.4-1.9,0.7-3.6,0.9-4.9c0.3-1.4,0.4-2.6,0.4-3.7s0.1-2,0.1-2.7c0-0.7-0.4-1.3-1.1-1.7c-0.7-0.4-1.7-0.7-2.9-0.7
		c-1.1,0-2,0.2-2.9,0.6c-0.8,0.4-1.3,0.9-1.4,1.5l-4.1,20.1c-0.2,1-0.5,1.9-0.9,2.7c-0.4,0.8-0.9,1.5-1.4,2c-0.5,0.5-1,1-1.6,1.3
		c-0.6,0.3-1.1,0.4-1.7,0.4c-0.4,0-0.7-0.1-1-0.3c-0.3-0.2-0.5-0.5-0.7-0.8c-0.2-0.3-0.3-0.7-0.4-1.1c-0.1-0.4-0.1-0.9-0.1-1.3
		c0,0,0.1-0.4,0.2-1.1c0.1-0.7,0.3-1.6,0.5-2.8c0.2-1.1,0.5-2.7,0.8-4.6c0.3-1.9,0.7-3.6,0.9-5.2c0.3-1.6,0.6-3.1,0.8-4.6
		c0.3-1.5,0.5-3.1,0.7-4.8c0-0.5-0.3-1-0.8-1.3c-0.6-0.4-1.5-0.6-2.8-0.6c-0.8,0-1.5,0.2-2.1,0.6c-0.6,0.4-1.2,0.9-1.6,1.5
		c-0.5,0.6-0.9,1.3-1.2,2.1c-0.3,0.8-0.6,1.5-0.9,2.2c-0.2,0.7-0.4,1.4-0.5,2c-0.1,0.6-0.2,1.1-0.3,1.5c-0.1,0.4-0.1,0.8-0.2,1.1
		c-0.6,0.4-1.1,0.7-1.7,1.1c-1.3,0.7-2.9,1.4-4.7,1.9c-1.9,0.6-4,0.9-6.5,0.9c-0.3,0-0.5,0-0.7-0.1c-0.2-0.1-0.4-0.1-0.5-0.2
		c-0.2-0.1-0.4-0.1-0.6-0.2c-0.2-0.1-0.5-0.1-0.8-0.1c-0.3,0-0.6,0-0.8,0.1c-0.3,0.1-0.6,0.2-1.2,0.4l0.1-0.6c1.6-1.9,3.1-4,4.6-6.2
		c1.5-2.2,2.9-4.5,4.3-6.8c1.4-2.3,2.6-4.6,3.8-6.9c1.2-2.3,2.2-4.5,3-6.7c0.8-2.1,1.5-4.1,2-6c0.5-1.9,0.7-3.5,0.7-5
		c0-1.6-0.3-2.9-0.8-3.9c-0.5-1.1-1.1-1.9-1.9-2.6c-0.8-0.6-1.6-1.1-2.5-1.4c-0.9-0.3-1.8-0.4-2.6-0.4c-2.2,0-4.1,0.6-5.9,1.9
		c-1.8,1.3-3.4,3-4.9,5.2c-1.5,2.2-2.8,4.7-4,7.7c-1.2,2.9-2.2,6-3.1,9.3c-0.9,3.3-1.7,6.7-2.4,10.2c-0.7,3.5-1.2,6.9-1.7,10.2
		c-0.5,3.3-0.9,6.5-1.1,9.5c-0.1,0.8-0.1,1.5-0.2,2.2c-0.4,0.3-0.8,0.6-1.2,0.8c-0.9,0.6-1.8,1.1-2.7,1.6c-0.9,0.5-1.7,0.8-2.5,1.1
		c-0.8,0.3-1.4,0.4-2,0.4c-0.4,0-0.8-0.1-1-0.4c-0.2-0.2-0.4-0.6-0.5-1c-0.1-0.4-0.2-0.9-0.2-1.5c0-0.6,0-1.2,0-1.9
		c0-0.4,0.1-1.1,0.3-2.1c0.2-0.9,0.4-2,0.6-3.3c0.2-1.3,0.5-2.8,0.9-4.8s0.7-3.6,0.9-4.9c0.3-1.4,0.4-2.6,0.4-3.7
		c0-1.1,0.1-2,0.1-2.7c0-0.7-0.4-1.3-1.1-1.7c-0.7-0.4-1.7-0.7-2.9-0.7c-1.1,0-2,0.2-2.9,0.6c-0.8,0.4-1.3,0.9-1.4,1.5l-4.1,20.1
		c-0.2,1-0.5,1.9-0.9,2.7c-0.4,0.8-0.9,1.5-1.4,2c-0.5,0.5-1,1-1.6,1.3c-0.6,0.3-1.1,0.4-1.7,0.4c-0.4,0-0.7-0.1-1-0.3
		c-0.3-0.2-0.5-0.5-0.7-0.8c-0.2-0.3-0.3-0.7-0.4-1.1c-0.1-0.4-0.1-0.9-0.1-1.3c0,0,0.1-0.4,0.2-1.1c0.1-0.7,0.3-1.6,0.5-2.8
		c0.2-1.1,0.5-2.7,0.8-4.6c0.3-1.9,0.7-3.6,0.9-5.2c0.3-1.6,0.6-3.1,0.8-4.6c0.3-1.5,0.5-3.1,0.7-4.8c0-0.5-0.3-1-0.8-1.3
		s-1.5-0.6-2.8-0.6c-0.8,0-1.5,0.2-2.1,0.6c-0.6,0.4-1.2,0.9-1.6,1.5c-0.5,0.6-0.9,1.3-1.2,2.1s-0.6,1.5-0.9,2.2
		c-0.2,0.7-0.4,1.4-0.5,2c-0.1,0.6-0.2,1.1-0.3,1.5c-0.6,5-1.3,8.7-2.1,11.2c-0.3,1-0.5,2.3-0.6,3.8c-0.2,0.1-0.3,0.2-0.5,0.3
		c-0.6,0.5-1.2,1-1.8,1.5c-0.6,0.5-1.3,1-2,1.5c-0.7,0.5-1.5,0.9-2.4,1.2c-0.8,0.3-1.8,0.5-2.8,0.5c-0.5,0-1-0.1-1.6-0.3
		c-0.6-0.2-1.2-0.4-1.8-0.6c-0.6-0.2-1.1-0.4-1.5-0.6c-0.4-0.2-0.6-0.3-0.7-0.3l0.2-0.7c0.2-0.3,0.7-0.9,1.3-1.7
		c0.7-0.8,1.4-1.8,2.3-3c0.9-1.1,1.9-2.5,2.9-4c1.1-1.5,2.1-2.9,3-4.1s1.7-2.3,2.4-3.3c0.7-1,1.2-1.8,1.5-2.3c1-0.3,1.8-0.6,2.2-0.9
		c0.4-0.3,0.7-0.6,0.7-0.8c0.1-0.6,0.2-1.3,0.2-2.2c0-1.1-0.2-1.9-0.6-2.5c-0.4-0.6-1-0.9-1.9-0.9c-0.1,0-0.2,0-0.3,0.1
		c-0.1,0-0.3,0.1-0.6,0.1c-0.3,0-0.8-0.1-1.3-0.1c-0.6,0-1.4-0.2-2.4-0.2c-0.3,0-0.7,0-1.1,0s-0.9,0.2-1.3,0.2
		c-0.6,0-1.3-0.1-1.9-0.4c-0.6-0.3-1.2-0.6-1.8-0.9c-0.6-0.4-1.2-0.6-1.8-0.9c-0.6-0.3-1.2-0.4-1.8-0.4c-0.8,0-1.6,0.1-2.6,0.4
		c-0.9,0.3-1.8,0.8-2.7,1.5c-0.8,0.7-1.6,1.8-2.3,3.1c-0.7,1.3-1.2,3.1-1.6,5.2c0,0.3-0.1,0.6-0.1,0.9s0,0.5,0,0.8
		c0,0.6,0.1,1.1,0.2,1.4c0.2,0.4,0.4,0.5,0.8,0.5c0.4,0,0.9-0.3,1.4-0.8c0.5-0.5,1.2-1.4,1.9-2.5c0.3-0.5,0.7-0.9,0.9-1.2
		c0.3-0.3,0.6-0.5,1-0.6s0.8-0.2,1.3-0.3c0.5,0,1.2,0,2,0c0.3,0,0.6,0,0.9,0.1s0.5,0.2,0.8,0.3c0.3,0.1,0.5,0.3,0.9,0.5
		c0.3,0.2,0.7,0.4,1.1,0.6l-9.5,13.1c-1.4,0.9-2.6,1.7-3.8,2.4c-1.6,1-2.4,1.5-2.5,1.5c0,0-0.6,0.4-1.7,1.2
		c-0.2,0.2-0.7,0.5-1.5,0.8c-0.5,0.2-1,0.3-1.3,0.3c-0.8,0-1.4-0.5-1.8-1.5c-0.4-1-0.6-2.2-0.6-3.8c0-0.9,0.1-1.9,0.2-3
		c0.1-1.1,0.3-2.2,0.4-3.3c0.2-1.1,0.4-2.4,0.6-3.8c0.2-1.4,0.4-2.5,0.6-3.4c0.2-0.9,0.3-1.6,0.4-2.3c0.1-0.6,0.2-1.1,0.2-1.4
		c0-1.8-0.4-3.2-1.1-4.3c-0.7-1-1.7-1.5-2.9-1.5s-2.3,0.2-3.4,0.7c-1,0.5-1.9,1.4-2.7,2.7c-0.2,0.3-0.4,0.8-0.8,1.4
		c-0.3,0.6-0.7,1.3-1.1,2.1c-0.4,0.8-0.9,1.6-1.3,2.5s-0.9,1.9-1.3,3c-0.4,1.1-0.8,2.1-1.1,2.7s-0.6,1.4-0.7,1.4h-0.7
		c0,0,0-0.6,0.1-1.1s0.2-1.3,0.3-2.3c0.1-1,0.2-1.9,0.4-2.7c0.1-0.8,0.2-1.6,0.4-2.3c0.1-0.8,0.2-1.4,0.3-2.1
		c0.1-0.6,0.1-1.1,0.1-1.5c0-1.4-0.3-2.4-0.8-3.2c-0.5-0.8-1.4-1.2-2.8-1.2c-1.3,0-2.4,0.4-3.2,1.1c-0.8,0.8-1.3,1.7-1.6,2.8
		c-0.3,1.5-0.7,3.2-1.1,5.2s-0.7,4.3-1,6.9c-0.3,2.5-0.5,4.8-0.7,6.9c-0.2,0.2-0.3,0.3-0.5,0.5c-1.1,0.9-2.1,1.8-3.2,2.7
		s-2.2,1.6-3.3,2.2c-1.1,0.6-2.1,0.9-2.9,0.9c-0.8,0-1.3-0.3-1.5-1c-0.2-0.7-0.4-1.5-0.4-2.6c0-1.1,0.2-2.4,0.5-3.8
		c0.4-1.4,0.6-2.8,0.9-4.2c0.2-1.4,0.7-3.1,1.3-5.1c0.6-2,1.1-3.6,1.4-4.9c0.3-1.3,0.6-2.4,0.9-3.4c0.3-1,0.4-1.8,0.4-2.3
		c0-0.6-0.2-1.1-0.5-1.5c-0.4-0.4-1.1-0.6-2.1-0.6c-0.6,0-1.2,0.1-1.9,0.2c-0.7,0.1-1.4,0.3-2,0.6c-0.6,0.3-1.2,0.7-1.7,1.1
		c-0.6,0.5-0.9,1.1-1,1.7c-0.2,0.9-0.8,2.8-1.7,5.7c-1,3.6-1.7,5.9-2,7c-0.1,0.3-0.3,1.3-0.6,2.9c-1.3,1.6-2.6,3-3.9,4.3
		c-0.6,0.5-1.2,1.1-1.8,1.6c-0.6,0.5-1.3,1-2,1.4c-0.7,0.4-1.3,0.7-2,1s-1.3,0.4-1.9,0.4c-0.5,0-0.8-0.3-1.1-0.9s-0.4-1.4-0.4-2.4
		c0-1.8,0.2-3.6,0.7-5.3s1.3-3.7,2.6-6s2.2-4.3,2.7-5.9c0.5-1.6,0.7-3.3,0.7-5c0-0.9-0.1-1.5-0.3-2.1s-0.5-1-0.8-1.3
		c-0.3-0.3-0.7-0.5-1.1-0.6s-0.7-0.2-1-0.2c-1.2,0-2.4,0.4-3.8,1.3c-1.3,0.9-3.1,2.4-5.2,4.4c-2.1,2-3.8,3.8-5,5.4
		c-1.3,1.6-2.4,3-3.4,4.4l-0.7-0.5c0.8-1.6,1.8-3.4,2.9-5.4c1.1-2.1,2.2-4.3,3.3-6.6c1.1-2.3,2.2-4.7,3.3-7.2c1.1-2.5,2-4.9,2.9-7.3
		c0.8-2.4,1.5-4.7,2-7c0.5-2.2,0.8-4.3,0.8-6.1c0-1.2-0.1-2.4-0.3-3.4c-0.2-1-0.5-1.9-1.1-2.6s-1.2-1.3-2-1.7
		c-0.8-0.4-1.9-0.6-3.3-0.6c-2.6,0-4.8,0.7-6.8,2.1c-2,1.4-3.7,3.4-5.1,5.8c-1.5,2.4-2.7,5.2-3.7,8.4s-1.8,6.5-2.3,10.1
		c-0.5,3.5-1,7.1-1.6,10.6c-0.5,3.6-0.9,7-1.1,10.3c-0.2,3.3-0.3,6.4-0.4,9.1c0,2.7-0.1,4.9-0.1,6.6c0,1,0,1.9,0.1,2.8
		c0.1,0.9,0.2,1.7,0.5,2.5c0.2,0.7,0.6,1.3,1.1,1.7c0.5,0.4,1.1,0.7,1.9,0.7c0.6,0,1.1-0.1,1.5-0.4c0.4-0.3,0.8-0.6,1.1-1.1
		c0.3-0.5,0.7-1.2,1-2c0.3-0.8,0.8-1.8,1.3-2.9c1.1-2.2,2.3-4.4,3.6-6.4c1.3-2.1,2.6-3.9,3.9-5.6c1.3-1.7,2.4-3,3.4-4.1
		c1-1.1,1.7-1.8,2.1-2l0.8,0.1c-0.1,0.1-0.2,0.3-0.5,0.8c-0.3,0.5-0.6,1.1-0.9,1.8c-0.3,0.7-0.7,1.6-1.1,2.5
		c-0.4,0.9-0.8,1.9-1.1,2.9c-0.3,1-0.6,2-0.8,3s-0.3,1.9-0.3,2.7c0,1.1,0.2,2.3,0.5,3.6c0.3,1.3,0.8,2.4,1.5,3.5
		c0.7,1.1,1.5,1.9,2.5,2.6c1,0.7,2.2,1,3.6,1c0.9,0,1.8-0.1,2.8-0.4c1-0.3,1.9-0.6,2.9-1.1c1-0.4,1.9-0.9,2.9-1.5
		c1-0.6,1.9-1.1,2.7-1.6c0.8-0.5,1.5-1,2.1-1.4c0.1,0.6,0.1,1.1,0.3,1.6c0.2,0.9,0.6,1.7,1.2,2.3c0.5,0.6,1.2,1.1,2.1,1.5
		c0.9,0.4,1.9,0.5,3.2,0.5c1.4,0,2.9-0.3,4.5-0.8c1.6-0.5,3.1-1.2,4.7-1.9c1.5-0.8,2.9-1.6,4.3-2.5c0.3-0.2,0.5-0.4,0.8-0.6
		c0,0.3,0,0.7,0.1,1c0.1,0.9,0.3,1.7,0.7,2.5c0.3,0.7,0.8,1.3,1.4,1.7s1.4,0.6,2.4,0.6c0.8,0,1.5-0.2,2.1-0.6
		c0.6-0.3,1.1-1.1,1.7-2.1l9.7-19.2h0.6c-0.3,2-0.5,3.9-0.7,5.6c-0.2,1.7-0.3,3.3-0.3,4.8c0,3.8,0.5,6.6,1.4,8.6
		c0.9,2,2.1,2.9,3.4,2.9c1.4,0,2.6-0.2,3.9-0.6c0.5-0.1,1.7-0.6,3.6-1.5c0.5-0.2,1.5-0.7,3-1.5c0,0.1,0.1,0.1,0.1,0.2
		c0.4,0.4,0.8,0.8,1.3,1c0.5,0.2,1.2,0.4,1.9,0.4c0.7,0,1.5-0.1,2.4-0.4c1.1,0.5,2.1,1,3,1.3c0.9,0.4,1.7,0.6,2.4,0.9
		c0.7,0.2,1.2,0.4,1.7,0.5c0.4,0.1,0.7,0.1,0.8,0.1c1.2,0,2.5-0.1,3.9-0.4c1.4-0.3,2.7-0.7,4-1.2s2.6-1.1,3.8-1.7
		c0.3-0.1,0.5-0.3,0.7-0.4c0.3,0.7,0.6,1.2,1,1.7c0.5,0.6,1.2,1.1,1.9,1.4c0.7,0.3,1.5,0.4,2.3,0.4c1,0,2-0.2,3-0.6
		c1-0.4,2.1-1,3.1-1.7c1-0.7,2-1.5,3-2.5c1-1,1.9-2,2.8-3.1c0.2,1.1,0.5,2.1,0.8,3c0.3,0.9,0.7,1.7,1.2,2.3s1,1.2,1.7,1.5
		c0.7,0.4,1.4,0.5,2.4,0.5c0.9,0,1.9-0.1,2.9-0.4c1.1-0.3,2.1-0.6,3.2-1c1.1-0.4,2.2-0.9,3.3-1.5c0.6-0.3,1.2-0.6,1.7-0.9
		c-0.1,1.3-0.2,2.4-0.2,3.3c-0.1,1.4-0.1,2.1-0.1,2.2c0,1.5,0.1,3,0.2,4.6c0.1,1.6,0.3,3.2,0.6,4.7c0.3,1.5,0.6,3,1.1,4.4
		c0.5,1.4,1.1,2.6,1.8,3.6c0.7,1,1.6,1.9,2.6,2.5c1,0.6,2.2,0.9,3.5,0.9c1.4,0,2.7-0.3,3.8-0.8c1.1-0.6,2.1-1.3,3-2.2
		c0.9-0.9,1.6-2,2.3-3.2c0.6-1.2,1.2-2.4,1.6-3.7c0.4-1.3,0.8-2.5,1.1-3.8c0.3-1.3,0.5-2.4,0.7-3.4c0.2-1,0.3-1.9,0.3-2.6
		c0.1-0.7,0.1-1.2,0.1-1.4c0-1.9-0.3-3.8-0.8-5.6c-0.5-1.9-1.1-3.5-1.8-5c-0.8-1.7-1.6-3.4-2.6-5c1.8-0.1,3.5-0.2,5.3-0.5
		c1.5-0.2,3.1-0.6,4.9-1.1c0.8-0.2,1.5-0.5,2.2-0.8c-0.1,0.5-0.3,1.1-0.4,1.5c-0.5,1.7-0.7,4.2-0.7,7.4c0,1.5,0.2,2.8,0.5,3.9
		c0.3,1,0.8,1.9,1.3,2.5c0.5,0.6,1.2,1.1,1.9,1.4c0.7,0.3,1.5,0.4,2.3,0.4c1,0,2-0.2,3-0.6c1-0.4,2.1-1,3.1-1.7c1-0.7,2-1.5,3-2.5
		c1-1,1.9-2,2.8-3.1c0.2,1.1,0.5,2.1,0.8,3c0.3,0.9,0.7,1.7,1.2,2.3s1,1.2,1.7,1.5c0.7,0.4,1.4,0.5,2.4,0.5c0.9,0,1.9-0.1,2.9-0.4
		c1.1-0.3,2.1-0.6,3.2-1c1.1-0.4,2.2-0.9,3.3-1.5c1-0.5,1.9-1,2.7-1.5c0.8,1.2,1.7,2.2,3,3.1c1.6,1.2,3.4,1.7,5.3,1.7
		c2.6,0,5.3-1.3,8-3.9l-0.7,4.4c-1.5,1.4-2.9,2.6-4,3.8c-1.1,1.2-2.5,2.7-4.3,4.7c-0.8,0.9-1.7,2-2.5,3.2c-0.8,1.2-1.4,2.1-1.7,2.7
		s-1,1.8-1.9,3.4c-1.6,2.9-2.3,5.6-2.1,8.2c0.1,1.4,0.5,2.6,1,3.6c0.6,1,1.3,1.8,2.2,2.4c0.9,0.6,1.9,1,2.9,1.3s2.2,0.4,3.5,0.4
		c1.5,0,3-0.2,4.3-0.7c1.3-0.5,2.4-1.1,3.4-1.9c0.9-0.8,1.8-1.8,2.5-2.9c0.7-1.1,1.4-2.3,1.8-3.4c0.5-1.1,0.9-2.4,1.2-3.8
		c0.4-1.4,0.6-2.6,0.7-3.7c0.1-1.1,0.3-2.2,0.4-3.3c0.1-0.5,0.1-1.2,0.3-2.1c0.3-3.2,0.6-5.3,0.8-6.5c0.2-1.2,0.7-2,1.4-2.4
		c1.1-0.7,2.8-1.8,5.1-3.4c0.1-0.1,0.3-0.2,0.5-0.3c1.2-0.9,2.7-2.3,4.5-4.1c0.8-0.8,1.4-1.5,2-2.2c0.4,0.6,0.7,1.2,1.2,1.7
		c1.1,1.4,2.6,2.6,4.3,3.4s3.7,1.3,6,1.3c1.5,0,2.9-0.2,4.4-0.5c1.4-0.3,2.8-0.8,4.2-1.4c1.3-0.6,2.6-1.2,3.8-2
		c1.1-0.7,2.1-1.4,3.1-2c0,0.3,0.1,0.7,0.1,1c0.1,0.9,0.3,1.7,0.7,2.5c0.3,0.7,0.8,1.3,1.4,1.7c0.6,0.4,1.4,0.6,2.4,0.6
		c0.8,0,1.5-0.2,2.1-0.6c0.6-0.3,1.1-1.1,1.7-2.1l9.7-19.2h0.6c-0.3,2-0.5,3.9-0.7,5.6s-0.3,3.3-0.3,4.8c0,3.8,0.5,6.6,1.4,8.6
		c0.9,2,2.1,2.9,3.4,2.9s2.6-0.2,3.9-0.6c0.5-0.1,1.7-0.6,3.6-1.5c0.8-0.3,2.7-1.3,5.9-3c2.2-1.2,3.3-1.8,3.5-1.9l1.8-1.4l0-8.3
		C499.4,148.6,497.1,150.2,495.1,151.4z M188.9,132.2c-0.8,1.8-1.5,3.5-2.2,5c0.3-2.8,0.7-5.6,1.2-8.6c0.2-1.2,0.4-2.6,0.6-4
		c0.2-1.4,0.4-2.8,0.6-4.3c0.2-1.4,0.5-2.9,0.8-4.3c0.4-1.5,0.7-2.9,1.2-4.2c1.7-4,3.2-7,4.4-9.1c1.3-2.1,2.2-3.1,2.8-3.1
		c0.5,0,0.8,0.9,0.8,2.8c0,1.2-0.3,3.1-1,5.7s-1.7,5.7-3.2,9.5c-0.4,1.1-1,2.5-1.7,4c-0.7,1.6-1.4,3.3-2.2,5
		C190.5,128.6,189.7,130.4,188.9,132.2z M344.4,128.9c0.2-1.6,0.5-3.4,0.9-5.5c0.4-2.1,1.1-4.5,1.9-7.2c0.9-2.9,2.1-6,3.6-9.3
		c0.9-2,1.5-3.2,1.9-3.7c0.5-0.6,1.4-0.9,2.7-0.9c0.9,0,1.5,0.3,1.8,0.9c0.4,0.6,0.5,1.6,0.5,2.9c0,0.9-0.4,2.5-1.3,4.7
		c-0.9,2.2-2,4.4-3.2,6.8s-2.7,4.8-4.4,7.5c-1.7,2.7-3.3,5.4-4.9,8.2C344,132,344.2,130.5,344.4,128.9z M345.9,169.2
		c-0.1,1.4-0.3,2.7-0.5,3.8c-0.3,1.2-0.6,2.1-1.2,2.9c-0.5,0.8-1.2,1.1-2,1.1c-0.3,0-0.5-0.2-0.8-0.5c-0.3-0.3-0.5-1.1-0.7-2.2
		s-0.4-2.7-0.5-4.9s-0.2-5-0.2-8.6c0-0.5,0-1.2,0.1-2.1c0-0.9,0.1-1.8,0.2-2.8c0.1-1,0.2-2.3,0.3-3.9c0.1-1.6,0.2-2.8,0.3-3.6
		c0.1-0.8,0.2-1.6,0.3-2.1c0.1-0.6,0.2-0.8,0.3-0.8c0.3,0,0.6,0.3,1,1s0.8,1.5,1.4,2.4c0.6,0.9,1,2.3,1.3,4.1
		c0.3,1.8,0.5,3.5,0.6,4.9c0.1,1.5,0.2,2.8,0.2,4.1c0,1.3,0.1,2.3,0.1,3.2C346,166.4,346,167.8,345.9,169.2z M411.9,175.3
		c-0.2,1.3-0.3,2.3-0.4,3.2c-0.1,0.8-0.3,1.6-0.5,2.3c-0.4,1.3-0.7,2.4-1,3.2c-0.3,0.8-0.6,1.6-0.9,2.5c-0.3,0.8-0.6,1.5-0.9,1.9
		s-0.6,0.9-1,1.2c-0.4,0.4-0.8,0.6-1.3,0.8c-0.5,0.1-1,0.2-1.6,0.2c-1.6,0-2.1-1.2-1.3-3.5c1-2.8,2.3-5.6,4-8.3
		c1.7-2.7,3.4-4.7,5.1-5.9C412.1,173.2,412,174,411.9,175.3z M412.8,146.1c-0.1,2.1-0.6,4.3-1.4,6.4c-1.1,2.7-2.5,4-4.2,4
		c-1,0-1.7-0.5-2.3-1.5c-0.9-1.6-1.1-4-0.7-7.1c0.2-1.5,1.5-4.2,3.8-8.3c2.2-3.8,4.7-5.8,7.5-5.8L412.8,146.1z M440.7,144
		c0-0.7,0.3-1.7,0.7-2.8c0.4-1.2,0.8-2.1,1.1-2.9c0.3-0.8,0.7-1.5,1.2-2.1c0.5-0.6,1.1-1.1,1.9-1.5c0.8-0.4,1.7-0.6,2.7-0.6
		c0.6,0,1.1,0.3,1.5,1c0.4,0.7,0.6,1.6,0.6,2.7c0,0.8-0.4,1.7-1.3,2.9c-0.9,1.2-1.7,2.1-2.6,2.8s-1.9,1.3-2.9,1.7s-2,0.7-2.9,0.7
		C440.7,145.4,440.7,144.7,440.7,144z"/>
</g>
<g>
	<circle fill="none" stroke="#FFFF00" stroke-width="2" stroke-miterlimit="10" cx="482" cy="57.5" r="25"/>
	<line fill="none" stroke="#FFFF00" stroke-width="2" stroke-miterlimit="10" x1="493.7" y1="46.4" x2="470.3" y2="69.7"/>
	<line fill="none" stroke="#FFFF00" stroke-width="2" stroke-miterlimit="10" x1="493.7" y1="69.7" x2="470.3" y2="46.4"/>
</g>
</svg>
